<svg width="316" height="380" viewBox="0 0 316 380" fill="none" xmlns="http://www.w3.org/2000/svg">
<g opacity="0.3">
<path d="M262.439 195.497C262.492 195.497 262.543 195.511 262.589 195.538L262.593 195.54L314.926 225.961C314.969 225.988 315.005 226.025 315.03 226.07C315.056 226.117 315.07 226.17 315.069 226.224V226.231C315.069 226.287 315.055 226.343 315.027 226.392C315 226.44 314.961 226.48 314.914 226.509L249.516 264.525L249.49 264.539L249.467 264.557C249.427 264.587 249.38 264.604 249.332 264.613C249.292 264.61 249.252 264.6 249.217 264.579L249.209 264.574L196.878 234.106C196.832 234.077 196.793 234.037 196.766 233.988C196.738 233.94 196.722 233.885 196.72 233.829C196.721 233.776 196.735 233.723 196.762 233.677C196.789 233.629 196.828 233.589 196.875 233.562L262.286 195.54L262.29 195.538C262.335 195.511 262.387 195.497 262.439 195.497ZM262.2 196.366L198.396 233.451L197.651 233.883L198.396 234.316L249.11 263.798L249.362 263.944L249.613 263.798L313.418 226.713L314.162 226.281L313.418 225.849L262.703 196.366L262.451 196.221L262.2 196.366Z" fill="#AEF2BE" stroke="url(#paint0_linear_40_297)"/>
</g>
<path d="M248.85 53.5256L248.86 255.831L210.617 233.595L210.605 31.2892L248.85 53.5256Z" fill="#AEF2BE" stroke="url(#paint1_linear_40_297)"/>
<path opacity="0.2" d="M248.85 53.5256L248.86 255.831L210.617 233.595L210.605 31.2892L248.85 53.5256Z" fill="black" stroke="url(#paint2_linear_40_297)"/>
<path d="M301.183 225.993L249.861 255.832L249.85 53.5251L301.194 23.6862L301.183 225.993Z" fill="#AEF2BE" stroke="url(#paint3_linear_40_297)"/>
<path d="M300.699 22.8174L249.349 52.6592L211.1 30.42L262.45 0.578186L300.699 22.8174Z" fill="#AEF2BE" stroke="url(#paint4_linear_40_297)"/>
<path opacity="0.25" d="M300.699 22.8174L249.349 52.6592L211.1 30.42L262.45 0.578186L300.699 22.8174Z" fill="white" stroke="url(#paint5_linear_40_297)"/>
<path opacity="0.3" d="M249.838 53.7614L249.576 53.9196L249.599 54.2243C249.805 57.0704 249.931 83.9623 249.994 110.902C250.057 137.826 250.056 164.741 250.014 167.605V167.606C249.971 170.639 249.882 191.403 249.706 212.153C249.618 222.514 249.508 232.873 249.371 241.027C249.231 232.861 249.117 222.482 249.025 212.106C248.842 191.339 248.747 170.574 248.71 167.606C248.636 161.656 248.747 59.5554 249.162 53.656L249.184 53.3503L248.921 53.1921L238.455 46.9001L248.59 52.6003L248.833 52.737L249.078 52.6013L279.787 35.5525L249.838 53.7614Z" fill="white" stroke="url(#paint6_linear_40_297)"/>
<g opacity="0.3">
<path d="M164.329 252.586C164.381 252.586 164.433 252.6 164.479 252.627L164.481 252.629L216.803 283.098C216.849 283.125 216.889 283.165 216.916 283.213C216.943 283.259 216.957 283.311 216.958 283.365C216.956 283.421 216.941 283.477 216.913 283.525C216.885 283.573 216.846 283.612 216.8 283.641L151.429 321.641C151.387 321.658 151.343 321.665 151.299 321.66L151.272 321.657H151.245C151.189 321.656 151.134 321.641 151.085 321.613H151.086L98.7676 291.194C98.7215 291.165 98.683 291.125 98.6553 291.077C98.6274 291.028 98.6113 290.974 98.6094 290.918C98.6105 290.864 98.6249 290.811 98.6514 290.765C98.6788 290.718 98.7181 290.678 98.7646 290.651L164.176 252.629L164.18 252.627C164.225 252.6 164.277 252.586 164.329 252.586ZM164.077 253.406L100.272 290.49L99.5293 290.923L100.272 291.354L150.988 320.837L151.239 320.983L151.49 320.837L215.296 283.753L216.039 283.32L215.296 282.888L164.58 253.406L164.329 253.259L164.077 253.406Z" fill="#AEF2BE" stroke="url(#paint7_linear_40_297)"/>
</g>
<path d="M150.74 150.598V312.871L112.496 290.634V128.362L150.74 150.598Z" fill="#AEF2BE" stroke="url(#paint8_linear_40_297)"/>
<path opacity="0.1" d="M150.74 150.598V312.871L112.496 290.634V128.362L150.74 150.598Z" fill="white" stroke="url(#paint9_linear_40_297)"/>
<path d="M203.073 283.033L151.74 312.871V150.598L203.073 120.76V283.033Z" fill="#AEF2BE" stroke="url(#paint10_linear_40_297)"/>
<path opacity="0.3" d="M203.073 283.033L151.74 312.871V150.598L203.073 120.76V283.033Z" fill="white" stroke="url(#paint11_linear_40_297)"/>
<path d="M202.578 119.891L151.239 149.733L112.99 127.492L164.329 97.6634L202.578 119.891Z" fill="#AEF2BE" stroke="url(#paint12_linear_40_297)"/>
<path opacity="0.55" d="M202.578 119.891L151.239 149.733L112.99 127.492L164.329 97.6634L202.578 119.891Z" fill="white" stroke="url(#paint13_linear_40_297)"/>
<path opacity="0.3" d="M151.682 150.289L151.431 150.44L151.438 150.733C151.524 153.696 151.451 192.868 151.306 232.095C151.287 237.192 151.265 242.288 151.244 247.305C151.06 203.701 150.95 154.13 151.054 150.647L151.062 150.352L150.809 150.202C147.07 147.986 143.342 145.743 139.616 143.495C143.446 145.642 147.336 147.828 150.992 149.918L151.238 150.06L151.486 149.919L166.902 141.194L151.682 150.289Z" fill="white" stroke="url(#paint14_linear_40_297)"/>
<g opacity="0.3">
<path d="M66.207 309.625C66.2593 309.625 66.311 309.639 66.3564 309.666L66.3604 309.668L118.693 340.088C118.737 340.115 118.773 340.153 118.799 340.198C118.825 340.245 118.838 340.298 118.837 340.352V340.358C118.837 340.415 118.823 340.471 118.796 340.52C118.769 340.568 118.73 340.606 118.685 340.635L53.2832 378.652C53.2352 378.68 53.1817 378.694 53.127 378.695C53.0751 378.694 53.0237 378.681 52.9785 378.654L52.9766 378.652L0.654297 348.238C0.608032 348.21 0.569065 348.17 0.541992 348.121C0.514818 348.072 0.500175 348.017 0.5 347.961V347.954L0.509766 347.874C0.516278 347.848 0.526084 347.823 0.539062 347.8C0.565032 347.753 0.601759 347.714 0.646484 347.688L66.0537 309.668L66.0576 309.666C66.103 309.639 66.1548 309.625 66.207 309.625ZM65.9561 310.445L2.16309 347.529L1.41992 347.962L2.16309 348.394L52.8789 377.876L53.1299 378.023L53.3818 377.876L117.113 340.792L117.855 340.359L117.113 339.928L66.459 310.445L66.207 310.299L65.9561 310.445Z" fill="#AEF2BE" stroke="url(#paint15_linear_40_297)"/>
</g>
<path d="M52.6182 261.036L52.6289 369.91L14.3857 347.674L14.374 238.8L52.6182 261.036Z" fill="#AEF2BE" stroke="url(#paint16_linear_40_297)"/>
<path opacity="0.45" d="M52.6182 261.036L52.6289 369.91L14.3857 347.674L14.374 238.8L52.6182 261.036Z" fill="black" stroke="url(#paint17_linear_40_297)"/>
<path d="M104.951 340.072L53.6299 369.91L53.6182 261.036L104.963 231.197L104.951 340.072Z" fill="#AEF2BE" stroke="url(#paint18_linear_40_297)"/>
<path opacity="0.3" d="M104.951 340.072L53.6299 369.91L53.6182 261.036L104.963 231.197L104.951 340.072Z" fill="black" stroke="url(#paint19_linear_40_297)"/>
<path d="M104.468 230.328L53.1172 260.17L14.8682 237.931L66.2188 208.089L104.468 230.328Z" fill="#AEF2BE" stroke="url(#paint20_linear_40_297)"/>
<path opacity="0.15" d="M104.468 230.328L53.1172 260.17L14.8682 237.931L66.2188 208.089L104.468 230.328Z" fill="black" stroke="url(#paint21_linear_40_297)"/>
<path opacity="0.3" d="M53.6299 261.284L53.3896 261.431V261.712H53.8896C53.402 261.712 53.3899 261.712 53.3896 261.713V266.248C53.3888 269.137 53.3868 273.269 53.3818 278.238C53.3719 288.177 53.3506 301.468 53.3047 314.874C53.2673 325.786 53.2107 336.774 53.1338 346.094C53.0599 336.767 53.0083 325.769 52.9746 314.849C52.9332 301.442 52.9167 288.151 52.9102 278.213C52.9069 273.244 52.9061 269.112 52.9062 266.223C52.9063 264.778 52.906 263.645 52.9062 262.872C52.9064 262.486 52.9071 262.19 52.9072 261.99V261.688C52.907 261.688 52.8955 261.688 52.4072 261.687H52.9072V261.412L52.6748 261.265L38.9863 252.582L52.873 260.383L53.1191 260.521L53.3643 260.382L78.2861 246.28L53.6299 261.284Z" fill="white" stroke="url(#paint22_linear_40_297)"/>
<defs>
<linearGradient id="paint0_linear_40_297" x1="255.894" y1="194.997" x2="255.894" y2="265.118" gradientUnits="userSpaceOnUse">
<stop stop-color="#AEF2BE"/>
<stop offset="1" stop-color="#1F3328"/>
</linearGradient>
<linearGradient id="paint1_linear_40_297" x1="229.734" y1="30.4201" x2="229.734" y2="256.701" gradientUnits="userSpaceOnUse">
<stop stop-color="#AEF2BE"/>
<stop offset="1" stop-color="#1F3328"/>
</linearGradient>
<linearGradient id="paint2_linear_40_297" x1="229.734" y1="30.4201" x2="229.734" y2="256.701" gradientUnits="userSpaceOnUse">
<stop stop-color="#AEF2BE"/>
<stop offset="1" stop-color="#1F3328"/>
</linearGradient>
<linearGradient id="paint3_linear_40_297" x1="275.522" y1="22.8181" x2="275.522" y2="256.701" gradientUnits="userSpaceOnUse">
<stop stop-color="#AEF2BE"/>
<stop offset="1" stop-color="#1F3328"/>
</linearGradient>
<linearGradient id="paint4_linear_40_297" x1="255.9" y1="6.10352e-05" x2="255.9" y2="53.2383" gradientUnits="userSpaceOnUse">
<stop stop-color="#AEF2BE"/>
<stop offset="1" stop-color="#1F3328"/>
</linearGradient>
<linearGradient id="paint5_linear_40_297" x1="255.9" y1="6.10352e-05" x2="255.9" y2="53.2383" gradientUnits="userSpaceOnUse">
<stop stop-color="#AEF2BE"/>
<stop offset="1" stop-color="#1F3328"/>
</linearGradient>
<linearGradient id="paint6_linear_40_297" x1="255.907" y1="22.8181" x2="255.907" y2="256.701" gradientUnits="userSpaceOnUse">
<stop stop-color="#AEF2BE"/>
<stop offset="1" stop-color="#1F3328"/>
</linearGradient>
<linearGradient id="paint7_linear_40_297" x1="157.784" y1="252.086" x2="157.784" y2="322.162" gradientUnits="userSpaceOnUse">
<stop stop-color="#AEF2BE"/>
<stop offset="1" stop-color="#1F3328"/>
</linearGradient>
<linearGradient id="paint8_linear_40_297" x1="131.618" y1="127.493" x2="131.618" y2="313.74" gradientUnits="userSpaceOnUse">
<stop stop-color="#AEF2BE"/>
<stop offset="1" stop-color="#1F3328"/>
</linearGradient>
<linearGradient id="paint9_linear_40_297" x1="131.618" y1="127.493" x2="131.618" y2="313.74" gradientUnits="userSpaceOnUse">
<stop stop-color="#AEF2BE"/>
<stop offset="1" stop-color="#1F3328"/>
</linearGradient>
<linearGradient id="paint10_linear_40_297" x1="177.407" y1="119.891" x2="177.407" y2="313.74" gradientUnits="userSpaceOnUse">
<stop stop-color="#AEF2BE"/>
<stop offset="1" stop-color="#1F3328"/>
</linearGradient>
<linearGradient id="paint11_linear_40_297" x1="177.407" y1="119.891" x2="177.407" y2="313.74" gradientUnits="userSpaceOnUse">
<stop stop-color="#AEF2BE"/>
<stop offset="1" stop-color="#1F3328"/>
</linearGradient>
<linearGradient id="paint12_linear_40_297" x1="157.785" y1="97.0852" x2="157.785" y2="150.311" gradientUnits="userSpaceOnUse">
<stop stop-color="#AEF2BE"/>
<stop offset="1" stop-color="#1F3328"/>
</linearGradient>
<linearGradient id="paint13_linear_40_297" x1="157.785" y1="97.0852" x2="157.785" y2="150.311" gradientUnits="userSpaceOnUse">
<stop stop-color="#AEF2BE"/>
<stop offset="1" stop-color="#1F3328"/>
</linearGradient>
<linearGradient id="paint14_linear_40_297" x1="157.785" y1="119.866" x2="157.785" y2="313.679" gradientUnits="userSpaceOnUse">
<stop stop-color="#AEF2BE"/>
<stop offset="1" stop-color="#1F3328"/>
</linearGradient>
<linearGradient id="paint15_linear_40_297" x1="59.6687" y1="309.125" x2="59.6687" y2="379.196" gradientUnits="userSpaceOnUse">
<stop stop-color="#AEF2BE"/>
<stop offset="1" stop-color="#1F3328"/>
</linearGradient>
<linearGradient id="paint16_linear_40_297" x1="33.5021" y1="237.931" x2="33.5021" y2="370.78" gradientUnits="userSpaceOnUse">
<stop stop-color="#AEF2BE"/>
<stop offset="1" stop-color="#1F3328"/>
</linearGradient>
<linearGradient id="paint17_linear_40_297" x1="33.5021" y1="237.931" x2="33.5021" y2="370.78" gradientUnits="userSpaceOnUse">
<stop stop-color="#AEF2BE"/>
<stop offset="1" stop-color="#1F3328"/>
</linearGradient>
<linearGradient id="paint18_linear_40_297" x1="79.291" y1="230.329" x2="79.291" y2="370.78" gradientUnits="userSpaceOnUse">
<stop stop-color="#AEF2BE"/>
<stop offset="1" stop-color="#1F3328"/>
</linearGradient>
<linearGradient id="paint19_linear_40_297" x1="79.291" y1="230.329" x2="79.291" y2="370.78" gradientUnits="userSpaceOnUse">
<stop stop-color="#AEF2BE"/>
<stop offset="1" stop-color="#1F3328"/>
</linearGradient>
<linearGradient id="paint20_linear_40_297" x1="59.6688" y1="207.511" x2="59.6688" y2="260.749" gradientUnits="userSpaceOnUse">
<stop stop-color="#AEF2BE"/>
<stop offset="1" stop-color="#1F3328"/>
</linearGradient>
<linearGradient id="paint21_linear_40_297" x1="59.6688" y1="207.511" x2="59.6688" y2="260.749" gradientUnits="userSpaceOnUse">
<stop stop-color="#AEF2BE"/>
<stop offset="1" stop-color="#1F3328"/>
</linearGradient>
<linearGradient id="paint22_linear_40_297" x1="59.6688" y1="230.329" x2="59.6688" y2="370.817" gradientUnits="userSpaceOnUse">
<stop stop-color="#AEF2BE"/>
<stop offset="1" stop-color="#1F3328"/>
</linearGradient>
</defs>
</svg>
