<svg width="128" height="169" viewBox="0 0 128 169" fill="none" xmlns="http://www.w3.org/2000/svg">
<path d="M92.2563 152.741L74.9733 162.579C73.6302 163.347 72.1096 163.752 70.5621 163.752C69.0146 163.752 67.4939 163.347 66.1509 162.579L55.0645 156.16L53.8042 155.431C52.4904 154.672 51.3993 153.58 50.6404 152.267C49.8815 150.953 49.4815 149.462 49.4805 147.945V116.028L75.4226 101.26V133.836C75.4219 135.146 75.7661 136.433 76.4206 137.568C77.0751 138.703 78.0168 139.645 79.1511 140.301L92.268 147.886C92.6955 148.132 93.0505 148.486 93.297 148.913C93.5435 149.34 93.6727 149.824 93.6716 150.317C93.6704 150.81 93.5388 151.294 93.2903 151.72C93.0417 152.145 92.685 152.498 92.2563 152.741Z" fill="#263238"/>
<path d="M71.2734 163.699C72.5752 163.601 73.8388 163.214 74.9728 162.567L92.2558 152.741C92.6826 152.496 93.0371 152.143 93.2837 151.718C93.5303 151.292 93.6601 150.809 93.6601 150.317C93.6601 149.825 93.5303 149.342 93.2837 148.916C93.0371 148.49 92.6826 148.137 92.2558 147.892L83.2992 142.717H71.2734V163.699Z" fill="#37474F"/>
<path d="M91.9647 145.739L92.4432 146.118C92.829 146.427 93.1405 146.819 93.3547 147.264C93.5688 147.71 93.68 148.197 93.6802 148.692V150.308H91.9297L91.9647 145.739Z" fill="#37474F"/>
<path d="M77.4182 103.728V133.037C77.4149 134.309 77.7471 135.56 78.3812 136.663C79.0153 137.766 79.9289 138.683 81.03 139.321L91.9646 145.739C92.3727 145.977 92.7112 146.318 92.9465 146.727C93.1818 147.137 93.3057 147.601 93.3057 148.073C93.3057 148.545 93.1818 149.009 92.9465 149.419C92.7112 149.829 92.3727 150.169 91.9646 150.407L90.7218 151.113L75.2301 159.936C73.9281 160.675 72.4553 161.062 70.9579 161.057C69.4605 161.051 67.9904 160.655 66.6936 159.906L55.9456 153.564C54.8415 152.937 53.9219 152.031 53.2797 150.936C52.6374 149.841 52.295 148.596 52.2871 147.326V118.017L77.4182 103.728Z" fill="#455A64"/>
<path d="M77.4183 133.037V103.728L52.3281 118.017V147.326C52.3272 148.595 52.6606 149.842 53.2947 150.941C53.9287 152.04 54.8411 152.953 55.9399 153.587L80.6859 139.064C79.6846 138.409 78.8618 137.515 78.2914 136.463C77.7211 135.411 77.4211 134.233 77.4183 133.037Z" fill="#263238"/>
<path d="M9.27754 162.34L6.87938 163.728V168.11C5.34003 168.111 3.82937 167.694 2.50902 166.902L2.3223 166.792C1.77276 166.465 1.29536 166.031 0.919182 165.514C0.543006 164.998 0.275924 164.41 0.134205 163.787C0.0471294 163.519 0.00186061 163.24 0 162.958V156.989L9.27754 162.34Z" fill="#263238"/>
<path d="M113.431 1.31885L113.244 1.20216C111.926 0.417814 110.42 0.00264668 108.886 0.000162287C108.394 -0.00523097 107.909 0.123894 107.485 0.373597L4.2071 59.7673C2.93741 60.5011 1.88302 61.5558 1.14973 62.8258C0.416439 64.0957 0.0300395 65.5362 0.0292969 67.0026V156.989L9.301 162.34L107.421 105.933C108.691 105.2 109.745 104.145 110.479 102.875C111.212 101.605 111.598 100.164 111.599 98.698V5.39163H115.771C115.769 4.56795 115.552 3.7591 115.141 3.04489C114.731 2.33067 114.142 1.73577 113.431 1.31885Z" fill="#37474F"/>
<path d="M0.892743 63.2566C0.308161 64.4189 0.00249702 65.7015 0 67.0026V156.989L9.27754 162.339L12.7493 160.338V70.5969L0.892743 63.2566Z" fill="#263238"/>
<path d="M4.17773 159.399V165.368C4.17994 165.845 4.30694 166.314 4.54613 166.727C4.78533 167.14 5.12841 167.483 5.54129 167.722C5.95418 167.962 6.42252 168.089 6.89982 168.092C7.37712 168.094 7.84679 167.972 8.26218 167.737L111.54 108.343C112.81 107.609 113.864 106.555 114.598 105.285C115.331 104.015 115.717 102.574 115.718 101.108V94.9753L4.17773 159.399Z" fill="#37474F"/>
<path d="M115.748 5.15236C115.745 4.67506 115.618 4.20663 115.379 3.79358C115.14 3.38054 114.797 3.03724 114.384 2.79776C113.971 2.55829 113.503 2.43097 113.025 2.42844C112.548 2.42592 112.078 2.54828 111.663 2.78338L8.38484 62.1771C7.11515 62.9109 6.06076 63.9656 5.32747 65.2356C4.59418 66.5055 4.20777 67.946 4.20703 69.4124V159.399L115.748 94.9753" fill="#455A64"/>
<path d="M109.761 9.2952C109.289 9.29208 108.823 9.40002 108.401 9.61028L11.3078 65.4155C10.1813 66.0652 9.24649 67.0009 8.5979 68.128C7.94931 69.2551 7.61 70.5336 7.6143 71.834V148.476C7.61456 148.807 7.68206 149.134 7.81268 149.438C7.94867 149.751 8.14921 150.032 8.40116 150.262C8.65311 150.492 8.9508 150.666 9.27471 150.773C9.59862 150.88 9.94146 150.917 10.2808 150.882C10.6201 150.847 10.9482 150.741 11.2436 150.57L108.302 94.7652C109.427 94.1144 110.36 93.1782 111.008 92.0513C111.655 90.9243 111.994 89.6465 111.99 88.3468V11.705C111.99 11.0964 111.76 10.5101 111.347 10.0634C110.934 9.61657 110.367 9.34224 109.761 9.2952Z" fill="#AEF2BE"/>
<path opacity="0.4" d="M109.761 9.2952C109.289 9.29208 108.823 9.40002 108.401 9.61028L11.3078 65.4155C10.1813 66.0652 9.24649 67.0009 8.5979 68.128C7.94931 69.2551 7.61 70.5336 7.6143 71.834V148.476C7.61456 148.807 7.68206 149.134 7.81268 149.438C7.94867 149.751 8.14921 150.032 8.40116 150.262C8.65311 150.492 8.9508 150.666 9.27471 150.773C9.59862 150.88 9.94146 150.917 10.2808 150.882C10.6201 150.847 10.9482 150.741 11.2436 150.57L108.302 94.7652C109.427 94.1144 110.36 93.1782 111.008 92.0513C111.655 90.9243 111.994 89.6465 111.99 88.3468V11.705C111.99 11.0964 111.76 10.5101 111.347 10.0634C110.934 9.61657 110.367 9.34224 109.761 9.2952Z" fill="white"/>
<path d="M14.5869 72.174V158.21C14.5869 159.587 15.0946 160.515 15.8706 160.824L19.1673 162.633V159.715L19.64 71.2637L15.328 69.0873C14.8628 70.0513 14.6101 71.1039 14.5869 72.174Z" fill="#E0E0E0"/>
<path d="M15.3281 69.0757L19.6401 71.2521L123.957 10.0729L126.443 8.63164L123.006 6.69444L122.913 6.63609C122.588 6.47046 122.225 6.39702 121.861 6.42377C121.498 6.45052 121.149 6.57644 120.853 6.7878L17.7204 66.2457C16.6586 66.9293 15.8255 67.9149 15.3281 69.0757Z" fill="#F0F0F0"/>
<path d="M18.3037 74.0471V159.517C18.3037 160.684 18.683 161.559 19.2898 161.956L19.4824 162.067C19.7932 162.189 20.1294 162.233 20.4612 162.194C20.793 162.156 21.1102 162.036 21.3846 161.845L123.957 102.761C125.661 101.775 127.043 99.1373 127.043 96.8675V11.4033C127.043 10.2363 126.688 9.41941 126.122 9.00513C126.026 8.93127 125.92 8.87226 125.806 8.83008C125.501 8.72105 125.174 8.68641 124.852 8.72903C124.53 8.77164 124.223 8.89029 123.957 9.07515L21.4079 68.1596C20.4059 68.8121 19.6137 69.7401 19.1264 70.832C18.6155 71.8288 18.3344 72.9274 18.3037 74.0471Z" fill="white"/>
<path d="M113.238 66.31L64.3999 94.5218C64.1531 94.6657 63.8726 94.7419 63.5869 94.7425C63.3012 94.7432 63.0204 94.6684 62.7728 94.5257C62.5253 94.383 62.3199 94.1774 62.1773 93.9298C62.0347 93.6822 61.9601 93.4013 61.9609 93.1156V66.9751C61.9614 65.6391 62.3131 64.3266 62.9809 63.1693C63.6486 62.0121 64.6088 61.0507 65.7653 60.3817L113.483 32.8291C113.838 32.6244 114.24 32.5166 114.65 32.5164C115.059 32.5163 115.462 32.624 115.816 32.8285C116.171 33.0331 116.466 33.3274 116.671 33.6819C116.876 34.0364 116.984 34.4385 116.984 34.848V59.8507C116.982 61.1614 116.634 62.4483 115.976 63.5821C115.319 64.7159 114.375 65.6567 113.238 66.31Z" fill="#AEF2BE"/>
<path d="M69.6864 109.36L63.6531 112.861C62.597 113.474 61.7393 112.826 61.7393 111.414V105.118C61.7501 104.4 61.9288 103.695 62.2611 103.059C62.5935 102.422 63.0702 101.873 63.6531 101.454L69.6864 97.9527C70.7425 97.34 71.6003 97.9877 71.6003 99.3997V105.678C71.5936 106.399 71.4168 107.108 71.0842 107.748C70.7516 108.388 70.2727 108.94 69.6864 109.36Z" fill="#AEF2BE"/>
<path d="M84.4022 100.911L78.3689 104.412C77.3128 104.995 76.4551 104.377 76.4551 102.965V96.669C76.4654 95.952 76.644 95.2473 76.9764 94.6119C77.3088 93.9765 77.7858 93.4279 78.3689 93.0105L84.4022 89.5096C85.4584 88.9261 86.3161 89.5446 86.3161 90.9566V97.235C86.3085 97.9551 86.1312 98.6631 85.7987 99.3018C85.4662 99.9405 84.9878 100.492 84.4022 100.911Z" fill="#AEF2BE"/>
<path d="M99.5497 92.1587L93.5164 95.6596C92.4603 96.2431 91.6025 95.6246 91.6025 94.2126V87.9109C91.6143 87.1941 91.7934 86.4899 92.1257 85.8547C92.458 85.2195 92.9343 84.6708 93.5164 84.2524L99.5497 80.7514C100.606 80.1679 101.464 80.7922 101.464 82.2043V88.4827C101.456 89.2027 101.279 89.9108 100.946 90.5495C100.614 91.1882 100.135 91.7395 99.5497 92.1587Z" fill="#AEF2BE"/>
<path d="M114.703 83.4062L108.67 86.9072C107.614 87.4907 106.756 86.8664 106.756 85.4601V79.1584C106.768 78.4416 106.947 77.7375 107.279 77.1023C107.611 76.467 108.088 75.9183 108.67 75.4999L114.703 71.999C115.759 71.4155 116.617 72.0398 116.617 73.446V79.7302C116.609 80.4502 116.431 81.1581 116.099 81.7968C115.766 82.4354 115.288 82.9867 114.703 83.4062Z" fill="#AEF2BE"/>
<path d="M69.6864 125.984L63.6531 129.485C62.597 130.068 61.7393 129.444 61.7393 128.038V121.736C61.7501 121.019 61.9288 120.314 62.2612 119.679C62.5936 119.044 63.0703 118.495 63.6531 118.077L69.6864 114.576C70.7425 113.964 71.6003 114.617 71.6003 116.023V122.308C71.5913 123.027 71.4134 123.735 71.081 124.374C70.7486 125.012 70.2709 125.564 69.6864 125.984Z" fill="#AEF2BE"/>
<path d="M84.4022 117.535L78.3689 121.036C77.3128 121.648 76.4551 120.995 76.4551 119.589V113.287C76.4668 112.57 76.646 111.866 76.9783 111.231C77.3106 110.596 77.7868 110.047 78.3689 109.628L84.4022 106.127C85.4584 105.544 86.3161 106.168 86.3161 107.575V113.876C86.3053 114.593 86.1265 115.298 85.7942 115.933C85.4618 116.568 84.9851 117.117 84.4022 117.535Z" fill="#AEF2BE"/>
<path d="M99.5497 108.782L93.5164 112.283C92.4603 112.867 91.6025 112.242 91.6025 110.836V104.534C91.6133 103.818 91.7921 103.113 92.1245 102.478C92.4569 101.842 92.9336 101.294 93.5164 100.876L99.5497 97.375C100.606 96.7624 101.464 97.4101 101.464 98.8221V105.124C101.452 105.841 101.273 106.545 100.94 107.18C100.608 107.815 100.132 108.364 99.5497 108.782Z" fill="#AEF2BE"/>
<path d="M114.703 100.024L108.67 103.525C107.614 104.138 106.756 103.49 106.756 102.078V95.7821C106.766 95.0651 106.945 94.3604 107.277 93.725C107.61 93.0895 108.087 92.541 108.67 92.1236L114.703 88.6227C115.759 88.01 116.617 88.6577 116.617 90.0697V96.3481C116.609 97.0681 116.432 97.7762 116.099 98.4149C115.767 99.0536 115.289 99.6049 114.703 100.024Z" fill="#AEF2BE"/>
<g opacity="0.7">
<path d="M113.238 66.3101L64.3999 94.522C64.1531 94.6658 63.8726 94.742 63.5869 94.7427C63.3012 94.7433 63.0204 94.6685 62.7728 94.5258C62.5253 94.3831 62.3199 94.1776 62.1773 93.9299C62.0347 93.6823 61.9601 93.4015 61.9609 93.1157V66.9753C61.9614 65.6392 62.3131 64.3267 62.9809 63.1695C63.6486 62.0122 64.6088 61.0509 65.7653 60.3818L113.483 32.8293C113.838 32.6245 114.24 32.5167 114.65 32.5166C115.059 32.5165 115.462 32.6241 115.816 32.8287C116.171 33.0332 116.466 33.3275 116.671 33.682C116.876 34.0365 116.984 34.4387 116.984 34.8482V59.8508C116.982 61.1615 116.634 62.4484 115.976 63.5822C115.319 64.716 114.375 65.6568 113.238 66.3101Z" fill="white"/>
<path d="M69.6864 109.36L63.6531 112.861C62.597 113.474 61.7393 112.826 61.7393 111.414V105.118C61.7501 104.4 61.9288 103.695 62.2611 103.059C62.5935 102.423 63.0702 101.873 63.6531 101.454L69.6864 97.9529C70.7425 97.3403 71.6003 97.988 71.6003 99.4V105.678C71.5936 106.399 71.4168 107.109 71.0842 107.748C70.7516 108.388 70.2727 108.94 69.6864 109.36Z" fill="white"/>
<path d="M84.4022 100.911L78.3689 104.412C77.3128 104.996 76.4551 104.377 76.4551 102.965V96.6693C76.4654 95.9522 76.644 95.2476 76.9764 94.6122C77.3088 93.9767 77.7858 93.4282 78.3689 93.0108L84.4022 89.5098C85.4584 88.9263 86.3161 89.5448 86.3161 90.9569V97.2353C86.3085 97.9553 86.1312 98.6634 85.7987 99.3021C85.4662 99.9408 84.9878 100.492 84.4022 100.911Z" fill="white"/>
<path d="M99.5497 92.1588L93.5164 95.6598C92.4603 96.2433 91.6025 95.6248 91.6025 94.2127V87.911C91.6143 87.1942 91.7934 86.4901 92.1257 85.8548C92.458 85.2196 92.9343 84.6709 93.5164 84.2525L99.5497 80.7515C100.606 80.168 101.464 80.7924 101.464 82.2044V88.4828C101.456 89.2028 101.279 89.9109 100.946 90.5496C100.614 91.1883 100.135 91.7396 99.5497 92.1588Z" fill="white"/>
<path d="M114.703 83.4064L108.67 86.9073C107.614 87.4908 106.756 86.8665 106.756 85.4603V79.1585C106.768 78.4417 106.947 77.7376 107.279 77.1024C107.611 76.4672 108.088 75.9184 108.67 75.5L114.703 71.9991C115.759 71.4156 116.617 72.0399 116.617 73.4461V79.7304C116.609 80.4503 116.431 81.1583 116.099 81.7969C115.766 82.4355 115.288 82.9869 114.703 83.4064Z" fill="white"/>
<path d="M69.6864 125.984L63.6531 129.485C62.597 130.068 61.7393 129.444 61.7393 128.038V121.736C61.7501 121.019 61.9288 120.315 62.2612 119.679C62.5936 119.044 63.0703 118.495 63.6531 118.078L69.6864 114.577C70.7425 113.964 71.6003 114.617 71.6003 116.024V122.308C71.5913 123.028 71.4134 123.735 71.081 124.374C70.7486 125.012 70.2709 125.564 69.6864 125.984Z" fill="white"/>
<path d="M84.4022 117.535L78.3689 121.036C77.3128 121.648 76.4551 120.995 76.4551 119.589V113.287C76.4668 112.57 76.646 111.866 76.9783 111.231C77.3106 110.596 77.7868 110.047 78.3689 109.629L84.4022 106.128C85.4584 105.544 86.3161 106.168 86.3161 107.575V113.876C86.3053 114.593 86.1265 115.298 85.7942 115.933C85.4618 116.569 84.9851 117.117 84.4022 117.535Z" fill="white"/>
<path d="M99.5497 108.783L93.5164 112.284C92.4603 112.867 91.6025 112.243 91.6025 110.836V104.535C91.6133 103.818 91.7921 103.113 92.1245 102.478C92.4569 101.843 92.9336 101.294 93.5164 100.876L99.5497 97.3753C100.606 96.7626 101.464 97.4103 101.464 98.8223V105.124C101.452 105.841 101.273 106.545 100.94 107.18C100.608 107.815 100.132 108.364 99.5497 108.783Z" fill="white"/>
<path d="M114.703 100.024L108.67 103.525C107.614 104.138 106.756 103.49 106.756 102.078V95.7824C106.766 95.0653 106.945 94.3607 107.277 93.7252C107.61 93.0898 108.087 92.5413 108.67 92.1239L114.703 88.6229C115.759 88.0102 116.617 88.6579 116.617 90.07V96.3483C116.609 97.0684 116.432 97.7765 116.099 98.4152C115.767 99.0539 115.289 99.6052 114.703 100.024Z" fill="white"/>
</g>
<path d="M52.5902 143.973L21.2217 162.073C20.9145 162.252 20.5655 162.346 20.2101 162.347C19.8547 162.347 19.5054 162.254 19.1975 162.076C18.8896 161.899 18.6341 161.643 18.4568 161.335C18.2794 161.027 18.1865 160.678 18.1875 160.322V76.0076L52.5727 56.1689L52.5902 143.973Z" fill="#AEF2BE"/>
<path opacity="0.7" d="M52.5902 143.973L21.2217 162.073C20.9145 162.252 20.5655 162.346 20.2101 162.347C19.8547 162.347 19.5054 162.254 19.1975 162.076C18.8896 161.899 18.6341 161.643 18.4568 161.335C18.2794 161.027 18.1865 160.678 18.1875 160.322V76.0076L52.5727 56.1689L52.5902 143.973Z" fill="white"/>
<path d="M27.692 81.574C27.6428 82.393 27.4023 83.1891 26.9899 83.8984C26.5775 84.6077 26.0046 85.2105 25.3172 85.6585C24.0102 86.417 22.9482 85.8043 22.9482 84.2931C22.9968 83.4746 23.2364 82.6789 23.6478 81.9696C24.0592 81.2603 24.6309 80.6572 25.3172 80.2086C26.6301 79.4501 27.692 80.0919 27.692 81.574Z" fill="#FAFAFA"/>
<path d="M27.692 90.6591C27.6428 91.4781 27.4023 92.2742 26.9899 92.9835C26.5775 93.6928 26.0046 94.2956 25.3172 94.7436C24.0102 95.5021 22.9482 94.8894 22.9482 93.3782C22.9924 92.5547 23.2298 91.7531 23.6414 91.0384C24.053 90.3237 24.6271 89.7161 25.3172 89.2646C26.6301 88.5352 27.692 89.1479 27.692 90.6591Z" fill="#FAFAFA"/>
<path d="M27.692 99.7441C27.6428 100.563 27.4023 101.359 26.9899 102.068C26.5775 102.778 26.0046 103.381 25.3172 103.829C24.0102 104.587 22.9482 103.974 22.9482 102.457C22.9968 101.639 23.2364 100.843 23.6478 100.134C24.0592 99.4246 24.6309 98.8215 25.3172 98.3729C26.6301 97.5968 27.692 98.2328 27.692 99.7441Z" fill="#FAFAFA"/>
<path d="M27.692 108.829C27.6428 109.648 27.4023 110.444 26.9899 111.153C26.5775 111.863 26.0046 112.466 25.3172 112.913C24.0102 113.672 22.9482 113.054 22.9482 111.542C22.9968 110.724 23.2364 109.928 23.6478 109.219C24.0592 108.51 24.6309 107.906 25.3172 107.458C26.6301 106.699 27.692 107.312 27.692 108.829Z" fill="#FAFAFA"/>
<path d="M32.9782 79.386C32.7878 79.3883 32.6021 79.3271 32.4503 79.2122C32.2985 79.0972 32.1893 78.9351 32.1398 78.7512C32.0903 78.5674 32.1034 78.3723 32.1771 78.1967C32.2507 78.0211 32.3806 77.875 32.5464 77.7814L46.4452 69.7584C46.6425 69.6446 46.8769 69.6139 47.0969 69.673C47.3168 69.7321 47.5043 69.8762 47.618 70.0735C47.7318 70.2708 47.7625 70.5052 47.7034 70.7251C47.6443 70.9451 47.5003 71.1325 47.303 71.2463L33.4042 79.2693C33.2746 79.3442 33.1279 79.3844 32.9782 79.386Z" fill="#FAFAFA"/>
<path d="M32.9782 88.4709C32.7878 88.4732 32.6021 88.412 32.4503 88.2971C32.2985 88.1822 32.1893 88.02 32.1398 87.8361C32.0903 87.6523 32.1034 87.4572 32.1771 87.2816C32.2507 87.106 32.3806 86.9599 32.5464 86.8663L46.4452 78.8375C46.6423 78.7268 46.8749 78.6979 47.093 78.7568C47.3112 78.8157 47.4976 78.9578 47.6122 79.1525C47.6685 79.2498 47.705 79.3572 47.7197 79.4686C47.7343 79.5799 47.7268 79.6931 47.6975 79.8016C47.6682 79.9101 47.6178 80.0117 47.549 80.1006C47.4803 80.1895 47.3947 80.2639 47.2971 80.3195L33.3983 88.3484C33.271 88.4244 33.1264 88.4666 32.9782 88.4709Z" fill="#FAFAFA"/>
<path d="M32.9787 97.5501C32.7902 97.5501 32.6069 97.488 32.4573 97.3733C32.3076 97.2587 32.1999 97.098 32.1508 96.916C32.1016 96.734 32.1138 96.5409 32.1854 96.3666C32.257 96.1922 32.384 96.0463 32.5469 95.9513L46.4457 87.9225C46.6427 87.8119 46.8753 87.7829 47.0935 87.8418C47.3117 87.9007 47.4981 88.0428 47.6127 88.2376C47.669 88.3348 47.7055 88.4422 47.7202 88.5536C47.7348 88.665 47.7272 88.7782 47.698 88.8866C47.6687 88.9951 47.6182 89.0967 47.5495 89.1856C47.4808 89.2745 47.3952 89.3489 47.2976 89.4046L33.3988 97.4334C33.2711 97.5079 33.1264 97.5481 32.9787 97.5501Z" fill="#FAFAFA"/>
<path d="M32.9782 106.635C32.7878 106.637 32.6021 106.576 32.4503 106.461C32.2985 106.346 32.1893 106.184 32.1398 106C32.0903 105.816 32.1034 105.621 32.1771 105.446C32.2507 105.27 32.3806 105.124 32.5464 105.031L46.4452 97.0133C46.6423 96.9027 46.8749 96.8738 47.093 96.9327C47.3112 96.9916 47.4976 97.1336 47.6122 97.3284C47.6685 97.4256 47.705 97.533 47.7197 97.6444C47.7343 97.7558 47.7268 97.869 47.6975 97.9775C47.6682 98.0859 47.6178 98.1875 47.549 98.2764C47.4803 98.3653 47.3947 98.4397 47.2971 98.4954L33.3983 106.518C33.2716 106.595 33.1263 106.635 32.9782 106.635Z" fill="#FAFAFA"/>
<path d="M25.3054 127.938C25.115 127.941 24.9293 127.88 24.7775 127.765C24.6257 127.65 24.5164 127.487 24.467 127.304C24.4175 127.12 24.4306 126.925 24.5042 126.749C24.5778 126.574 24.7078 126.427 24.8736 126.334L46.4278 113.894C46.5253 113.829 46.6351 113.785 46.7502 113.765C46.8653 113.744 46.9835 113.747 47.0974 113.774C47.2112 113.801 47.3184 113.851 47.4124 113.92C47.5063 113.99 47.585 114.078 47.6436 114.179C47.7022 114.281 47.7394 114.393 47.7531 114.509C47.7667 114.625 47.7565 114.743 47.7229 114.855C47.6894 114.967 47.6333 115.071 47.5581 115.161C47.4828 115.25 47.3901 115.323 47.2855 115.376L25.7313 127.822C25.6028 127.899 25.4554 127.94 25.3054 127.938Z" fill="#FAFAFA"/>
<path d="M25.3054 135.524C25.115 135.526 24.9293 135.465 24.7775 135.35C24.6257 135.235 24.5164 135.073 24.467 134.889C24.4175 134.705 24.4306 134.51 24.5042 134.335C24.5778 134.159 24.7078 134.013 24.8736 133.919L46.4278 121.473C46.6249 121.363 46.8574 121.334 47.0756 121.393C47.2938 121.452 47.4802 121.594 47.5948 121.788C47.6511 121.886 47.6876 121.993 47.7023 122.104C47.7169 122.216 47.7093 122.329 47.6801 122.437C47.6508 122.546 47.6003 122.648 47.5316 122.736C47.4629 122.825 47.3773 122.9 47.2797 122.955L25.7255 135.401C25.5993 135.48 25.454 135.522 25.3054 135.524Z" fill="#FAFAFA"/>
<path d="M25.3054 143.109C25.115 143.111 24.9293 143.05 24.7775 142.935C24.6257 142.82 24.5164 142.658 24.467 142.474C24.4175 142.291 24.4306 142.095 24.5042 141.92C24.5778 141.744 24.7078 141.598 24.8736 141.505L46.4278 129.059C46.6249 128.948 46.8574 128.919 47.0756 128.978C47.2938 129.037 47.4802 129.179 47.5948 129.374C47.6511 129.471 47.6876 129.578 47.7023 129.69C47.7169 129.801 47.7093 129.914 47.6801 130.023C47.6508 130.131 47.6003 130.233 47.5316 130.322C47.4629 130.411 47.3773 130.485 47.2797 130.541L25.7255 142.987C25.5982 143.063 25.4535 143.105 25.3054 143.109Z" fill="#FAFAFA"/>
<path d="M25.3054 150.66C25.115 150.662 24.9293 150.601 24.7775 150.486C24.6257 150.371 24.5164 150.209 24.467 150.025C24.4175 149.841 24.4306 149.646 24.5042 149.47C24.5778 149.295 24.7078 149.149 24.8736 149.055L46.4278 136.609C46.5255 136.553 46.6333 136.516 46.7451 136.502C46.8569 136.487 46.9706 136.495 47.0795 136.524C47.1884 136.553 47.2904 136.603 47.3799 136.672C47.4693 136.741 47.5443 136.827 47.6006 136.924C47.6569 137.022 47.6935 137.13 47.7081 137.242C47.7228 137.353 47.7152 137.467 47.686 137.576C47.6567 137.685 47.6063 137.787 47.5376 137.876C47.4689 137.966 47.3832 138.041 47.2855 138.097L25.7313 150.543C25.6017 150.618 25.455 150.658 25.3054 150.66Z" fill="#FAFAFA"/>
<path d="M18.3035 124.14C18.2538 124.141 18.2047 124.128 18.1616 124.104C18.1184 124.079 18.0827 124.043 18.0584 124C18.0199 123.935 18.0087 123.857 18.0273 123.784C18.0459 123.711 18.0928 123.648 18.1576 123.609L51.5451 104.354C51.5774 104.334 51.6134 104.321 51.6509 104.316C51.6883 104.31 51.7265 104.313 51.763 104.323C51.7995 104.332 51.8337 104.35 51.8634 104.373C51.8932 104.396 51.9179 104.425 51.936 104.459C51.9725 104.525 51.9819 104.602 51.9623 104.675C51.9427 104.748 51.8957 104.811 51.831 104.85L18.4494 124.105C18.404 124.127 18.3541 124.139 18.3035 124.14Z" fill="#FAFAFA"/>
<path d="M20.719 68.7431L124.528 8.64334C124.807 8.47985 125.123 8.39283 125.446 8.39111C125.769 8.38938 126.087 8.47301 126.367 8.63352C126.647 8.79403 126.88 9.02571 127.041 9.30512C127.203 9.58453 127.288 9.90173 127.288 10.2246V14.7408L18.2041 77.583V74.0471C18.2041 72.2382 19.161 69.6534 20.719 68.7431Z" fill="#E6E6E6"/>
<path d="M125.591 8.87089C125.743 8.87089 125.893 8.90061 126.034 8.95841C126.104 8.98639 126.169 9.02582 126.227 9.07511C126.488 9.33137 126.689 9.64339 126.813 9.9879C126.937 10.3324 126.982 10.7005 126.944 11.0648V97.0483C126.944 99.1256 125.643 101.635 124.097 102.521L20.9355 161.968C20.6441 162.15 20.3102 162.252 19.9669 162.265C19.8121 162.267 19.6588 162.235 19.5176 162.172L19.3542 162.084C18.8816 161.758 18.6132 161.028 18.6132 160.071V74.0879C18.6374 73.0408 18.8946 72.0123 19.3659 71.0771C19.8109 70.0725 20.5361 69.2175 21.4548 68.6147L124.616 9.17431C124.909 8.98866 125.245 8.88396 125.591 8.87089ZM125.591 8.35158C125.155 8.36491 124.731 8.49162 124.36 8.71918L21.2214 68.1654C20.2123 68.8198 19.4139 69.7519 18.9224 70.8495C18.4155 71.8553 18.1403 72.9618 18.1172 74.0879V160.071C18.1172 161.268 18.4965 162.125 19.1091 162.528L19.3075 162.639C19.5209 162.74 19.7542 162.791 19.9902 162.79C20.4261 162.775 20.8505 162.647 21.2214 162.417L124.383 102.977C126.098 101.985 127.487 99.3298 127.487 97.0483V11.0648C127.487 9.89784 127.131 9.07511 126.559 8.655C126.463 8.58026 126.357 8.51938 126.244 8.47412C126.045 8.39108 125.83 8.3494 125.614 8.35158H125.591Z" fill="#F0F0F0"/>
<path d="M116.886 81.1143C116.911 80.7878 117.05 80.4805 117.279 80.2465L118.537 78.9754C118.632 78.8813 118.702 78.7651 118.74 78.6371C118.778 78.5092 118.784 78.3738 118.757 78.2431L118.434 76.7075C118.424 76.6625 118.404 76.6203 118.377 76.5836C118.349 76.5468 118.313 76.5165 118.273 76.4946L116.492 75.6235L116.45 75.601C116.397 75.5796 116.339 75.5729 116.282 75.5814C116.226 75.5899 116.172 75.6133 116.127 75.6493L115.618 76.0881L116.147 74.4751C116.177 74.3835 116.173 74.284 116.136 74.1951C116.098 74.1062 116.03 74.0338 115.944 73.9912L114.176 73.1104C114.132 73.0868 114.083 73.0715 114.034 73.0653L112.885 72.9169C112.807 72.9073 112.727 72.9151 112.652 72.9396C112.577 72.9641 112.508 73.0048 112.45 73.0588C112.394 73.1078 112.35 73.1683 112.321 73.2363L111.472 75.1719C111.391 75.3576 111.255 75.514 111.082 75.6203L111.024 75.4622C110.994 75.3888 110.937 75.329 110.866 75.2945L109.114 74.4396L109.059 74.4138C109.005 74.3919 108.945 74.3867 108.888 74.3987C108.83 74.4108 108.778 74.4396 108.737 74.4815L107.236 75.9978C107.132 76.1042 107.054 76.2334 107.007 76.3752C106.967 76.509 106.957 76.6501 106.978 76.7881L107.195 78.1689C107.22 78.3442 107.178 78.5226 107.078 78.6689L106.224 79.9981C106.176 80.0754 106.114 80.1424 106.04 80.1949C105.919 80.2802 105.775 80.3263 105.627 80.3271H104.659C104.6 80.3267 104.541 80.3343 104.485 80.3497C104.381 80.3779 104.286 80.4304 104.207 80.5027C104.128 80.5751 104.067 80.6653 104.03 80.7659L103.172 83.1144C103.141 83.1952 103.141 83.2842 103.171 83.3653C103.2 83.4463 103.258 83.5141 103.333 83.5564L104.604 84.179C104.616 84.2354 104.616 84.2936 104.604 84.35L104.462 85.6662C104.454 85.7498 104.432 85.8315 104.398 85.9082C104.355 86.0189 104.29 86.1199 104.207 86.205L102.917 87.547C102.827 87.6381 102.76 87.7485 102.72 87.8696C102.684 88.005 102.684 88.1472 102.72 88.2826L103.078 89.9601C103.087 89.9969 103.104 90.0311 103.128 90.0602C103.152 90.0893 103.182 90.1125 103.217 90.1279L104.991 90.9957C105.034 91.0195 105.082 91.0298 105.131 91.0252C105.179 91.0206 105.225 91.0013 105.262 90.9699L105.84 90.4956L105.356 92.1667C105.349 92.2041 105.349 92.2423 105.356 92.2796C105.36 92.3485 105.383 92.415 105.422 92.4718C105.461 92.5286 105.515 92.5737 105.578 92.6022L107.304 93.441C107.355 93.4821 107.417 93.5068 107.482 93.512L108.479 93.6378C108.611 93.6537 108.745 93.6269 108.861 93.5613C108.977 93.4957 109.069 93.3948 109.124 93.2733L109.972 91.3763C110.059 91.1863 110.204 91.0284 110.385 90.9247L110.43 91.0505C110.445 91.0923 110.469 91.1302 110.5 91.1615C110.531 91.1928 110.569 91.2166 110.611 91.2312L112.363 92.0893C112.416 92.1128 112.474 92.1204 112.532 92.1113C112.589 92.1021 112.642 92.0765 112.685 92.0377L114.211 90.6408C114.302 90.5572 114.371 90.4527 114.413 90.3364C114.455 90.2201 114.467 90.0953 114.45 89.973L114.234 88.4471C114.198 88.1891 114.257 87.9268 114.398 87.7083L115.095 86.6276C115.184 86.4904 115.306 86.3775 115.45 86.2992C115.593 86.2209 115.754 86.1796 115.918 86.1792H116.847C116.963 86.189 117.079 86.1618 117.179 86.1016C117.279 86.0413 117.357 85.951 117.402 85.8437L118.247 83.5854C118.284 83.4841 118.284 83.3732 118.247 83.2719C118.211 83.1705 118.14 83.0851 118.047 83.0306H118.012L116.844 82.4595C116.836 82.4104 116.836 82.3603 116.844 82.3111L116.886 81.1143ZM111.272 80.0206C111.642 79.7446 112.07 79.557 112.524 79.4722C112.711 79.8545 112.821 80.27 112.847 80.6949C113.037 82.7402 111.834 85.3598 110.156 86.5502C109.79 86.8223 109.372 87.0147 108.927 87.1147C108.723 86.7301 108.602 86.307 108.572 85.8727C108.404 83.8306 109.608 81.2078 111.272 80.0206Z" fill="#1F3328"/>
<path opacity="0.3" d="M116.886 81.1143C116.911 80.7878 117.05 80.4805 117.279 80.2465L118.537 78.9754C118.632 78.8813 118.702 78.7651 118.74 78.6371C118.778 78.5092 118.784 78.3738 118.757 78.2431L118.434 76.7075C118.424 76.6625 118.404 76.6203 118.377 76.5836C118.349 76.5468 118.313 76.5165 118.273 76.4946L116.492 75.6235L116.45 75.601C116.397 75.5796 116.339 75.5729 116.282 75.5814C116.226 75.5899 116.172 75.6133 116.127 75.6493L115.618 76.0881L116.147 74.4751C116.177 74.3835 116.173 74.284 116.136 74.1951C116.098 74.1062 116.03 74.0338 115.944 73.9912L114.176 73.1104C114.132 73.0868 114.083 73.0715 114.034 73.0653L112.885 72.9169C112.807 72.9073 112.727 72.9151 112.652 72.9396C112.577 72.9641 112.508 73.0048 112.45 73.0588C112.394 73.1078 112.35 73.1683 112.321 73.2363L111.472 75.1719C111.391 75.3576 111.255 75.514 111.082 75.6203L111.024 75.4622C110.994 75.3888 110.937 75.329 110.866 75.2945L109.114 74.4396L109.059 74.4138C109.005 74.3919 108.945 74.3867 108.888 74.3987C108.83 74.4108 108.778 74.4396 108.737 74.4815L107.236 75.9978C107.132 76.1042 107.054 76.2334 107.007 76.3752C106.967 76.509 106.957 76.6501 106.978 76.7881L107.195 78.1689C107.22 78.3442 107.178 78.5226 107.078 78.6689L106.224 79.9981C106.176 80.0754 106.114 80.1424 106.04 80.1949C105.919 80.2802 105.775 80.3263 105.627 80.3271H104.659C104.6 80.3267 104.541 80.3343 104.485 80.3497C104.381 80.3779 104.286 80.4304 104.207 80.5027C104.128 80.5751 104.067 80.6653 104.03 80.7659L103.172 83.1144C103.141 83.1952 103.141 83.2842 103.171 83.3653C103.2 83.4463 103.258 83.5141 103.333 83.5564L104.604 84.179C104.616 84.2354 104.616 84.2936 104.604 84.35L104.462 85.6662C104.454 85.7498 104.432 85.8315 104.398 85.9082C104.355 86.0189 104.29 86.1199 104.207 86.205L102.917 87.547C102.827 87.6381 102.76 87.7485 102.72 87.8696C102.684 88.005 102.684 88.1472 102.72 88.2826L103.078 89.9601C103.087 89.9969 103.104 90.0311 103.128 90.0602C103.152 90.0893 103.182 90.1125 103.217 90.1279L104.991 90.9957C105.034 91.0195 105.082 91.0298 105.131 91.0252C105.179 91.0206 105.225 91.0013 105.262 90.9699L105.84 90.4956L105.356 92.1667C105.349 92.2041 105.349 92.2423 105.356 92.2796C105.36 92.3485 105.383 92.415 105.422 92.4718C105.461 92.5286 105.515 92.5737 105.578 92.6022L107.304 93.441C107.355 93.4821 107.417 93.5068 107.482 93.512L108.479 93.6378C108.611 93.6537 108.745 93.6269 108.861 93.5613C108.977 93.4957 109.069 93.3948 109.124 93.2733L109.972 91.3763C110.059 91.1863 110.204 91.0284 110.385 90.9247L110.43 91.0505C110.445 91.0923 110.469 91.1302 110.5 91.1615C110.531 91.1928 110.569 91.2166 110.611 91.2312L112.363 92.0893C112.416 92.1128 112.474 92.1204 112.532 92.1113C112.589 92.1021 112.642 92.0765 112.685 92.0377L114.211 90.6408C114.302 90.5572 114.371 90.4527 114.413 90.3364C114.455 90.2201 114.467 90.0953 114.45 89.973L114.234 88.4471C114.198 88.1891 114.257 87.9268 114.398 87.7083L115.095 86.6276C115.184 86.4904 115.306 86.3775 115.45 86.2992C115.593 86.2209 115.754 86.1796 115.918 86.1792H116.847C116.963 86.189 117.079 86.1618 117.179 86.1016C117.279 86.0413 117.357 85.951 117.402 85.8437L118.247 83.5854C118.284 83.4841 118.284 83.3732 118.247 83.2719C118.211 83.1705 118.14 83.0851 118.047 83.0306H118.012L116.844 82.4595C116.836 82.4104 116.836 82.3603 116.844 82.3111L116.886 81.1143ZM111.272 80.0206C111.642 79.7446 112.07 79.557 112.524 79.4722C112.711 79.8545 112.821 80.27 112.847 80.6949C113.037 82.7402 111.834 85.3598 110.156 86.5502C109.79 86.8223 109.372 87.0147 108.927 87.1147C108.723 86.7301 108.602 86.307 108.572 85.8727C108.404 83.8306 109.608 81.2078 111.272 80.0206Z" fill="#1F3328"/>
<path opacity="0.2" d="M106.433 86.8276L104.497 88.789L102.713 87.8696C102.753 87.7484 102.82 87.6381 102.91 87.547L104.2 86.2049C104.283 86.1198 104.348 86.0189 104.39 85.9081L106.433 86.8276Z" fill="#1F3328"/>
<path opacity="0.2" d="M107.839 81.0561L107.801 81.2755H106.126L104.497 80.3367C104.554 80.3213 104.612 80.3137 104.671 80.3142H105.639C105.787 80.3134 105.931 80.2672 106.052 80.1819L107.839 81.0561Z" fill="#1F3328"/>
<path opacity="0.2" d="M110.859 75.2944L110.104 76.0364L108.769 77.3526L107.001 76.3848C107.047 76.243 107.126 76.1139 107.23 76.0074L108.73 74.4911C108.771 74.4492 108.824 74.4204 108.881 74.4083C108.939 74.3963 108.998 74.4015 109.053 74.4234L109.108 74.4492L110.859 75.2944Z" fill="#1F3328"/>
<path opacity="0.2" d="M115.95 73.9815H114.192L112.443 73.0588C112.501 73.0048 112.57 72.9641 112.645 72.9396C112.721 72.9151 112.8 72.9073 112.879 72.9169L114.024 73.0621C114.074 73.0682 114.122 73.0835 114.166 73.1072L115.95 73.9815Z" fill="#1F3328"/>
<path d="M117.279 80.2465L118.537 78.9754C118.632 78.8814 118.702 78.7651 118.74 78.6372C118.778 78.5092 118.784 78.3738 118.756 78.2431L118.434 76.7075C118.421 76.6558 118.396 76.6081 118.36 76.5686C118.324 76.5291 118.279 76.4991 118.229 76.4812C118.179 76.4633 118.125 76.4581 118.072 76.4661C118.02 76.4741 117.97 76.4949 117.927 76.5268L116.637 77.6011C116.569 77.6576 116.483 77.6863 116.395 77.6815C116.307 77.6767 116.224 77.6388 116.163 77.5753L115.788 77.185C115.672 77.0635 115.59 76.9125 115.553 76.7483C115.515 76.5841 115.523 76.4127 115.576 76.2526L116.147 74.4751C116.165 74.4193 116.171 74.3602 116.164 74.3018C116.158 74.2434 116.138 74.1872 116.108 74.1371C116.077 74.087 116.036 74.0442 115.987 74.0118C115.938 73.9793 115.882 73.958 115.824 73.9492L114.682 73.8073C114.566 73.7922 114.447 73.8156 114.345 73.8738C114.244 73.932 114.163 74.022 114.117 74.1299L113.269 76.0655C113.165 76.3007 112.976 76.4876 112.74 76.5881L111.978 76.9107C111.934 76.9295 111.886 76.9392 111.838 76.9391C111.789 76.939 111.741 76.9292 111.697 76.9102C111.652 76.8912 111.612 76.8635 111.578 76.8287C111.545 76.7939 111.518 76.7527 111.501 76.7075L111.027 75.4784C111.009 75.4309 110.98 75.3888 110.941 75.3558C110.903 75.3228 110.856 75.3001 110.807 75.2898C110.757 75.2795 110.706 75.2819 110.657 75.2968C110.609 75.3118 110.565 75.3387 110.53 75.3751L109.014 76.872C108.913 76.975 108.837 77.1 108.793 77.2372C108.749 77.3743 108.737 77.5199 108.759 77.6624L108.975 79.0432C109 79.2141 108.963 79.3885 108.869 79.5335L108.017 80.8659C107.952 80.9655 107.863 81.0471 107.758 81.1035C107.653 81.1598 107.536 81.1891 107.417 81.1885H106.449C106.309 81.1855 106.171 81.2265 106.055 81.3058C105.94 81.385 105.852 81.4986 105.804 81.6305L104.942 83.9758C104.926 84.0226 104.919 84.0722 104.922 84.1217C104.925 84.1712 104.938 84.2195 104.961 84.2638C104.983 84.3081 105.014 84.3475 105.052 84.3795C105.09 84.4115 105.134 84.4355 105.181 84.45L106.072 84.7178C106.175 84.7501 106.263 84.8174 106.322 84.9081C106.381 84.9988 106.407 85.1072 106.394 85.2146L106.252 86.5308C106.23 86.7338 106.14 86.9234 105.997 87.0696L104.707 88.4148C104.613 88.5114 104.544 88.6296 104.507 88.7591C104.47 88.8885 104.466 89.0252 104.494 89.1568L104.865 90.8279C104.874 90.8685 104.893 90.9061 104.92 90.9372C104.948 90.9682 104.983 90.9917 105.022 91.0053C105.061 91.0189 105.103 91.0222 105.144 91.0149C105.185 91.0075 105.223 90.9898 105.255 90.9634L106.546 89.9085C106.596 89.8664 106.655 89.8348 106.717 89.8154C106.78 89.796 106.846 89.7893 106.912 89.7956C106.977 89.8019 107.041 89.8211 107.098 89.8521C107.156 89.8831 107.208 89.9253 107.249 89.9763L107.572 90.3731C107.65 90.4696 107.704 90.5838 107.729 90.7057C107.753 90.8276 107.748 90.9536 107.714 91.0731L107.146 93.0378C107.13 93.091 107.126 93.1471 107.134 93.202C107.142 93.2569 107.163 93.3094 107.193 93.3556C107.224 93.4018 107.265 93.4407 107.312 93.4694C107.36 93.4981 107.413 93.516 107.468 93.5217L108.465 93.6475C108.598 93.6634 108.732 93.6366 108.848 93.571C108.964 93.5054 109.056 93.4045 109.111 93.283L109.959 91.386C110.055 91.1703 110.226 90.9963 110.44 90.8957L111.182 90.5408C111.241 90.511 111.305 90.4942 111.372 90.4916C111.438 90.489 111.503 90.5006 111.565 90.5257C111.626 90.5508 111.681 90.5888 111.726 90.637C111.771 90.6853 111.806 90.7427 111.827 90.8053L112.224 91.9377C112.24 91.9848 112.268 92.0272 112.304 92.0609C112.341 92.0946 112.386 92.1186 112.434 92.1308C112.482 92.143 112.533 92.1429 112.581 92.1306C112.63 92.1183 112.674 92.0941 112.711 92.0603L114.237 90.6634C114.328 90.5798 114.397 90.4753 114.439 90.359C114.48 90.2427 114.493 90.1179 114.475 89.9956L114.259 88.4697C114.224 88.2117 114.282 87.9494 114.424 87.7309L115.121 86.6502C115.21 86.513 115.332 86.4001 115.475 86.3218C115.619 86.2435 115.78 86.2022 115.943 86.2018H116.872C116.987 86.2044 117.099 86.1713 117.194 86.1071C117.289 86.0429 117.361 85.9509 117.401 85.8437L118.247 83.5854C118.268 83.5246 118.277 83.4598 118.273 83.3953C118.268 83.3308 118.25 83.268 118.219 83.2109C118.189 83.1538 118.147 83.1037 118.096 83.0638C118.045 83.0238 117.987 82.9949 117.924 82.9789L117.156 82.7725C117.052 82.7443 116.96 82.6807 116.897 82.5924C116.834 82.5041 116.804 82.3967 116.811 82.2886L116.892 81.1304C116.911 80.7991 117.049 80.4856 117.279 80.2465ZM111.972 87.4277C110.298 88.6149 108.785 87.918 108.594 85.8727C108.404 83.8274 109.607 81.2078 111.282 80.0207C112.956 78.8335 114.472 79.5303 114.663 81.5756C114.853 83.6209 113.646 86.2405 111.972 87.4277Z" fill="#1F3328"/>
<path d="M81.5922 108.271C81.631 107.705 81.8726 107.171 82.2729 106.768L84.4538 104.568C84.6159 104.402 84.735 104.2 84.8008 103.977C84.8666 103.755 84.8771 103.52 84.8312 103.293L84.2796 100.635C84.2632 100.557 84.2296 100.483 84.181 100.419C84.1324 100.356 84.0702 100.304 83.9989 100.267L80.9083 98.7608L80.8341 98.7221C80.7443 98.6849 80.6459 98.6731 80.5498 98.6879C80.4537 98.7027 80.3635 98.7435 80.2889 98.8059L79.3889 99.5479L80.3083 96.7542C80.3603 96.5951 80.353 96.4225 80.2878 96.2684C80.2226 96.1142 80.1038 95.9889 79.9534 95.9154L76.8693 94.4056C76.7938 94.3625 76.7104 94.335 76.6241 94.325L74.6401 94.0733C74.5042 94.0557 74.3661 94.0683 74.2357 94.1101C74.1052 94.1519 73.9855 94.222 73.8852 94.3153C73.7878 94.4048 73.7117 94.515 73.6626 94.6379L72.1915 97.9897C72.0525 98.3123 71.817 98.5839 71.5173 98.7672L71.414 98.493C71.3631 98.3655 71.2648 98.2627 71.1398 98.2059L68.1073 96.7219L68.0106 96.6767C67.9159 96.6389 67.8122 96.6297 67.7124 96.6504C67.6126 96.671 67.5211 96.7206 67.4492 96.7929L64.849 99.4221C64.6694 99.6036 64.5346 99.8245 64.4554 100.067C64.3866 100.298 64.369 100.542 64.4038 100.78L64.7781 103.174C64.8233 103.469 64.759 103.771 64.5974 104.022L63.1166 106.329C63.0335 106.463 62.9237 106.578 62.794 106.668C62.5865 106.817 62.3369 106.898 62.0811 106.897H60.4035C60.302 106.896 60.2009 106.91 60.1035 106.939C59.9235 106.986 59.7577 107.076 59.6201 107.202C59.4825 107.327 59.3772 107.484 59.3131 107.658L57.8227 111.726C57.7747 111.867 57.7768 112.02 57.8285 112.159C57.8802 112.298 57.9784 112.416 58.1066 112.491L60.3067 113.568C60.3338 113.665 60.3415 113.766 60.3293 113.865L60.0841 116.146C60.0659 116.291 60.0279 116.433 59.9712 116.569C59.8977 116.751 59.7905 116.917 59.6551 117.059L57.3968 119.388C57.2352 119.557 57.1174 119.763 57.0538 119.988C56.9903 120.213 56.9829 120.45 57.0323 120.679L57.6775 123.582C57.6924 123.647 57.7224 123.707 57.765 123.758C57.8076 123.809 57.8616 123.849 57.9227 123.876L60.9971 125.379C61.0709 125.42 61.1551 125.437 61.239 125.43C61.323 125.423 61.4027 125.39 61.4681 125.337L62.465 124.514L61.6294 127.418C61.6082 127.481 61.5995 127.548 61.6036 127.615C61.6068 127.738 61.644 127.857 61.7113 127.96C61.7785 128.064 61.873 128.146 61.9843 128.198L64.9748 129.65C65.0689 129.721 65.1805 129.764 65.2974 129.776L67.0266 129.992C67.2592 130.02 67.4945 129.973 67.6979 129.856C67.9012 129.74 68.0618 129.562 68.1557 129.347L69.6268 126.063C69.7771 125.733 70.0278 125.46 70.343 125.282L70.4172 125.498C70.4429 125.573 70.4853 125.641 70.5412 125.697C70.5971 125.753 70.665 125.795 70.7398 125.821L73.7787 127.311C73.8718 127.355 73.9758 127.371 74.0776 127.355C74.1793 127.34 74.2741 127.294 74.3498 127.224L76.9951 124.805C77.1473 124.66 77.2632 124.482 77.3332 124.284C77.4033 124.086 77.4256 123.874 77.3984 123.666L77.0209 121.021C76.957 120.57 77.0578 120.112 77.3048 119.73L78.5146 117.859C78.6682 117.621 78.8789 117.426 79.1274 117.291C79.3759 117.156 79.6543 117.085 79.9373 117.085H81.5503C81.7489 117.083 81.9421 117.02 82.1037 116.905C82.2652 116.789 82.3874 116.627 82.4536 116.44L83.9215 112.542C83.9864 112.366 83.9871 112.172 83.9234 111.995C83.8597 111.818 83.7356 111.669 83.573 111.575H83.5537L83.4956 111.546L81.4697 110.558C81.4464 110.473 81.4377 110.385 81.4439 110.297L81.5922 108.271ZM71.8818 106.377C72.5209 105.895 73.2611 105.564 74.0465 105.41C74.3804 106.073 74.5789 106.795 74.6304 107.536C74.953 111.084 72.8722 115.601 69.9688 117.675C69.3356 118.145 68.6099 118.475 67.8396 118.643C67.4869 117.977 67.277 117.246 67.2234 116.494C66.8943 112.975 68.9816 108.436 71.8851 106.377H71.8818Z" fill="#1F3328"/>
<path opacity="0.3" d="M81.5922 108.271C81.631 107.705 81.8726 107.171 82.2729 106.768L84.4538 104.568C84.6159 104.402 84.735 104.2 84.8008 103.977C84.8666 103.755 84.8771 103.52 84.8312 103.293L84.2796 100.635C84.2632 100.557 84.2296 100.483 84.181 100.419C84.1324 100.356 84.0702 100.304 83.9989 100.267L80.9083 98.7608L80.8341 98.7221C80.7443 98.6849 80.6459 98.6731 80.5498 98.6879C80.4537 98.7027 80.3635 98.7435 80.2889 98.8059L79.3889 99.5479L80.3083 96.7542C80.3603 96.5951 80.353 96.4225 80.2878 96.2684C80.2226 96.1142 80.1038 95.9889 79.9534 95.9154L76.8693 94.4056C76.7938 94.3625 76.7104 94.335 76.6241 94.325L74.6401 94.0733C74.5042 94.0557 74.3661 94.0683 74.2357 94.1101C74.1052 94.1519 73.9855 94.222 73.8852 94.3153C73.7878 94.4048 73.7117 94.515 73.6626 94.6379L72.1915 97.9897C72.0525 98.3123 71.817 98.5839 71.5173 98.7672L71.414 98.493C71.3631 98.3655 71.2648 98.2627 71.1398 98.2059L68.1073 96.7219L68.0106 96.6767C67.9159 96.6389 67.8122 96.6297 67.7124 96.6504C67.6126 96.671 67.5211 96.7206 67.4492 96.7929L64.849 99.4221C64.6694 99.6036 64.5346 99.8245 64.4554 100.067C64.3866 100.298 64.369 100.542 64.4038 100.78L64.7781 103.174C64.8233 103.469 64.759 103.771 64.5974 104.022L63.1166 106.329C63.0335 106.463 62.9237 106.578 62.794 106.668C62.5865 106.817 62.3369 106.898 62.0811 106.897H60.4035C60.302 106.896 60.2009 106.91 60.1035 106.939C59.9235 106.986 59.7577 107.076 59.6201 107.202C59.4825 107.327 59.3772 107.484 59.3131 107.658L57.8227 111.726C57.7747 111.867 57.7768 112.02 57.8285 112.159C57.8802 112.298 57.9784 112.416 58.1066 112.491L60.3067 113.568C60.3338 113.665 60.3415 113.766 60.3293 113.865L60.0841 116.146C60.0659 116.291 60.0279 116.433 59.9712 116.569C59.8977 116.751 59.7905 116.917 59.6551 117.059L57.3968 119.388C57.2352 119.557 57.1174 119.763 57.0538 119.988C56.9903 120.213 56.9829 120.45 57.0323 120.679L57.6775 123.582C57.6924 123.647 57.7224 123.707 57.765 123.758C57.8076 123.809 57.8616 123.849 57.9227 123.876L60.9971 125.379C61.0709 125.42 61.1551 125.437 61.239 125.43C61.323 125.423 61.4027 125.39 61.4681 125.337L62.465 124.514L61.6294 127.418C61.6082 127.481 61.5995 127.548 61.6036 127.615C61.6068 127.738 61.644 127.857 61.7113 127.96C61.7785 128.064 61.873 128.146 61.9843 128.198L64.9748 129.65C65.0689 129.721 65.1805 129.764 65.2974 129.776L67.0266 129.992C67.2592 130.02 67.4945 129.973 67.6979 129.856C67.9012 129.74 68.0618 129.562 68.1557 129.347L69.6268 126.063C69.7771 125.733 70.0278 125.46 70.343 125.282L70.4172 125.498C70.4429 125.573 70.4853 125.641 70.5412 125.697C70.5971 125.753 70.665 125.795 70.7398 125.821L73.7787 127.311C73.8718 127.355 73.9758 127.371 74.0776 127.355C74.1793 127.34 74.2741 127.294 74.3498 127.224L76.9951 124.805C77.1473 124.66 77.2632 124.482 77.3332 124.284C77.4033 124.086 77.4256 123.874 77.3984 123.666L77.0209 121.021C76.957 120.57 77.0578 120.112 77.3048 119.73L78.5146 117.859C78.6682 117.621 78.8789 117.426 79.1274 117.291C79.3759 117.156 79.6543 117.085 79.9373 117.085H81.5503C81.7489 117.083 81.9421 117.02 82.1037 116.905C82.2652 116.789 82.3874 116.627 82.4536 116.44L83.9215 112.542C83.9864 112.366 83.9871 112.172 83.9234 111.995C83.8597 111.818 83.7356 111.669 83.573 111.575H83.5537L83.4956 111.546L81.4697 110.558C81.4464 110.473 81.4377 110.385 81.4439 110.297L81.5922 108.271ZM71.8818 106.377C72.5209 105.895 73.2611 105.564 74.0465 105.41C74.3804 106.073 74.5789 106.795 74.6304 107.536C74.953 111.084 72.8722 115.601 69.9688 117.675C69.3356 118.145 68.6099 118.475 67.8396 118.643C67.4869 117.977 67.277 117.246 67.2234 116.494C66.8943 112.975 68.9816 108.436 71.8851 106.377H71.8818Z" fill="#1F3328"/>
<path opacity="0.2" d="M63.4876 118.169L60.1454 121.575L57.0742 119.962C57.1354 119.748 57.2459 119.552 57.3968 119.388L59.6551 117.059C59.7948 116.912 59.9044 116.738 59.9777 116.549L63.4876 118.169Z" fill="#1F3328"/>
<path opacity="0.2" d="M65.9197 108.171L65.852 108.552H62.9485L60.0967 106.939C60.1941 106.91 60.2952 106.896 60.3967 106.897H62.0839C62.3398 106.898 62.5893 106.817 62.7969 106.668L65.9197 108.171Z" fill="#1F3328"/>
<path opacity="0.2" d="M71.1494 98.1897L69.859 99.4801L67.5459 101.754L64.4844 100.064C64.5635 99.8212 64.6983 99.6003 64.878 99.4188L67.4782 96.7896C67.55 96.7173 67.6415 96.6677 67.7413 96.6471C67.8412 96.6264 67.9448 96.6356 68.0395 96.6734L68.1363 96.7186L71.1494 98.1897Z" fill="#1F3328"/>
<path opacity="0.2" d="M79.9789 95.9121H76.927L73.8945 94.2991C73.9949 94.2057 74.1145 94.1357 74.245 94.0939C74.3755 94.052 74.5136 94.0395 74.6494 94.0571L76.6335 94.3088C76.7198 94.3188 76.8032 94.3463 76.8786 94.3894L79.9789 95.9121Z" fill="#1F3328"/>
<path d="M82.2764 106.768L84.4572 104.568C84.6194 104.402 84.7385 104.199 84.8043 103.977C84.8701 103.755 84.8805 103.52 84.8347 103.293L84.283 100.635C84.2657 100.542 84.2245 100.455 84.1634 100.383C84.1023 100.311 84.0234 100.255 83.9346 100.223C83.8457 100.19 83.7499 100.181 83.6566 100.197C83.5633 100.213 83.4756 100.253 83.4023 100.312L81.1441 102.174C81.0266 102.271 80.8769 102.319 80.7249 102.311C80.5729 102.302 80.4299 102.235 80.3247 102.125L79.6795 101.448C79.4782 101.237 79.3378 100.976 79.273 100.692C79.2083 100.408 79.2216 100.112 79.3117 99.835L80.3311 96.738C80.3634 96.6403 80.3736 96.5367 80.3611 96.4347C80.3485 96.3326 80.3136 96.2346 80.2587 96.1476C80.2038 96.0606 80.1303 95.9869 80.0436 95.9317C79.9568 95.8765 79.8589 95.8411 79.7569 95.8282L77.7729 95.5798C77.5735 95.5572 77.3721 95.5988 77.198 95.6986C77.0239 95.7984 76.8862 95.9512 76.805 96.1347L75.3372 99.4833C75.1573 99.8916 74.8285 100.216 74.4178 100.39L73.0983 100.948C73.0199 100.986 72.9344 101.008 72.8472 101.011C72.76 101.015 72.673 101 72.5919 100.968C72.5108 100.935 72.4373 100.887 72.3762 100.824C72.3151 100.762 72.2676 100.688 72.2369 100.606L71.4143 98.4736C71.3825 98.3922 71.331 98.3201 71.2643 98.2637C71.1976 98.2072 71.118 98.1683 71.0325 98.1503C70.947 98.1324 70.8584 98.1361 70.7747 98.161C70.6909 98.1859 70.6147 98.2312 70.5529 98.2929L67.9624 100.929C67.7872 101.106 67.656 101.321 67.5792 101.558C67.5025 101.795 67.4823 102.047 67.5205 102.293L67.8915 104.687C67.9364 104.982 67.8721 105.284 67.7108 105.535L66.2333 107.842C66.1221 108.017 65.9686 108.16 65.7869 108.26C65.6053 108.359 65.4015 108.411 65.1945 108.41H63.5266C63.2885 108.411 63.0563 108.484 62.8613 108.621C62.6664 108.758 62.518 108.951 62.4362 109.174L60.9458 113.233C60.9185 113.313 60.9075 113.399 60.9133 113.484C60.9192 113.569 60.9418 113.652 60.9799 113.728C61.018 113.804 61.0708 113.872 61.1353 113.928C61.1997 113.983 61.2746 114.026 61.3555 114.052L62.8814 114.523C63.0612 114.577 63.2164 114.693 63.3196 114.85C63.4228 115.007 63.4675 115.195 63.4459 115.381L63.204 117.662C63.1665 118.013 63.0119 118.342 62.7653 118.594L60.507 120.924C60.3431 121.091 60.2236 121.297 60.1593 121.522C60.0951 121.748 60.0882 121.985 60.1392 122.214L60.7845 125.118C60.8 125.188 60.8335 125.253 60.8815 125.307C60.9296 125.361 60.9906 125.402 61.0589 125.426C61.1272 125.449 61.2004 125.455 61.2715 125.442C61.3426 125.43 61.4093 125.399 61.4652 125.353L63.6782 123.511C63.766 123.439 63.8673 123.384 63.9762 123.351C64.0851 123.318 64.1994 123.306 64.3127 123.317C64.426 123.328 64.536 123.362 64.6364 123.415C64.7368 123.469 64.8256 123.542 64.8977 123.63L65.4622 124.321C65.5982 124.487 65.6918 124.684 65.7351 124.895C65.7783 125.106 65.7699 125.324 65.7106 125.53L64.7202 128.934C64.6939 129.026 64.6878 129.123 64.7023 129.217C64.7168 129.312 64.7516 129.402 64.8043 129.482C64.857 129.562 64.9263 129.63 65.0076 129.681C65.0889 129.731 65.1801 129.764 65.2751 129.776L67.0043 129.992C67.2368 130.02 67.4722 129.972 67.6756 129.856C67.8789 129.74 68.0395 129.561 68.1334 129.347L69.6045 126.063C69.772 125.69 70.0672 125.389 70.4368 125.214L71.7272 124.601C71.8283 124.553 71.9384 124.526 72.0504 124.523C72.1624 124.52 72.2738 124.541 72.3773 124.584C72.4808 124.627 72.5741 124.691 72.6511 124.772C72.7281 124.854 72.787 124.95 72.8241 125.056L73.5048 127.021C73.5334 127.102 73.5818 127.175 73.6455 127.234C73.7093 127.292 73.7865 127.333 73.8702 127.354C73.9539 127.376 74.0416 127.376 74.1253 127.355C74.209 127.333 74.2862 127.292 74.35 127.234L76.9954 124.814C77.149 124.669 77.2657 124.489 77.3358 124.289C77.406 124.089 77.4275 123.876 77.3986 123.666L77.0212 121.02C76.9572 120.57 77.058 120.112 77.3051 119.73L78.5149 117.859C78.6684 117.621 78.8791 117.426 79.1276 117.291C79.3762 117.155 79.6546 117.085 79.9375 117.085H81.5506C81.7491 117.083 81.9423 117.02 82.1039 116.904C82.2655 116.789 82.3877 116.627 82.4539 116.439L83.9217 112.542C83.9601 112.438 83.9763 112.327 83.9694 112.216C83.9625 112.105 83.9327 111.996 83.8817 111.898C83.8308 111.799 83.7598 111.711 83.6734 111.641C83.587 111.571 83.487 111.52 83.3797 111.491L82.0506 111.133C81.8681 111.084 81.7083 110.974 81.5987 110.82C81.4891 110.666 81.4367 110.479 81.4506 110.291L81.5957 108.287C81.6306 107.715 81.8726 107.175 82.2764 106.768ZM73.0789 119.207C70.1755 121.266 67.5559 120.059 67.2269 116.517C66.8978 112.975 68.9819 108.452 71.8853 106.377C74.7888 104.303 77.4083 105.526 77.7406 109.068C78.0729 112.61 75.9824 117.149 73.0789 119.207Z" fill="#1F3328"/>
<path d="M97.8995 74.7137C97.9306 74.2465 98.1301 73.8064 98.4609 73.4749L100.258 71.6586C100.395 71.5248 100.496 71.3587 100.553 71.1756C100.609 70.9924 100.619 70.798 100.58 70.6102L100.125 68.4197C100.112 68.3552 100.085 68.2945 100.046 68.242C100.006 68.1895 99.9549 68.1466 99.8965 68.1164L97.3479 66.8712L97.2866 66.8422C97.2127 66.8119 97.132 66.8022 97.053 66.8141C96.9741 66.8261 96.8998 66.8591 96.8381 66.9099L96.0962 67.5196L96.8543 65.2194C96.897 65.0883 96.8907 64.9462 96.8368 64.8193C96.7828 64.6924 96.6848 64.5893 96.5607 64.5291L94.0153 63.2838C93.9526 63.2489 93.8835 63.227 93.8121 63.2193L92.1765 63.0128C92.0644 62.9983 91.9505 63.0087 91.8428 63.0432C91.7352 63.0778 91.6365 63.1357 91.5539 63.2128C91.4748 63.2834 91.412 63.3704 91.37 63.4677L90.157 66.2292C90.0436 66.4967 89.8497 66.7223 89.6021 66.8744L89.515 66.6486C89.4957 66.5959 89.4656 66.5477 89.4268 66.5072C89.3879 66.4667 89.341 66.4346 89.2892 66.4131L86.7858 65.1936L86.7051 65.1517C86.6273 65.1202 86.5419 65.1126 86.4597 65.1298C86.3775 65.147 86.3024 65.1884 86.2438 65.2485L84.0985 67.4164C83.9501 67.5669 83.8395 67.7504 83.7759 67.9519C83.7198 68.1423 83.7055 68.3426 83.7339 68.5391L84.0565 70.5134C84.096 70.7571 84.0431 71.0068 83.9081 71.2135L82.6887 73.1168C82.6215 73.2263 82.5326 73.3207 82.4274 73.3943C82.2553 73.5179 82.0488 73.5844 81.837 73.5846H80.4466C80.3627 73.584 80.2791 73.5949 80.1982 73.6169C80.0515 73.658 79.9166 73.7333 79.8045 73.8364C79.6924 73.9396 79.6062 74.0677 79.5529 74.2105L78.3012 77.5494C78.255 77.6668 78.253 77.7971 78.2958 77.9158C78.3385 78.0345 78.423 78.1337 78.5335 78.1946L80.3498 79.0818C80.3693 79.162 80.3758 79.2447 80.3691 79.327L80.1627 81.2078C80.1505 81.3278 80.1201 81.4453 80.0723 81.5562C80.0111 81.7127 79.9189 81.8554 79.8014 81.9756L77.9367 83.9112C77.8077 84.0449 77.7126 84.2075 77.6593 84.3854C77.6002 84.5768 77.5924 84.7804 77.6367 84.9758L78.1625 87.3631C78.1746 87.4162 78.199 87.4658 78.2337 87.5078C78.2685 87.5499 78.3126 87.5831 78.3625 87.605L80.895 88.847C80.9561 88.881 81.026 88.8957 81.0956 88.8894C81.1652 88.8831 81.2313 88.856 81.2853 88.8116L82.108 88.1341L81.4176 90.5181C81.4022 90.5705 81.3946 90.6249 81.395 90.6794C81.3982 90.7818 81.4302 90.8811 81.4873 90.9661C81.5443 91.0511 81.6241 91.1184 81.7176 91.1601L84.1823 92.3602C84.2577 92.4146 84.3452 92.4501 84.4372 92.4635L85.8631 92.6409C86.0536 92.6651 86.2468 92.6274 86.4141 92.5333C86.5815 92.4392 86.714 92.2936 86.7922 92.1183L88.0084 89.4116C88.1308 89.1397 88.3364 88.9138 88.5956 88.7664L88.6601 88.9438C88.6807 89.004 88.7146 89.0587 88.7593 89.104C88.804 89.1492 88.8583 89.1838 88.9182 89.2051L91.4216 90.431C91.4985 90.4662 91.584 90.4783 91.6677 90.4656C91.7513 90.453 91.8295 90.4164 91.8926 90.3601L94.0702 88.3631C94.2032 88.243 94.3041 88.0916 94.3638 87.9226C94.4235 87.7536 94.4401 87.5724 94.4122 87.3953L94.0896 85.2145C94.0353 84.8453 94.1179 84.4689 94.3218 84.1564L95.3187 82.6143C95.4447 82.417 95.6182 82.2545 95.8234 82.1417C96.0286 82.029 96.2588 81.9696 96.493 81.9691H97.8189C97.9813 81.9692 98.1399 81.9195 98.2731 81.8266C98.4064 81.7337 98.508 81.6021 98.5641 81.4497L99.7674 78.2043C99.824 78.0596 99.8264 77.8993 99.7743 77.7529C99.7221 77.6065 99.6189 77.4838 99.4835 77.4075H99.4674L99.419 77.3817L97.7479 76.5687C97.7317 76.4978 97.7252 76.4251 97.7285 76.3526L97.8995 74.7137ZM89.8925 73.1523C90.4217 72.7593 91.0325 72.4903 91.6797 72.3652C91.9528 72.912 92.1161 73.5072 92.1604 74.1169C92.4314 77.0203 90.7119 80.7787 88.3181 82.4756C87.7976 82.8676 87.1992 83.1437 86.5632 83.2853C86.2704 82.7363 86.0968 82.1317 86.0534 81.511C85.7857 78.5914 87.4987 74.8492 89.8925 73.1523Z" fill="#1F3328"/>
<path opacity="0.3" d="M97.8995 74.7137C97.9306 74.2465 98.1301 73.8064 98.4609 73.4749L100.258 71.6586C100.395 71.5248 100.496 71.3587 100.553 71.1756C100.609 70.9924 100.619 70.798 100.58 70.6102L100.125 68.4197C100.112 68.3552 100.085 68.2945 100.046 68.242C100.006 68.1895 99.9549 68.1466 99.8965 68.1164L97.3479 66.8712L97.2866 66.8422C97.2127 66.8119 97.132 66.8022 97.053 66.8141C96.9741 66.8261 96.8998 66.8591 96.8381 66.9099L96.0962 67.5196L96.8543 65.2194C96.897 65.0883 96.8907 64.9462 96.8368 64.8193C96.7828 64.6924 96.6848 64.5893 96.5607 64.5291L94.0153 63.2838C93.9526 63.2489 93.8835 63.227 93.8121 63.2193L92.1765 63.0128C92.0644 62.9983 91.9505 63.0087 91.8428 63.0432C91.7352 63.0778 91.6365 63.1357 91.5539 63.2128C91.4748 63.2834 91.412 63.3704 91.37 63.4677L90.157 66.2292C90.0436 66.4967 89.8497 66.7223 89.6021 66.8744L89.515 66.6486C89.4957 66.5959 89.4656 66.5477 89.4268 66.5072C89.3879 66.4667 89.341 66.4346 89.2892 66.4131L86.7858 65.1936L86.7051 65.1517C86.6273 65.1202 86.5419 65.1126 86.4597 65.1298C86.3775 65.147 86.3024 65.1884 86.2438 65.2485L84.0985 67.4164C83.9501 67.5669 83.8395 67.7504 83.7759 67.9519C83.7198 68.1423 83.7055 68.3426 83.7339 68.5391L84.0565 70.5134C84.096 70.7571 84.0431 71.0068 83.9081 71.2135L82.6887 73.1168C82.6215 73.2263 82.5326 73.3207 82.4274 73.3943C82.2553 73.5179 82.0488 73.5844 81.837 73.5846H80.4466C80.3627 73.584 80.2791 73.5949 80.1982 73.6169C80.0515 73.658 79.9166 73.7333 79.8045 73.8364C79.6924 73.9396 79.6062 74.0677 79.5529 74.2105L78.3012 77.5494C78.255 77.6668 78.253 77.7971 78.2958 77.9158C78.3385 78.0345 78.423 78.1337 78.5335 78.1946L80.3498 79.0818C80.3693 79.162 80.3758 79.2447 80.3691 79.327L80.1627 81.2078C80.1505 81.3278 80.1201 81.4453 80.0723 81.5562C80.0111 81.7127 79.9189 81.8554 79.8014 81.9756L77.9367 83.9112C77.8077 84.0449 77.7126 84.2075 77.6593 84.3854C77.6002 84.5768 77.5924 84.7804 77.6367 84.9758L78.1625 87.3631C78.1746 87.4162 78.199 87.4658 78.2337 87.5078C78.2685 87.5499 78.3126 87.5831 78.3625 87.605L80.895 88.847C80.9561 88.881 81.026 88.8957 81.0956 88.8894C81.1652 88.8831 81.2313 88.856 81.2853 88.8116L82.108 88.1341L81.4176 90.5181C81.4022 90.5705 81.3946 90.6249 81.395 90.6794C81.3982 90.7818 81.4302 90.8811 81.4873 90.9661C81.5443 91.0511 81.6241 91.1184 81.7176 91.1601L84.1823 92.3602C84.2577 92.4146 84.3452 92.4501 84.4372 92.4635L85.8631 92.6409C86.0536 92.6651 86.2468 92.6274 86.4141 92.5333C86.5815 92.4392 86.714 92.2936 86.7922 92.1183L88.0084 89.4116C88.1308 89.1397 88.3364 88.9138 88.5956 88.7664L88.6601 88.9438C88.6807 89.004 88.7146 89.0587 88.7593 89.104C88.804 89.1492 88.8583 89.1838 88.9182 89.2051L91.4216 90.431C91.4985 90.4662 91.584 90.4783 91.6677 90.4656C91.7513 90.453 91.8295 90.4164 91.8926 90.3601L94.0702 88.3631C94.2032 88.243 94.3041 88.0916 94.3638 87.9226C94.4235 87.7536 94.4401 87.5724 94.4122 87.3953L94.0896 85.2145C94.0353 84.8453 94.1179 84.4689 94.3218 84.1564L95.3187 82.6143C95.4447 82.417 95.6182 82.2545 95.8234 82.1417C96.0286 82.029 96.2588 81.9696 96.493 81.9691H97.8189C97.9813 81.9692 98.1399 81.9195 98.2731 81.8266C98.4064 81.7337 98.508 81.6021 98.5641 81.4497L99.7674 78.2043C99.824 78.0596 99.8264 77.8993 99.7743 77.7529C99.7221 77.6065 99.6189 77.4838 99.4835 77.4075H99.4674L99.419 77.3817L97.7479 76.5687C97.7317 76.4978 97.7252 76.4251 97.7285 76.3526L97.8995 74.7137ZM89.8925 73.1523C90.4217 72.7593 91.0325 72.4903 91.6797 72.3652C91.9528 72.912 92.1161 73.5072 92.1604 74.1169C92.4314 77.0203 90.7119 80.7787 88.3181 82.4756C87.7976 82.8676 87.1992 83.1437 86.5632 83.2853C86.2704 82.7363 86.0968 82.1317 86.0534 81.511C85.7857 78.5914 87.4987 74.8492 89.8925 73.1523Z" fill="#1F3328"/>
<path opacity="0.2" d="M82.9726 82.8628L80.2143 85.663L77.6689 84.35C77.7223 84.1721 77.8174 84.0095 77.9464 83.8758L79.811 81.9401C79.9286 81.82 80.0208 81.6773 80.082 81.5208L82.9726 82.8628Z" fill="#1F3328"/>
<path opacity="0.2" d="M84.9768 74.6331L84.922 74.9557H82.5315L80.1797 73.6136C80.2606 73.5916 80.3442 73.5808 80.4281 73.5814H81.8185C82.0304 73.5812 82.2368 73.5146 82.4089 73.391L84.9768 74.6331Z" fill="#1F3328"/>
<path opacity="0.2" d="M89.2894 66.4099L88.2119 67.4712L86.3053 69.3488L83.7793 67.9551C83.8429 67.7536 83.9535 67.5701 84.1019 67.4196L86.2472 65.2517C86.3058 65.1916 86.381 65.1503 86.4631 65.133C86.5453 65.1158 86.6307 65.1234 86.7086 65.1549L86.7892 65.1969L89.2894 66.4099Z" fill="#1F3328"/>
<path opacity="0.2" d="M96.5608 64.5259H94.051L91.5508 63.2064C91.6334 63.1293 91.7321 63.0714 91.8397 63.0368C91.9474 63.0022 92.0613 62.9918 92.1734 63.0064L93.809 63.2129C93.8804 63.2205 93.9495 63.2425 94.0123 63.2774L96.5608 64.5259Z" fill="#1F3328"/>
<path d="M98.4616 73.4749L100.258 71.6586C100.396 71.5248 100.497 71.3587 100.553 71.1756C100.61 70.9924 100.619 70.798 100.581 70.6102L100.126 68.4197C100.111 68.3441 100.076 68.2737 100.026 68.2154C99.975 68.1572 99.9103 68.1129 99.8376 68.0869C99.765 68.061 99.6869 68.0542 99.6108 68.0673C99.5348 68.0804 99.4634 68.1129 99.4036 68.1616L97.5357 69.6972C97.4383 69.7764 97.3148 69.8164 97.1895 69.8092C97.0641 69.802 96.946 69.7483 96.8582 69.6585L96.3227 69.1004C96.1526 68.9295 96.0326 68.7152 95.9757 68.4809C95.9189 68.2466 95.9273 68.0011 96.0001 67.7713L96.8421 65.2162C96.8673 65.1364 96.8747 65.052 96.8639 64.969C96.853 64.8859 96.8242 64.8063 96.7793 64.7356C96.7344 64.6649 96.6746 64.6049 96.6041 64.5597C96.5336 64.5146 96.4541 64.4854 96.3711 64.4742L94.7355 64.2678C94.5699 64.246 94.4018 64.2786 94.2563 64.3607C94.1109 64.4427 93.996 64.5697 93.929 64.7226L92.7192 67.4874C92.5709 67.8234 92.2996 68.0901 91.9611 68.2326L90.8739 68.6939C90.8102 68.7205 90.7419 68.7341 90.6729 68.7339C90.6039 68.7336 90.5357 68.7196 90.4722 68.6925C90.4088 68.6654 90.3514 68.6259 90.3035 68.5763C90.2555 68.5267 90.218 68.4679 90.1932 68.4036L89.5125 66.6454C89.4864 66.5782 89.444 66.5186 89.3891 66.472C89.3341 66.4254 89.2684 66.3932 89.1979 66.3785C89.1274 66.3638 89.0543 66.3669 88.9853 66.3876C88.9163 66.4082 88.8535 66.4459 88.8028 66.497L86.6607 68.6681C86.516 68.8141 86.4077 68.9921 86.3443 69.1876C86.281 69.3832 86.2645 69.5909 86.2961 69.794L86.5994 71.7683C86.6383 72.0116 86.5866 72.2607 86.4542 72.4684L85.2347 74.3718C85.1426 74.5149 85.0161 74.6327 84.8668 74.7144C84.7175 74.7961 84.5501 74.8391 84.3798 74.8395H82.9894C82.7963 74.8388 82.6074 74.8959 82.447 75.0034C82.2866 75.1109 82.1621 75.2639 82.0893 75.4428L80.8634 78.7914C80.839 78.857 80.828 78.9269 80.8311 78.9968C80.8342 79.0667 80.8513 79.1353 80.8814 79.1984C80.9115 79.2616 80.9539 79.3181 81.0063 79.3646C81.0586 79.4111 81.1197 79.4465 81.186 79.4689L82.4765 79.856C82.6245 79.901 82.7522 79.9961 82.8376 80.1251C82.9229 80.254 82.9607 80.4088 82.9442 80.5625L82.7378 82.4433C82.7073 82.7327 82.58 83.0033 82.3765 83.2111L80.5118 85.1306C80.3782 85.2698 80.2809 85.4397 80.2286 85.6254C80.1763 85.8111 80.1705 86.0068 80.2118 86.1952L80.7376 88.5825C80.7505 88.6406 80.7782 88.6945 80.8178 88.7389C80.8575 88.7833 80.9079 88.8169 80.9642 88.8363C81.0205 88.8557 81.0808 88.8604 81.1394 88.8498C81.198 88.8393 81.2529 88.8139 81.299 88.7761L83.1314 87.2663C83.2036 87.2066 83.287 87.1618 83.3767 87.1344C83.4664 87.1071 83.5606 87.0979 83.6539 87.1072C83.7471 87.1165 83.8377 87.1441 83.9202 87.1886C84.0027 87.2331 84.0756 87.2935 84.1347 87.3663L84.5992 87.9341C84.7116 88.0712 84.7888 88.2336 84.8242 88.4073C84.8596 88.581 84.8522 88.7608 84.8025 88.9309L83.9927 91.7376C83.9706 91.8133 83.9652 91.8929 83.9769 91.9708C83.9885 92.0488 84.0169 92.1234 84.0602 92.1893C84.1034 92.2552 84.1605 92.311 84.2273 92.3528C84.2942 92.3945 84.3694 92.4213 84.4476 92.4312L85.8735 92.6086C86.064 92.6329 86.2572 92.5952 86.4245 92.501C86.5919 92.4069 86.7244 92.2614 86.8026 92.086L88.0188 89.3793C88.1553 89.0706 88.3979 88.8211 88.7028 88.6761L89.7641 88.1728C89.8472 88.1311 89.9383 88.1078 90.0312 88.1046C90.1242 88.1013 90.2167 88.1182 90.3025 88.1541C90.3883 88.1899 90.4653 88.2439 90.5283 88.3122C90.5913 88.3806 90.6387 88.4618 90.6674 88.5502L91.232 90.1633C91.255 90.2309 91.2945 90.2917 91.3469 90.3402C91.3994 90.3886 91.4631 90.4232 91.5323 90.4409C91.6015 90.4585 91.674 90.4586 91.7433 90.4411C91.8125 90.4236 91.8763 90.3891 91.9288 90.3407L94.1064 88.3438C94.2394 88.2236 94.3403 88.0722 94.4 87.9032C94.4597 87.7342 94.4763 87.553 94.4484 87.376L94.1258 85.1952C94.0715 84.8259 94.1541 84.4496 94.358 84.137L95.3549 82.595C95.4809 82.3976 95.6544 82.2351 95.8596 82.1224C96.0648 82.0096 96.295 81.9503 96.5292 81.9497H97.8551C98.0175 81.9498 98.1761 81.9001 98.3093 81.8072C98.4426 81.7143 98.5442 81.5828 98.6003 81.4304L99.8036 78.1849C99.8382 78.0991 99.8539 78.0069 99.8497 77.9145C99.8455 77.8221 99.8214 77.7317 99.7792 77.6494C99.737 77.5671 99.6775 77.4948 99.6049 77.4375C99.5323 77.3802 99.4483 77.3391 99.3584 77.3171L98.2616 77.0236C98.1115 76.9822 97.9804 76.8903 97.8904 76.7633C97.8004 76.6362 97.7572 76.482 97.768 76.3267L97.8873 74.675C97.9309 74.2197 98.1344 73.7945 98.4616 73.4749ZM90.8803 83.7305C88.4866 85.4274 86.3252 84.4338 86.0413 81.511C85.7574 78.5882 87.4865 74.8492 89.8803 73.1523C92.274 71.4554 94.4355 72.449 94.7193 75.3718C95.0032 78.2946 93.2741 82.0336 90.8803 83.7305Z" fill="#1F3328"/>
</svg>
