<svg width="1625" height="478" viewBox="0 0 1625 478" fill="none" xmlns="http://www.w3.org/2000/svg">
<path d="M247.416 0H203.776C201.985 0 200.529 1.35155 200.529 3.01885V354.954C200.529 373.642 195.578 392.044 186.113 408.534L170.867 435.1C165.538 444.385 150.394 440.866 150.394 430.343L150.404 12.7171C150.404 8.78478 146.977 5.59677 142.745 5.59677H104.774C101.992 5.59677 99.4343 6.99681 98.0801 9.25503L65.555 63.5775C56.0368 79.4763 37.9953 89.3347 18.4152 89.3347H14.8331C6.63994 89.3347 0 95.506 0 103.119V474.221C0 475.889 1.45123 477.24 3.24713 477.24H46.8873C48.6783 477.24 50.1346 475.889 50.1346 474.221V126.374C50.1346 107.685 55.0853 89.2839 64.5502 72.7941L79.7959 46.2278C85.1253 36.9429 100.269 40.4619 100.269 50.9844L100.259 468.611C100.259 472.543 103.686 475.731 107.919 475.731H145.89C148.671 475.731 151.229 474.331 152.583 472.073L185.108 417.751C194.626 401.851 212.668 391.993 232.243 391.993H235.83C244.023 391.993 250.663 385.822 250.663 378.209V3.01885C250.663 1.35155 249.212 0 247.416 0Z" fill="#85BEF7" fill-opacity="0.3"/>
<path d="M524.585 0H480.945C479.154 0 477.698 1.35155 477.698 3.01885V354.954C477.698 373.642 472.747 392.044 463.282 408.534L448.036 435.1C442.707 444.385 427.563 440.866 427.563 430.343L427.573 12.7171C427.573 8.78478 424.146 5.59677 419.913 5.59677H381.942C379.161 5.59677 376.603 6.99681 375.249 9.25503L342.724 63.5775C333.206 79.4763 315.164 89.3347 295.584 89.3347H292.002C283.809 89.3347 277.169 95.506 277.169 103.119V474.221C277.169 475.889 278.62 477.24 280.416 477.24H324.056C325.847 477.24 327.303 475.889 327.303 474.221V126.374C327.303 107.685 332.254 89.2839 341.719 72.7941L356.965 46.2278C362.294 36.9429 377.438 40.4619 377.438 50.9844L377.428 468.611C377.428 472.543 380.855 475.731 385.088 475.731H423.059C425.84 475.731 428.398 474.331 429.752 472.073L462.277 417.751C471.795 401.851 489.837 391.993 509.412 391.993H512.999C521.192 391.993 527.832 385.822 527.832 378.209V3.01885C527.832 1.35155 526.381 0 524.585 0Z" fill="#85BEF7" fill-opacity="0.3"/>
<path d="M801.753 0H758.113C756.322 0 754.865 1.35155 754.865 3.01885V354.954C754.865 373.642 749.915 392.044 740.45 408.534L725.204 435.1C719.875 444.385 704.731 440.866 704.731 430.343L704.741 12.7171C704.741 8.78478 701.314 5.59677 697.081 5.59677H659.11C656.329 5.59677 653.771 6.99681 652.417 9.25503L619.892 63.5775C610.374 79.4763 592.332 89.3347 572.752 89.3347H569.17C560.977 89.3347 554.337 95.506 554.337 103.119V474.221C554.337 475.889 555.788 477.24 557.584 477.24H601.224C603.015 477.24 604.471 475.889 604.471 474.221V126.374C604.471 107.685 609.422 89.2839 618.887 72.7941L634.133 46.2278C639.462 36.9429 654.606 40.4619 654.606 50.9844L654.596 468.611C654.596 472.543 658.023 475.731 662.256 475.731H700.227C703.008 475.731 705.566 474.331 706.92 472.073L739.445 417.751C748.963 401.851 767.005 391.993 786.58 391.993H790.167C798.36 391.993 805 385.822 805 378.209V3.01885C805 1.35155 803.549 0 801.753 0Z" fill="#85BEF7" fill-opacity="0.3"/>
<path d="M1067.42 0H1023.78C1021.98 0 1020.53 1.35155 1020.53 3.01885V354.954C1020.53 373.642 1015.58 392.044 1006.11 408.534L990.867 435.1C985.538 444.385 970.394 440.866 970.394 430.343L970.404 12.7171C970.404 8.78478 966.977 5.59677 962.745 5.59677H924.774C921.992 5.59677 919.434 6.99681 918.08 9.25503L885.555 63.5775C876.037 79.4763 857.995 89.3347 838.415 89.3347H834.833C826.64 89.3347 820 95.506 820 103.119V474.221C820 475.889 821.451 477.24 823.247 477.24H866.887C868.678 477.24 870.135 475.889 870.135 474.221V126.374C870.135 107.685 875.085 89.2839 884.55 72.7941L899.796 46.2278C905.125 36.9429 920.269 40.4619 920.269 50.9844L920.259 468.611C920.259 472.543 923.686 475.731 927.919 475.731H965.89C968.671 475.731 971.229 474.331 972.583 472.073L1005.11 417.751C1014.63 401.851 1032.67 391.993 1052.24 391.993H1055.83C1064.02 391.993 1070.66 385.822 1070.66 378.209V3.01885C1070.66 1.35155 1069.21 0 1067.42 0Z" fill="#85BEF7" fill-opacity="0.3"/>
<path d="M1344.58 0H1300.94C1299.15 0 1297.7 1.35155 1297.7 3.01885V354.954C1297.7 373.642 1292.75 392.044 1283.28 408.534L1268.04 435.1C1262.71 444.385 1247.56 440.866 1247.56 430.343L1247.57 12.7171C1247.57 8.78478 1244.15 5.59677 1239.91 5.59677H1201.94C1199.16 5.59677 1196.6 6.99681 1195.25 9.25503L1162.72 63.5775C1153.21 79.4763 1135.16 89.3347 1115.58 89.3347H1112C1103.81 89.3347 1097.17 95.506 1097.17 103.119V474.221C1097.17 475.889 1098.62 477.24 1100.42 477.24H1144.06C1145.85 477.24 1147.3 475.889 1147.3 474.221V126.374C1147.3 107.685 1152.25 89.2839 1161.72 72.7941L1176.96 46.2278C1182.29 36.9429 1197.44 40.4619 1197.44 50.9844L1197.43 468.611C1197.43 472.543 1200.86 475.731 1205.09 475.731H1243.06C1245.84 475.731 1248.4 474.331 1249.75 472.073L1282.28 417.751C1291.8 401.851 1309.84 391.993 1329.41 391.993H1333C1341.19 391.993 1347.83 385.822 1347.83 378.209V3.01885C1347.83 1.35155 1346.38 0 1344.58 0Z" fill="#85BEF7" fill-opacity="0.3"/>
<path d="M1621.75 0H1578.11C1576.32 0 1574.87 1.35155 1574.87 3.01885V354.954C1574.87 373.642 1569.91 392.044 1560.45 408.534L1545.2 435.1C1539.87 444.385 1524.73 440.866 1524.73 430.343L1524.74 12.7171C1524.74 8.78478 1521.31 5.59677 1517.08 5.59677H1479.11C1476.33 5.59677 1473.77 6.99681 1472.42 9.25503L1439.89 63.5775C1430.37 79.4763 1412.33 89.3347 1392.75 89.3347H1389.17C1380.98 89.3347 1374.34 95.506 1374.34 103.119V474.221C1374.34 475.889 1375.79 477.24 1377.58 477.24H1421.22C1423.02 477.24 1424.47 475.889 1424.47 474.221V126.374C1424.47 107.685 1429.42 89.2839 1438.89 72.7941L1454.13 46.2278C1459.46 36.9429 1474.61 40.4619 1474.61 50.9844L1474.6 468.611C1474.6 472.543 1478.02 475.731 1482.26 475.731H1520.23C1523.01 475.731 1525.57 474.331 1526.92 472.073L1559.45 417.751C1568.96 401.851 1587 391.993 1606.58 391.993H1610.17C1618.36 391.993 1625 385.822 1625 378.209V3.01885C1625 1.35155 1623.55 0 1621.75 0Z" fill="#85BEF7" fill-opacity="0.3"/>
</svg>
