<svg width="129" height="36" viewBox="0 0 129 36" fill="none" xmlns="http://www.w3.org/2000/svg">
<path d="M45.303 27.1147V8.5156H47.9871L58.2165 22.2259C58.4462 22.5273 58.6591 22.8631 58.8545 23.2355C59.0491 23.6072 59.1994 23.9705 59.3063 24.3246L59.3589 24.2986C59.2345 23.9621 59.1376 23.5805 59.0666 23.1554C58.9957 22.7303 58.9606 22.3411 58.9606 21.987V8.5156H61.5646V27.1147H58.8804L48.6243 13.5639C48.4122 13.2808 48.2083 12.9488 48.0136 12.5673C47.8183 12.1864 47.6588 11.8193 47.5352 11.4645L47.5084 11.4912C47.6145 11.8461 47.7077 12.2315 47.7879 12.6474C47.8672 13.0633 47.907 13.4579 47.907 13.8295V27.1147H45.303Z" fill="#1F2933"/>
<path d="M70.2265 27.2742C69.2519 27.2742 68.3215 27.1368 67.4363 26.8621C66.5502 26.5881 65.7756 26.1676 65.1109 25.5998C64.4469 25.0336 63.9196 24.3246 63.5304 23.4744C63.1404 22.6242 62.9458 21.6237 62.9458 20.4721C62.9458 19.3205 63.1404 18.32 63.5304 17.4698C63.9196 16.6196 64.4469 15.9114 65.1109 15.3444C65.7756 14.7774 66.5502 14.3569 67.4363 14.0821C68.3215 13.8074 69.2519 13.67 70.2265 13.67C71.2003 13.67 72.1168 13.812 72.9761 14.0951C73.8354 14.379 74.5833 14.7995 75.2213 15.3574C75.8594 15.9153 76.3637 16.6196 76.7354 17.4698C77.1078 18.32 77.294 19.3205 77.294 20.4721V20.8575C77.294 20.9193 77.2757 21.0391 77.2406 21.2162H65.6559C65.8505 22.5449 66.364 23.537 67.1974 24.1918C68.0293 24.8473 69.0573 25.1663 70.2791 25.1488C71.3063 25.1312 72.2053 24.9359 72.9761 24.5642C73.7469 24.1918 74.3178 23.5103 74.6902 22.5182L77.0811 22.8372C76.8331 23.6339 76.4837 24.3162 76.0319 24.8824C75.5801 25.4502 75.0527 25.9058 74.4506 26.2508C73.8484 26.5965 73.189 26.8537 72.4709 27.0216C71.7535 27.1895 71.0057 27.2742 70.2265 27.2742ZM70.2791 15.7161C69.6945 15.7161 69.1098 15.8267 68.5252 16.048C67.9406 16.2701 67.4271 16.6059 66.9845 17.0577C66.5418 17.5095 66.1915 18.0811 65.9351 18.7718C65.6779 19.4624 65.5849 20.2775 65.6559 21.2162C65.7619 20.8621 65.8816 20.5782 66.0144 20.366C66.1472 20.1531 66.3067 19.9936 66.4929 19.8875C66.6791 19.7814 66.8915 19.7105 67.1303 19.6754C67.37 19.6395 67.6484 19.6219 67.9674 19.6219H74.823C74.6276 18.2582 74.1277 17.2706 73.3218 16.6593C72.5152 16.048 71.5017 15.7336 70.2791 15.7161Z" fill="#1F2933"/>
<path d="M77.2147 13.8295H80.5361L83.8307 18.001C83.9192 18.1254 83.9855 18.2666 84.0298 18.4261C84.074 18.5856 84.0963 18.7451 84.0963 18.9046H84.1497C84.1497 18.5505 84.2466 18.249 84.442 18.001L87.7099 13.8295H91.0045L85.8499 20.4187L91.0045 27.1147H87.7366L84.4152 22.8372C84.326 22.7135 84.2595 22.567 84.216 22.3983C84.1709 22.2304 84.1497 22.0755 84.1497 21.9336H84.0963C84.0963 22.0755 84.0696 22.2304 84.0169 22.3983C83.9635 22.567 83.8925 22.7135 83.804 22.8372L80.5093 27.1147H77.2147L82.3958 20.4187L77.2147 13.8295Z" fill="#1F2933"/>
<path d="M92.4132 8.14318H95.017V27.1147H92.4132V8.14318Z" fill="#1F2933"/>
<path d="M96.7434 10.7738V8.5156H99.4274V10.7738H96.7434ZM96.7968 27.1147H99.3739V13.8295H96.7968V27.1147Z" fill="#1F2933"/>
<path d="M101.021 13.8295H103.625V16.5662C103.625 16.8318 103.603 17.1287 103.558 17.4561C103.514 17.7842 103.466 18.0811 103.413 18.3467L103.466 18.3734C103.519 18.1071 103.585 17.8148 103.665 17.4965C103.745 17.1775 103.855 16.8944 103.997 16.6456C104.546 15.5833 105.255 14.8125 106.123 14.3347C106.99 13.8562 107.876 13.6166 108.78 13.6166C109.612 13.6166 110.316 13.8028 110.892 14.1752C111.468 14.5469 111.928 15.0429 112.274 15.6626C112.619 16.2831 112.867 16.9959 113.018 17.8018C113.168 18.6077 113.244 19.4541 113.244 20.3393V27.1147H110.64V20.3393C110.64 19.0641 110.409 18.059 109.949 17.3233C109.488 16.5884 108.807 16.2205 107.903 16.2205C107.566 16.2205 107.154 16.2961 106.668 16.4464C106.18 16.5975 105.711 16.8898 105.259 17.3233C104.808 17.7575 104.422 18.3597 104.103 19.1305C103.784 19.9005 103.625 20.9064 103.625 22.1457V27.1147H101.021V13.8295Z" fill="#1F2933"/>
<path d="M121.932 27.2742C120.958 27.2742 120.027 27.1368 119.142 26.8621C118.256 26.5881 117.482 26.1676 116.817 25.5998C116.153 25.0336 115.626 24.3246 115.236 23.4744C114.846 22.6242 114.652 21.6237 114.652 20.4721C114.652 19.3205 114.846 18.32 115.236 17.4698C115.626 16.6196 116.153 15.9114 116.817 15.3444C117.482 14.7774 118.256 14.3569 119.142 14.0821C120.027 13.8074 120.958 13.67 121.932 13.67C122.906 13.67 123.823 13.812 124.682 14.0951C125.541 14.379 126.289 14.7995 126.927 15.3574C127.565 15.9153 128.07 16.6196 128.441 17.4698C128.814 18.32 129 19.3205 129 20.4721V20.8575C129 20.9193 128.982 21.0391 128.947 21.2162H117.362C117.556 22.5449 118.07 23.537 118.903 24.1918C119.735 24.8473 120.763 25.1663 121.985 25.1488C123.012 25.1312 123.911 24.9359 124.682 24.5642C125.453 24.1918 126.024 23.5103 126.396 22.5182L128.787 22.8372C128.539 23.6339 128.19 24.3162 127.738 24.8824C127.286 25.4502 126.759 25.9058 126.157 26.2508C125.554 26.5965 124.895 26.8537 124.177 27.0216C123.459 27.1895 122.712 27.2742 121.932 27.2742ZM121.985 15.7161C121.4 15.7161 120.816 15.8267 120.231 16.048C119.647 16.2701 119.133 16.6059 118.69 17.0577C118.248 17.5095 117.897 18.0811 117.641 18.7718C117.384 19.4624 117.291 20.2775 117.362 21.2162C117.468 20.8621 117.588 20.5782 117.72 20.366C117.853 20.1531 118.013 19.9936 118.199 19.8875C118.385 19.7814 118.597 19.7105 118.836 19.6754C119.076 19.6395 119.354 19.6219 119.673 19.6219H126.529C126.334 18.2582 125.834 17.2706 125.028 16.6593C124.221 16.048 123.208 15.7336 121.985 15.7161Z" fill="#1F2933"/>
<path d="M32.5911 0H26.8425C26.6066 0 26.4149 0.191572 26.4149 0.427898V18.0843C26.4149 20.7333 25.7627 23.3416 24.5159 25.6788L22.5075 29.4444C21.8055 30.7604 19.8107 30.2616 19.8107 28.7701L19.8121 1.80254C19.8121 1.24517 19.3607 0.793298 18.8031 0.793298H13.8014C13.4351 0.793298 13.0981 0.991735 12.9198 1.31182L8.63521 9.01157C7.38141 11.2651 5.00503 12.6624 2.42582 12.6624H1.95395C0.874702 12.6624 0 13.5372 0 14.6162V34.9895C0 35.2258 0.191106 35.4174 0.427672 35.4174H6.17624C6.41217 35.4174 6.60391 35.2258 6.60391 34.9895V17.9125C6.60391 15.2635 7.25606 12.6553 8.50283 10.318L10.5112 6.5524C11.2132 5.23634 13.208 5.73513 13.208 7.22662L13.2068 34.1943C13.2068 34.7516 13.6581 35.2034 14.2156 35.2034H19.2175C19.5839 35.2034 19.9208 35.005 20.0992 34.6849L24.3836 26.9852C25.6374 24.7316 28.0138 23.3344 30.5923 23.3344H31.065C32.1443 23.3344 33.0188 22.4596 33.0188 21.3805V0.427898C33.0188 0.191572 32.8277 0 32.5911 0Z" fill="#1F2933"/>
</svg>
