<svg width="393" height="236" viewBox="0 0 393 236" fill="none" xmlns="http://www.w3.org/2000/svg">
<g style="mix-blend-mode:darken">
<path d="M383.746 110.545C373.382 96.0879 351.415 88.3422 350.844 66.6764C350.474 52.5981 356.87 44.9679 346.634 32.9505C321.892 3.90151 283.764 0.497167 251.208 12.6323C218.663 24.7635 192.654 49.0807 156.471 47.6151C136.766 46.8169 118.458 37.4744 98.9528 35.7213C92.9438 35.1812 87.3293 35.6444 82.0789 36.988C62.3968 42.0249 45.0186 60.9386 38.4746 81.9513C33.1698 98.985 39.9474 115.8 31.6181 132.48C22.7401 150.259 5.25643 162.608 0.851488 183.134C-4.43544 207.769 15.764 229.193 37.4619 229.863C51.2729 230.289 76.8731 228.085 88.6061 219.572C102.892 209.206 116.934 208.524 133.589 208.921C165.284 209.677 196.979 216.803 228.266 221.876C255.075 226.223 281.498 232.66 308.669 233.478C328.622 234.078 345.556 234.348 356.353 212.697C369.258 186.818 405.486 140.867 383.746 110.545Z" fill="#1F2933"/>
<path d="M386.203 104.51C375.839 90.0534 353.872 82.3078 353.301 60.6419C352.93 46.5636 359.327 38.9335 349.092 26.9161C324.349 -2.13294 286.221 -5.53725 253.665 6.59792C221.12 18.729 195.111 43.0463 158.928 41.5806C139.223 40.7824 120.915 31.44 101.41 29.6868C95.4008 29.1467 89.7863 29.61 84.5359 30.9536C64.8538 35.9905 47.4756 54.9042 40.9316 75.9169C35.6269 92.9506 42.4044 109.766 34.0751 126.446C25.1971 144.225 7.71346 156.574 3.30852 177.1C-1.97841 201.735 18.2211 223.159 39.9189 223.829C53.7299 224.255 79.3302 222.051 91.0631 213.538C105.35 203.172 119.391 202.49 136.046 202.887C167.741 203.643 199.436 210.768 230.723 215.841C257.532 220.189 283.955 226.626 311.125 227.443C331.079 228.044 348.013 228.314 358.81 206.662C371.715 180.784 407.943 134.833 386.203 104.51Z" fill="#B9F0F7"/>
<path d="M368.283 111.815C369.471 111.429 370.388 112.895 369.518 113.791C361.109 122.451 339.768 145.85 333.26 166.552C322.662 200.258 293.983 235.26 267.338 233.104C267.338 233.104 238.9 153.868 368.283 111.815Z" fill="#91B3FA"/>
<path d="M269.651 233.48C268.866 233.48 268.089 233.449 267.316 233.386L267.133 233.372L267.072 233.2C266.984 232.956 258.493 208.517 272.5 179.959C286.945 150.507 319.141 127.489 368.196 111.545C368.855 111.332 369.547 111.584 369.915 112.175C370.282 112.764 370.204 113.492 369.723 113.989C360.99 122.98 339.985 146.11 333.531 166.637C328.15 183.752 318.306 200.822 306.525 213.47C294.432 226.451 281.435 233.48 269.651 233.48ZM267.547 232.835C279.713 233.737 293.397 226.73 306.11 213.083C317.835 200.495 327.632 183.504 332.989 166.466C339.48 145.824 360.555 122.614 369.315 113.593C369.682 113.216 369.608 112.755 369.433 112.475C369.257 112.193 368.875 111.923 368.371 112.085C319.476 127.977 287.394 150.893 273.016 180.195C259.728 207.275 266.816 230.605 267.547 232.835Z" fill="#1F2933"/>
<path d="M355.301 122.491C355.071 122.665 354.805 122.893 354.553 123.101L353.795 123.75L352.292 125.065L349.312 127.727C347.339 129.517 345.389 131.332 343.455 133.165C339.583 136.824 335.776 140.553 332.047 144.356C324.604 151.976 317.372 159.807 310.573 168.001C307.192 172.112 303.835 176.244 300.653 180.51C297.473 184.776 294.388 189.114 291.483 193.571C288.582 198.029 285.795 202.566 283.278 207.253C280.75 211.933 278.452 216.736 276.416 221.658L276.415 221.661C276.373 221.763 276.256 221.812 276.153 221.769C276.053 221.728 276.005 221.615 276.042 221.514C277.9 216.503 280.121 211.631 282.544 206.865C285.001 202.114 287.731 197.511 290.578 192.986C296.366 183.993 302.785 175.419 309.642 167.224C313.063 163.119 316.617 159.128 320.225 155.191C323.837 151.256 327.532 147.398 331.331 143.645C335.125 139.887 338.975 136.186 342.923 132.592C344.9 130.798 346.893 129.022 348.908 127.272C349.919 126.4 350.93 125.528 351.954 124.672L353.5 123.397L354.28 122.768C354.549 122.561 354.791 122.357 355.103 122.141C355.193 122.079 355.317 122.101 355.38 122.192C355.441 122.28 355.421 122.399 355.337 122.463L355.301 122.491Z" fill="#1F2933"/>
<path d="M261.412 36.0991C250.319 53.3686 190.819 154.85 271.819 230.035C274.557 232.576 278.913 232.084 281.044 229.016C293.126 211.622 322.899 151.476 264.481 36.2499C263.862 35.0304 262.151 34.9488 261.412 36.0991Z" fill="#85BEF7"/>
<path d="M275.979 231.95C274.371 231.95 272.815 231.346 271.626 230.243C252.963 212.92 240.367 192.826 234.187 170.518C229.116 152.211 228.313 132.288 231.8 111.302C237.964 74.2147 255.841 44.2472 261.173 35.9458C261.577 35.3173 262.262 34.9619 263.01 35.0027C263.753 35.0404 264.397 35.4588 264.733 36.1218C289.823 85.6102 301.515 130.429 299.483 169.334C297.83 200.976 287.367 220.41 281.277 229.177C280.209 230.715 278.53 231.712 276.67 231.913C276.439 231.938 276.208 231.95 275.979 231.95ZM261.65 36.2524C249.289 55.497 191.692 155.274 272.012 229.827C273.25 230.976 274.927 231.532 276.609 231.349C278.305 231.165 279.837 230.256 280.811 228.854C286.867 220.136 297.271 200.806 298.917 169.305C300.943 130.5 289.272 85.7772 264.227 36.3782C263.984 35.8992 263.518 35.5966 262.981 35.5693C262.442 35.5442 261.943 35.7971 261.65 36.2524Z" fill="#1F2933"/>
<path d="M263.466 57.1859C262.372 63.7703 261.414 70.3847 260.513 77.0024C259.615 83.6216 258.793 90.251 258.049 96.8887C256.561 110.164 255.37 123.473 254.589 136.804C253.819 150.133 253.436 163.491 253.784 176.827C253.937 183.495 254.331 190.155 254.979 196.783C255.636 203.408 256.555 210.012 257.991 216.496L257.992 216.499C258.088 216.932 257.815 217.361 257.382 217.457C256.949 217.553 256.52 217.279 256.424 216.846L256.423 216.842C255.006 210.263 254.118 203.599 253.495 196.925C252.882 190.249 252.525 183.554 252.41 176.859C252.138 163.469 252.6 150.083 253.448 136.734C254.307 123.383 255.577 110.065 257.144 96.7844C257.927 90.144 258.787 83.5131 259.724 76.8932C260.664 70.2729 261.661 63.6639 262.796 57.0694C262.828 56.8843 263.003 56.76 263.189 56.7918C263.373 56.8236 263.497 56.9983 263.466 57.1827L263.466 57.1859Z" fill="#1F2933"/>
<path d="M359.797 161.16C360.693 161.059 361.129 162.229 360.385 162.736C353.185 167.643 334.708 181.1 327.11 194.796C314.738 217.097 289.394 237.697 270.865 232.316C270.865 232.316 262.223 172.172 359.797 161.16Z" fill="#AEF2BE"/>
<path d="M349.089 166.883C348.914 166.97 348.688 167.095 348.482 167.207L347.855 167.559L346.607 168.278L344.122 169.739C342.472 170.727 340.835 171.734 339.207 172.757C335.948 174.795 332.722 176.885 329.542 179.043C323.193 183.372 316.946 187.855 310.963 192.67C307.984 195.091 305.009 197.518 302.142 200.07C299.275 202.621 296.468 205.239 293.766 207.961C288.342 213.385 283.318 219.219 278.987 225.567C278.925 225.659 278.801 225.684 278.708 225.622C278.619 225.562 278.594 225.441 278.649 225.35C280.666 222.058 282.933 218.923 285.325 215.889C287.743 212.875 290.334 210.005 292.996 207.207C298.388 201.673 304.165 196.525 310.207 191.722C313.224 189.315 316.318 187.009 319.443 184.748C322.57 182.488 325.745 180.297 328.983 178.203C332.217 176.102 335.481 174.048 338.801 172.088C340.463 171.113 342.134 170.152 343.817 169.212C344.661 168.746 345.504 168.278 346.355 167.825L347.637 167.154L348.282 166.826C348.505 166.719 348.701 166.612 348.965 166.501C349.067 166.459 349.183 166.507 349.225 166.608C349.266 166.705 349.224 166.816 349.131 166.862L349.089 166.883Z" fill="#1F2933"/>
<path d="M54.1631 68.5021C50.8959 87.3537 36.3627 197.836 137.588 230.096C137.588 230.096 165.879 159.824 56.801 67.5384C55.8468 66.731 54.3765 67.2705 54.1631 68.5021Z" fill="#AEF2BE"/>
<path d="M137.753 230.446L137.502 230.366C114.18 222.933 95.228 210.722 81.1722 194.071C69.642 180.412 61.3132 163.68 56.416 144.34C47.7763 110.219 52.2937 77.6291 53.8839 68.4535C54.0017 67.772 54.4604 67.2241 55.111 66.9877C55.7567 66.7518 56.4588 66.8768 56.9846 67.3217C81.886 88.3897 101.634 110.055 115.68 131.717C126.922 149.055 134.558 166.431 138.375 183.362C144.882 212.218 137.922 230.025 137.851 230.202L137.753 230.446ZM55.765 67.439C55.6111 67.439 55.4559 67.4659 55.3046 67.521C54.848 67.6869 54.5258 68.0717 54.443 68.5503C50.7506 89.8559 37.4138 197.681 137.417 229.743C138.223 227.508 143.879 210.3 137.811 183.438C131.825 156.937 112.879 115.355 56.6184 67.7547C56.3724 67.547 56.0724 67.439 55.765 67.439Z" fill="#1F2933"/>
<path d="M63.4188 85.5253C64.8397 91.4587 66.3851 97.3702 67.9803 103.263C69.5785 109.157 71.2447 115.032 72.9792 120.886C76.4479 132.595 80.1781 144.226 84.2625 155.73C88.355 167.228 92.7834 178.612 97.8193 189.718C100.319 195.278 103.02 200.745 105.922 206.095C108.831 211.439 111.953 216.671 115.467 221.618L115.469 221.621C115.726 221.982 115.641 222.483 115.279 222.74C114.918 222.997 114.416 222.912 114.16 222.551L114.157 222.547C110.623 217.506 107.507 212.205 104.61 206.803C101.721 201.395 99.0413 195.881 96.5659 190.282C91.579 179.097 87.2122 167.656 83.1842 156.109C79.1646 144.557 75.5029 132.886 72.1042 121.142C70.4047 115.27 68.774 109.379 67.2114 103.469C65.6515 97.5584 64.1433 91.6371 62.756 85.6785C62.7134 85.4956 62.8272 85.3128 63.0102 85.2702C63.1924 85.2277 63.3745 85.3404 63.418 85.5221L63.4188 85.5253Z" fill="#DCE5FE"/>
<g opacity="0.65">
<path d="M138.346 199.471C138.346 199.471 145.223 188.67 141.684 170.738C138.4 154.101 129.365 114.652 132.269 98.0792C132.397 97.345 131.443 96.9512 131.023 97.5671C126.521 104.174 116.547 121.608 116.993 145.847C117.569 177.104 138.346 199.471 138.346 199.471Z" fill="white"/>
</g>
<g opacity="0.45">
<path d="M128.244 112.591C127.577 114.223 127.094 115.922 126.697 117.632C126.477 118.482 126.334 119.351 126.15 120.207C126.018 121.076 125.861 121.938 125.746 122.807C125.649 123.679 125.515 124.545 125.449 125.419C125.386 126.293 125.307 127.165 125.257 128.039L125.162 130.663C125.155 131.538 125.177 132.414 125.183 133.289C125.266 136.786 125.538 140.281 126.08 143.739L126.268 145.038L126.363 145.687L126.489 146.331L126.992 148.908C127.151 149.766 127.342 150.626 127.534 151.486L128.105 154.065C128.896 157.498 129.717 160.923 130.577 164.341C131.439 167.759 132.334 171.169 133.224 174.585C133.672 176.293 134.119 178.001 134.54 179.72C134.757 180.576 134.965 181.436 135.168 182.298C135.38 183.157 135.569 184.024 135.75 184.892C136.47 188.354 137.102 191.898 136.914 195.472C136.908 195.583 136.813 195.668 136.703 195.663C136.597 195.657 136.514 195.571 136.512 195.466L136.512 195.46C136.48 193.709 136.266 191.972 135.973 190.245C135.65 188.523 135.265 186.811 134.814 185.111C133.936 181.706 132.928 178.326 131.965 174.93L130.515 169.833C130.051 168.128 129.579 166.425 129.134 164.713C128.214 161.298 127.393 157.856 126.595 154.409L126.019 151.819C125.824 150.956 125.63 150.094 125.481 149.213L124.998 146.587L124.877 145.931L124.787 145.269L124.61 143.945C124.502 143.062 124.351 142.183 124.28 141.295L124.074 138.632C123.985 137.746 123.992 136.853 123.958 135.963C123.939 135.073 123.885 134.184 123.929 133.293C123.951 129.732 124.296 126.172 124.953 122.677C125.109 121.802 125.33 120.939 125.516 120.071L125.862 118.784C125.974 118.355 126.092 117.927 126.234 117.505C126.757 115.81 127.378 114.14 128.2 112.569C128.207 112.557 128.222 112.552 128.234 112.558C128.245 112.564 128.249 112.58 128.244 112.591Z" fill="white"/>
</g>
<path d="M204.386 111.05C205.894 76.7087 177.066 47.5506 139.998 45.9233C102.931 44.2961 71.659 70.816 70.1515 105.157C68.644 139.498 97.4714 168.657 134.539 170.284C171.607 171.911 202.879 145.391 204.386 111.05Z" fill="#1F2933"/>
<g style="mix-blend-mode:soft-light">
<path d="M154.432 108.404C154.416 119.382 153.663 130.381 151.729 141.203C151.239 143.907 150.671 146.597 149.995 149.262C149.316 151.925 148.533 154.566 147.574 157.148C146.606 159.723 145.484 162.261 143.962 164.58C143.194 165.732 142.324 166.835 141.251 167.742C140.714 168.193 140.124 168.593 139.476 168.886C138.829 169.177 138.122 169.361 137.404 169.374C136.687 169.395 135.97 169.255 135.31 168.989C134.647 168.726 134.044 168.344 133.494 167.908C132.395 167.029 131.505 165.938 130.724 164.796C129.175 162.493 128.037 159.96 127.06 157.389C126.089 154.811 125.297 152.173 124.613 149.511C123.93 146.848 123.356 144.159 122.862 141.456C121.877 136.05 121.205 130.592 120.751 125.119C120.301 119.645 120.075 114.154 120.047 108.662C120.034 105.916 120.109 103.171 120.206 100.428C120.309 97.684 120.46 94.9422 120.662 92.2042C121.068 86.7288 121.675 81.2656 122.577 75.8473C123.029 73.1387 123.557 70.4417 124.191 67.7684C124.828 65.0961 125.567 62.445 126.484 59.8514C126.945 58.5558 127.449 57.274 128.024 56.0223C128.598 54.771 129.24 53.5469 129.995 52.3897C130.751 51.2375 131.621 50.1377 132.704 49.2573C133.245 48.821 133.842 48.4413 134.495 48.1841C135.146 47.9236 135.852 47.7916 136.555 47.8183C137.258 47.8383 137.951 48.0136 138.59 48.2952C139.23 48.5781 139.819 48.9628 140.359 49.399C141.439 50.2769 142.333 51.3502 143.126 52.4773C144.703 54.7472 145.892 57.2504 146.922 59.7974C147.944 62.3515 148.788 64.9717 149.523 67.6189C150.256 70.2674 150.876 72.9454 151.413 75.6391C153.538 86.4236 154.401 97.4248 154.432 108.404ZM153.62 108.404C153.63 102.934 153.422 97.4632 152.967 92.0124C152.519 86.5618 151.84 81.1269 150.829 75.7521C150.324 73.0651 149.736 70.3933 149.036 67.7511C148.333 65.1103 147.522 62.4964 146.535 59.9501C145.541 57.411 144.388 54.9164 142.858 52.6627C142.089 51.5438 141.222 50.4811 140.181 49.6165C139.661 49.1868 139.096 48.8092 138.485 48.5311C137.874 48.2564 137.216 48.0763 136.547 48.0587C135.879 48.0376 135.211 48.172 134.593 48.4265C133.972 48.6784 133.403 49.0491 132.883 49.4771C131.844 50.3403 131.003 51.4262 130.271 52.5681C129.54 53.7149 128.919 54.9313 128.364 56.1763C127.809 57.4215 127.323 58.6982 126.879 59.9891C125.997 62.5736 125.291 65.2177 124.687 67.8832C124.084 70.5497 123.589 73.2405 123.167 75.9425C122.328 81.3479 121.784 86.7976 121.439 92.2573C121.09 97.7178 120.97 103.191 120.98 108.661C120.965 114.13 121.148 119.602 121.554 125.056C121.964 130.51 122.592 135.95 123.531 141.337C124.002 144.029 124.552 146.708 125.21 149.36C125.87 152.01 126.635 154.636 127.578 157.195C128.525 159.748 129.633 162.26 131.13 164.522C131.884 165.644 132.741 166.708 133.78 167.551C134.299 167.969 134.864 168.331 135.475 168.579C136.084 168.828 136.738 168.966 137.392 168.944C138.047 168.927 138.692 168.754 139.29 168.48C139.89 168.203 140.443 167.823 140.951 167.389C141.968 166.517 142.807 165.439 143.547 164.308C145.018 162.028 146.11 159.511 147.047 156.954C147.976 154.389 148.733 151.762 149.386 149.11C150.038 146.456 150.581 143.776 151.047 141.083C151.98 135.695 152.6 130.254 153.012 124.801C153.429 119.347 153.622 113.875 153.62 108.404Z" fill="white"/>
</g>
<g style="mix-blend-mode:soft-light">
<path d="M182.125 108.404C182.087 115.473 181.178 122.546 179.286 129.363C177.36 136.164 174.458 142.707 170.517 148.582C168.547 151.516 166.314 154.278 163.82 156.783C161.327 159.288 158.569 161.536 155.576 163.42C152.58 165.297 149.344 166.799 145.956 167.819C142.571 168.84 139.037 169.373 135.5 169.377C131.962 169.376 128.427 168.847 125.04 167.828C121.651 166.811 118.412 165.311 115.413 163.437C112.417 161.555 109.655 159.309 107.158 156.805C104.659 154.3 102.422 151.539 100.447 148.605C96.4988 142.73 93.5902 136.184 91.6558 129.379C90.7036 125.97 89.9959 122.494 89.5272 118.987C89.0609 115.48 88.8266 111.943 88.8105 108.404C88.8288 104.866 89.0653 101.329 89.5337 97.822C90.0047 94.3157 90.715 90.8407 91.6695 87.4334C93.6087 80.6313 96.5218 74.0897 100.473 68.2205C102.449 65.2892 104.686 62.5311 107.184 60.0298C109.682 57.5297 112.441 55.2858 115.437 53.4097C118.435 51.5397 121.673 50.0509 125.056 49.0349C128.438 48.0146 131.967 47.4825 135.5 47.479C139.032 47.4854 142.561 48.0205 145.94 49.0434C149.322 50.0622 152.557 51.5539 155.552 53.4259C158.544 55.3041 161.3 57.5498 163.793 60.0511C166.288 62.5534 168.52 65.3121 170.492 68.2435C174.435 74.1119 177.342 80.6506 179.272 87.4494C181.169 94.2639 182.082 101.335 182.125 108.404ZM181.193 108.404C181.183 101.415 180.313 94.4188 178.469 87.6723C176.614 80.9363 173.822 74.4332 169.979 68.5849C168.058 65.6637 165.876 62.9103 163.433 60.4075C160.988 57.9085 158.288 55.6477 155.335 53.7685C152.379 51.8999 149.186 50.3958 145.839 49.3784C142.493 48.3604 138.999 47.8252 135.5 47.8136C132 47.8282 128.507 48.3663 125.163 49.387C121.817 50.407 118.627 51.914 115.674 53.7847C112.724 55.666 110.028 57.9287 107.588 60.4287C105.149 62.9327 102.972 65.6866 101.055 68.6078C97.2194 74.4553 94.4334 80.9555 92.5882 87.6883C91.669 91.0585 91.0035 94.4951 90.5525 97.9571C90.1005 101.42 89.8774 104.911 89.8696 108.404C89.8796 111.897 90.1049 115.388 90.5591 118.85C91.0123 122.312 91.6805 125.747 92.602 129.116C94.4519 135.846 97.2425 142.342 101.081 148.183C102.998 151.102 105.175 153.853 107.615 156.353C110.055 158.85 112.749 161.11 115.698 162.986C118.65 164.851 121.839 166.347 125.179 167.367C128.518 168.389 132.004 168.93 135.5 168.947C138.995 168.933 142.482 168.396 145.823 167.376C149.164 166.359 152.356 164.866 155.312 163.002C158.264 161.128 160.962 158.87 163.406 156.375C165.849 153.875 168.031 151.125 169.953 148.206C173.799 142.364 176.596 135.866 178.455 129.132C180.303 122.388 181.178 115.393 181.193 108.404Z" fill="white"/>
</g>
<g style="mix-blend-mode:soft-light">
<path d="M81.092 84.277L95.0941 84.1639L109.096 84.0998L137.101 84.0481L165.105 84.105L179.107 84.175L193.109 84.2971C193.132 84.2973 193.15 84.3159 193.15 84.3386C193.15 84.361 193.131 84.3791 193.109 84.3794L179.107 84.5015L165.105 84.5715L137.101 84.6284L109.096 84.5767L95.0941 84.5126L81.092 84.3995C81.0582 84.3992 81.031 84.3716 81.0313 84.3378C81.0315 84.3043 81.0586 84.2773 81.092 84.277Z" fill="white"/>
</g>
<g style="mix-blend-mode:soft-light">
<path d="M97.3357 60.8247C100.649 60.7721 103.963 60.7496 107.277 60.7115L117.218 60.6474C120.532 60.6201 123.845 60.6231 127.159 60.6146L137.1 60.5957L156.982 60.6526L166.923 60.7226C170.237 60.7642 173.551 60.7885 176.865 60.8448C176.887 60.8452 176.905 60.8639 176.905 60.8866C176.905 60.9088 176.887 60.9266 176.865 60.927C173.551 60.9832 170.237 61.0076 166.923 61.0491L156.982 61.1191L137.1 61.1761L127.159 61.1572C123.845 61.1487 120.532 61.1517 117.218 61.1244L107.277 61.0602C103.963 61.0221 100.649 60.9996 97.3357 60.9471C97.3019 60.9466 97.2749 60.9187 97.2754 60.8849C97.2759 60.8518 97.3028 60.8252 97.3357 60.8247Z" fill="white"/>
</g>
<g style="mix-blend-mode:soft-light">
<path d="M76.2258 107.73L91.4444 107.617L106.663 107.552L137.1 107.501L167.538 107.558L182.756 107.628L197.975 107.75C197.998 107.75 198.016 107.769 198.016 107.791C198.015 107.814 197.997 107.832 197.975 107.832L182.756 107.954L167.538 108.024L137.1 108.081L106.663 108.029L91.4444 107.965L76.2258 107.852C76.192 107.852 76.1648 107.824 76.165 107.79C76.1653 107.757 76.1924 107.73 76.2258 107.73Z" fill="white"/>
</g>
<g style="mix-blend-mode:soft-light">
<path d="M81.092 131.182L95.0941 131.069L109.096 131.005L137.101 130.953L165.105 131.01L179.107 131.08L193.109 131.202C193.132 131.202 193.15 131.221 193.15 131.243C193.15 131.266 193.131 131.284 193.109 131.284L179.107 131.406L165.105 131.476L137.101 131.533L109.096 131.481L95.0941 131.417L81.092 131.304C81.0582 131.304 81.031 131.276 81.0313 131.243C81.0315 131.209 81.0586 131.182 81.092 131.182Z" fill="white"/>
</g>
<g style="mix-blend-mode:soft-light">
<path d="M178.868 154.91H99.3396C99.221 154.91 99.125 154.814 99.125 154.696C99.125 154.577 99.221 154.481 99.3396 154.481H178.868C178.987 154.481 179.083 154.577 179.083 154.696C179.083 154.814 178.987 154.91 178.868 154.91Z" fill="white"/>
</g>
<path d="M30.6965 141.721C30.3117 140.765 31.4667 139.927 32.2534 140.592C39.8585 147.029 60.3287 163.28 77.7412 167.472C106.093 174.297 136.53 195.937 136.258 217.998C136.258 217.998 72.6194 245.882 30.6965 141.721Z" fill="#91B3FA"/>
<path d="M116.603 221.642C109.613 221.642 101.225 220.48 92.1894 216.791C67.111 206.553 46.3332 181.332 30.433 141.827C30.2106 141.274 30.3868 140.667 30.8712 140.317C31.3544 139.969 31.9831 139.992 32.4366 140.376C40.3307 147.056 60.5534 163.043 77.8075 167.196C92.2108 170.663 106.829 177.809 117.912 186.801C130.052 196.65 136.668 207.73 136.541 218.001L136.539 218.184L136.371 218.258C136.248 218.311 128.431 221.642 116.603 221.642ZM30.9598 141.615C46.7972 180.964 67.465 206.079 92.3895 216.26C115.296 225.617 134.014 218.597 135.975 217.807C136.068 196.271 105.963 174.558 77.6749 167.748C60.3026 163.566 39.9949 147.516 32.0703 140.809C31.7608 140.547 31.4193 140.621 31.2035 140.777C30.9959 140.927 30.8071 141.237 30.9598 141.615Z" fill="#1F2933"/>
<path d="M40.2481 151.789C40.4006 151.962 40.6055 152.17 40.7913 152.364L41.3696 152.95L42.5404 154.109L44.9054 156.407C46.4942 157.926 48.1018 159.426 49.7229 160.91C52.9595 163.886 56.2464 166.806 59.5915 169.656C66.2941 175.342 73.1446 180.856 80.2769 185.985C83.8532 188.532 87.4403 191.067 91.1295 193.447C94.8182 195.826 98.5622 198.12 102.391 200.264C110.032 204.577 118.004 208.324 126.332 211.135C126.438 211.17 126.495 211.283 126.461 211.388C126.427 211.491 126.317 211.547 126.214 211.519C121.976 210.287 117.834 208.74 113.766 207.024C109.71 205.274 105.761 203.291 101.869 201.207C94.1307 196.952 86.7008 192.154 79.5649 186.967C75.9916 184.379 72.5055 181.675 69.0598 178.924C65.616 176.17 62.2314 173.342 58.9311 170.419C55.6264 167.501 52.3647 164.535 49.1873 161.481C47.6019 159.95 46.0307 158.405 44.4788 156.84C43.7056 156.055 42.9322 155.27 42.1713 154.473L41.0381 153.268L40.4775 152.659C40.2915 152.448 40.1121 152.262 39.9131 152.011C39.8449 151.924 39.8594 151.799 39.9455 151.731C40.0286 151.665 40.148 151.677 40.2176 151.755L40.2481 151.789Z" fill="#1F2933"/>
<path d="M235.654 214.477L289.847 110.655H278.744C276.697 110.655 275.571 108.274 276.869 106.692L334.628 36.2952C337.132 33.2442 342.077 35.1793 341.844 39.119L337.784 107.958C337.552 111.899 334.057 114.836 330.135 114.387L322.394 113.501L268.624 229.948C267.224 232.98 264.19 234.921 260.851 234.921H242.215L235.654 214.477Z" fill="#AEF2BE"/>
<path d="M260.85 235.205H242.007L241.945 235.008L235.348 214.451L235.403 214.346L289.379 110.938H278.744C277.686 110.938 276.748 110.344 276.295 109.388C275.843 108.432 275.979 107.33 276.65 106.512L334.409 36.1154C335.629 34.6283 337.575 34.1199 339.365 34.8215C341.156 35.5222 342.24 37.2156 342.127 39.1357L338.067 107.975C337.95 109.959 337.048 111.757 335.526 113.036C334.004 114.315 332.075 114.895 330.103 114.669L322.565 113.806L268.881 230.067C267.44 233.188 264.288 235.205 260.85 235.205ZM242.421 234.637H260.85C264.067 234.637 267.018 232.75 268.366 229.83L322.223 113.196L330.167 114.105C331.984 114.313 333.759 113.779 335.161 112.601C336.562 111.424 337.393 109.769 337.501 107.941L341.561 39.1021C341.659 37.4323 340.716 35.9593 339.158 35.3497C337.6 34.7397 335.908 35.1821 334.847 36.4752L277.088 106.871C276.558 107.518 276.451 108.39 276.808 109.145C277.166 109.902 277.908 110.371 278.744 110.371H290.315L235.961 214.503L242.421 234.637Z" fill="#1F2933"/>
<path d="M190.848 141.662L229.107 226.65C231.373 231.684 236.38 234.921 241.901 234.921H261.624C264.241 234.921 266.652 233.501 267.922 231.213L268.623 229.948C266.504 229.948 264.564 228.76 263.6 226.873L212.624 126.993L190.848 141.662Z" fill="#85BEF7"/>
<path d="M261.625 235.205H241.901C236.28 235.205 231.156 231.892 228.849 226.766L190.491 141.56L212.732 126.579L263.854 226.744C264.773 228.545 266.601 229.665 268.624 229.665H269.105L268.17 231.35C266.851 233.728 264.343 235.205 261.625 235.205ZM191.205 141.763L229.366 226.533C231.582 231.456 236.503 234.637 241.901 234.637H261.625C264.137 234.637 266.455 233.272 267.674 231.075L268.152 230.214C266.105 230.053 264.293 228.853 263.348 227.002L212.518 127.407L191.205 141.763Z" fill="#1F2933"/>
<path d="M217.774 137.082C213.938 134.052 208.332 134.943 205.624 139.012L149.372 223.526C144.867 230.295 137.274 234.362 129.143 234.362H121.228L114.786 215.805C114.786 215.805 167.081 135.621 180.559 123.491C180.559 123.491 193.982 111.394 207.217 120.54C210.714 122.957 213.368 126.406 214.99 130.335L217.774 137.082Z" fill="#AEF2BE"/>
<path d="M129.143 234.646H121.026L114.473 215.767L114.549 215.651C115.072 214.848 167.018 135.296 180.37 123.281C180.505 123.158 194.112 111.14 207.378 120.307C210.838 122.698 213.56 126.128 215.252 130.227L218.451 137.977L217.598 137.304C215.806 135.889 213.579 135.306 211.32 135.665C209.065 136.023 207.125 137.268 205.86 139.169L149.608 223.683C145.039 230.548 137.389 234.646 129.143 234.646ZM121.43 234.078H129.143C137.198 234.078 144.672 230.075 149.135 223.369L205.387 138.855C206.722 136.85 208.852 135.483 211.231 135.105C213.284 134.779 215.389 135.209 217.142 136.293L214.727 130.443C213.078 126.446 210.425 123.103 207.056 120.774C194.163 111.864 180.882 123.583 180.749 123.702C167.688 135.456 117.378 212.356 115.1 215.844L121.43 234.078Z" fill="#1F2933"/>
<path d="M53.6045 165.898C53.6045 165.898 63.0206 154.129 81.2671 152.298C81.2671 152.298 89.9334 155.25 107.198 186.187C124.464 217.124 135.924 231.232 149.372 223.526L148.258 225.375C144.589 231.467 137.997 235.192 130.885 235.192H123.448C115.259 235.192 107.572 231.255 102.79 224.607C89.3522 205.928 61.859 168.798 53.6045 165.898Z" fill="#85BEF7"/>
<path d="M130.885 235.476H123.447C115.189 235.476 107.38 231.475 102.559 224.773C90.5839 208.126 61.8314 169.089 53.51 166.166L53.1328 166.033L53.3827 165.721C53.4777 165.602 63.0837 153.837 81.2387 152.015L81.3001 152.009L81.3586 152.029C81.7166 152.151 90.3249 155.369 107.446 186.049C119.362 207.4 129.279 222.17 138.948 224.854C142.363 225.801 145.727 225.287 149.23 223.28L150.178 222.737L148.501 225.521C144.803 231.661 138.053 235.476 130.885 235.476ZM54.0773 165.781C62.6511 169.554 88.33 204.021 103.02 224.442C107.735 230.996 115.371 234.908 123.447 234.908H130.885C137.855 234.908 144.419 231.199 148.015 225.228L148.594 224.267C145.279 225.937 142.064 226.308 138.796 225.4C128.938 222.664 118.935 207.801 106.951 186.325C90.672 157.156 81.9738 152.908 81.2265 152.587C64.9608 154.244 55.6867 163.957 54.0773 165.781Z" fill="#1F2933"/>
<path d="M211.188 33.2493C211.188 33.2493 201.133 45.3838 201.496 46.5897C201.859 47.7957 221.205 63.4868 222.802 62.137C224.4 60.7871 233.499 50.992 233.499 50.992C224.817 40.7004 212.287 32.1978 211.188 33.2493Z" fill="#1F2933"/>
<path d="M222.161 74.5558C218.01 74.5558 200.63 61.9628 194.011 55.2353C190.552 51.7206 190.467 50.4391 190.704 49.781C192.137 45.8027 208.88 20.2883 215.142 19.534L215.299 19.5151L215.426 19.6077C218.624 21.9285 246.673 42.3859 246.881 45.9652C247.025 48.4527 238.721 58.2342 236.173 61.1728C231.019 67.1149 224.573 73.8179 222.596 74.4937C222.473 74.5356 222.328 74.5558 222.161 74.5558ZM215.088 20.3546C209.416 21.4388 192.944 45.9309 191.46 50.0531C191.37 50.3013 191.332 51.3677 194.583 54.6723C201.81 62.0169 218.813 73.7713 222.061 73.7726C222.168 73.7726 222.26 73.7599 222.336 73.7338C223.86 73.2132 229.547 67.5868 235.566 60.6466C241.836 53.4165 246.159 47.3982 246.079 46.0119C245.939 43.5971 227.521 29.3845 215.088 20.3546Z" fill="#91B3FA"/>
<path d="M222.516 62.6216C222.311 62.6216 222.105 62.5716 221.937 62.5218C218.3 61.443 201.578 48.2554 201.111 46.7056C200.741 45.4768 207.072 37.5869 210.878 32.993C211.02 32.8227 211.273 32.7988 211.444 32.9401C211.615 33.0816 211.638 33.3347 211.497 33.5055C206.828 39.1397 201.99 45.4986 201.889 46.4911C202.744 48.0427 220.785 62.3807 222.571 61.8129C224.104 60.5111 232.868 51.1258 232.956 51.0313C233.108 50.869 233.362 50.8603 233.523 51.0117C233.686 51.163 233.694 51.4171 233.543 51.579C233.181 51.967 224.658 61.0939 223.061 62.4436C222.904 62.5765 222.711 62.6216 222.516 62.6216Z" fill="#91B3FA"/>
<path d="M230.961 52.0682C226.301 52.0683 217.177 50.1878 215.772 49.3013C213.94 48.1465 209.959 35.1186 210.818 33.0924C210.939 32.8072 211.261 32.5228 212.104 32.7878C214.276 33.4706 219.981 37.6896 224.67 41.568C228.241 44.5206 234.186 49.6822 233.892 51.0748C233.826 51.3832 233.599 51.622 233.215 51.7841C232.745 51.9827 231.954 52.0682 230.961 52.0682ZM211.531 33.4792C210.971 35.3823 214.748 47.7064 216.2 48.6222C217.645 49.5336 230.485 52.0664 232.903 51.0444C233.06 50.9778 233.104 50.9198 233.106 50.909C233.065 49.8751 225.981 43.2917 218.508 37.7443C213.923 34.341 211.992 33.4702 211.531 33.4792Z" fill="#91B3FA"/>
<path d="M208.599 41.6418C208.511 41.6418 208.423 41.6134 208.349 41.5546C208.175 41.4166 208.147 41.1641 208.285 40.9904L209.238 39.7915C209.376 39.618 209.629 39.5891 209.802 39.7272C209.975 39.8652 210.004 40.1177 209.866 40.2913L208.913 41.4903C208.834 41.5899 208.717 41.6418 208.599 41.6418Z" fill="#BDD0FB"/>
<path d="M227.226 48.1618C227.109 48.1618 226.992 48.1102 226.913 48.0108C224.616 45.1364 215.165 38.4961 215.069 38.4295C214.888 38.3023 214.844 38.0519 214.971 37.8702C215.098 37.6887 215.349 37.6447 215.53 37.772C215.923 38.0472 225.172 44.5459 227.54 47.5098C227.678 47.6829 227.65 47.9356 227.477 48.074C227.403 48.1331 227.314 48.1618 227.226 48.1618Z" fill="#BDD0FB"/>
<path d="M30.7488 59.3524C48.5406 59.0902 136.548 57.5494 154.611 57.2327C156.393 57.2014 157.854 58.6378 157.854 60.4204V68.6601C157.854 70.421 156.427 71.8483 154.666 71.8483H30.7975C29.0367 71.8483 27.6094 70.421 27.6094 68.6601V62.5402C27.6094 60.7978 29.0065 59.3781 30.7488 59.3524Z" fill="#85BEF7"/>
<path d="M53.1807 65.6983C53.1807 67.492 54.6513 68.9373 56.4448 68.9062L128.217 67.661C130.275 67.6253 131.767 65.6881 131.277 63.6889L130.95 62.3573C130.588 60.8802 129.239 59.8604 127.719 59.9152L56.2734 62.4919C54.5476 62.5542 53.1807 63.9713 53.1807 65.6983Z" fill="#B9F0F7"/>
<mask id="mask0_237_1004" style="mask-type:luminance" maskUnits="userSpaceOnUse" x="25" y="66" width="13" height="14">
<path d="M37.1511 66.144L26.1167 77.3773C25.6539 77.8485 25.6906 78.614 26.1962 79.0388L26.2792 79.1085C26.7266 79.4843 27.3945 79.4241 27.7674 78.9743L37.8712 66.7879L37.1511 66.144Z" fill="white"/>
</mask>
<g mask="url(#mask0_237_1004)">
<path d="M26.2085 66.144H25.792V79.4843H26.2085V66.144Z" fill="#4F52FF"/>
<path d="M26.6255 66.144H26.209V79.4843H26.6255V66.144Z" fill="#4E51FE"/>
<path d="M27.0415 66.144H26.625V79.4843H27.0415V66.144Z" fill="#4E51FD"/>
<path d="M27.4585 66.144H27.042V79.4843H27.4585V66.144Z" fill="#4D50FC"/>
<path d="M27.8745 66.144H27.458V79.4843H27.8745V66.144Z" fill="#4D50FB"/>
<path d="M28.2915 66.144H27.875V79.4843H28.2915V66.144Z" fill="#4C4FFA"/>
<path d="M28.7075 66.144H28.291V79.4843H28.7075V66.144Z" fill="#4C4FF9"/>
<path d="M29.1245 66.144H28.708V79.4843H29.1245V66.144Z" fill="#4B4EF8"/>
<path d="M29.5415 66.144H29.125V79.4843H29.5415V66.144Z" fill="#4B4DF7"/>
<path d="M29.9575 66.144H29.541V79.4843H29.9575V66.144Z" fill="#4A4DF6"/>
<path d="M30.3745 66.144H29.958V79.4843H30.3745V66.144Z" fill="#4A4CF5"/>
<path d="M30.7906 66.144H30.374V79.4843H30.7906V66.144Z" fill="#494CF4"/>
<path d="M31.2075 66.144H30.791V79.4843H31.2075V66.144Z" fill="#494BF3"/>
<path d="M31.6236 66.144H31.207V79.4843H31.6236V66.144Z" fill="#484BF2"/>
<path d="M32.0406 66.144H31.624V79.4843H32.0406V66.144Z" fill="#484AF1"/>
<path d="M32.4566 66.144H32.04V79.4843H32.4566V66.144Z" fill="#4749EF"/>
<path d="M32.8736 66.144H32.457V79.4843H32.8736V66.144Z" fill="#4649EE"/>
<path d="M33.2896 66.144H32.873V79.4843H33.2896V66.144Z" fill="#4648ED"/>
<path d="M33.7066 66.144H33.29V79.4843H33.7066V66.144Z" fill="#4548EC"/>
<path d="M34.1226 66.144H33.7061V79.4843H34.1226V66.144Z" fill="#4547EB"/>
<path d="M34.5396 66.144H34.123V79.4843H34.5396V66.144Z" fill="#4447EA"/>
<path d="M34.9556 66.144H34.5391V79.4843H34.9556V66.144Z" fill="#4446E9"/>
<path d="M35.3725 66.144H34.9561V79.4843H35.3725V66.144Z" fill="#4345E8"/>
<path d="M35.7886 66.144H35.3721V79.4843H35.7886V66.144Z" fill="#4345E7"/>
<path d="M36.2056 66.144H35.7891V79.4843H36.2056V66.144Z" fill="#4244E6"/>
<path d="M36.6216 66.144H36.2051V79.4843H36.6216V66.144Z" fill="#4244E5"/>
<path d="M37.0386 66.144H36.6221V79.4843H37.0386V66.144Z" fill="#4143E4"/>
<path d="M37.4546 66.144H37.0381V79.4843H37.4546V66.144Z" fill="#4143E3"/>
<path d="M37.8716 66.144H37.4551V79.4843H37.8716V66.144Z" fill="#4042E2"/>
</g>
<g opacity="0.23">
<path d="M48.4862 57.1454C50.1924 60.7204 48.6241 65.0271 44.9834 66.7646C41.3426 68.5021 37.0082 67.0124 35.302 63.4374C33.5959 59.8623 35.1641 55.5557 38.8049 53.8182C42.4456 52.0807 46.7801 53.5703 48.4862 57.1454Z" fill="#E9EFFE"/>
</g>
<mask id="mask1_237_1004" style="mask-type:luminance" maskUnits="userSpaceOnUse" x="33" y="52" width="17" height="17">
<path d="M38.4561 53.0884C34.405 55.0218 32.66 59.814 34.5585 63.792C36.4569 67.7701 41.2801 69.4277 45.3312 67.4943C49.3823 65.5609 51.1274 60.7688 49.2289 56.7907C47.3304 52.8126 42.5073 51.1551 38.4561 53.0884ZM44.8262 66.4362C41.3702 68.0856 37.2556 66.6715 35.636 63.2778C34.0163 59.8841 35.5051 55.7959 38.9611 54.1466C42.4172 52.4971 46.5318 53.9112 48.1514 57.3049C49.771 60.6986 48.2823 64.7868 44.8262 66.4362Z" fill="white"/>
</mask>
<g mask="url(#mask1_237_1004)">
<path d="M34.3501 52.4971H34.0166V68.0855H34.3501V52.4971Z" fill="#4F52FF"/>
<path d="M34.9084 52.4971H34.3496V68.0855H34.9084V52.4971Z" fill="#4E51FE"/>
<path d="M35.468 52.4971H34.9092V68.0855H35.468V52.4971Z" fill="#4E51FD"/>
<path d="M36.0266 52.4971H35.4678V68.0855H36.0266V52.4971Z" fill="#4D50FC"/>
<path d="M36.5852 52.4971H36.0264V68.0855H36.5852V52.4971Z" fill="#4D50FB"/>
<path d="M37.1438 52.4971H36.585V68.0855H37.1438V52.4971Z" fill="#4C4FFA"/>
<path d="M37.7023 52.4971H37.1436V68.0855H37.7023V52.4971Z" fill="#4C4FF9"/>
<path d="M38.2619 52.4971H37.7031V68.0855H38.2619V52.4971Z" fill="#4B4EF8"/>
<path d="M38.8206 52.4971H38.2617V68.0855H38.8206V52.4971Z" fill="#4B4DF7"/>
<path d="M39.3791 52.4971H38.8203V68.0855H39.3791V52.4971Z" fill="#4A4DF6"/>
<path d="M39.9377 52.4971H39.3789V68.0855H39.9377V52.4971Z" fill="#4A4CF5"/>
<path d="M40.4973 52.4971H39.9385V68.0855H40.4973V52.4971Z" fill="#494CF4"/>
<path d="M41.0559 52.4971H40.4971V68.0855H41.0559V52.4971Z" fill="#494BF3"/>
<path d="M41.6145 52.4971H41.0557V68.0855H41.6145V52.4971Z" fill="#484BF2"/>
<path d="M42.173 52.4971H41.6143V68.0855H42.173V52.4971Z" fill="#484AF1"/>
<path d="M42.7316 52.4971H42.1729V68.0855H42.7316V52.4971Z" fill="#4749EF"/>
<path d="M43.2913 52.4971H42.7324V68.0855H43.2913V52.4971Z" fill="#4649EE"/>
<path d="M43.8498 52.4971H43.291V68.0855H43.8498V52.4971Z" fill="#4648ED"/>
<path d="M44.4084 52.4971H43.8496V68.0855H44.4084V52.4971Z" fill="#4548EC"/>
<path d="M44.967 52.4971H44.4082V68.0855H44.967V52.4971Z" fill="#4547EB"/>
<path d="M45.5266 52.4971H44.9678V68.0855H45.5266V52.4971Z" fill="#4447EA"/>
<path d="M46.0852 52.4971H45.5264V68.0855H46.0852V52.4971Z" fill="#4446E9"/>
<path d="M46.6438 52.4971H46.085V68.0855H46.6438V52.4971Z" fill="#4345E8"/>
<path d="M47.2023 52.4971H46.6436V68.0855H47.2023V52.4971Z" fill="#4345E7"/>
<path d="M47.761 52.4971H47.2021V68.0855H47.761V52.4971Z" fill="#4244E6"/>
<path d="M48.3205 52.4971H47.7617V68.0855H48.3205V52.4971Z" fill="#4244E5"/>
<path d="M48.8791 52.4971H48.3203V68.0855H48.8791V52.4971Z" fill="#4143E4"/>
<path d="M49.4377 52.4971H48.8789V68.0855H49.4377V52.4971Z" fill="#4143E3"/>
<path d="M49.771 52.4971H49.4375V68.0855H49.771V52.4971Z" fill="#4042E2"/>
<path d="M34.3499 51.155H33.791V69.4276H34.3499V51.155Z" fill="#4F52FF"/>
<path d="M34.9084 51.155H34.3496V69.4276H34.9084V51.155Z" fill="#4E51FE"/>
<path d="M35.468 51.155H34.9092V69.4276H35.468V51.155Z" fill="#4E51FD"/>
<path d="M36.0266 51.155H35.4678V69.4276H36.0266V51.155Z" fill="#4D50FC"/>
<path d="M36.5852 51.155H36.0264V69.4276H36.5852V51.155Z" fill="#4D50FB"/>
<path d="M37.1438 51.155H36.585V69.4276H37.1438V51.155Z" fill="#4C4FFA"/>
<path d="M37.7023 51.155H37.1436V69.4276H37.7023V51.155Z" fill="#4C4FF9"/>
<path d="M38.2619 51.155H37.7031V69.4276H38.2619V51.155Z" fill="#4B4EF8"/>
<path d="M38.8206 51.155H38.2617V69.4276H38.8206V51.155Z" fill="#4B4DF7"/>
<path d="M39.3791 51.155H38.8203V69.4276H39.3791V51.155Z" fill="#4A4DF6"/>
<path d="M39.9377 51.155H39.3789V69.4276H39.9377V51.155Z" fill="#4A4CF5"/>
<path d="M40.4973 51.155H39.9385V69.4276H40.4973V51.155Z" fill="#494CF4"/>
<path d="M41.0559 51.155H40.4971V69.4276H41.0559V51.155Z" fill="#494BF3"/>
<path d="M41.6145 51.155H41.0557V69.4276H41.6145V51.155Z" fill="#484BF2"/>
<path d="M42.173 51.155H41.6143V69.4276H42.173V51.155Z" fill="#484AF1"/>
<path d="M42.7316 51.155H42.1729V69.4276H42.7316V51.155Z" fill="#4749EF"/>
<path d="M43.2913 51.155H42.7324V69.4276H43.2913V51.155Z" fill="#4649EE"/>
<path d="M43.8498 51.155H43.291V69.4276H43.8498V51.155Z" fill="#4648ED"/>
<path d="M44.4084 51.155H43.8496V69.4276H44.4084V51.155Z" fill="#4548EC"/>
<path d="M44.967 51.155H44.4082V69.4276H44.967V51.155Z" fill="#4547EB"/>
<path d="M45.5266 51.155H44.9678V69.4276H45.5266V51.155Z" fill="#4447EA"/>
<path d="M46.0852 51.155H45.5264V69.4276H46.0852V51.155Z" fill="#4446E9"/>
<path d="M46.6438 51.155H46.085V69.4276H46.6438V51.155Z" fill="#4345E8"/>
<path d="M47.2023 51.155H46.6436V69.4276H47.2023V51.155Z" fill="#4345E7"/>
<path d="M47.761 51.155H47.2021V69.4276H47.761V51.155Z" fill="#4244E6"/>
<path d="M48.3205 51.155H47.7617V69.4276H48.3205V51.155Z" fill="#4244E5"/>
<path d="M48.8791 51.155H48.3203V69.4276H48.8791V51.155Z" fill="#4143E4"/>
<path d="M49.4377 51.155H48.8789V69.4276H49.4377V51.155Z" fill="#4143E3"/>
<path d="M49.9963 51.155H49.4375V69.4276H49.9963V51.155Z" fill="#4042E2"/>
</g>
<path d="M28.106 76.0149C28.0568 76.0149 28.0074 75.9968 27.9686 75.9606C27.8878 75.8847 27.8837 75.7577 27.9596 75.6767L28.1286 75.4965C28.2044 75.416 28.3313 75.4119 28.4124 75.4875C28.4932 75.5634 28.4973 75.6904 28.4214 75.7714L28.2525 75.9515C28.2129 75.9935 28.1595 76.0149 28.106 76.0149Z" fill="white"/>
<path d="M251.042 103.406L352.49 98.4874C354.48 98.3909 355.006 99.9592 355.034 100.833L357.236 134.09C357.264 134.97 355.641 135.746 353.637 135.809C335.281 136.386 255.212 138.966 251.62 139.192C248.069 139.416 248.532 112.987 248.761 106.191C248.789 105.35 249.133 103.499 251.042 103.406Z" fill="#1F2933"/>
<path d="M252.02 138.26L251.961 138.147C250.555 135.445 250.076 124.247 250.741 109.619C250.752 109.374 251.053 109.273 251.331 109.26L352.782 104.393C352.922 104.386 353.047 104.401 353.151 104.436C353.374 104.51 353.411 104.65 353.413 104.727L354.29 134.423C354.297 134.634 354.061 134.786 353.702 134.803L353.685 134.803C339.094 135.287 265.626 137.727 252.147 138.255L252.02 138.26ZM251.139 109.701C250.49 124.033 250.931 135.018 252.261 137.848C266.077 137.31 339.127 134.884 353.672 134.402L353.687 134.401C353.778 134.397 353.848 134.379 353.887 134.363L353.014 104.816C352.96 104.8 352.895 104.791 352.8 104.794L251.35 109.661C251.251 109.665 251.178 109.685 251.139 109.701Z" fill="#BDD0FB"/>
<g opacity="0.5">
<path d="M301.425 115.251C300.996 114.837 300.409 114.617 299.813 114.64L259.465 116.186C258.874 116.208 258.315 116.469 257.919 116.909C257.523 117.348 257.32 117.929 257.358 118.519L258.267 132.501C258.344 133.683 259.345 134.59 260.529 134.551L299.979 133.225C301.16 133.185 302.113 132.215 302.113 131.033V116.831C302.113 116.235 301.855 115.664 301.425 115.251Z" fill="#BDD0FB"/>
<path d="M307.556 109.305L256.742 111.658C256.172 111.684 255.734 112.284 255.763 112.998L255.764 113.022C255.793 113.735 256.276 114.299 256.847 114.28L307.686 112.571C308.578 112.541 309.276 111.787 309.24 110.888L309.239 110.859C309.203 109.959 308.447 109.263 307.556 109.305Z" fill="#BDD0FB"/>
<path d="M348.641 113.7C348.361 113.429 347.98 113.283 347.591 113.296L306.92 114.641C306.521 114.654 306.144 114.833 305.882 115.135C305.619 115.436 305.494 115.833 305.536 116.231L305.623 117.043C305.704 117.798 306.357 118.361 307.116 118.328L347.704 116.559C348.473 116.525 349.085 115.892 349.085 115.122V114.733C349.085 114.344 348.921 113.971 348.641 113.7Z" fill="#BDD0FB"/>
<path d="M348.641 119.248C348.361 118.977 347.98 118.831 347.591 118.844L306.92 120.189C306.521 120.202 306.144 120.381 305.882 120.682C305.619 120.984 305.494 121.381 305.536 121.779L305.623 122.591C305.704 123.346 306.357 123.909 307.116 123.875L347.704 122.106C348.473 122.073 349.085 121.439 349.085 120.669V120.281C349.085 119.892 348.921 119.519 348.641 119.248Z" fill="#BDD0FB"/>
<path d="M348.641 124.795C348.361 124.524 347.98 124.378 347.591 124.391L306.92 125.736C306.521 125.749 306.144 125.928 305.882 126.23C305.619 126.532 305.494 126.929 305.536 127.326L305.623 128.139C305.704 128.894 306.357 129.456 307.116 129.423L347.704 127.654C348.473 127.62 349.085 126.987 349.085 126.217V125.829C349.085 125.439 348.921 125.066 348.641 124.795Z" fill="#BDD0FB"/>
</g>
<path d="M335.939 100.085L337.289 100.043C338.357 100.009 339.251 100.848 339.285 101.916L339.286 101.963C339.32 103.03 338.481 103.923 337.414 103.957L336.061 103.999C334.994 104.033 334.101 103.195 334.067 102.128L334.066 102.081C334.032 101.013 334.872 100.119 335.939 100.085Z" fill="#91B3FA"/>
<path d="M342.136 99.8897L343.489 99.847C344.555 99.8133 345.448 100.652 345.482 101.718L345.483 101.766C345.517 102.833 344.678 103.727 343.61 103.761L342.258 103.804C341.192 103.837 340.298 102.999 340.265 101.932L340.263 101.884C340.229 100.817 341.069 99.9233 342.136 99.8897Z" fill="#91B3FA"/>
<path d="M348.334 99.6941L349.685 99.6514C350.752 99.6178 351.646 100.457 351.679 101.523L351.681 101.571C351.714 102.638 350.875 103.532 349.808 103.566L348.455 103.608C347.389 103.642 346.496 102.803 346.462 101.737L346.46 101.689C346.427 100.622 347.266 99.7278 348.334 99.6941Z" fill="#91B3FA"/>
<path d="M285.828 63.3546H282.989C282.641 63.3546 282.358 63.0721 282.358 62.7237V54.2307C282.358 53.8823 282.641 53.5999 282.989 53.5999H285.828C286.177 53.5999 286.459 53.8823 286.459 54.2307V62.7237C286.459 63.0721 286.177 63.3546 285.828 63.3546ZM283.62 62.0928H285.197V54.8616H283.62V62.0928Z" fill="#91B3FA"/>
<path d="M291.424 63.3545H287.544C287.196 63.3545 286.913 63.0721 286.913 62.7236V48.7036C286.913 48.3552 287.196 48.0728 287.544 48.0728H291.424C291.773 48.0728 292.055 48.3552 292.055 48.7036V62.7236C292.055 63.0721 291.773 63.3545 291.424 63.3545ZM288.175 62.0927H290.793V49.3345H288.175V62.0927Z" fill="#91B3FA"/>
<path d="M298.738 63.3545H293.352C293.003 63.3545 292.721 63.072 292.721 62.7236V45.7373C292.721 45.3889 293.003 45.1064 293.352 45.1064H298.738C299.086 45.1064 299.369 45.3889 299.369 45.7373V62.7236C299.369 63.072 299.086 63.3545 298.738 63.3545ZM293.982 62.0927H298.107V46.3683H293.982V62.0927Z" fill="#91B3FA"/>
<path d="M308.487 63.3547H302.037C301.689 63.3547 301.406 63.0722 301.406 62.7237V42.1734C301.406 41.825 301.689 41.5425 302.037 41.5425H308.487C308.835 41.5425 309.118 41.825 309.118 42.1734V62.7237C309.118 63.0722 308.835 63.3547 308.487 63.3547ZM302.668 62.0928H307.856V42.8043H302.668V62.0928Z" fill="#91B3FA"/>
<path d="M209.964 97.1707L208.982 96.4848L208.977 96.4817C208.848 96.3916 208.817 96.2139 208.907 96.0848C208.997 95.9558 209.175 95.9241 209.304 96.0143L209.305 96.0147L210.293 96.7101C210.421 96.8 210.452 96.9765 210.362 97.1044C210.272 97.2322 210.096 97.263 209.968 97.1731L209.964 97.1707Z" fill="#1F2933"/>
<path d="M206.637 94.9606L205.61 94.3434L205.604 94.3401C205.466 94.2571 205.422 94.0778 205.505 93.9396C205.588 93.8015 205.767 93.7568 205.905 93.8398L205.906 93.8403L206.942 94.4675C207.079 94.5505 207.122 94.7286 207.04 94.8655C206.957 95.0024 206.778 95.0462 206.642 94.9633L206.637 94.9606Z" fill="#1F2933"/>
<path d="M203.161 92.9967L202.09 92.4626L202.082 92.459C201.935 92.3854 201.875 92.2061 201.948 92.0585C202.022 91.9109 202.201 91.8509 202.349 91.9245L202.35 91.925L203.433 92.4696C203.58 92.5431 203.639 92.7214 203.565 92.8678C203.491 93.0141 203.313 93.0731 203.167 92.9995L203.161 92.9967Z" fill="#1F2933"/>
<path d="M199.537 91.3395L198.42 90.9132L198.411 90.9099C198.254 90.8497 198.175 90.6732 198.235 90.5156C198.295 90.3581 198.472 90.2791 198.629 90.3393L198.63 90.3396L199.762 90.7763C199.919 90.8366 199.997 91.0123 199.936 91.1686C199.876 91.3248 199.7 91.4027 199.544 91.3424L199.537 91.3395Z" fill="#1F2933"/>
<path d="M195.768 90.0494L194.615 89.7372L194.606 89.7346C194.439 89.6896 194.341 89.5181 194.386 89.3517C194.431 89.1853 194.602 89.0869 194.769 89.132L194.77 89.1322L195.941 89.4535C196.106 89.4988 196.203 89.6694 196.158 89.8347C196.112 89.9999 195.942 90.097 195.777 90.0516L195.768 90.0494Z" fill="#1F2933"/>
<path d="M191.89 89.1492L190.711 88.9598L190.701 88.9581C190.527 88.9302 190.409 88.7665 190.437 88.5926C190.465 88.4187 190.628 88.3004 190.802 88.3283L190.803 88.3284L192.002 88.5252C192.175 88.5535 192.292 88.7165 192.264 88.8892C192.235 89.062 192.072 89.179 191.9 89.1507L191.89 89.1492Z" fill="#1F2933"/>
<path d="M187.941 88.6715L186.749 88.6172L186.738 88.6168C186.558 88.6085 186.419 88.4562 186.427 88.2765C186.435 88.0967 186.588 87.9577 186.767 87.9659H186.768L187.983 88.0254C188.162 88.0341 188.299 88.186 188.29 88.3645C188.282 88.5431 188.13 88.6808 187.951 88.672L187.941 88.6715Z" fill="#1F2933"/>
<path d="M183.968 88.6617L182.781 88.7571L182.767 88.7582C182.584 88.7729 182.424 88.6365 182.409 88.4534C182.395 88.2703 182.531 88.11 182.714 88.0953L182.715 88.0952L183.929 88.0017C184.111 87.9877 184.27 88.1238 184.284 88.3058C184.298 88.4878 184.162 88.6467 183.98 88.6607L183.968 88.6617Z" fill="#1F2933"/>
<path d="M180.033 89.1689L178.873 89.4293L178.858 89.4327C178.675 89.4736 178.494 89.3586 178.453 89.1758C178.412 88.993 178.527 88.8115 178.709 88.7705L178.71 88.7703L179.901 88.5073C180.083 88.4671 180.263 88.582 180.303 88.7639C180.343 88.9457 180.229 89.1257 180.047 89.1659L180.033 89.1689Z" fill="#1F2933"/>
<path d="M176.222 90.2407L175.118 90.6772L175.102 90.6835C174.924 90.7537 174.723 90.6666 174.653 90.4888C174.583 90.3111 174.67 90.11 174.848 90.0398L174.849 90.0393L175.986 89.5943C176.163 89.5251 176.363 89.6124 176.432 89.7893C176.501 89.9663 176.414 90.1657 176.237 90.235L176.222 90.2407Z" fill="#1F2933"/>
<path d="M172.636 91.9043C172.298 92.1098 171.955 92.3066 171.621 92.5186L171.618 92.5202C171.454 92.6247 171.236 92.5761 171.131 92.4115C171.027 92.247 171.075 92.0289 171.24 91.9244L171.241 91.9238C171.586 91.7061 171.94 91.5044 172.29 91.2941C172.456 91.1943 172.671 91.2478 172.771 91.4139C172.871 91.5798 172.817 91.7953 172.651 91.8952L172.636 91.9043Z" fill="#1F2933"/>
<path d="M169.391 94.1538L168.501 94.9366L168.487 94.949C168.338 95.0801 168.11 95.0655 167.979 94.9163C167.848 94.7672 167.863 94.54 168.012 94.4089L168.013 94.408L168.934 93.6036C169.083 93.4737 169.308 93.489 169.438 93.6377C169.568 93.7865 169.553 94.0123 169.404 94.1422L169.391 94.1538Z" fill="#1F2933"/>
<path d="M166.588 96.9337L165.841 97.8556L165.83 97.8694C165.702 98.0266 165.472 98.0508 165.314 97.9235C165.157 97.7961 165.133 97.5654 165.26 97.4081L165.261 97.4071L166.033 96.4602C166.161 96.3043 166.39 96.281 166.546 96.4081C166.702 96.5354 166.725 96.7648 166.598 96.9208L166.588 96.9337Z" fill="#1F2933"/>
<path d="M164.276 100.138L163.681 101.166L163.673 101.181C163.57 101.359 163.341 101.42 163.163 101.317C162.985 101.214 162.924 100.986 163.027 100.807L163.027 100.806L163.642 99.7512C163.746 99.5741 163.973 99.5142 164.15 99.6174C164.327 99.7207 164.387 99.9479 164.284 100.125L164.276 100.138Z" fill="#1F2933"/>
<path d="M162.474 103.661L162.034 104.765L162.028 104.779C161.95 104.974 161.729 105.069 161.534 104.992C161.339 104.914 161.244 104.693 161.322 104.498L161.323 104.497L161.778 103.365C161.856 103.171 162.076 103.077 162.27 103.155C162.464 103.233 162.557 103.453 162.479 103.647L162.474 103.661Z" fill="#1F2933"/>
<path d="M161.187 107.405L160.901 108.559L160.897 108.574C160.846 108.782 160.636 108.908 160.429 108.857C160.221 108.805 160.095 108.596 160.146 108.388L160.147 108.387L160.444 107.204C160.496 106.998 160.705 106.873 160.911 106.925C161.117 106.976 161.242 107.185 161.19 107.391L161.187 107.405Z" fill="#1F2933"/>
<path d="M160.413 111.289L160.282 112.473L160.28 112.488C160.256 112.704 160.061 112.86 159.845 112.835C159.629 112.811 159.474 112.617 159.498 112.401L159.498 112.399L159.637 111.186C159.662 110.971 159.856 110.817 160.071 110.842C160.285 110.866 160.44 111.06 160.415 111.275L160.413 111.289Z" fill="#1F2933"/>
<path d="M160.156 115.243L160.18 116.432L160.181 116.448C160.185 116.669 160.01 116.852 159.788 116.856C159.567 116.861 159.385 116.685 159.38 116.464V116.463L159.359 115.242C159.356 115.023 159.531 114.841 159.751 114.837C159.971 114.834 160.152 115.009 160.156 115.229L160.156 115.243Z" fill="#1F2933"/>
<path d="M160.42 119.193L160.603 120.367L160.606 120.383C160.641 120.605 160.489 120.814 160.266 120.848C160.044 120.883 159.836 120.731 159.801 120.509L159.801 120.507L159.617 119.3C159.583 119.079 159.735 118.872 159.956 118.839C160.178 118.805 160.384 118.957 160.418 119.178L160.42 119.193Z" fill="#1F2933"/>
<path d="M161.22 123.067C161.334 123.446 161.442 123.826 161.567 124.203C161.638 124.42 161.52 124.654 161.303 124.726C161.086 124.798 160.852 124.68 160.78 124.462L160.78 124.461L160.779 124.459C160.653 124.073 160.542 123.68 160.427 123.289C160.363 123.071 160.488 122.842 160.706 122.778C160.924 122.713 161.153 122.838 161.217 123.056L161.22 123.067Z" fill="#1F2933"/>
<path d="M162.543 126.799L163.03 127.884L163.036 127.898C163.132 128.11 163.037 128.359 162.825 128.454C162.613 128.549 162.364 128.454 162.269 128.242L162.268 128.241L161.773 127.127C161.679 126.915 161.774 126.668 161.985 126.574C162.196 126.48 162.444 126.575 162.538 126.787L162.543 126.799Z" fill="#1F2933"/>
<path d="M164.316 130.343L164.928 131.363L164.936 131.376C165.057 131.578 164.992 131.841 164.789 131.962C164.587 132.084 164.324 132.018 164.203 131.816L164.202 131.814L163.578 130.767C163.458 130.565 163.524 130.304 163.726 130.184C163.928 130.064 164.189 130.13 164.31 130.332L164.316 130.343Z" fill="#1F2933"/>
<path d="M166.489 133.66L167.21 134.606L167.219 134.617C167.364 134.808 167.328 135.081 167.137 135.226C166.946 135.372 166.674 135.335 166.528 135.144L166.527 135.143L165.792 134.172C165.648 133.981 165.685 133.71 165.875 133.566C166.066 133.422 166.337 133.46 166.481 133.65L166.489 133.66Z" fill="#1F2933"/>
<path d="M169.009 136.724L169.826 137.591L169.835 137.6C170.002 137.778 169.993 138.057 169.816 138.224C169.639 138.391 169.36 138.383 169.193 138.205L169.192 138.204L168.36 137.315C168.194 137.138 168.203 136.86 168.38 136.694C168.557 136.529 168.835 136.538 169.001 136.715L169.009 136.724Z" fill="#1F2933"/>
<path d="M171.83 139.518L172.727 140.301L172.737 140.31C172.923 140.472 172.942 140.755 172.78 140.942C172.617 141.128 172.334 141.147 172.148 140.984L172.147 140.983L171.233 140.18C171.048 140.017 171.029 139.736 171.192 139.551C171.355 139.366 171.636 139.348 171.821 139.51L171.83 139.518Z" fill="#1F2933"/>
<path d="M174.905 142.031L175.872 142.729L175.882 142.736C176.086 142.883 176.132 143.168 175.985 143.371C175.838 143.575 175.554 143.621 175.35 143.474L175.349 143.473L174.364 142.757C174.162 142.61 174.117 142.327 174.264 142.124C174.411 141.922 174.694 141.878 174.897 142.025L174.905 142.031Z" fill="#1F2933"/>
<path d="M178.199 144.255L179.224 144.865L179.234 144.871C179.453 145.001 179.525 145.284 179.395 145.503C179.264 145.722 178.981 145.794 178.762 145.664L178.761 145.663L177.717 145.038C177.5 144.907 177.429 144.625 177.56 144.408C177.69 144.19 177.972 144.119 178.19 144.25L178.199 144.255Z" fill="#1F2933"/>
<path d="M181.674 146.182L182.748 146.7L182.759 146.705C182.992 146.818 183.089 147.098 182.977 147.331C182.864 147.564 182.584 147.661 182.352 147.549L182.35 147.548L181.256 147.016C181.025 146.903 180.929 146.624 181.041 146.392C181.154 146.161 181.433 146.065 181.664 146.177L181.674 146.182Z" fill="#1F2933"/>
<path d="M185.305 147.801C185.675 147.945 186.046 148.088 186.419 148.225C186.666 148.315 186.792 148.588 186.702 148.834C186.612 149.081 186.339 149.207 186.093 149.117L186.091 149.116C185.711 148.975 185.333 148.828 184.955 148.68C184.712 148.585 184.593 148.31 184.688 148.067C184.784 147.824 185.058 147.704 185.301 147.8L185.305 147.801Z" fill="#1F2933"/>
<path d="M189.058 149.112L190.203 149.45L190.214 149.453C190.469 149.528 190.615 149.796 190.54 150.051C190.464 150.306 190.197 150.452 189.941 150.377L189.94 150.376L188.775 150.029C188.521 149.953 188.377 149.686 188.453 149.432C188.529 149.178 188.796 149.034 189.05 149.11L189.058 149.112Z" fill="#1F2933"/>
<path d="M192.903 150.14L194.07 150.395L194.08 150.397C194.343 150.455 194.51 150.715 194.453 150.979C194.395 151.243 194.135 151.41 193.871 151.352L193.869 151.352L192.684 151.088C192.422 151.03 192.256 150.77 192.314 150.508C192.373 150.245 192.633 150.08 192.895 150.138L192.903 150.14Z" fill="#1F2933"/>
<path d="M196.811 150.899L197.993 151.077L198.002 151.078C198.273 151.119 198.459 151.371 198.419 151.641C198.378 151.912 198.126 152.098 197.855 152.058L197.853 152.058L196.654 151.873C196.384 151.831 196.2 151.58 196.241 151.31C196.283 151.041 196.535 150.856 196.804 150.898L196.811 150.899Z" fill="#1F2933"/>
<path d="M200.763 151.406L201.954 151.512L201.963 151.513C202.239 151.538 202.443 151.782 202.418 152.058C202.394 152.334 202.15 152.538 201.874 152.513L201.872 152.513L200.664 152.401C200.389 152.376 200.187 152.133 200.212 151.857C200.238 151.582 200.481 151.38 200.756 151.405L200.763 151.406Z" fill="#1F2933"/>
<path d="M204.74 151.682L205.934 151.722L205.942 151.723C206.223 151.732 206.443 151.968 206.433 152.249C206.424 152.53 206.188 152.749 205.907 152.74H205.906L204.696 152.695C204.416 152.684 204.198 152.449 204.208 152.169C204.219 151.89 204.454 151.671 204.734 151.682L204.74 151.682Z" fill="#1F2933"/>
<path d="M208.725 151.746L209.922 151.727L209.929 151.727C210.214 151.722 210.449 151.949 210.453 152.234C210.458 152.519 210.231 152.753 209.946 152.758H209.944L208.732 152.773C208.448 152.777 208.215 152.55 208.212 152.266C208.208 151.982 208.435 151.75 208.719 151.746L208.725 151.746Z" fill="#1F2933"/>
<path d="M212.713 151.618L213.91 151.545L213.917 151.544C214.205 151.527 214.453 151.746 214.471 152.034C214.488 152.322 214.269 152.57 213.981 152.588L213.979 152.588L212.768 152.658C212.481 152.674 212.235 152.455 212.219 152.168C212.202 151.881 212.421 151.635 212.708 151.618L212.713 151.618Z" fill="#1F2933"/>
<path d="M216.697 151.316L217.89 151.194L217.897 151.193C218.187 151.164 218.447 151.375 218.477 151.666C218.507 151.957 218.295 152.217 218.004 152.247L218.002 152.247L216.796 152.366C216.506 152.395 216.248 152.183 216.219 151.893C216.191 151.603 216.403 151.345 216.692 151.317L216.697 151.316Z" fill="#1F2933"/>
<path d="M220.668 150.857L221.855 150.691L221.861 150.691C222.154 150.65 222.425 150.854 222.466 151.147C222.507 151.441 222.302 151.711 222.009 151.752L222.007 151.753L220.808 151.916C220.516 151.956 220.247 151.751 220.207 151.459C220.167 151.166 220.372 150.897 220.664 150.858L220.668 150.857Z" fill="#1F2933"/>
<path d="M224.617 150.255L225.796 150.047L225.802 150.046C226.097 149.994 226.379 150.192 226.431 150.487C226.483 150.782 226.286 151.064 225.99 151.116L225.989 151.116L224.797 151.322C224.503 151.372 224.223 151.175 224.172 150.881C224.121 150.586 224.319 150.307 224.613 150.256L224.617 150.255Z" fill="#1F2933"/>
<path d="M228.542 149.515L229.714 149.266L229.72 149.265C230.017 149.202 230.308 149.392 230.371 149.689C230.434 149.986 230.244 150.278 229.947 150.341L229.946 150.341L228.762 150.588C228.466 150.649 228.176 150.459 228.114 150.163C228.052 149.867 228.242 149.577 228.539 149.515L228.542 149.515Z" fill="#1F2933"/>
<path d="M232.442 148.641L233.605 148.354L233.61 148.353C233.909 148.279 234.21 148.461 234.284 148.76C234.357 149.058 234.175 149.36 233.877 149.433L233.875 149.434L232.7 149.719C232.403 149.792 232.103 149.609 232.03 149.312C231.958 149.014 232.141 148.714 232.438 148.642L232.442 148.641Z" fill="#1F2933"/>
<path d="M236.308 147.641L237.462 147.317L237.467 147.315C237.767 147.231 238.078 147.406 238.162 147.705C238.246 148.005 238.071 148.316 237.771 148.4L237.77 148.4L236.605 148.723C236.306 148.806 235.997 148.631 235.914 148.332C235.831 148.034 236.006 147.724 236.305 147.642L236.308 147.641Z" fill="#1F2933"/>
<path d="M240.142 146.52L241.286 146.16L241.291 146.159C241.591 146.065 241.911 146.232 242.005 146.532C242.099 146.832 241.932 147.152 241.632 147.247L241.63 147.247L240.476 147.605C240.176 147.698 239.858 147.531 239.765 147.231C239.672 146.932 239.84 146.613 240.139 146.52L240.142 146.52Z" fill="#1F2933"/>
<path d="M243.942 145.283L245.075 144.891L245.08 144.89C245.381 144.785 245.709 144.945 245.814 145.246C245.918 145.547 245.758 145.875 245.457 145.98L245.455 145.98L244.312 146.372C244.012 146.475 243.685 146.315 243.582 146.014C243.479 145.714 243.639 145.387 243.94 145.284L243.942 145.283Z" fill="#1F2933"/>
<path d="M247.706 143.939L248.828 143.515L248.832 143.513C249.134 143.4 249.471 143.552 249.584 143.853C249.698 144.155 249.546 144.491 249.245 144.605L249.243 144.606L248.111 145.029C247.81 145.142 247.475 144.989 247.362 144.688C247.25 144.387 247.403 144.052 247.703 143.94L247.706 143.939Z" fill="#1F2933"/>
<path d="M251.432 142.492L252.543 142.038L252.547 142.037C252.849 141.913 253.193 142.058 253.316 142.36C253.44 142.662 253.295 143.007 252.993 143.13L252.991 143.131L251.871 143.584C251.569 143.705 251.226 143.56 251.105 143.259C250.983 142.957 251.128 142.614 251.43 142.493L251.432 142.492Z" fill="#1F2933"/>
<path d="M255.121 140.948L256.22 140.466L256.224 140.465C256.527 140.332 256.879 140.47 257.011 140.772C257.143 141.074 257.006 141.426 256.703 141.559L256.702 141.56L255.593 142.04C255.291 142.171 254.941 142.033 254.81 141.731C254.679 141.43 254.818 141.079 255.119 140.948L255.121 140.948Z" fill="#1F2933"/>
<path d="M258.771 139.312L259.86 138.808L259.863 138.806C260.164 138.667 260.522 138.797 260.661 139.099C260.801 139.4 260.671 139.757 260.37 139.896L259.274 140.406C258.973 140.546 258.615 140.416 258.474 140.114C258.334 139.813 258.465 139.455 258.766 139.315L258.767 139.314L258.771 139.312Z" fill="#1F2933"/>
<path d="M262.388 137.602L263.465 137.073L263.469 137.072C263.764 136.927 264.121 137.049 264.266 137.344C264.411 137.639 264.29 137.995 263.995 138.14L262.912 138.676C262.616 138.822 262.258 138.7 262.112 138.405C261.966 138.109 262.087 137.751 262.383 137.605L262.384 137.604L262.388 137.602Z" fill="#1F2933"/>
<path d="M265.971 135.819L267.04 135.273L267.043 135.271C267.326 135.126 267.673 135.238 267.818 135.522C267.962 135.803 267.852 136.147 267.574 136.294L266.506 136.857C266.22 137.007 265.867 136.898 265.717 136.613C265.567 136.328 265.676 135.975 265.961 135.824C265.962 135.824 265.963 135.823 265.965 135.823L265.971 135.819Z" fill="#1F2933"/>
<path d="M269.522 133.971L270.58 133.403L270.583 133.401C270.851 133.257 271.184 133.358 271.328 133.626C271.471 133.891 271.373 134.222 271.11 134.368L270.053 134.953C269.784 135.102 269.444 135.005 269.295 134.735C269.145 134.465 269.243 134.125 269.513 133.976C269.514 133.975 269.515 133.975 269.516 133.974L269.522 133.971Z" fill="#1F2933"/>
<path d="M273.035 132.053L274.083 131.463L274.086 131.462C274.339 131.32 274.659 131.409 274.801 131.662C274.942 131.913 274.855 132.23 274.607 132.374L273.561 132.98C273.306 133.127 272.98 133.04 272.833 132.786C272.685 132.531 272.772 132.205 273.027 132.058C273.028 132.057 273.029 132.056 273.03 132.056L273.035 132.053Z" fill="#1F2933"/>
<path d="M276.515 130.066L277.552 129.458L277.554 129.457C277.792 129.317 278.098 129.397 278.238 129.635C278.376 129.872 278.299 130.175 278.065 130.316L277.032 130.94C276.792 131.085 276.48 131.008 276.335 130.768C276.19 130.528 276.267 130.216 276.507 130.071C276.508 130.07 276.509 130.07 276.51 130.069L276.515 130.066Z" fill="#1F2933"/>
<path d="M279.958 128.018L280.984 127.392L280.986 127.391C281.21 127.255 281.502 127.326 281.638 127.549C281.774 127.771 281.705 128.06 281.485 128.198L280.463 128.84C280.238 128.981 279.94 128.913 279.798 128.688C279.657 128.462 279.725 128.164 279.951 128.023C279.952 128.022 279.953 128.022 279.954 128.021L279.958 128.018Z" fill="#1F2933"/>
<path d="M283.367 125.912L284.383 125.269L284.385 125.268C284.594 125.136 284.872 125.198 285.004 125.408C285.136 125.616 285.075 125.891 284.87 126.024L283.858 126.682C283.647 126.82 283.364 126.76 283.226 126.548C283.089 126.337 283.149 126.054 283.36 125.916C283.361 125.916 283.362 125.915 283.363 125.915L283.367 125.912Z" fill="#1F2933"/>
<path d="M286.742 123.751L287.748 123.093C287.943 122.964 288.206 123.018 288.335 123.213C288.463 123.407 288.41 123.668 288.218 123.798L287.217 124.471C287.019 124.605 286.751 124.552 286.618 124.354C286.485 124.157 286.538 123.888 286.736 123.756C286.736 123.755 286.741 123.752 286.742 123.751Z" fill="#1F2933"/>
<path d="M290.086 121.54L291.083 120.867C291.264 120.743 291.512 120.79 291.636 120.972C291.759 121.152 291.712 121.399 291.534 121.523L290.543 122.211C290.359 122.339 290.106 122.293 289.978 122.109C289.85 121.924 289.896 121.671 290.08 121.544C290.081 121.543 290.085 121.54 290.086 121.54Z" fill="#1F2933"/>
<path d="M293.398 119.281L294.386 118.594C294.555 118.476 294.787 118.517 294.905 118.686C295.023 118.853 294.982 119.084 294.817 119.203L293.835 119.904C293.664 120.026 293.426 119.986 293.304 119.815C293.182 119.644 293.222 119.407 293.393 119.284C293.394 119.284 293.397 119.281 293.398 119.281Z" fill="#1F2933"/>
<path d="M296.68 116.977L297.659 116.278C297.815 116.166 298.032 116.201 298.144 116.357C298.256 116.511 298.22 116.727 298.068 116.84L297.096 117.553C296.937 117.669 296.715 117.635 296.599 117.477C296.483 117.319 296.517 117.097 296.675 116.981C296.676 116.98 296.679 116.978 296.68 116.977Z" fill="#1F2933"/>
<path d="M299.934 114.632L300.904 113.921C301.048 113.815 301.249 113.846 301.355 113.989C301.46 114.131 301.43 114.332 301.289 114.438L300.326 115.163C300.18 115.272 299.974 115.243 299.864 115.097C299.755 114.952 299.784 114.745 299.929 114.635C299.93 114.635 299.933 114.633 299.934 114.632Z" fill="#1F2933"/>
<path d="M303.161 112.249L304.123 111.527C304.254 111.428 304.44 111.454 304.539 111.585C304.637 111.714 304.612 111.899 304.483 111.999L303.528 112.734C303.395 112.837 303.204 112.812 303.101 112.679C302.999 112.545 303.024 112.354 303.157 112.252C303.157 112.251 303.16 112.249 303.161 112.249Z" fill="#1F2933"/>
<path d="M306.361 109.83L307.316 109.098C307.435 109.006 307.605 109.028 307.697 109.147C307.788 109.264 307.766 109.434 307.65 109.526L306.703 110.271C306.582 110.366 306.406 110.346 306.311 110.224C306.215 110.103 306.236 109.928 306.357 109.833C306.358 109.832 306.36 109.83 306.361 109.83Z" fill="#1F2933"/>
<path d="M309.536 107.377L310.484 106.636C310.591 106.552 310.746 106.57 310.83 106.677C310.913 106.783 310.895 106.936 310.791 107.021L309.851 107.776C309.742 107.863 309.582 107.846 309.494 107.736C309.407 107.627 309.424 107.468 309.533 107.38C309.534 107.38 309.536 107.378 309.536 107.377Z" fill="#1F2933"/>
<path d="M312.689 104.895L313.63 104.144C313.725 104.068 313.864 104.083 313.941 104.178C314.016 104.273 314.001 104.411 313.908 104.487L312.975 105.25C312.878 105.33 312.734 105.316 312.654 105.218C312.574 105.121 312.589 104.977 312.686 104.897C312.687 104.897 312.689 104.895 312.689 104.895Z" fill="#1F2933"/>
<path d="M315.819 102.383L316.755 101.625C316.838 101.557 316.961 101.569 317.029 101.653C317.097 101.736 317.085 101.858 317.003 101.926L316.077 102.697C315.991 102.769 315.863 102.757 315.791 102.671C315.719 102.585 315.731 102.457 315.817 102.385C315.818 102.385 315.819 102.384 315.819 102.383Z" fill="#1F2933"/>
<path d="M318.929 99.8462L319.858 99.0803C319.931 99.0205 320.038 99.0305 320.098 99.1029C320.157 99.1745 320.147 99.2808 320.076 99.3409L319.156 100.119C319.082 100.182 318.97 100.173 318.906 100.098C318.843 100.023 318.852 99.9112 318.927 99.8479C318.927 99.8476 318.929 99.8464 318.929 99.8462Z" fill="#1F2933"/>
<path d="M322.02 97.2853L322.943 96.5129C323.004 96.4615 323.096 96.4695 323.147 96.5306C323.198 96.5912 323.19 96.6816 323.13 96.7332L322.216 97.5177C322.152 97.5724 322.056 97.5651 322.001 97.5014C321.947 97.4376 321.954 97.3415 322.018 97.2868C322.018 97.2866 322.019 97.2856 322.02 97.2853Z" fill="#1F2933"/>
<path d="M325.093 94.7032L326.012 93.9246C326.062 93.882 326.137 93.8881 326.179 93.9382C326.222 93.9879 326.216 94.0625 326.167 94.1053L325.258 94.8957C325.205 94.9417 325.125 94.936 325.079 94.8831C325.033 94.8303 325.039 94.7503 325.091 94.7044C325.092 94.7042 325.093 94.7034 325.093 94.7032Z" fill="#1F2933"/>
<path d="M328.15 92.1015L329.064 91.3176C329.103 91.2838 329.162 91.2883 329.196 91.3275C329.23 91.3664 329.225 91.4251 329.187 91.4591L328.283 92.2547C328.241 92.2917 328.176 92.2876 328.139 92.2456C328.103 92.2035 328.107 92.1394 328.149 92.1024C328.149 92.1023 328.15 92.1016 328.15 92.1015Z" fill="#1F2933"/>
<path d="M331.192 89.4828L332.103 88.6936C332.132 88.6687 332.175 88.6718 332.2 88.7003C332.224 88.7285 332.221 88.7714 332.194 88.7963L331.293 89.5971C331.261 89.6249 331.213 89.622 331.185 89.5907C331.157 89.5593 331.16 89.5113 331.192 89.4835L331.192 89.4828Z" fill="#1F2933"/>
<path d="M337.467 82.9827L338.108 87.6959L341.025 85.2351L337.467 82.9827Z" fill="#7D97F4"/>
<path d="M358.293 77.3926L347.085 90.2898C346.87 90.5368 346.564 90.6857 346.237 90.7024C345.911 90.7191 345.591 90.6022 345.352 90.3784L332.827 78.6366C332.684 78.5022 332.636 78.2942 332.707 78.1108C332.778 77.9274 332.953 77.8053 333.15 77.8021L358.293 77.3926Z" fill="#91B3FA"/>
<path d="M337.469 82.9831L358.294 77.3926L339.484 84.8842L339.606 86.1989L337.469 82.9831Z" fill="#7D97F4"/>
<path d="M340.687 86.0024L338.108 87.696L339.484 84.8843L340.687 86.0024Z" fill="#7D97F4"/>
</g>
</svg>
