<svg width="149" height="134" viewBox="0 0 149 134" fill="none" xmlns="http://www.w3.org/2000/svg">
<path d="M28.3691 51.5268L40.937 41.3294L50.976 105.233C51.3535 107.636 54.5031 109.604 54.5031 109.604L41.9352 119.801C41.9352 119.801 38.7839 117.823 38.4064 115.419L28.3691 51.5268Z" fill="#37474F"/>
<path d="M11.5364 54.0301L18.5293 60.5253L22.8918 88.2951C24.1023 96.0709 23.1065 104.029 20.0189 111.257L41.8746 119.756C40.1769 118.811 38.9114 117.239 38.3458 115.375L29.827 61.148L11.5364 54.0301Z" fill="#455A64"/>
<path d="M20.0273 111.31L20.5313 114.518L42.4397 123.009L41.9357 119.801L20.0273 111.31Z" fill="#AEF2BE"/>
<path d="M42.4394 123.009L55.0074 112.812L54.5034 109.604L41.9355 119.801L42.4394 123.009Z" fill="#AEF2BE"/>
<path opacity="0.1" d="M42.4394 123.009L55.0074 112.812L54.5034 109.604L41.9355 119.801L42.4394 123.009Z" fill="black"/>
<path d="M22.4366 17.8852C19.8633 16.8358 16.6241 17.5291 13.3382 20.1933L13.2128 20.2889C6.72021 25.5722 2.52093 36.5161 3.82985 44.8481L3.85147 44.9858C4.51675 49.2206 6.55235 52.0034 9.24272 52.9043L20.6803 57.4428L33.0138 22.1034L22.4366 17.8852Z" fill="#AEF2BE"/>
<path opacity="0.8" d="M22.4366 17.8852C19.8633 16.8358 16.6241 17.5291 13.3382 20.1933L13.2128 20.2889C6.72021 25.5722 2.52093 36.5161 3.82985 44.8481L3.85147 44.9858C4.51675 49.2206 6.55235 52.0034 9.24272 52.9043L20.6803 57.4428L33.0138 22.1034L22.4366 17.8852Z" fill="#FAFAFA"/>
<path opacity="0.2" d="M9.22495 52.9287L20.6626 57.4673L24.7615 45.7473L3.91096 37.6646C3.51473 40.04 3.48736 42.4633 3.82983 44.8481L3.85145 44.9857C4.52837 49.2947 6.53458 52.0279 9.22495 52.9287Z" fill="#AEF2BE"/>
<path d="M46.2906 22.3283C43.395 21.221 39.8196 21.8369 36.1626 24.4075C35.7726 24.6749 35.3859 24.9635 35.0042 25.2838C34.6225 25.6041 34.0977 26.0446 33.6661 26.4595C32.9296 27.1628 32.2355 27.9094 31.5873 28.6954C30.3384 30.1719 29.2212 31.7559 28.2484 33.4291C25.5362 38.0711 23.7949 43.2207 23.1307 48.5637C22.8246 51.082 22.8617 53.6309 23.2409 56.1402C24.0375 61.2113 26.3316 64.5394 29.4219 65.8547L18.5096 61.635C16.4653 60.725 14.6873 59.3033 13.346 57.5062C12.0046 55.7091 11.1449 53.5968 10.8491 51.3718C10.4955 48.9847 10.4562 46.5617 10.7322 44.1651C11.3461 38.7028 13.0935 33.4319 15.8617 28.6924C16.8312 27.0172 17.9486 25.4329 19.2005 23.9588C19.8483 23.1422 20.5452 22.3662 21.2871 21.6349C21.7293 21.2183 22.1747 20.8228 22.6252 20.4592C23.0757 20.0955 23.4058 19.8592 23.8063 19.5902C25.4496 18.4702 27.3276 17.7445 29.2955 17.4693C31.2634 17.194 33.2686 17.3764 35.1564 18.0024L35.4659 18.1165L35.8575 18.2719L46.2906 22.3283Z" fill="#AEF2BE"/>
<path opacity="0.1" d="M18.4778 61.5749C16.4336 60.6649 14.6556 59.2432 13.3142 57.4461C11.9729 55.649 11.1131 53.5367 10.8174 51.3116C10.4637 48.9245 10.4244 46.5015 10.7005 44.105L23.1072 48.5565C22.8012 51.0748 22.8382 53.6237 23.2174 56.133C24.0141 61.2042 26.3082 64.5322 29.3985 65.8475L18.4778 61.5749Z" fill="black"/>
<path d="M52.7146 32.1457C54.3495 42.5528 49.0732 56.3346 40.9202 62.9419C36.832 66.2745 32.7774 67.1393 29.5556 65.812L29.3825 65.7416C26.2922 64.4263 23.9982 61.0982 23.2015 56.027C21.5683 45.6306 26.8429 31.8382 34.9959 25.2309C39.0574 21.935 43.0755 21.0434 46.2823 22.2754C49.4891 23.5073 51.8963 26.9369 52.7146 32.1457Z" fill="#AEF2BE"/>
<path opacity="0.2" d="M52.7146 32.1457C54.3495 42.5528 49.0732 56.3346 40.9202 62.9419C36.832 66.2745 32.7774 67.1393 29.5556 65.812L29.3825 65.7416C26.2922 64.4263 23.9982 61.0982 23.2015 56.027C21.5683 45.6306 26.8429 31.8382 34.9959 25.2309C39.0574 21.935 43.0755 21.0434 46.2823 22.2754C49.4891 23.5073 51.8963 26.9369 52.7146 32.1457Z" fill="black"/>
<path d="M102.073 21.6363C102.073 21.6363 87.0244 32.679 76.863 59.2265C75.0322 63.9897 73.526 68.8729 72.3549 73.8422C68.0545 92.2548 70.5087 104.095 70.5087 104.095C63.7409 92.8456 55.7172 81.3702 44.0929 73.4437C39.5491 70.36 34.8455 67.5212 30.0018 64.9392C27.0785 63.7929 25.0074 60.6468 24.2723 55.9674C23.7908 52.6781 23.8825 49.3306 24.5434 46.0745C24.9685 43.8877 25.5858 41.7432 26.388 39.6663C28.2772 34.4265 31.4704 29.7609 35.6639 26.1132C39.3332 23.1393 42.9901 22.2177 45.9101 23.3428C51.2237 24.6975 56.6049 25.7677 62.0309 26.5491C75.9468 28.507 89.5536 25.4039 102.073 21.6363Z" fill="#AEF2BE"/>
<path opacity="0.8" d="M102.073 21.6363C102.073 21.6363 87.0244 32.679 76.863 59.2265C75.0322 63.9897 73.526 68.8729 72.3549 73.8422C68.0545 92.2548 70.5087 104.095 70.5087 104.095C63.7409 92.8456 55.7172 81.3702 44.0929 73.4437C39.5491 70.36 34.8455 67.5212 30.0018 64.9392C27.0785 63.7929 25.0074 60.6468 24.2723 55.9674C23.7908 52.6781 23.8825 49.3306 24.5434 46.0745C24.9685 43.8877 25.5858 41.7432 26.388 39.6663C28.2772 34.4265 31.4704 29.7609 35.6639 26.1132C39.3332 23.1393 42.9901 22.2177 45.9101 23.3428C51.2237 24.6975 56.6049 25.7677 62.0309 26.5491C75.9468 28.507 89.5536 25.4039 102.073 21.6363Z" fill="#FAFAFA"/>
<path opacity="0.2" d="M72.3479 73.7998C68.0475 92.2124 70.5016 104.053 70.5016 104.053C63.7338 92.8033 55.7101 81.3279 44.0859 73.4014C39.5421 70.3177 34.8384 67.4789 29.9948 64.8969C27.0714 63.7506 25.0004 60.6045 24.2652 55.925C23.7908 52.6493 23.8848 49.3165 24.543 46.0745C37.9688 50.3442 59.8556 58.6979 72.3479 73.7998Z" fill="#AEF2BE"/>
<path d="M136.622 40.2595C138.326 51.1112 136.86 63.5025 133.05 75.34C128.17 90.5456 119.434 104.719 108.583 113.54C89.1839 129.269 70.3108 121.95 66.424 97.2082C65.5504 91.2618 65.485 85.225 66.2293 79.2631C68.1617 63.5319 74.0495 48.5587 83.3382 35.7532C84.615 34.0266 85.9426 32.3716 87.3211 30.7882C87.8987 30.1333 88.4934 29.5192 89.0831 28.8733C89.9275 27.9921 90.7769 27.1426 91.649 26.3005C92.5211 25.4584 93.5453 24.69 94.5045 23.9209C113.848 8.17877 132.735 15.5176 136.622 40.2595Z" fill="#AEF2BE"/>
<path opacity="0.1" d="M133.05 75.34C128.17 90.5457 119.434 104.719 108.583 113.54C89.1837 129.269 70.3107 121.95 66.4239 97.2082C65.5503 91.2619 65.4848 85.225 66.2292 79.2632C68.1722 82.2124 74.0797 85.9925 75.9051 82.4187C75.2677 87.7084 75.335 93.0606 76.105 98.3344C77.2226 105.449 79.7051 110.939 83.2767 114.218C84.7554 115.593 86.5358 116.599 88.4734 117.155C90.4109 117.71 92.4509 117.798 94.4277 117.413C98.6437 116.751 103.332 114.419 107.939 110.68C117.204 103.171 124.906 91.0802 129.662 77.9767C129.625 78.0151 131.129 78.9287 133.05 75.34Z" fill="black"/>
<path d="M134.194 42.062C135.911 52.9878 134.038 65.9529 129.625 78.0151C124.864 91.0868 117.162 103.178 107.903 110.718C103.295 114.458 98.628 116.786 94.3909 117.451C92.4142 117.837 90.3742 117.748 88.4366 117.193C86.499 116.638 84.7186 115.632 83.24 114.256C79.6683 110.977 77.1792 105.445 76.0682 98.3727C75.2982 93.099 75.231 87.7467 75.8684 82.4571C76.0899 80.3611 76.4169 78.2485 76.8281 76.1228C77.561 72.3623 78.5369 68.654 79.7499 65.0216L80.4712 62.7386C80.9135 61.4975 81.3785 60.2637 81.8784 59.0461C83.5521 54.9136 85.5341 50.9141 87.8074 47.0819L87.8857 46.9611C89.3506 44.498 90.9488 42.1175 92.6732 39.8302C93.8989 38.1912 95.1646 36.6689 96.4702 35.2632C97.0228 34.6557 97.5787 34.0694 98.1379 33.5042C98.8192 32.8222 99.521 32.2021 100.213 31.5184C100.905 30.8348 101.599 30.3027 102.297 29.7266C106.913 25.9747 111.592 23.6557 115.819 22.9917C125.252 21.575 132.089 28.6588 134.194 42.062Z" fill="#AEF2BE"/>
<path opacity="0.3" d="M134.194 42.062C135.911 52.9878 134.038 65.9529 129.625 78.0151C124.864 91.0868 117.162 103.178 107.903 110.718C103.295 114.458 98.628 116.786 94.3909 117.451C92.4142 117.837 90.3742 117.748 88.4366 117.193C86.499 116.638 84.7186 115.632 83.24 114.256C79.6683 110.977 77.1792 105.445 76.0682 98.3727C75.2982 93.099 75.231 87.7467 75.8684 82.4571C76.0899 80.3611 76.4169 78.2485 76.8281 76.1228C77.561 72.3623 78.5369 68.654 79.7499 65.0216L80.4712 62.7386C80.9135 61.4975 81.3785 60.2637 81.8784 59.0461C83.5521 54.9136 85.5341 50.9141 87.8074 47.0819L87.8857 46.9611C89.3506 44.498 90.9488 42.1175 92.6732 39.8302C93.8989 38.1912 95.1646 36.6689 96.4702 35.2632C97.0228 34.6557 97.5787 34.0694 98.1379 33.5042C98.8192 32.8222 99.521 32.2021 100.213 31.5184C100.905 30.8348 101.599 30.3027 102.297 29.7266C106.913 25.9747 111.592 23.6557 115.819 22.9917C125.252 21.575 132.089 28.6588 134.194 42.062Z" fill="black"/>
<path d="M102.359 53.2902L92.7956 80.8284C88.7539 79.988 81.953 78.7023 76.4928 78.1824C76.5972 77.4717 76.7259 76.7789 76.8725 76.0615C77.6026 72.3004 78.5787 68.592 79.7942 64.9604C80.0428 64.2053 80.3036 63.4592 80.5156 62.6774C80.9578 61.4363 81.4228 60.2025 81.9244 58.9954C83.5953 54.8617 85.5774 50.862 87.8534 47.0313C87.8853 46.9916 87.9111 46.9473 87.93 46.8999C88.2646 46.3483 88.5991 45.7968 88.937 45.2664C93.1689 48.3301 97.66 51.015 102.359 53.2902Z" fill="#AEF2BE"/>
<g opacity="0.6">
<path d="M102.359 53.2902L92.7956 80.8284C88.7539 79.988 81.953 78.7023 76.4928 78.1824C76.5972 77.4717 76.7259 76.7789 76.8725 76.0615C77.6026 72.3004 78.5787 68.592 79.7942 64.9604C80.0428 64.2053 80.3036 63.4592 80.5156 62.6774C80.9578 61.4363 81.4228 60.2025 81.9244 58.9954C83.5953 54.8617 85.5774 50.862 87.8534 47.0313C87.8853 46.9916 87.9111 46.9473 87.93 46.8999C88.2646 46.3483 88.5991 45.7968 88.937 45.2664C93.1689 48.3301 97.66 51.015 102.359 53.2902Z" fill="#FAFAFA"/>
</g>
<path d="M93.8725 80.605C90.8053 81.0868 88.591 78.8853 87.9374 74.7246L87.9174 74.5976C86.8896 68.0548 90.2188 59.3413 95.3544 55.1824L95.4498 55.1023C96.6124 54.0944 98.0138 53.4036 99.5195 53.0961C102.576 52.6159 104.801 54.8158 105.456 58.987L105.476 59.1141C106.504 65.6569 103.163 74.3614 98.0376 78.5187L97.9422 78.5987C96.7825 79.6112 95.3799 80.3026 93.8725 80.605Z" fill="#AEF2BE"/>
<g opacity="0.8">
<path d="M93.8725 80.605C90.8053 81.0868 88.591 78.8853 87.9374 74.7246L87.9174 74.5976C86.8896 68.0548 90.2188 59.3413 95.3544 55.1824L95.4498 55.1023C96.6124 54.0944 98.0138 53.4036 99.5195 53.0961C102.576 52.6159 104.801 54.8158 105.456 58.987L105.476 59.1141C106.504 65.6569 103.163 74.3614 98.0376 78.5187L97.9422 78.5987C96.7825 79.6112 95.3799 80.3026 93.8725 80.605Z" fill="#FAFAFA"/>
</g>
</svg>
