<svg width="103" height="69" viewBox="0 0 103 69" fill="none" xmlns="http://www.w3.org/2000/svg">
<path d="M45.6089 0.359807C47.5264 -0.00581652 49.4865 -0.0933766 51.4289 0.0998128C53.2852 0.262624 55.0972 0.757122 56.7789 1.55981C58.3924 2.33002 59.8188 3.44248 60.9589 4.81981C62.161 6.2939 62.9604 8.05453 63.2789 9.92981C63.5787 11.4014 63.5787 12.9183 63.2789 14.3898C63.0101 15.6707 62.5517 16.9042 61.9189 18.0498C61.3047 19.1646 60.5918 20.2222 59.7889 21.2098C58.9889 22.2098 58.2289 23.1298 57.5189 24.0198C56.8398 24.8574 56.2374 25.7544 55.7189 26.6998C55.2423 27.5392 55.0102 28.4953 55.0489 29.4598C55.0548 29.9082 54.9408 30.3501 54.7189 30.7398C54.6142 30.924 54.4704 31.0831 54.2977 31.2057C54.1249 31.3284 53.9273 31.4117 53.7189 31.4498L49.0089 32.3398C48.7852 32.3843 48.5548 32.3834 48.3315 32.337C48.1081 32.2906 47.8964 32.1997 47.7089 32.0698C47.5138 31.9581 47.3489 31.8004 47.2287 31.6104C47.1084 31.4204 47.0364 31.204 47.0189 30.9798C46.7893 29.5003 46.8642 27.9894 47.2389 26.5398C47.5945 25.2482 48.1154 24.0079 48.7889 22.8498C49.44 21.7469 50.1862 20.7029 51.0189 19.7298C51.8489 18.7298 52.5989 17.8298 53.2889 16.9498C53.9232 16.1595 54.4729 15.3048 54.9289 14.3998C55.3211 13.6145 55.4441 12.7219 55.2789 11.8598C55.1461 11.0999 54.8298 10.384 54.3576 9.77404C53.8853 9.16411 53.2713 8.67865 52.5689 8.35981C50.8265 7.56798 48.8695 7.38143 47.0089 7.82981C43.5022 8.49648 41.2522 10.7431 40.2589 14.5698C40.1715 14.9732 40.0159 15.3587 39.7989 15.7098C39.5216 16.0303 39.1309 16.231 38.7089 16.2698L33.7089 17.2198C33.3635 17.2813 33.0077 17.2137 32.7089 17.0298C32.5519 16.9261 32.4182 16.7906 32.3166 16.6322C32.215 16.4737 32.1477 16.2958 32.1189 16.1098C31.9029 14.5324 32.0745 12.926 32.6189 11.4298C33.1851 9.70162 34.0517 8.08687 35.1789 6.65981C36.4428 5.09724 37.9485 3.74686 39.6389 2.65981C41.4607 1.51283 43.4885 0.731622 45.6089 0.359807ZM54.7389 35.1098C55.1835 35.0329 55.6407 35.1318 56.0138 35.3855C56.387 35.6393 56.647 36.028 56.7389 36.4698L57.7389 41.9298C57.7845 42.1486 57.7841 42.3746 57.7376 42.5932C57.6911 42.8119 57.5996 43.0185 57.4689 43.1998C57.3461 43.3858 57.1872 43.5454 57.0017 43.669C56.8162 43.7927 56.6079 43.878 56.3889 43.9198L51.0589 44.9198C50.8385 44.9656 50.6109 44.9653 50.3906 44.9188C50.1703 44.8724 49.962 44.7808 49.7789 44.6498C49.5929 44.527 49.4333 44.3681 49.3097 44.1826C49.186 43.9971 49.1008 43.7888 49.0589 43.5698L48.0589 38.1098C48.0171 37.8902 48.0204 37.6644 48.0685 37.4461C48.1166 37.2277 48.2086 37.0215 48.3389 36.8398C48.4586 36.651 48.6166 36.4894 48.8026 36.3654C48.9886 36.2414 49.1986 36.1577 49.4189 36.1198L54.7389 35.1098Z" fill="#AEF2BE"/>
<path d="M96.4291 22.8898C97.6084 23.5437 98.6864 24.3656 99.6291 25.3298C100.546 26.2332 101.288 27.2976 101.819 28.4698C102.329 29.5908 102.591 30.8083 102.589 32.0398C102.588 33.3523 102.243 34.6417 101.589 35.7798C101.099 36.6918 100.437 37.5001 99.6391 38.1598C98.9245 38.7147 98.1328 39.1627 97.2891 39.4898C96.4692 39.8102 95.6226 40.0578 94.7591 40.2298L92.3191 40.7098C91.5872 40.8505 90.8706 41.0614 90.1791 41.3398C89.5569 41.5707 89.0126 41.9728 88.6091 42.4998C88.4125 42.7419 88.153 42.9252 87.8591 43.0298C87.7211 43.0815 87.5733 43.102 87.4263 43.0899C87.2794 43.0778 87.1369 43.0334 87.0091 42.9598L84.1191 41.3398C83.8381 41.186 83.6295 40.9271 83.5391 40.6198C83.49 40.4737 83.4753 40.3183 83.4961 40.1657C83.5169 40.0131 83.5727 39.8673 83.6591 39.7398C84.1916 38.8556 84.8995 38.0899 85.7391 37.4898C86.5001 36.9582 87.3271 36.5279 88.1991 36.2098C89.0355 35.9122 89.8951 35.6847 90.7691 35.5298C91.6391 35.3798 92.4491 35.2298 93.2091 35.0698C93.895 34.9264 94.565 34.7154 95.2091 34.4398C95.7651 34.1945 96.2278 33.7774 96.5291 33.2498C96.7918 32.7857 96.9381 32.265 96.9555 31.7321C96.9729 31.1991 96.8609 30.6699 96.6291 30.1898C96.058 28.9988 95.1037 28.034 93.9191 27.4498C92.8988 26.8601 91.7214 26.5994 90.5475 26.7032C89.3736 26.807 88.2602 27.2702 87.3591 28.0298C87.1362 28.2109 86.882 28.3499 86.6091 28.4398C86.3228 28.4873 86.0292 28.4228 85.7891 28.2598L82.7091 26.5398C82.4912 26.4172 82.3271 26.2174 82.2491 25.9798C82.2102 25.8555 82.1981 25.7244 82.2136 25.5951C82.2291 25.4658 82.2719 25.3413 82.3391 25.2298C82.9229 24.3001 83.7221 23.5249 84.6691 22.9698C85.7471 22.3191 86.9323 21.8654 88.1691 21.6298C89.5231 21.3643 90.9111 21.3204 92.2791 21.4998C93.739 21.6919 95.1481 22.1639 96.4291 22.8898ZM85.8891 45.3398C86.0249 45.415 86.1444 45.5166 86.2405 45.6385C86.3367 45.7604 86.4076 45.9002 86.4491 46.0498C86.4934 46.1972 86.5074 46.352 86.4902 46.505C86.473 46.658 86.425 46.8059 86.3491 46.9398L84.4791 50.2898C84.3274 50.5624 84.0739 50.7638 83.7741 50.85C83.4742 50.9362 83.1525 50.9002 82.8791 50.7498L79.6091 48.9198C79.4715 48.8483 79.351 48.7478 79.256 48.6253C79.1611 48.5027 79.0939 48.3609 79.0591 48.2098C79.0116 48.0633 78.995 47.9085 79.0105 47.7553C79.026 47.6021 79.0732 47.4537 79.1491 47.3198L81.0191 43.9698C81.095 43.8355 81.1968 43.7177 81.3188 43.6233C81.4407 43.5288 81.5802 43.4596 81.7291 43.4198C81.8762 43.3731 82.0314 43.3579 82.1848 43.3751C82.3381 43.3923 82.4861 43.4416 82.6191 43.5198L85.8891 45.3398Z" fill="#AEF2BE"/>
<g opacity="0.2">
<path d="M96.4291 22.8898C97.6084 23.5437 98.6864 24.3656 99.6291 25.3298C100.546 26.2332 101.288 27.2976 101.819 28.4698C102.329 29.5908 102.591 30.8083 102.589 32.0398C102.588 33.3523 102.243 34.6417 101.589 35.7798C101.099 36.6918 100.437 37.5001 99.6391 38.1598C98.9245 38.7147 98.1328 39.1627 97.2891 39.4898C96.4692 39.8102 95.6226 40.0578 94.7591 40.2298L92.3191 40.7098C91.5872 40.8505 90.8706 41.0614 90.1791 41.3398C89.5569 41.5707 89.0126 41.9728 88.6091 42.4998C88.4125 42.7419 88.153 42.9252 87.8591 43.0298C87.7211 43.0815 87.5733 43.102 87.4263 43.0899C87.2794 43.0778 87.1369 43.0334 87.0091 42.9598L84.1191 41.3398C83.8381 41.186 83.6295 40.9271 83.5391 40.6198C83.49 40.4737 83.4753 40.3183 83.4961 40.1657C83.5169 40.0131 83.5727 39.8673 83.6591 39.7398C84.1916 38.8556 84.8995 38.0899 85.7391 37.4898C86.5001 36.9582 87.3271 36.5279 88.1991 36.2098C89.0355 35.9122 89.8951 35.6847 90.7691 35.5298C91.6391 35.3798 92.4491 35.2298 93.2091 35.0698C93.895 34.9264 94.565 34.7154 95.2091 34.4398C95.7651 34.1945 96.2278 33.7774 96.5291 33.2498C96.7918 32.7857 96.9381 32.265 96.9555 31.7321C96.9729 31.1991 96.8609 30.6699 96.6291 30.1898C96.058 28.9988 95.1037 28.034 93.9191 27.4498C92.8988 26.8601 91.7214 26.5994 90.5475 26.7032C89.3736 26.807 88.2602 27.2702 87.3591 28.0298C87.1362 28.2109 86.882 28.3499 86.6091 28.4398C86.3228 28.4873 86.0292 28.4228 85.7891 28.2598L82.7091 26.5398C82.4912 26.4172 82.3271 26.2174 82.2491 25.9798C82.2102 25.8555 82.1981 25.7244 82.2136 25.5951C82.2291 25.4658 82.2719 25.3413 82.3391 25.2298C82.9229 24.3001 83.7221 23.5249 84.6691 22.9698C85.7471 22.3191 86.9323 21.8654 88.1691 21.6298C89.5231 21.3643 90.9111 21.3204 92.2791 21.4998C93.739 21.6919 95.1481 22.1639 96.4291 22.8898ZM85.8891 45.3398C86.0249 45.415 86.1444 45.5166 86.2405 45.6385C86.3367 45.7604 86.4076 45.9002 86.4491 46.0498C86.4934 46.1972 86.5074 46.352 86.4902 46.505C86.473 46.658 86.425 46.8059 86.3491 46.9398L84.4791 50.2898C84.3274 50.5624 84.0739 50.7638 83.7741 50.85C83.4742 50.9362 83.1525 50.9002 82.8791 50.7498L79.6091 48.9198C79.4715 48.8483 79.351 48.7478 79.256 48.6253C79.1611 48.5027 79.0939 48.3609 79.0591 48.2098C79.0116 48.0633 78.995 47.9085 79.0105 47.7553C79.026 47.6021 79.0732 47.4537 79.1491 47.3198L81.0191 43.9698C81.095 43.8355 81.1968 43.7177 81.3188 43.6233C81.4407 43.5288 81.5802 43.4596 81.7291 43.4198C81.8762 43.3731 82.0314 43.3579 82.1848 43.3751C82.3381 43.3923 82.4861 43.4416 82.6191 43.5198L85.8891 45.3398Z" fill="#492922"/>
</g>
<path d="M25.9893 59.6099C26.1225 59.4841 26.2797 59.3864 26.4515 59.3228C26.6234 59.2593 26.8063 59.2311 26.9893 59.2399C27.177 59.2425 27.3622 59.2828 27.534 59.3584C27.7058 59.434 27.8606 59.5433 27.9893 59.6799L31.0693 63.0199C31.196 63.1562 31.2945 63.3161 31.3591 63.4906C31.4238 63.6651 31.4532 63.8507 31.4458 64.0366C31.4383 64.2225 31.3942 64.4051 31.3158 64.5739C31.2375 64.7427 31.1265 64.8942 30.9893 65.0199L27.7293 68.0199C27.5931 68.1467 27.4331 68.2452 27.2586 68.3098C27.0841 68.3744 26.8986 68.4038 26.7127 68.3964C26.5267 68.3889 26.3441 68.3448 26.1754 68.2664C26.0066 68.1881 25.855 68.0771 25.7293 67.9399L22.6493 64.5999C22.5213 64.4643 22.4218 64.3045 22.3564 64.1299C22.291 63.9553 22.2612 63.7694 22.2686 63.5831C22.2761 63.3968 22.3207 63.2139 22.3998 63.045C22.4789 62.8762 22.5909 62.7249 22.7293 62.5999L25.9893 59.6099ZM4.58931 39.4599C5.75867 38.3671 7.07879 37.4477 8.50931 36.7299C9.86773 36.0434 11.3372 35.6032 12.8493 35.4299C14.3009 35.2697 15.77 35.4197 17.1593 35.8699C18.6354 36.3737 19.9552 37.2524 20.9893 38.4199C21.8546 39.2992 22.5347 40.3431 22.9893 41.4899C23.3561 42.4959 23.5717 43.5507 23.6293 44.6199C23.6864 45.6609 23.6529 46.7048 23.5293 47.7399C23.3993 48.7399 23.2793 49.7399 23.1693 50.6699C23.0608 51.5455 23.0307 52.429 23.0793 53.3099C23.1126 54.1017 23.3691 54.8678 23.8193 55.5199C24.0131 55.8188 24.1236 56.164 24.1393 56.5199C24.148 56.6952 24.1165 56.8701 24.0472 57.0313C23.9778 57.1925 23.8725 57.3357 23.7393 57.4499L20.8593 60.1199C20.5861 60.3676 20.2279 60.5001 19.8593 60.4899C19.6765 60.4967 19.4947 60.4593 19.3293 60.381C19.164 60.3026 19.0199 60.1857 18.9093 60.0399C18.1092 59.1097 17.5039 58.0283 17.1293 56.8599C16.8161 55.8105 16.6413 54.7246 16.6093 53.6299C16.5781 52.5734 16.6383 51.5161 16.7893 50.4699C16.9393 49.4699 17.0593 48.4699 17.1593 47.5699C17.2489 46.7423 17.2489 45.9075 17.1593 45.0799C17.0941 44.367 16.7953 43.6956 16.3093 43.1699C15.8865 42.7014 15.356 42.3428 14.7637 42.125C14.1714 41.9072 13.5349 41.8369 12.9093 41.9199C11.3663 42.1195 9.9322 42.8225 8.82931 43.9199C6.68265 45.9199 6.09265 48.4566 7.05931 51.5299C7.1779 51.85 7.23884 52.1886 7.23931 52.5299C7.21455 52.6982 7.15674 52.86 7.06922 53.0059C6.98169 53.1518 6.86617 53.2789 6.72931 53.3799L3.65931 56.2199C3.44477 56.4272 3.15757 56.542 2.85931 56.5399C2.70657 56.5374 2.55614 56.5021 2.41815 56.4366C2.28016 56.371 2.1578 56.2767 2.05931 56.1599C1.20921 55.1764 0.614972 53.9982 0.329313 52.7299C-0.0100021 51.2787 -0.0878905 49.7785 0.0993093 48.2999C0.304658 46.6791 0.770669 45.1021 1.47931 43.6299C2.23407 42.0504 3.29058 40.6338 4.58931 39.4599Z" fill="#AEF2BE"/>
<g opacity="0.6">
<path d="M25.9893 59.6099C26.1225 59.4841 26.2797 59.3864 26.4515 59.3228C26.6234 59.2593 26.8063 59.2311 26.9893 59.2399C27.177 59.2425 27.3622 59.2828 27.534 59.3584C27.7058 59.434 27.8606 59.5433 27.9893 59.6799L31.0693 63.0199C31.196 63.1562 31.2945 63.3161 31.3591 63.4906C31.4238 63.6651 31.4532 63.8507 31.4458 64.0366C31.4383 64.2225 31.3942 64.4051 31.3158 64.5739C31.2375 64.7427 31.1265 64.8942 30.9893 65.0199L27.7293 68.0199C27.5931 68.1467 27.4331 68.2452 27.2586 68.3098C27.0841 68.3744 26.8986 68.4038 26.7127 68.3964C26.5267 68.3889 26.3441 68.3448 26.1754 68.2664C26.0066 68.1881 25.855 68.0771 25.7293 67.9399L22.6493 64.5999C22.5213 64.4643 22.4218 64.3045 22.3564 64.1299C22.291 63.9553 22.2612 63.7694 22.2686 63.5831C22.2761 63.3968 22.3207 63.2139 22.3998 63.045C22.4789 62.8762 22.5909 62.7249 22.7293 62.5999L25.9893 59.6099ZM4.58931 39.4599C5.75867 38.3671 7.07879 37.4477 8.50931 36.7299C9.86773 36.0434 11.3372 35.6032 12.8493 35.4299C14.3009 35.2697 15.77 35.4197 17.1593 35.8699C18.6354 36.3737 19.9552 37.2524 20.9893 38.4199C21.8546 39.2992 22.5347 40.3431 22.9893 41.4899C23.3561 42.4959 23.5717 43.5507 23.6293 44.6199C23.6864 45.6609 23.6529 46.7048 23.5293 47.7399C23.3993 48.7399 23.2793 49.7399 23.1693 50.6699C23.0608 51.5455 23.0307 52.429 23.0793 53.3099C23.1126 54.1017 23.3691 54.8678 23.8193 55.5199C24.0131 55.8188 24.1236 56.164 24.1393 56.5199C24.148 56.6952 24.1165 56.8701 24.0472 57.0313C23.9778 57.1925 23.8725 57.3357 23.7393 57.4499L20.8593 60.1199C20.5861 60.3676 20.2279 60.5001 19.8593 60.4899C19.6765 60.4967 19.4947 60.4593 19.3293 60.381C19.164 60.3026 19.0199 60.1857 18.9093 60.0399C18.1092 59.1097 17.5039 58.0283 17.1293 56.8599C16.8161 55.8105 16.6413 54.7246 16.6093 53.6299C16.5781 52.5734 16.6383 51.5161 16.7893 50.4699C16.9393 49.4699 17.0593 48.4699 17.1593 47.5699C17.2489 46.7423 17.2489 45.9075 17.1593 45.0799C17.0941 44.367 16.7953 43.6956 16.3093 43.1699C15.8865 42.7014 15.356 42.3428 14.7637 42.125C14.1714 41.9072 13.5349 41.8369 12.9093 41.9199C11.3663 42.1195 9.9322 42.8225 8.82931 43.9199C6.68265 45.9199 6.09265 48.4566 7.05931 51.5299C7.1779 51.85 7.23884 52.1886 7.23931 52.5299C7.21455 52.6982 7.15674 52.86 7.06922 53.0059C6.98169 53.1518 6.86617 53.2789 6.72931 53.3799L3.65931 56.2199C3.44477 56.4272 3.15757 56.542 2.85931 56.5399C2.70657 56.5374 2.55614 56.5021 2.41815 56.4366C2.28016 56.371 2.1578 56.2767 2.05931 56.1599C1.20921 55.1764 0.614972 53.9982 0.329313 52.7299C-0.0100021 51.2787 -0.0878905 49.7785 0.0993093 48.2999C0.304658 46.6791 0.770669 45.1021 1.47931 43.6299C2.23407 42.0504 3.29058 40.6338 4.58931 39.4599Z" fill="white"/>
</g>
</svg>
