<svg width="113" height="251" viewBox="0 0 113 251" fill="none" xmlns="http://www.w3.org/2000/svg">
<path d="M111.193 232.34C110.003 231.721 108.65 231.491 107.322 231.68C106.931 231.101 106.407 230.624 105.792 230.29C104.329 229.55 102.712 229.165 101.072 229.165C99.4327 229.165 97.8159 229.55 96.3525 230.29C95.8746 230.516 95.4533 230.847 95.1194 231.257C94.7855 231.667 94.5474 232.146 94.4225 232.66C91.2872 232.036 88.0331 232.483 85.1825 233.93C84.6108 234.253 84.0887 234.657 83.6325 235.13C79.4625 233.81 74.1225 234.13 70.6325 236.21C69.6101 236.761 68.7381 237.554 68.0925 238.52C64.0875 237.253 59.745 237.613 56.0025 239.52C55.5137 239.802 55.0576 240.138 54.6425 240.52C54.2527 240.19 53.8344 239.896 53.3925 239.64C50.9783 238.364 48.2716 237.743 45.5425 237.84C44.8703 236.636 43.8629 235.653 42.6425 235.01C38.8925 232.85 33.2025 232.51 28.8225 234.01C28.3291 232.826 27.4281 231.857 26.2825 231.28C23.6845 229.931 20.7343 229.414 17.8325 229.8C17.472 229.033 16.867 228.407 16.1125 228.02C14.6912 227.3 13.1206 226.925 11.5275 226.925C9.93446 226.925 8.36376 227.3 6.9425 228.02C6.48033 228.283 6.06476 228.621 5.71251 229.02C4.21426 228.747 2.66791 228.976 1.3125 229.67C-0.4375 230.67 -0.4375 232.32 1.3125 233.33C2.23816 233.8 3.25675 234.058 4.29448 234.086C5.33221 234.113 6.36311 233.91 7.3125 233.49C8.28823 233.965 9.34186 234.26 10.4225 234.36C10.0325 235.98 10.9125 237.68 13.0625 238.92C16.1713 240.499 19.7396 240.925 23.1325 240.12C23.2925 241.68 24.3925 243.22 26.4525 244.41C29.3393 245.92 32.5965 246.575 35.8425 246.3C36.4696 247.187 37.2947 247.917 38.2525 248.43C41.7525 250.43 47.0825 250.78 51.1725 249.43C52.2597 249.972 53.4578 250.253 54.6725 250.253C55.8872 250.253 57.0853 249.972 58.1725 249.43C58.3762 249.309 58.5702 249.172 58.7525 249.02C62.6269 250.056 66.749 249.599 70.3025 247.74C71.099 247.3 71.8022 246.709 72.3725 246C76.6425 247.62 82.3725 247.35 86.1725 245.18C87.2709 244.593 88.1926 243.723 88.8425 242.66C91.9991 243.303 95.2804 242.859 98.1525 241.4C100.293 240.16 101.152 238.46 100.702 236.85C102.346 236.934 103.984 236.611 105.473 235.91C106.379 236.328 107.368 236.535 108.365 236.516C109.363 236.496 110.343 236.252 111.232 235.8C112.853 234.85 112.853 233.3 111.193 232.34Z" fill="#E0E0E0"/>
<path d="M82.5527 229.69C82.5527 235.92 70.2427 240.97 55.0527 240.97C39.8627 240.97 27.5527 235.92 27.5527 229.69C27.5527 223.46 39.8627 218.42 55.0527 218.42C70.2427 218.42 82.5527 223.47 82.5527 229.69Z" fill="#AEF2BE"/>
<path d="M82.5527 229.69C82.5527 235.92 70.2427 240.97 55.0527 240.97C39.8627 240.97 27.5527 235.92 27.5527 229.69C27.5527 223.46 39.8627 218.42 55.0527 218.42C70.2427 218.42 82.5527 223.47 82.5527 229.69Z" fill="#AEF2BE"/>
<path opacity="0.9" d="M82.5527 229.69C82.5527 235.92 70.2427 240.97 55.0527 240.97C39.8627 240.97 27.5527 235.92 27.5527 229.69C27.5527 223.46 39.8627 218.42 55.0527 218.42C70.2427 218.42 82.5527 223.47 82.5527 229.69Z" fill="white"/>
<path d="M30.6128 223.87C30.7038 220.691 32.0306 217.672 34.3115 215.456C36.5923 213.239 39.6474 212 42.8278 212C46.0083 212 49.0634 213.239 51.3442 215.456C53.625 217.672 54.9519 220.691 55.0429 223.87C55.0429 223.98 55.0429 224.09 55.0429 224.21C55.0429 224.33 55.0429 224.43 55.0429 224.55C54.9029 226.24 53.7128 227.9 51.4628 229.2C46.7028 231.96 38.9528 231.96 34.1728 229.2C31.9428 227.9 30.7528 226.2 30.6128 224.55C30.6128 224.43 30.6128 224.33 30.6128 224.21C30.6128 224.09 30.6028 223.98 30.6128 223.87Z" fill="#AEF2BE"/>
<path opacity="0.8" d="M30.6128 223.87C30.7038 220.691 32.0306 217.672 34.3115 215.456C36.5923 213.239 39.6474 212 42.8278 212C46.0083 212 49.0634 213.239 51.3442 215.456C53.625 217.672 54.9519 220.691 55.0429 223.87C55.0429 223.98 55.0429 224.09 55.0429 224.21C55.0429 224.33 55.0429 224.43 55.0429 224.55C54.9029 226.24 53.7128 227.9 51.4628 229.2C46.7028 231.96 38.9528 231.96 34.1728 229.2C31.9428 227.9 30.7528 226.2 30.6128 224.55C30.6128 224.43 30.6128 224.33 30.6128 224.21C30.6128 224.09 30.6028 223.98 30.6128 223.87Z" fill="white"/>
<g style="mix-blend-mode:lighten" opacity="0.3">
<path d="M37.5225 213.2C39.3592 212.312 41.3892 211.898 43.427 211.997C45.4647 212.096 47.4453 212.703 49.1877 213.765C50.9302 214.826 52.3789 216.307 53.4017 218.072C54.4244 219.837 54.9885 221.831 55.0425 223.87C55.0425 223.98 55.0425 224.09 55.0425 224.21C55.0425 224.33 55.0425 224.43 55.0425 224.55C54.9025 226.24 53.7125 227.9 51.4625 229.2C49.5606 230.255 47.4654 230.914 45.3025 231.14C48.4725 230.6 50.5225 227.06 49.5525 223.14C48.4525 218.58 43.8725 212.03 37.5225 213.2Z" fill="white"/>
</g>
<path opacity="0.1" d="M30.6123 224.55C30.6123 224.43 30.6123 224.33 30.6123 224.21C30.6123 224.09 30.6123 223.98 30.6123 223.87C30.6562 222.192 31.0467 220.542 31.7592 219.022C32.4716 217.503 33.4907 216.147 34.7523 215.04C33.4323 216.4 30.4723 221.55 33.6823 225.47C35.7923 228.05 45.8123 231.73 54.0623 227C53.3523 227.901 52.4681 228.649 51.4623 229.2C46.7023 231.96 38.9523 231.96 34.1723 229.2C31.9423 227.9 30.7523 226.24 30.6123 224.55Z" fill="#AEF2BE"/>
<g style="mix-blend-mode:lighten" opacity="0.5">
<path d="M42.9528 214.74C42.4028 215.98 43.4529 217.65 45.2929 218.46C47.1329 219.27 49.0829 218.91 49.6229 217.67C50.1629 216.43 49.1228 214.76 47.2828 213.95C45.4428 213.14 43.4928 213.49 42.9528 214.74Z" fill="white"/>
</g>
<g style="mix-blend-mode:lighten" opacity="0.5">
<path d="M50.0323 219.81C49.9494 220.173 49.9958 220.554 50.1635 220.886C50.3312 221.219 50.6097 221.482 50.9509 221.632C51.2921 221.781 51.6747 221.807 52.0327 221.704C52.3908 221.602 52.7018 221.377 52.9123 221.07C52.9951 220.707 52.9487 220.326 52.781 219.994C52.6133 219.661 52.3349 219.398 51.9937 219.248C51.6525 219.099 51.2699 219.073 50.9118 219.176C50.5538 219.278 50.2427 219.503 50.0323 219.81Z" fill="white"/>
</g>
<path d="M75.6526 224.23C75.5689 221.534 74.4391 218.977 72.5026 217.099C70.566 215.222 67.9747 214.172 65.2776 214.172C62.5804 214.172 59.9892 215.222 58.0526 217.099C56.116 218.977 54.9863 221.534 54.9026 224.23C54.8892 224.423 54.8892 224.617 54.9026 224.81C55.0226 226.24 56.0326 227.65 57.9026 228.76C60.1774 229.913 62.692 230.515 65.2426 230.515C67.7931 230.515 70.3078 229.913 72.5826 228.76C74.4826 227.65 75.4926 226.24 75.5826 224.81C75.5959 224.617 75.5959 224.423 75.5826 224.23H75.6526Z" fill="#AEF2BE"/>
<path opacity="0.8" d="M75.6526 224.23C75.5689 221.534 74.4391 218.977 72.5026 217.099C70.566 215.222 67.9747 214.172 65.2776 214.172C62.5804 214.172 59.9892 215.222 58.0526 217.099C56.116 218.977 54.9863 221.534 54.9026 224.23C54.8892 224.423 54.8892 224.617 54.9026 224.81C55.0226 226.24 56.0326 227.65 57.9026 228.76C60.1774 229.913 62.692 230.515 65.2426 230.515C67.7931 230.515 70.3078 229.913 72.5826 228.76C74.4826 227.65 75.4926 226.24 75.5826 224.81C75.5959 224.617 75.5959 224.423 75.5826 224.23H75.6526Z" fill="white"/>
<g style="mix-blend-mode:lighten" opacity="0.3">
<path d="M69.7826 215.14C68.223 214.383 66.4985 214.03 64.7669 214.112C63.0354 214.194 61.3522 214.71 59.8715 215.612C58.3909 216.513 57.1601 217.772 56.292 219.272C55.4239 220.773 54.9461 222.467 54.9026 224.2C54.8892 224.393 54.8892 224.587 54.9026 224.78C55.0226 226.21 56.0326 227.62 57.9026 228.73C59.5153 229.609 61.286 230.159 63.1126 230.35C60.4126 229.89 58.6726 226.88 59.5026 223.56C60.5026 219.74 64.3926 214.14 69.7826 215.14Z" fill="white"/>
</g>
<path opacity="0.1" d="M75.6522 224.81C75.6655 224.617 75.6655 224.423 75.6522 224.23C75.6143 222.805 75.2819 221.403 74.6762 220.112C74.0704 218.821 73.2043 217.67 72.1322 216.73C73.2622 217.89 75.7622 222.26 73.0422 225.59C71.2522 227.78 62.7422 230.91 55.7422 226.89C56.3413 227.656 57.0898 228.292 57.9422 228.76C60.217 229.913 62.7316 230.515 65.2822 230.515C67.8327 230.515 70.3474 229.913 72.6222 228.76C74.5222 227.65 75.5322 226.24 75.6522 224.81Z" fill="#AEF2BE"/>
<g style="mix-blend-mode:lighten" opacity="0.5">
<path d="M65.1729 216.47C65.6429 217.53 64.7429 218.95 63.1729 219.64C61.6029 220.33 59.9629 220.02 59.4929 218.96C59.0229 217.9 59.9229 216.49 61.4929 215.8C63.0629 215.11 64.7129 215.42 65.1729 216.47Z" fill="white"/>
</g>
<g style="mix-blend-mode:lighten" opacity="0.5">
<path d="M59.1623 220.78C59.327 221.01 59.4162 221.286 59.4177 221.57C59.4192 221.853 59.3328 222.13 59.1705 222.362C59.0081 222.594 58.7778 222.77 58.5112 222.866C58.2446 222.962 57.9549 222.973 57.6819 222.897C57.4089 222.821 57.166 222.663 56.9868 222.444C56.8076 222.224 56.7008 221.955 56.6811 221.672C56.6614 221.389 56.7297 221.108 56.8768 220.865C57.0239 220.623 57.2424 220.433 57.5022 220.32C57.7846 220.167 58.1155 220.129 58.4252 220.215C58.7348 220.301 58.9991 220.503 59.1623 220.78Z" fill="white"/>
</g>
<path d="M83.9925 228.6C83.9925 226.781 83.2697 225.036 81.9832 223.749C80.6967 222.463 78.9519 221.74 77.1325 221.74C75.3131 221.74 73.5682 222.463 72.2817 223.749C70.9952 225.036 70.2725 226.781 70.2725 228.6C70.2672 228.663 70.2672 228.727 70.2725 228.79C70.2678 228.853 70.2678 228.917 70.2725 228.98C70.3666 229.546 70.5982 230.079 70.9469 230.535C71.2956 230.99 71.7508 231.352 72.2725 231.59C73.7785 232.354 75.4436 232.753 77.1325 232.753C78.8213 232.753 80.4864 232.354 81.9925 231.59C82.5116 231.349 82.9646 230.985 83.3129 230.531C83.6611 230.076 83.8943 229.544 83.9925 228.98V228.6Z" fill="#AEF2BE"/>
<path opacity="0.9" d="M83.9925 228.6C83.9925 226.781 83.2697 225.036 81.9832 223.749C80.6967 222.463 78.9519 221.74 77.1325 221.74C75.3131 221.74 73.5682 222.463 72.2817 223.749C70.9952 225.036 70.2725 226.781 70.2725 228.6C70.2672 228.663 70.2672 228.727 70.2725 228.79C70.2678 228.853 70.2678 228.917 70.2725 228.98C70.3666 229.546 70.5982 230.079 70.9469 230.535C71.2956 230.99 71.7508 231.352 72.2725 231.59C73.7785 232.354 75.4436 232.753 77.1325 232.753C78.8213 232.753 80.4864 232.354 81.9925 231.59C82.5116 231.349 82.9646 230.985 83.3129 230.531C83.6611 230.076 83.8943 229.544 83.9925 228.98V228.6Z" fill="white"/>
<g style="mix-blend-mode:lighten" opacity="0.5">
<path d="M80.1022 222.61C79.1687 222.152 78.142 221.916 77.1022 221.92C75.3128 221.917 73.5932 222.614 72.3112 223.862C71.0292 225.111 70.2866 226.811 70.2422 228.6C70.237 228.663 70.237 228.727 70.2422 228.79C70.2375 228.853 70.2375 228.917 70.2422 228.98C70.3363 229.546 70.5679 230.079 70.9166 230.534C71.2654 230.99 71.7206 231.352 72.2422 231.59C73.3088 232.174 74.4821 232.538 75.6922 232.66C73.9122 232.36 72.7522 230.37 73.3022 228.17C73.9722 225.63 76.5422 221.95 80.1022 222.61Z" fill="white"/>
</g>
<path opacity="0.1" d="M83.9923 228.98V228.6C83.9723 227.65 83.7548 226.716 83.3537 225.855C82.9525 224.994 82.3765 224.226 81.6622 223.6C82.4022 224.36 84.0623 227.25 82.2623 229.45C81.0723 230.9 75.4523 232.97 70.8223 230.31C71.2172 230.817 71.7104 231.239 72.2723 231.55C73.7783 232.314 75.4434 232.713 77.1322 232.713C78.8211 232.713 80.4862 232.314 81.9923 231.55C82.5065 231.312 82.9564 230.955 83.3043 230.508C83.6523 230.061 83.8882 229.537 83.9923 228.98Z" fill="#AEF2BE"/>
<g style="mix-blend-mode:lighten" opacity="0.5">
<path d="M77.0623 223.47C77.3623 224.17 76.7723 225.1 75.7423 225.56C74.7123 226.02 73.6123 225.81 73.3123 225.11C73.0123 224.41 73.5923 223.48 74.6323 223.02C75.6723 222.56 76.7523 222.77 77.0623 223.47Z" fill="white"/>
</g>
<g style="mix-blend-mode:lighten" opacity="0.5">
<path d="M73.082 226.32C73.1291 226.524 73.1033 226.739 73.0092 226.926C72.915 227.114 72.7583 227.262 72.5662 227.346C72.3742 227.431 72.1587 227.445 71.9571 227.387C71.7555 227.33 71.5804 227.203 71.462 227.03C71.4069 226.828 71.4298 226.614 71.5262 226.428C71.6226 226.243 71.7854 226.101 71.982 226.03C72.1667 225.924 72.3856 225.895 72.5915 225.949C72.7973 226.004 72.9735 226.137 73.082 226.32Z" fill="white"/>
</g>
<path d="M97.3023 229.46C97.2231 227.04 96.2059 224.745 94.4658 223.061C92.7256 221.377 90.3989 220.435 87.9773 220.435C85.5557 220.435 83.229 221.377 81.4889 223.061C79.7488 224.745 78.7316 227.04 78.6523 229.46V229.98C78.7845 230.749 79.1022 231.474 79.5779 232.093C80.0536 232.711 80.673 233.205 81.3823 233.53C83.4268 234.571 85.6883 235.113 87.9823 235.113C90.2764 235.113 92.5379 234.571 94.5823 233.53C95.2893 233.203 95.9062 232.709 96.38 232.09C96.8538 231.472 97.1703 230.748 97.3023 229.98C97.3075 229.893 97.3075 229.807 97.3023 229.72C97.3071 229.633 97.3071 229.547 97.3023 229.46Z" fill="#AEF2BE"/>
<path opacity="0.7" d="M97.3023 229.46C97.2231 227.04 96.2059 224.745 94.4658 223.061C92.7256 221.377 90.3989 220.435 87.9773 220.435C85.5557 220.435 83.229 221.377 81.4889 223.061C79.7488 224.745 78.7316 227.04 78.6523 229.46V229.98C78.7845 230.749 79.1022 231.474 79.5779 232.093C80.0536 232.711 80.673 233.205 81.3823 233.53C83.4268 234.571 85.6883 235.113 87.9823 235.113C90.2764 235.113 92.5379 234.571 94.5823 233.53C95.2893 233.203 95.9062 232.709 96.38 232.09C96.8538 231.472 97.1703 230.748 97.3023 229.98C97.3075 229.893 97.3075 229.807 97.3023 229.72C97.3071 229.633 97.3071 229.547 97.3023 229.46Z" fill="white"/>
<g style="mix-blend-mode:lighten" opacity="0.3">
<path d="M91.9823 221.33C90.7377 220.717 89.3698 220.395 87.9823 220.39C85.5523 220.389 83.2177 221.336 81.4753 223.03C79.7329 224.724 78.7201 227.031 78.6523 229.46V229.98C78.7845 230.749 79.1022 231.474 79.5779 232.093C80.0536 232.711 80.673 233.205 81.3823 233.53C82.8286 234.326 84.4202 234.822 86.0623 234.99C83.6423 234.58 82.0623 231.88 82.8223 228.89C83.6423 225.43 87.1423 220.43 91.9823 221.33Z" fill="white"/>
</g>
<path opacity="0.1" d="M97.3023 229.98C97.3075 229.893 97.3075 229.807 97.3023 229.72C97.3071 229.633 97.3071 229.547 97.3023 229.46C97.2698 228.18 96.9711 226.92 96.4254 225.761C95.8796 224.603 95.0987 223.57 94.1323 222.73C95.1323 223.73 97.4023 227.73 94.9523 230.73C93.3423 232.73 85.7023 235.5 79.4023 231.89C79.9502 232.578 80.6303 233.149 81.4023 233.57C83.4468 234.611 85.7083 235.153 88.0023 235.153C90.2964 235.153 92.5579 234.611 94.6023 233.57C95.3105 233.236 95.9266 232.735 96.3972 232.11C96.8677 231.484 97.1784 230.753 97.3023 229.98Z" fill="#AEF2BE"/>
<g style="mix-blend-mode:lighten" opacity="0.5">
<path d="M87.8427 222.5C88.2627 223.45 87.4627 224.72 86.0527 225.34C84.6427 225.96 83.1627 225.68 82.7527 224.73C82.3427 223.78 83.1327 222.51 84.5427 221.89C85.9527 221.27 87.4227 221.55 87.8427 222.5Z" fill="white"/>
</g>
<g style="mix-blend-mode:lighten" opacity="0.5">
<path d="M82.4427 226.37C82.5103 226.648 82.4788 226.941 82.3535 227.199C82.2283 227.456 82.0171 227.662 81.7564 227.78C81.4958 227.899 81.202 227.923 80.9257 227.848C80.6493 227.773 80.4078 227.604 80.2426 227.37C80.159 227.088 80.1803 226.785 80.3025 226.517C80.4247 226.249 80.6395 226.035 80.9075 225.913C81.1755 225.791 81.4785 225.77 81.7606 225.854C82.0427 225.938 82.285 226.121 82.4427 226.37Z" fill="white"/>
</g>
<path d="M71.7025 175.67C71.708 178.143 71.1741 180.587 70.1378 182.832C69.1015 185.078 67.5879 187.07 65.7025 188.67C64.4602 189.702 63.4585 190.993 62.7676 192.452C62.0766 193.912 61.7131 195.505 61.7025 197.12V241.35C61.6465 241.969 61.426 242.561 61.0637 243.066C60.7015 243.571 60.2107 243.969 59.6425 244.22C58.8387 244.662 57.972 244.979 57.0725 245.16C55.4953 245.481 53.8697 245.481 52.2925 245.16C51.3957 244.981 50.5322 244.664 49.7325 244.22C49.166 243.968 48.6774 243.569 48.3169 243.064C47.9565 242.559 47.7375 241.968 47.6825 241.35V197.04C47.6641 195.439 47.2967 193.862 46.6058 192.418C45.915 190.974 44.9173 189.699 43.6825 188.68C41.7684 187.068 40.2337 185.054 39.1879 182.781C38.1421 180.508 37.611 178.032 37.6325 175.53C37.7571 171.072 39.6201 166.84 42.8235 163.738C46.0268 160.636 50.3165 158.909 54.7758 158.927C59.2351 158.946 63.5105 160.707 66.6883 163.836C69.8661 166.964 71.6944 171.211 71.7825 175.67H71.7025Z" fill="#AEF2BE"/>
<path opacity="0.5" d="M71.7025 175.67C71.708 178.143 71.1741 180.587 70.1378 182.832C69.1015 185.078 67.5879 187.07 65.7025 188.67C64.4602 189.702 63.4585 190.993 62.7676 192.452C62.0766 193.912 61.7131 195.505 61.7025 197.12V241.35C61.6465 241.969 61.426 242.561 61.0637 243.066C60.7015 243.571 60.2107 243.969 59.6425 244.22C58.8387 244.662 57.972 244.979 57.0725 245.16C55.4953 245.481 53.8697 245.481 52.2925 245.16C51.3957 244.981 50.5322 244.664 49.7325 244.22C49.166 243.968 48.6774 243.569 48.3169 243.064C47.9565 242.559 47.7375 241.968 47.6825 241.35V197.04C47.6641 195.439 47.2967 193.862 46.6058 192.418C45.915 190.974 44.9173 189.699 43.6825 188.68C41.7684 187.068 40.2337 185.054 39.1879 182.781C38.1421 180.508 37.611 178.032 37.6325 175.53C37.7571 171.072 39.6201 166.84 42.8235 163.738C46.0268 160.636 50.3165 158.909 54.7758 158.927C59.2351 158.946 63.5105 160.707 66.6883 163.836C69.8661 166.964 71.6944 171.211 71.7825 175.67H71.7025Z" fill="white"/>
<path d="M64.1522 175.67C64.1536 177.189 63.7912 178.686 63.0953 180.036C62.3993 181.386 61.3902 182.55 60.1522 183.43C59.1664 184.161 58.3691 185.117 57.8265 186.218C57.2839 187.318 57.0116 188.533 57.0322 189.76V241.35C57.0402 241.986 56.7967 242.599 56.3547 243.056C55.9126 243.513 55.3079 243.777 54.6722 243.79C54.0356 243.777 53.4298 243.513 52.9862 243.057C52.5425 242.6 52.2968 241.987 52.3022 241.35V189.64C52.3142 188.43 52.0374 187.234 51.4948 186.152C50.9521 185.071 50.1594 184.134 49.1822 183.42C47.9092 182.518 46.8783 181.316 46.1806 179.921C45.4829 178.525 45.14 176.98 45.1822 175.42C45.4033 173.031 46.517 170.814 48.3011 169.21C50.0852 167.607 52.4085 166.735 54.807 166.769C57.2056 166.803 59.5031 167.741 61.2409 169.394C62.9788 171.048 64.0291 173.296 64.1822 175.69L64.1522 175.67Z" fill="#AEF2BE"/>
<path opacity="0.7" d="M64.1522 175.67C64.1536 177.189 63.7912 178.686 63.0953 180.036C62.3993 181.386 61.3902 182.55 60.1522 183.43C59.1664 184.161 58.3691 185.117 57.8265 186.218C57.2839 187.318 57.0116 188.533 57.0322 189.76V241.35C57.0402 241.986 56.7967 242.599 56.3547 243.056C55.9126 243.513 55.3079 243.777 54.6722 243.79C54.0356 243.777 53.4298 243.513 52.9862 243.057C52.5425 242.6 52.2968 241.987 52.3022 241.35V189.64C52.3142 188.43 52.0374 187.234 51.4948 186.152C50.9521 185.071 50.1594 184.134 49.1822 183.42C47.9092 182.518 46.8783 181.316 46.1806 179.921C45.4829 178.525 45.14 176.98 45.1822 175.42C45.4033 173.031 46.517 170.814 48.3011 169.21C50.0852 167.607 52.4085 166.735 54.807 166.769C57.2056 166.803 59.5031 167.741 61.2409 169.394C62.9788 171.048 64.0291 173.296 64.1822 175.69L64.1522 175.67Z" fill="white"/>
<path opacity="0.7" d="M57.3027 181.98C57.3027 181.1 57.5637 180.24 58.0527 179.508C58.5417 178.776 59.2367 178.206 60.0498 177.869C60.8629 177.532 61.7577 177.444 62.6209 177.615C63.4841 177.787 64.277 178.211 64.8994 178.833C65.5217 179.456 65.9455 180.249 66.1172 181.112C66.2889 181.975 66.2008 182.87 65.864 183.683C65.5272 184.496 64.9568 185.191 64.225 185.68C63.4932 186.169 62.6329 186.43 61.7527 186.43C60.5725 186.43 59.4406 185.961 58.6061 185.127C57.7716 184.292 57.3027 183.16 57.3027 181.98Z" fill="white"/>
<path opacity="0.7" d="M59.0322 173.14C59.0322 172.602 59.1918 172.076 59.4906 171.629C59.7895 171.182 60.2143 170.833 60.7113 170.627C61.2083 170.421 61.7553 170.367 62.2829 170.472C62.8105 170.577 63.2952 170.836 63.6756 171.217C64.056 171.597 64.315 172.082 64.42 172.609C64.5249 173.137 64.4711 173.684 64.2652 174.181C64.0593 174.678 63.7107 175.103 63.2634 175.402C62.8161 175.7 62.2902 175.86 61.7522 175.86C61.0308 175.86 60.339 175.573 59.8289 175.063C59.3188 174.553 59.0322 173.861 59.0322 173.14Z" fill="white"/>
<path opacity="0.7" d="M53.8321 168.78C53.8301 168.513 53.9076 168.251 54.0547 168.027C54.2018 167.804 54.412 167.629 54.6585 167.526C54.905 167.422 55.1767 167.394 55.4393 167.445C55.7018 167.496 55.9433 167.623 56.1331 167.812C56.3229 168 56.4524 168.241 56.5053 168.503C56.5583 168.765 56.5321 169.037 56.4302 169.284C56.3284 169.532 56.1553 169.743 55.9331 169.892C55.7109 170.041 55.4495 170.12 55.1821 170.12C55.0053 170.121 54.8299 170.088 54.6662 170.021C54.5025 169.954 54.3536 169.856 54.2281 169.731C54.1026 169.607 54.003 169.458 53.935 169.295C53.8671 169.132 53.8321 168.957 53.8321 168.78Z" fill="white"/>
<path opacity="0.7" d="M43.0723 170.4C43.0703 169.675 43.2835 168.966 43.6849 168.363C44.0863 167.759 44.6578 167.289 45.327 167.011C45.9962 166.732 46.7329 166.659 47.4438 166.8C48.1547 166.941 48.8078 167.29 49.3203 167.802C49.8327 168.314 50.1815 168.968 50.3224 169.678C50.4633 170.389 50.39 171.126 50.1118 171.795C49.8335 172.464 49.3628 173.036 48.7594 173.437C48.156 173.839 47.447 174.052 46.7223 174.05C45.755 174.047 44.8282 173.662 44.1443 172.978C43.4603 172.294 43.0749 171.367 43.0723 170.4Z" fill="white"/>
<path opacity="0.7" d="M42.4629 177.01C42.4629 177.351 42.564 177.684 42.7535 177.967C42.9429 178.25 43.2121 178.47 43.527 178.6C43.8419 178.73 44.1882 178.763 44.5221 178.696C44.8561 178.629 45.1625 178.464 45.4026 178.223C45.6428 177.981 45.8058 177.674 45.871 177.339C45.9363 177.005 45.9008 176.659 45.7691 176.345C45.6374 176.031 45.4153 175.763 45.1312 175.575C44.847 175.387 44.5135 175.288 44.1729 175.29C43.7184 175.293 43.2835 175.475 42.9631 175.797C42.6427 176.12 42.4629 176.556 42.4629 177.01Z" fill="white"/>
<path opacity="0.7" d="M43.7422 183.01C43.7402 182.457 43.9024 181.917 44.2082 181.456C44.514 180.996 44.9497 180.637 45.4599 180.424C45.9701 180.212 46.5319 180.156 47.074 180.263C47.6162 180.37 48.1142 180.636 48.505 181.027C48.8958 181.418 49.1617 181.916 49.2691 182.458C49.3764 183 49.3203 183.562 49.1079 184.072C48.8955 184.583 48.5363 185.018 48.076 185.324C47.6156 185.63 47.0749 185.792 46.5222 185.79C45.7857 185.787 45.0801 185.494 44.5594 184.973C44.0386 184.452 43.7448 183.746 43.7422 183.01Z" fill="white"/>
<path opacity="0.7" d="M50.3828 187.21C50.3809 186.754 50.5143 186.308 50.7663 185.928C51.0183 185.549 51.3773 185.252 51.798 185.077C52.2187 184.902 52.682 184.855 53.1291 184.944C53.5762 185.032 53.9869 185.251 54.3091 185.574C54.6314 185.896 54.8507 186.307 54.9391 186.754C55.0275 187.201 54.9811 187.664 54.8058 188.085C54.6305 188.505 54.3342 188.865 53.9544 189.117C53.5746 189.369 53.1286 189.502 52.6728 189.5C52.0663 189.497 51.4854 189.255 51.0565 188.826C50.6276 188.397 50.3855 187.817 50.3828 187.21Z" fill="white"/>
<path opacity="0.7" d="M39.2021 173.14C39.2021 172.909 39.2708 172.682 39.3993 172.49C39.5279 172.298 39.7106 172.148 39.9244 172.059C40.1382 171.971 40.3734 171.947 40.6004 171.992C40.8274 172.038 41.0358 172.149 41.1995 172.313C41.3631 172.476 41.4745 172.685 41.5197 172.912C41.5648 173.139 41.5416 173.374 41.4531 173.588C41.3645 173.802 41.2146 173.984 41.0222 174.113C40.8298 174.241 40.6036 174.31 40.3722 174.31C40.0619 174.31 39.7643 174.187 39.5448 173.967C39.3254 173.748 39.2021 173.45 39.2021 173.14Z" fill="white"/>
<path opacity="0.7" d="M64.6426 168.28C64.6426 167.975 64.7329 167.678 64.9021 167.424C65.0713 167.171 65.3118 166.974 65.5932 166.857C65.8746 166.741 66.1843 166.71 66.483 166.77C66.7817 166.829 67.0562 166.976 67.2715 167.191C67.4869 167.406 67.6336 167.681 67.693 167.98C67.7524 168.278 67.7219 168.588 67.6054 168.869C67.4888 169.151 67.2914 169.391 67.0382 169.56C66.7849 169.73 66.4872 169.82 66.1826 169.82C65.7742 169.82 65.3824 169.658 65.0936 169.369C64.8048 169.08 64.6426 168.688 64.6426 168.28Z" fill="white"/>
<path opacity="0.7" d="M67.7229 177.39C68.5789 177.39 69.2729 176.696 69.2729 175.84C69.2729 174.984 68.5789 174.29 67.7229 174.29C66.8668 174.29 66.1729 174.984 66.1729 175.84C66.1729 176.696 66.8668 177.39 67.7229 177.39Z" fill="white"/>
<path opacity="0.7" d="M50.1123 177.14C50.1123 176.833 50.2032 176.534 50.3735 176.279C50.5439 176.024 50.7859 175.825 51.0692 175.708C51.3524 175.591 51.664 175.56 51.9647 175.62C52.2654 175.68 52.5415 175.827 52.7583 176.044C52.9751 176.261 53.1227 176.537 53.1825 176.838C53.2423 177.138 53.2116 177.45 53.0943 177.733C52.977 178.016 52.7783 178.258 52.5234 178.429C52.2685 178.599 51.9689 178.69 51.6623 178.69C51.4588 178.69 51.2572 178.65 51.0692 178.572C50.8811 178.494 50.7102 178.38 50.5663 178.236C50.4224 178.092 50.3082 177.921 50.2303 177.733C50.1524 177.545 50.1123 177.344 50.1123 177.14Z" fill="white"/>
<path d="M106.753 232.14C106.691 230.673 106.065 229.287 105.006 228.272C103.947 227.256 102.536 226.688 101.068 226.688C99.6 226.688 98.189 227.256 97.1296 228.272C96.0702 229.287 95.4443 230.673 95.3828 232.14V232.46C95.4641 232.929 95.6588 233.371 95.9498 233.747C96.2409 234.124 96.6195 234.423 97.0528 234.62C98.2924 235.249 99.6628 235.577 101.053 235.577C102.443 235.577 103.813 235.249 105.053 234.62C105.485 234.423 105.863 234.124 106.152 233.747C106.442 233.37 106.634 232.928 106.713 232.46V232.14H106.753Z" fill="#AEF2BE"/>
<path opacity="0.5" d="M106.753 232.14C106.691 230.673 106.065 229.287 105.006 228.272C103.947 227.256 102.536 226.688 101.068 226.688C99.6 226.688 98.189 227.256 97.1296 228.272C96.0702 229.287 95.4443 230.673 95.3828 232.14V232.46C95.4641 232.929 95.6588 233.371 95.9498 233.747C96.2409 234.124 96.6195 234.423 97.0528 234.62C98.2924 235.249 99.6628 235.577 101.053 235.577C102.443 235.577 103.813 235.249 105.053 234.62C105.485 234.423 105.863 234.124 106.152 233.747C106.442 233.37 106.634 232.928 106.713 232.46V232.14H106.753Z" fill="white"/>
<g style="mix-blend-mode:lighten" opacity="0.5">
<path d="M103.533 227.14C102.767 226.766 101.925 226.571 101.073 226.57C99.5911 226.569 98.1675 227.147 97.1049 228.18C96.0423 229.212 95.4245 230.619 95.3828 232.1V232.42C95.4641 232.889 95.6588 233.331 95.9498 233.707C96.2409 234.084 96.6195 234.383 97.0528 234.58C97.9324 235.067 98.9022 235.37 99.9028 235.47C99.5191 235.37 99.1601 235.192 98.8483 234.947C98.5366 234.702 98.2787 234.396 98.091 234.046C97.9032 233.697 97.7896 233.313 97.7572 232.918C97.7249 232.523 97.7744 232.125 97.9028 231.75C98.4528 229.69 100.583 226.64 103.533 227.14Z" fill="white"/>
</g>
<path opacity="0.2" d="M106.753 232.46V232.14C106.733 231.36 106.551 230.593 106.218 229.887C105.886 229.181 105.411 228.552 104.823 228.04C105.443 228.67 106.823 231.04 105.323 232.89C104.323 234.09 99.6828 235.8 95.8428 233.6C96.1744 234.012 96.586 234.352 97.0528 234.6C98.2923 235.229 99.6628 235.557 101.053 235.557C102.443 235.557 103.813 235.229 105.053 234.6C105.49 234.41 105.874 234.116 106.171 233.743C106.467 233.37 106.667 232.929 106.753 232.46Z" fill="#AEF2BE"/>
<g style="mix-blend-mode:lighten" opacity="0.5">
<path d="M101.012 227.9C101.262 228.48 100.772 229.25 99.922 229.63C99.072 230.01 98.162 229.84 97.922 229.26C97.682 228.68 98.162 227.91 99.022 227.53C99.882 227.15 100.752 227.32 101.012 227.9Z" fill="white"/>
</g>
<g style="mix-blend-mode:lighten" opacity="0.5">
<path d="M97.7222 230.25C97.7735 230.42 97.7575 230.603 97.6774 230.761C97.5973 230.919 97.4594 231.041 97.2922 231.1C97.218 231.15 97.1338 231.183 97.0455 231.197C96.9571 231.21 96.8669 231.204 96.7811 231.179C96.6953 231.154 96.616 231.111 96.5489 231.052C96.4817 230.993 96.4284 230.92 96.3927 230.838C96.357 230.756 96.3397 230.667 96.342 230.578C96.3444 230.488 96.3663 230.401 96.4063 230.321C96.4464 230.241 96.5034 230.171 96.5736 230.115C96.6437 230.06 96.7252 230.02 96.8122 230C96.9667 229.916 97.1479 229.895 97.3176 229.941C97.4873 229.988 97.6324 230.099 97.7222 230.25Z" fill="white"/>
</g>
<path d="M99.4527 236.41C99.3803 234.383 98.5241 232.463 97.0646 231.055C95.605 229.647 93.6559 228.86 91.6277 228.86C89.5995 228.86 87.6505 229.647 86.1909 231.055C84.7314 232.463 83.8752 234.383 83.8027 236.41V236.85C83.9122 237.498 84.1779 238.11 84.5769 238.633C84.9759 239.156 85.4962 239.573 86.0927 239.85C87.8106 240.718 89.7082 241.169 91.6327 241.169C93.5572 241.169 95.4548 240.718 97.1727 239.85C97.77 239.576 98.2904 239.159 98.6881 238.635C99.0858 238.112 99.3484 237.499 99.4527 236.85C99.4579 236.777 99.4579 236.703 99.4527 236.63C99.4575 236.557 99.4575 236.483 99.4527 236.41Z" fill="#AEF2BE"/>
<path opacity="0.6" d="M99.4527 236.41C99.3803 234.383 98.5241 232.463 97.0646 231.055C95.605 229.647 93.6559 228.86 91.6277 228.86C89.5995 228.86 87.6505 229.647 86.1909 231.055C84.7314 232.463 83.8752 234.383 83.8027 236.41V236.85C83.9122 237.498 84.1779 238.11 84.5769 238.633C84.9759 239.156 85.4962 239.573 86.0927 239.85C87.8106 240.718 89.7082 241.169 91.6327 241.169C93.5572 241.169 95.4548 240.718 97.1727 239.85C97.77 239.576 98.2904 239.159 98.6881 238.635C99.0858 238.112 99.3484 237.499 99.4527 236.85C99.4579 236.777 99.4579 236.703 99.4527 236.63C99.4575 236.557 99.4575 236.483 99.4527 236.41Z" fill="white"/>
<g style="mix-blend-mode:lighten" opacity="0.5">
<path d="M95.0227 229.58C93.8467 229.012 92.547 228.747 91.2423 228.81C89.9376 228.873 88.6695 229.262 87.5537 229.941C86.438 230.62 85.5101 231.568 84.8549 232.698C84.1997 233.828 83.8379 235.104 83.8027 236.41V236.85C83.9122 237.498 84.1779 238.11 84.5769 238.633C84.9759 239.156 85.4962 239.573 86.0927 239.85C87.3103 240.512 88.6452 240.929 90.0227 241.08C88.0227 240.72 86.6827 238.46 87.3027 235.95C88.0227 233.03 90.9627 228.83 95.0227 229.58Z" fill="white"/>
</g>
<path opacity="0.1" d="M99.4526 236.85C99.4578 236.777 99.4578 236.703 99.4526 236.63C99.4574 236.557 99.4574 236.483 99.4526 236.41C99.4248 235.336 99.175 234.28 98.7189 233.308C98.2629 232.335 97.6104 231.468 96.8026 230.76C97.6526 231.63 99.5426 234.93 97.4826 237.44C96.1326 239.09 89.7126 241.44 84.4326 238.44C84.8866 239.016 85.451 239.495 86.0926 239.85C87.8105 240.718 89.7081 241.169 91.6326 241.169C93.5571 241.169 95.4547 240.718 97.1726 239.85C97.7699 239.576 98.2903 239.159 98.688 238.635C99.0857 238.112 99.3483 237.499 99.4526 236.85Z" fill="#AEF2BE"/>
<g style="mix-blend-mode:lighten" opacity="0.3">
<path d="M91.5526 230.57C91.9026 231.36 91.2326 232.43 90.0426 232.95C88.8526 233.47 87.6226 233.24 87.2726 232.44C86.9226 231.64 87.6027 230.58 88.7827 230.06C89.9627 229.54 91.2026 229.77 91.5526 230.57Z" fill="white"/>
</g>
<g style="mix-blend-mode:lighten" opacity="0.3">
<path d="M87.0125 233.81C87.1281 233.979 87.1892 234.179 87.1874 234.384C87.1857 234.588 87.1212 234.788 87.0026 234.954C86.8841 235.121 86.7171 235.248 86.5244 235.317C86.3317 235.386 86.1225 235.394 85.925 235.34C85.7275 235.286 85.5513 235.173 85.42 235.016C85.2888 234.859 85.209 234.666 85.1913 234.462C85.1735 234.258 85.2188 234.053 85.321 233.876C85.4231 233.699 85.5772 233.557 85.7625 233.47C85.9735 233.35 86.2234 233.319 86.4575 233.383C86.6916 233.446 86.891 233.6 87.0125 233.81Z" fill="white"/>
</g>
<path d="M88.0626 239.2C88.0626 236.625 87.0396 234.155 85.2186 232.334C83.3976 230.513 80.9278 229.49 78.3525 229.49C75.7773 229.49 73.3075 230.513 71.4865 232.334C69.6656 234.155 68.6426 236.625 68.6426 239.2C68.6374 239.29 68.6374 239.38 68.6426 239.47C68.6376 239.56 68.6376 239.65 68.6426 239.74C68.7526 241.08 69.6425 242.4 71.4825 243.44C73.6117 244.52 75.9653 245.082 78.3525 245.082C80.7398 245.082 83.0934 244.52 85.2226 243.44C87.0026 242.44 87.9526 241.08 88.0626 239.74C88.0676 239.65 88.0676 239.56 88.0626 239.47C88.0677 239.38 88.0677 239.29 88.0626 239.2Z" fill="#AEF2BE"/>
<path opacity="0.8" d="M88.0626 239.2C88.0626 236.625 87.0396 234.155 85.2186 232.334C83.3976 230.513 80.9278 229.49 78.3525 229.49C75.7773 229.49 73.3075 230.513 71.4865 232.334C69.6656 234.155 68.6426 236.625 68.6426 239.2C68.6374 239.29 68.6374 239.38 68.6426 239.47C68.6376 239.56 68.6376 239.65 68.6426 239.74C68.7526 241.08 69.6425 242.4 71.4825 243.44C73.6117 244.52 75.9653 245.082 78.3525 245.082C80.7398 245.082 83.0934 244.52 85.2226 243.44C87.0026 242.44 87.9526 241.08 88.0626 239.74C88.0676 239.65 88.0676 239.56 88.0626 239.47C88.0677 239.38 88.0677 239.29 88.0626 239.2Z" fill="white"/>
<g style="mix-blend-mode:lighten" opacity="0.3">
<path d="M82.5626 230.72C81.2539 230.07 79.8138 229.728 78.3525 229.72C75.8217 229.719 73.3905 230.706 71.5769 232.471C69.7632 234.237 68.7103 236.64 68.6426 239.17C68.6374 239.26 68.6374 239.35 68.6426 239.44C68.6376 239.53 68.6376 239.62 68.6426 239.71C68.7526 241.05 69.6425 242.37 71.4825 243.41C72.9896 244.233 74.6448 244.75 76.3525 244.93C73.8325 244.49 72.2025 241.68 72.9825 238.57C73.8725 235 77.5226 229.79 82.5626 230.72Z" fill="white"/>
</g>
<path opacity="0.1" d="M88.0629 239.74C88.0679 239.65 88.0679 239.56 88.0629 239.47C88.068 239.38 88.068 239.29 88.0629 239.2C88.0257 237.869 87.7132 236.559 87.1453 235.355C86.5774 234.15 85.7662 233.076 84.7628 232.2C85.8228 233.28 88.1629 237.37 85.6129 240.49C83.9329 242.54 75.9729 245.49 69.4229 241.71C69.9874 242.423 70.6875 243.018 71.4828 243.46C73.612 244.54 75.9656 245.102 78.3528 245.102C80.7401 245.102 83.0937 244.54 85.2229 243.46C87.0029 242.4 87.9529 241.08 88.0629 239.74Z" fill="#AEF2BE"/>
<g style="mix-blend-mode:lighten" opacity="0.3">
<path d="M78.302 231.94C78.732 232.94 77.902 234.25 76.432 234.94C74.962 235.63 73.432 235.3 72.992 234.31C72.552 233.32 73.392 231.99 74.862 231.31C76.332 230.63 77.812 230.95 78.302 231.94Z" fill="white"/>
</g>
<g style="mix-blend-mode:lighten" opacity="0.3">
<path d="M72.622 235.97C72.776 236.185 72.8594 236.443 72.8608 236.708C72.8621 236.973 72.7814 237.231 72.6297 237.448C72.478 237.665 72.2627 237.83 72.0136 237.919C71.7645 238.009 71.4937 238.019 71.2386 237.948C70.9835 237.877 70.7566 237.729 70.5892 237.524C70.4218 237.319 70.3221 237.067 70.3038 236.803C70.2856 236.539 70.3496 236.276 70.4872 236.049C70.6248 235.823 70.8291 235.645 71.072 235.54C71.3347 235.392 71.6453 235.354 71.9357 235.435C72.2262 235.516 72.473 235.708 72.622 235.97Z" fill="white"/>
</g>
<path d="M111.562 233.48C111.515 232.601 111.132 231.774 110.493 231.168C109.854 230.563 109.008 230.225 108.127 230.225C107.247 230.225 106.4 230.563 105.761 231.168C105.122 231.774 104.74 232.601 104.692 233.48V233.67C104.742 233.951 104.859 234.216 105.033 234.443C105.207 234.669 105.433 234.85 105.692 234.97C106.445 235.354 107.278 235.555 108.122 235.555C108.967 235.555 109.8 235.354 110.552 234.97C110.813 234.851 111.04 234.671 111.214 234.444C111.388 234.218 111.505 233.952 111.552 233.67V233.48H111.562Z" fill="#AEF2BE"/>
<path opacity="0.2" d="M111.562 233.48C111.515 232.601 111.132 231.774 110.493 231.168C109.854 230.563 109.008 230.225 108.127 230.225C107.247 230.225 106.4 230.563 105.761 231.168C105.122 231.774 104.74 232.601 104.692 233.48V233.67C104.742 233.951 104.859 234.216 105.033 234.443C105.207 234.669 105.433 234.85 105.692 234.97C106.445 235.354 107.278 235.555 108.122 235.555C108.967 235.555 109.8 235.354 110.552 234.97C110.813 234.851 111.04 234.671 111.214 234.444C111.388 234.218 111.505 233.952 111.552 233.67V233.48H111.562Z" fill="white"/>
<g style="mix-blend-mode:lighten" opacity="0.5">
<path d="M109.622 230.48C109.106 230.226 108.534 230.106 107.959 230.132C107.384 230.157 106.825 230.328 106.334 230.627C105.842 230.926 105.434 231.344 105.147 231.843C104.86 232.342 104.704 232.905 104.692 233.48V233.67C104.742 233.951 104.859 234.216 105.033 234.443C105.207 234.669 105.433 234.85 105.692 234.97C106.222 235.268 106.808 235.452 107.412 235.51C107.181 235.449 106.965 235.341 106.778 235.192C106.59 235.043 106.436 234.857 106.324 234.646C106.212 234.435 106.145 234.202 106.128 233.964C106.11 233.725 106.143 233.485 106.222 233.26C106.542 231.99 107.832 230.14 109.622 230.48Z" fill="white"/>
</g>
<path opacity="0.05" d="M111.563 233.67V233.48C111.55 233.007 111.44 232.541 111.238 232.113C111.037 231.684 110.749 231.302 110.393 230.99C110.77 231.373 111.005 231.873 111.06 232.407C111.114 232.942 110.985 233.479 110.693 233.93C109.883 234.546 108.911 234.915 107.896 234.991C106.881 235.068 105.866 234.848 104.973 234.36C105.173 234.61 105.421 234.818 105.703 234.97C106.455 235.354 107.288 235.555 108.133 235.555C108.977 235.555 109.81 235.354 110.563 234.97C110.823 234.851 111.05 234.671 111.224 234.444C111.399 234.218 111.515 233.952 111.563 233.67Z" fill="black"/>
<g style="mix-blend-mode:lighten" opacity="0.3">
<path d="M108.092 230.91C108.242 231.26 107.952 231.73 107.432 231.96C106.912 232.19 106.372 232.08 106.212 231.73C106.052 231.38 106.362 230.91 106.872 230.73C107.382 230.55 107.942 230.56 108.092 230.91Z" fill="white"/>
</g>
<g style="mix-blend-mode:lighten" opacity="0.3">
<path d="M106.103 232.33C106.157 232.406 106.186 232.496 106.186 232.589C106.187 232.682 106.158 232.772 106.105 232.848C106.052 232.925 105.977 232.982 105.889 233.014C105.802 233.046 105.707 233.049 105.618 233.025C105.528 233.001 105.448 232.949 105.389 232.878C105.33 232.806 105.295 232.718 105.287 232.625C105.28 232.533 105.302 232.44 105.35 232.361C105.397 232.281 105.468 232.218 105.553 232.18C105.646 232.129 105.755 232.116 105.858 232.144C105.961 232.172 106.048 232.239 106.103 232.33Z" fill="white"/>
</g>
<path d="M5.82232 229.34C5.82232 227.834 6.42075 226.389 7.48595 225.324C8.55116 224.258 9.99588 223.66 11.5023 223.66C13.0087 223.66 14.4535 224.258 15.5187 225.324C16.5839 226.389 17.1823 227.834 17.1823 229.34C17.187 229.393 17.187 229.447 17.1823 229.5C17.1876 229.553 17.1876 229.607 17.1823 229.66C17.1037 230.128 16.9112 230.57 16.6217 230.947C16.3323 231.324 15.9548 231.623 15.5223 231.82C14.2744 232.451 12.8957 232.78 11.4973 232.78C10.099 232.78 8.72021 232.451 7.47231 231.82C7.04124 231.623 6.66527 231.323 6.37753 230.946C6.08979 230.569 5.89912 230.128 5.82232 229.66C5.81704 229.607 5.81704 229.553 5.82232 229.5C5.81767 229.447 5.81767 229.393 5.82232 229.34Z" fill="#AEF2BE"/>
<path opacity="0.5" d="M5.82232 229.34C5.82232 227.834 6.42075 226.389 7.48595 225.324C8.55116 224.258 9.99588 223.66 11.5023 223.66C13.0087 223.66 14.4535 224.258 15.5187 225.324C16.5839 226.389 17.1823 227.834 17.1823 229.34C17.187 229.393 17.187 229.447 17.1823 229.5C17.1876 229.553 17.1876 229.607 17.1823 229.66C17.1037 230.128 16.9112 230.57 16.6217 230.947C16.3323 231.324 15.9548 231.623 15.5223 231.82C14.2744 232.451 12.8957 232.78 11.4973 232.78C10.099 232.78 8.72021 232.451 7.47231 231.82C7.04124 231.623 6.66527 231.323 6.37753 230.946C6.08979 230.569 5.89912 230.128 5.82232 229.66C5.81704 229.607 5.81704 229.553 5.82232 229.5C5.81767 229.447 5.81767 229.393 5.82232 229.34Z" fill="white"/>
<g style="mix-blend-mode:lighten" opacity="0.5">
<path d="M9.03223 224.38C9.88914 223.963 10.8373 223.769 11.7892 223.815C12.741 223.862 13.6658 224.147 14.4781 224.646C15.2904 225.144 15.964 225.839 16.4366 226.666C16.9093 227.494 17.1657 228.427 17.1822 229.38C17.1869 229.433 17.1869 229.487 17.1822 229.54C17.1875 229.593 17.1875 229.647 17.1822 229.7C17.1036 230.168 16.9111 230.61 16.6216 230.987C16.3322 231.364 15.9547 231.663 15.5222 231.86C14.642 232.346 13.6725 232.649 12.6722 232.75C13.0568 232.652 13.4167 232.474 13.7293 232.23C14.0418 231.985 14.3003 231.678 14.4883 231.329C14.6762 230.979 14.7896 230.594 14.8213 230.199C14.8529 229.803 14.8022 229.405 14.6722 229.03C14.1122 226.89 11.9822 223.84 9.03223 224.38Z" fill="white"/>
</g>
<path opacity="0.2" d="M5.82232 229.66C5.81704 229.607 5.81704 229.553 5.82232 229.5C5.81767 229.447 5.81767 229.393 5.82232 229.34C5.84181 228.56 6.02349 227.793 6.35577 227.087C6.68805 226.381 7.16365 225.752 7.75231 225.24C7.13231 225.87 5.75231 228.24 7.25231 230.09C8.25231 231.29 12.8923 233 16.7223 230.8C16.3946 231.212 15.9863 231.552 15.5223 231.8C14.2744 232.431 12.8957 232.76 11.4973 232.76C10.099 232.76 8.72021 232.431 7.47231 231.8C7.04373 231.605 6.66937 231.308 6.3818 230.935C6.09423 230.562 5.90216 230.124 5.82232 229.66Z" fill="#AEF2BE"/>
<g style="mix-blend-mode:lighten" opacity="0.3">
<path d="M11.5629 225.14C11.3029 225.72 11.7929 226.49 12.6529 226.87C13.5129 227.25 14.4129 227.08 14.6529 226.5C14.8929 225.92 14.4229 225.15 13.5629 224.77C12.7029 224.39 11.8129 224.52 11.5629 225.14Z" fill="white"/>
</g>
<g style="mix-blend-mode:lighten" opacity="0.3">
<path d="M14.8525 227.45C14.7621 227.576 14.713 227.727 14.7119 227.882C14.7109 228.037 14.7579 228.189 14.8465 228.316C14.9351 228.443 15.0609 228.54 15.2067 228.592C15.3525 228.645 15.5111 228.651 15.6606 228.61C15.8101 228.569 15.9432 228.483 16.0416 228.363C16.14 228.243 16.1988 228.096 16.21 227.941C16.2211 227.787 16.1841 227.632 16.104 227.5C16.0238 227.367 15.9045 227.262 15.7625 227.2C15.6085 227.113 15.4264 227.091 15.256 227.138C15.0856 227.184 14.9405 227.297 14.8525 227.45Z" fill="white"/>
</g>
<path d="M17.6829 228.75C17.6829 226.565 18.551 224.469 20.0963 222.923C21.6416 221.378 23.7375 220.51 25.9228 220.51C28.1082 220.51 30.2041 221.378 31.7494 222.923C33.2947 224.469 34.1628 226.565 34.1628 228.75C34.1762 228.903 34.1762 229.057 34.1628 229.21C34.046 229.89 33.7656 230.531 33.3457 231.078C32.9258 231.625 32.3792 232.061 31.7528 232.35C29.9422 233.259 27.9441 233.733 25.9179 233.733C23.8916 233.733 21.8935 233.259 20.0828 232.35C19.4574 232.062 18.9118 231.625 18.4936 231.078C18.0753 230.53 17.797 229.889 17.6829 229.21C17.6695 229.057 17.6695 228.903 17.6829 228.75Z" fill="#AEF2BE"/>
<path opacity="0.7" d="M17.6829 228.75C17.6829 226.565 18.551 224.469 20.0963 222.923C21.6416 221.378 23.7375 220.51 25.9228 220.51C28.1082 220.51 30.2041 221.378 31.7494 222.923C33.2947 224.469 34.1628 226.565 34.1628 228.75C34.1762 228.903 34.1762 229.057 34.1628 229.21C34.046 229.89 33.7656 230.531 33.3457 231.078C32.9258 231.625 32.3792 232.061 31.7528 232.35C29.9422 233.259 27.9441 233.733 25.9179 233.733C23.8916 233.733 21.8935 233.259 20.0828 232.35C19.4574 232.062 18.9118 231.625 18.4936 231.078C18.0753 230.53 17.797 229.889 17.6829 229.21C17.6695 229.057 17.6695 228.903 17.6829 228.75Z" fill="white"/>
<g style="mix-blend-mode:lighten" opacity="0.3">
<path d="M22.3027 221.55C23.5421 220.952 24.9116 220.673 26.2863 220.74C27.6609 220.807 28.9969 221.217 30.1723 221.933C31.3477 222.649 32.325 223.648 33.0151 224.839C33.7051 226.03 34.086 227.374 34.1227 228.75C34.1361 228.903 34.1361 229.057 34.1227 229.21C34.0059 229.89 33.7255 230.531 33.3056 231.078C32.8857 231.625 32.3391 232.061 31.7127 232.35C30.429 233.043 29.0231 233.481 27.5727 233.64C29.7127 233.27 31.1027 230.88 30.4427 228.24C29.7127 225.14 26.6227 220.76 22.3027 221.55Z" fill="white"/>
</g>
<path opacity="0.1" d="M17.6829 229.21C17.6695 229.057 17.6695 228.903 17.6829 228.75C17.7044 227.61 17.9647 226.487 18.4469 225.453C18.9292 224.42 19.6228 223.499 20.4828 222.75C19.5828 223.67 17.5928 227.14 19.7528 229.75C21.1828 231.49 27.9428 233.97 33.5028 230.75C33.0236 231.357 32.4288 231.864 31.7528 232.24C29.9422 233.149 27.9441 233.623 25.9179 233.623C23.8916 233.623 21.8935 233.149 20.0828 232.24C19.4708 231.962 18.9339 231.542 18.5165 231.015C18.0991 230.488 17.8134 229.869 17.6829 229.21Z" fill="#AEF2BE"/>
<g style="mix-blend-mode:lighten" opacity="0.5">
<path d="M26.0023 222.59C25.6323 223.43 26.3423 224.59 27.5923 225.1C28.8423 225.61 30.1423 225.41 30.5123 224.57C30.8823 223.73 30.1723 222.57 28.9223 222.05C27.6723 221.53 26.3723 221.75 26.0023 222.59Z" fill="white"/>
</g>
<g style="mix-blend-mode:lighten" opacity="0.5">
<path d="M30.7826 226.01C30.6551 226.192 30.5871 226.41 30.5879 226.632C30.5887 226.855 30.6583 227.072 30.7871 227.254C30.9159 227.435 31.0977 227.572 31.3075 227.647C31.5174 227.721 31.745 227.729 31.9594 227.669C32.1737 227.608 32.3643 227.484 32.505 227.311C32.6456 227.139 32.7295 226.927 32.7452 226.705C32.7609 226.483 32.7076 226.261 32.5926 226.071C32.4775 225.88 32.3064 225.73 32.1026 225.64C31.8769 225.522 31.6146 225.494 31.3693 225.563C31.1239 225.632 30.9141 225.792 30.7826 226.01Z" fill="white"/>
</g>
<path d="M11.8027 233.59C11.8752 231.563 12.7313 229.643 14.1909 228.235C15.6505 226.827 17.5995 226.04 19.6277 226.04C21.6559 226.04 23.605 226.827 25.0646 228.235C26.5241 229.643 27.3803 231.563 27.4527 233.59C27.4579 233.663 27.4579 233.737 27.4527 233.81C27.4577 233.88 27.4577 233.95 27.4527 234.02C27.3474 234.67 27.0833 235.284 26.6838 235.807C26.2843 236.33 25.7619 236.747 25.1627 237.02C23.4482 237.893 21.5516 238.348 19.6277 238.348C17.7038 238.348 15.8072 237.893 14.0927 237.02C13.4936 236.747 12.9711 236.33 12.5717 235.807C12.1722 235.284 11.9081 234.67 11.8027 234.02V233.59Z" fill="#AEF2BE"/>
<path opacity="0.6" d="M11.8027 233.59C11.8752 231.563 12.7313 229.643 14.1909 228.235C15.6505 226.827 17.5995 226.04 19.6277 226.04C21.6559 226.04 23.605 226.827 25.0646 228.235C26.5241 229.643 27.3803 231.563 27.4527 233.59C27.4579 233.663 27.4579 233.737 27.4527 233.81C27.4577 233.88 27.4577 233.95 27.4527 234.02C27.3474 234.67 27.0833 235.284 26.6838 235.807C26.2843 236.33 25.7619 236.747 25.1627 237.02C23.4482 237.893 21.5516 238.348 19.6277 238.348C17.7038 238.348 15.8072 237.893 14.0927 237.02C13.4936 236.747 12.9711 236.33 12.5717 235.807C12.1722 235.284 11.9081 234.67 11.8027 234.02V233.59Z" fill="white"/>
<g style="mix-blend-mode:lighten" opacity="0.5">
<path d="M16.2324 226.76C17.4079 226.186 18.7089 225.917 20.0156 225.978C21.3224 226.038 22.5929 226.426 23.7103 227.107C24.8277 227.787 25.756 228.737 26.4099 229.87C27.0639 231.003 27.4224 232.282 27.4524 233.59C27.4576 233.663 27.4576 233.737 27.4524 233.81C27.4574 233.88 27.4574 233.95 27.4524 234.02C27.3471 234.67 27.083 235.284 26.6835 235.807C26.284 236.33 25.7615 236.747 25.1624 237.02C23.9509 237.687 22.6181 238.106 21.2424 238.25C23.2424 237.9 24.5824 235.63 23.9624 233.13C23.2324 230.2 20.3024 226.01 16.2324 226.76Z" fill="white"/>
</g>
<path opacity="0.15" d="M11.8027 234.02V233.59C11.831 232.514 12.082 231.456 12.5398 230.481C12.9976 229.507 13.6524 228.638 14.4627 227.93C13.6127 228.81 11.7227 232.1 13.7827 234.61C15.1327 236.26 21.5427 238.61 26.7827 235.61C26.3311 236.188 25.7663 236.668 25.1227 237.02C23.4082 237.893 21.5116 238.348 19.5877 238.348C17.6638 238.348 15.7672 237.893 14.0527 237.02C13.4611 236.742 12.9466 236.323 12.5544 235.8C12.1622 235.277 11.9041 234.666 11.8027 234.02Z" fill="#AEF2BE"/>
<g style="mix-blend-mode:lighten" opacity="0.3">
<path d="M19.712 227.74C19.362 228.54 20.032 229.6 21.212 230.12C22.392 230.64 23.632 230.41 23.982 229.62C24.332 228.83 23.662 227.75 22.482 227.23C21.302 226.71 20.062 226.94 19.712 227.74Z" fill="white"/>
</g>
<g style="mix-blend-mode:lighten" opacity="0.3">
<path d="M24.2427 230.99C24.1297 231.16 24.0713 231.36 24.0754 231.564C24.0795 231.768 24.1458 231.966 24.2656 232.131C24.3853 232.296 24.5527 232.421 24.7452 232.488C24.9378 232.555 25.1463 232.562 25.3428 232.508C25.5394 232.453 25.7145 232.34 25.8448 232.183C25.975 232.026 26.0542 231.833 26.0716 231.629C26.0889 231.426 26.0438 231.222 25.9421 231.046C25.8404 230.869 25.6871 230.727 25.5027 230.64C25.2889 230.521 25.0367 230.491 24.8008 230.556C24.5649 230.622 24.3644 230.778 24.2427 230.99Z" fill="white"/>
</g>
<path d="M24.9228 238.03C24.9228 235.455 25.9458 232.985 27.7668 231.164C29.5878 229.343 32.0576 228.32 34.6328 228.32C37.2081 228.32 39.6779 229.343 41.4988 231.164C43.3198 232.985 44.3428 235.455 44.3428 238.03C44.348 238.12 44.348 238.21 44.3428 238.3C44.3476 238.39 44.3476 238.48 44.3428 238.57C44.2328 239.91 43.3428 241.23 41.5028 242.26C39.3737 243.34 37.0201 243.902 34.6328 243.902C32.2456 243.902 29.892 243.34 27.7628 242.26C25.9828 241.26 25.0328 239.91 24.9228 238.57C24.918 238.48 24.918 238.39 24.9228 238.3C24.9177 238.21 24.9177 238.12 24.9228 238.03Z" fill="#AEF2BE"/>
<path opacity="0.8" d="M24.9228 238.03C24.9228 235.455 25.9458 232.985 27.7668 231.164C29.5878 229.343 32.0576 228.32 34.6328 228.32C37.2081 228.32 39.6779 229.343 41.4988 231.164C43.3198 232.985 44.3428 235.455 44.3428 238.03C44.348 238.12 44.348 238.21 44.3428 238.3C44.3476 238.39 44.3476 238.48 44.3428 238.57C44.2328 239.91 43.3428 241.23 41.5028 242.26C39.3737 243.34 37.0201 243.902 34.6328 243.902C32.2456 243.902 29.892 243.34 27.7628 242.26C25.9828 241.26 25.0328 239.91 24.9228 238.57C24.918 238.48 24.918 238.39 24.9228 238.3C24.9177 238.21 24.9177 238.12 24.9228 238.03Z" fill="white"/>
<g style="mix-blend-mode:lighten" opacity="0.3">
<path d="M30.4229 229.55C31.7319 228.901 33.1718 228.559 34.6329 228.55C37.1637 228.549 39.5949 229.536 41.4086 231.301C43.2222 233.067 44.2751 235.47 44.3428 238C44.348 238.09 44.348 238.18 44.3428 238.27C44.3477 238.36 44.3477 238.45 44.3428 238.54C44.2329 239.88 43.3429 241.2 41.5029 242.23C39.9983 243.059 38.3419 243.576 36.6329 243.75C39.1529 243.32 40.7829 240.51 40.0029 237.4C39.1129 233.82 35.4629 228.62 30.4229 229.55Z" fill="white"/>
</g>
<path opacity="0.1" d="M24.9228 238.57C24.918 238.48 24.918 238.39 24.9228 238.3C24.9177 238.21 24.9177 238.12 24.9228 238.03C24.9618 236.699 25.2751 235.39 25.8429 234.186C26.4107 232.981 27.2209 231.907 28.2228 231.03C27.2228 232.11 24.8228 236.2 27.3728 239.32C29.0528 241.32 37.0128 244.32 43.5628 240.53C43.0038 241.249 42.3025 241.845 41.5028 242.28C39.3737 243.36 37.0201 243.922 34.6328 243.922C32.2456 243.922 29.892 243.36 27.7628 242.28C25.9828 241.23 25.0328 239.91 24.9228 238.57Z" fill="#AEF2BE"/>
<g style="mix-blend-mode:lighten" opacity="0.3">
<path d="M34.7325 230.77C34.3025 231.77 35.1325 233.08 36.6025 233.72C38.0725 234.36 39.6025 234.09 40.0425 233.1C40.4825 232.11 39.6425 230.78 38.1725 230.1C36.7025 229.42 35.1725 229.78 34.7325 230.77Z" fill="white"/>
</g>
<g style="mix-blend-mode:lighten" opacity="0.3">
<path d="M40.3628 234.8C40.2088 235.015 40.1254 235.273 40.124 235.538C40.1227 235.803 40.2034 236.061 40.3551 236.278C40.5068 236.495 40.7221 236.66 40.9712 236.749C41.2203 236.839 41.4911 236.849 41.7462 236.778C42.0013 236.707 42.2282 236.559 42.3956 236.354C42.563 236.149 42.6627 235.897 42.681 235.633C42.6992 235.369 42.6352 235.106 42.4976 234.879C42.3601 234.653 42.1557 234.475 41.9128 234.37C41.6501 234.222 41.3395 234.184 41.0491 234.265C40.7586 234.346 40.5118 234.538 40.3628 234.8Z" fill="white"/>
</g>
<path d="M71.9925 242.37C71.9153 240.07 70.9475 237.891 69.2934 236.291C67.6393 234.692 65.4284 233.798 63.1275 233.798C60.8266 233.798 58.6157 234.692 56.9617 236.291C55.3076 237.891 54.3398 240.07 54.2625 242.37C54.2575 242.453 54.2575 242.537 54.2625 242.62C54.2577 242.703 54.2577 242.787 54.2625 242.87C54.39 243.601 54.6933 244.289 55.1462 244.876C55.5992 245.463 56.1882 245.931 56.8625 246.24C58.8074 247.226 60.9571 247.739 63.1375 247.739C65.3179 247.739 67.4677 247.226 69.4125 246.24C70.0836 245.93 70.669 245.461 71.1185 244.873C71.568 244.286 71.8679 243.599 71.9925 242.87C71.9973 242.787 71.9973 242.703 71.9925 242.62C71.9975 242.537 71.9975 242.453 71.9925 242.37Z" fill="#AEF2BE"/>
<path opacity="0.9" d="M71.9925 242.37C71.9153 240.07 70.9475 237.891 69.2934 236.291C67.6393 234.692 65.4284 233.798 63.1275 233.798C60.8266 233.798 58.6157 234.692 56.9617 236.291C55.3076 237.891 54.3398 240.07 54.2625 242.37C54.2575 242.453 54.2575 242.537 54.2625 242.62C54.2577 242.703 54.2577 242.787 54.2625 242.87C54.39 243.601 54.6933 244.289 55.1462 244.876C55.5992 245.463 56.1882 245.931 56.8625 246.24C58.8074 247.226 60.9571 247.739 63.1375 247.739C65.3179 247.739 67.4677 247.226 69.4125 246.24C70.0836 245.93 70.669 245.461 71.1185 244.873C71.568 244.286 71.8679 243.599 71.9925 242.87C71.9973 242.787 71.9973 242.703 71.9925 242.62C71.9975 242.537 71.9975 242.453 71.9925 242.37Z" fill="white"/>
<g style="mix-blend-mode:lighten" opacity="0.5">
<path d="M66.9826 234.63C65.651 233.996 64.1824 233.704 62.7095 233.78C61.2366 233.856 59.806 234.299 58.5471 235.067C57.2883 235.836 56.2409 236.906 55.4997 238.181C54.7586 239.456 54.3472 240.896 54.3026 242.37C54.2976 242.453 54.2976 242.537 54.3026 242.62C54.2978 242.703 54.2978 242.787 54.3026 242.87C54.43 243.601 54.7333 244.289 55.1863 244.876C55.6393 245.463 56.2283 245.931 56.9026 246.24C58.2793 246.993 59.7919 247.466 61.3526 247.63C59.0526 247.23 57.5626 244.63 58.2726 241.83C59.0526 238.54 62.3726 233.78 66.9826 234.63Z" fill="white"/>
</g>
<path opacity="0.1" d="M71.9922 242.87C71.997 242.787 71.997 242.703 71.9922 242.62C71.9972 242.537 71.9972 242.453 71.9922 242.37C71.9619 241.152 71.6796 239.954 71.1633 238.851C70.647 237.748 69.9078 236.763 68.9922 235.96C69.9922 236.96 72.1022 240.69 69.7722 243.53C68.2422 245.41 60.9722 248.08 54.9922 244.64C55.5012 245.298 56.1414 245.843 56.8722 246.24C58.8171 247.226 60.9668 247.739 63.1472 247.739C65.3276 247.739 67.4773 247.226 69.4222 246.24C70.0913 245.928 70.6748 245.459 71.1225 244.872C71.5701 244.285 71.8686 243.598 71.9922 242.87Z" fill="#AEF2BE"/>
<g style="mix-blend-mode:lighten" opacity="0.5">
<path d="M63.0427 235.75C63.4327 236.65 62.6727 237.86 61.3327 238.45C59.9927 239.04 58.5927 238.78 58.1927 237.87C57.7927 236.96 58.5627 235.76 59.9027 235.17C61.2427 234.58 62.6427 234.84 63.0427 235.75Z" fill="white"/>
</g>
<g style="mix-blend-mode:lighten" opacity="0.5">
<path d="M57.9021 239.43C57.95 239.56 57.9705 239.698 57.9623 239.836C57.9541 239.974 57.9173 240.109 57.8544 240.232C57.7914 240.355 57.7036 240.464 57.5965 240.551C57.4894 240.639 57.3653 240.703 57.2321 240.74C56.9898 240.871 56.7061 240.902 56.4411 240.828C56.176 240.753 55.9505 240.578 55.8121 240.34C55.7522 240.077 55.7861 239.8 55.9081 239.559C56.0301 239.318 56.2324 239.127 56.4801 239.019C56.7279 238.911 57.0055 238.893 57.2651 238.968C57.5247 239.043 57.75 239.207 57.9021 239.43Z" fill="white"/>
</g>
<path d="M37.1825 243.06C37.1825 240.824 38.0706 238.68 39.6515 237.099C41.2325 235.518 43.3767 234.63 45.6124 234.63C47.8482 234.63 49.9924 235.518 51.5733 237.099C53.1543 238.68 54.0425 240.824 54.0425 243.06C54.0474 243.14 54.0474 243.22 54.0425 243.3C54.0474 243.377 54.0474 243.453 54.0425 243.53C53.9236 244.226 53.6364 244.882 53.2059 245.442C52.7754 246.001 52.2146 246.447 51.5724 246.74C49.7235 247.677 47.68 248.165 45.6074 248.165C43.5348 248.165 41.4914 247.677 39.6424 246.74C39.0026 246.445 38.4443 245.998 38.0157 245.439C37.5871 244.88 37.3011 244.225 37.1825 243.53C37.1775 243.453 37.1775 243.377 37.1825 243.3C37.1775 243.22 37.1775 243.14 37.1825 243.06Z" fill="#AEF2BE"/>
<path opacity="0.9" d="M37.1825 243.06C37.1825 240.824 38.0706 238.68 39.6515 237.099C41.2325 235.518 43.3767 234.63 45.6124 234.63C47.8482 234.63 49.9924 235.518 51.5733 237.099C53.1543 238.68 54.0425 240.824 54.0425 243.06C54.0474 243.14 54.0474 243.22 54.0425 243.3C54.0474 243.377 54.0474 243.453 54.0425 243.53C53.9236 244.226 53.6364 244.882 53.2059 245.442C52.7754 246.001 52.2146 246.447 51.5724 246.74C49.7235 247.677 47.68 248.165 45.6074 248.165C43.5348 248.165 41.4914 247.677 39.6424 246.74C39.0026 246.445 38.4443 245.998 38.0157 245.439C37.5871 244.88 37.3011 244.225 37.1825 243.53C37.1775 243.453 37.1775 243.377 37.1825 243.3C37.1775 243.22 37.1775 243.14 37.1825 243.06Z" fill="white"/>
<g style="mix-blend-mode:lighten" opacity="0.5">
<path d="M41.9521 235.7C43.0924 235.145 44.3442 234.858 45.6122 234.86C47.8086 234.859 49.9187 235.716 51.4932 237.247C53.0677 238.779 53.9822 240.864 54.0422 243.06C54.0471 243.14 54.0471 243.22 54.0422 243.3C54.0471 243.377 54.0471 243.453 54.0422 243.53C53.9233 244.226 53.6361 244.882 53.2056 245.442C52.7751 246.001 52.2143 246.447 51.5722 246.74C50.2645 247.458 48.8261 247.907 47.3421 248.06C49.5321 247.68 50.9522 245.24 50.2722 242.54C49.4922 239.41 46.3021 234.89 41.9521 235.7Z" fill="white"/>
</g>
<path opacity="0.1" d="M37.1825 243.53C37.1775 243.453 37.1775 243.377 37.1825 243.3C37.1775 243.22 37.1775 243.14 37.1825 243.06C37.2113 241.902 37.4804 240.763 37.9727 239.715C38.4651 238.666 39.1699 237.732 40.0425 236.97C39.1225 237.91 37.0424 241.46 39.3024 244.17C40.7624 245.95 47.6724 248.49 53.3624 245.22C52.8769 245.845 52.2675 246.362 51.5724 246.74C49.7235 247.677 47.68 248.165 45.6074 248.165C43.5348 248.165 41.4914 247.677 39.6424 246.74C39.0026 246.445 38.4443 245.998 38.0157 245.439C37.5871 244.88 37.3011 244.225 37.1825 243.53Z" fill="#AEF2BE"/>
<g style="mix-blend-mode:lighten" opacity="0.5">
<path d="M45.702 236.76C45.322 237.62 46.042 238.76 47.322 239.33C48.602 239.9 49.932 239.64 50.322 238.78C50.712 237.92 49.982 236.78 48.702 236.21C47.422 235.64 46.072 235.9 45.702 236.76Z" fill="white"/>
</g>
<g style="mix-blend-mode:lighten" opacity="0.5">
<path d="M50.5827 240.26C50.451 240.447 50.3804 240.671 50.3809 240.9C50.3813 241.129 50.4526 241.353 50.5851 241.54C50.7175 241.727 50.9046 241.868 51.1206 241.945C51.3367 242.021 51.571 242.029 51.7916 241.967C52.0122 241.905 52.2081 241.776 52.3526 241.598C52.497 241.42 52.5829 241.202 52.5983 240.973C52.6138 240.745 52.5581 240.517 52.4389 240.321C52.3198 240.125 52.1429 239.971 51.9327 239.88C51.7028 239.754 51.4325 239.723 51.1799 239.794C50.9274 239.865 50.7129 240.032 50.5827 240.26Z" fill="white"/>
</g>
<path d="M58.0722 246.28C58.0247 245.401 57.6421 244.574 57.0031 243.968C56.3642 243.363 55.5174 243.025 54.6372 243.025C53.7569 243.025 52.9101 243.363 52.2712 243.968C51.6322 244.574 51.2496 245.401 51.2021 246.28V246.48C51.2516 246.761 51.3684 247.026 51.5425 247.253C51.7166 247.479 51.9429 247.66 52.2021 247.78C52.9545 248.164 53.7873 248.365 54.6322 248.365C55.477 248.365 56.3098 248.164 57.0621 247.78C57.3223 247.662 57.5496 247.481 57.7239 247.254C57.8982 247.028 58.0143 246.762 58.0621 246.48V246.28H58.0722Z" fill="#AEF2BE"/>
<path opacity="0.9" d="M58.0722 246.28C58.0247 245.401 57.6421 244.574 57.0031 243.968C56.3642 243.363 55.5174 243.025 54.6372 243.025C53.7569 243.025 52.9101 243.363 52.2712 243.968C51.6322 244.574 51.2496 245.401 51.2021 246.28V246.48C51.2516 246.761 51.3684 247.026 51.5425 247.253C51.7166 247.479 51.9429 247.66 52.2021 247.78C52.9545 248.164 53.7873 248.365 54.6322 248.365C55.477 248.365 56.3098 248.164 57.0621 247.78C57.3223 247.662 57.5496 247.481 57.7239 247.254C57.8982 247.028 58.0143 246.762 58.0621 246.48V246.28H58.0722Z" fill="white"/>
<g style="mix-blend-mode:lighten" opacity="0.6">
<path d="M56.1322 243.29C55.6685 243.062 55.159 242.942 54.6422 242.94C53.7469 242.94 52.8867 243.288 52.2444 243.912C51.6021 244.536 51.2282 245.385 51.2021 246.28V246.48C51.2516 246.761 51.3684 247.026 51.5425 247.253C51.7166 247.479 51.9429 247.66 52.2021 247.78C52.7333 248.074 53.3183 248.258 53.9221 248.32C53.6909 248.259 53.4747 248.151 53.2874 248.002C53.1 247.853 52.9456 247.667 52.8338 247.456C52.7219 247.245 52.6552 247.012 52.6377 246.774C52.6202 246.535 52.6524 246.295 52.7321 246.07C53.0621 244.8 54.3522 242.96 56.1322 243.29Z" fill="white"/>
</g>
<path opacity="0.1" d="M58.0724 246.48V246.28C58.0615 245.809 57.9528 245.345 57.7531 244.918C57.5534 244.491 57.2671 244.11 56.9124 243.8C57.2824 244.19 58.1124 245.63 57.2124 246.73C56.4014 247.348 55.4283 247.718 54.4112 247.795C53.3941 247.871 52.3767 247.65 51.4824 247.16C51.6791 247.416 51.9279 247.627 52.2124 247.78C52.9648 248.164 53.7976 248.365 54.6424 248.365C55.4873 248.365 56.3201 248.164 57.0724 247.78C57.3326 247.662 57.5598 247.481 57.7342 247.254C57.9085 247.028 58.0246 246.762 58.0724 246.48Z" fill="#AEF2BE"/>
<g style="mix-blend-mode:lighten" opacity="0.5">
<path d="M54.6028 243.72C54.7628 244.07 54.4628 244.54 53.9428 244.72C53.4228 244.9 52.8828 244.85 52.7328 244.5C52.5828 244.15 52.8728 243.68 53.3928 243.5C53.9128 243.32 54.4528 243.37 54.6028 243.72Z" fill="white"/>
</g>
<g style="mix-blend-mode:lighten" opacity="0.5">
<path d="M52.6126 245.14C52.6297 245.191 52.6365 245.244 52.6327 245.297C52.6288 245.35 52.6143 245.402 52.5901 245.45C52.5659 245.497 52.5324 245.539 52.4916 245.574C52.4508 245.608 52.4036 245.634 52.3527 245.65C52.2594 245.701 52.1499 245.714 52.0473 245.686C51.9447 245.658 51.857 245.591 51.8026 245.5C51.7709 245.398 51.7803 245.287 51.8289 245.192C51.8775 245.097 51.9614 245.024 52.0626 244.99C52.1559 244.939 52.2654 244.926 52.368 244.954C52.4706 244.982 52.5583 245.049 52.6126 245.14Z" fill="white"/>
</g>
<path d="M1.01243 230.68C1.01243 229.77 1.3738 228.898 2.01705 228.255C2.6603 227.611 3.53273 227.25 4.44242 227.25C5.35211 227.25 6.22454 227.611 6.86779 228.255C7.51104 228.898 7.87243 229.77 7.87243 230.68C7.87728 230.71 7.87728 230.74 7.87243 230.77C7.87683 230.803 7.87683 230.837 7.87243 230.87C7.82463 231.152 7.70847 231.418 7.53414 231.644C7.35982 231.871 7.13263 232.051 6.87243 232.17C6.12011 232.554 5.28729 232.755 4.44242 232.755C3.59755 232.755 2.76475 232.554 2.01243 232.17C1.75121 232.053 1.52311 231.873 1.34858 231.646C1.17405 231.419 1.05855 231.153 1.01243 230.87C1.00802 230.837 1.00802 230.803 1.01243 230.77C1.00758 230.74 1.00758 230.71 1.01243 230.68Z" fill="#AEF2BE"/>
<path opacity="0.2" d="M1.01243 230.68C1.01243 229.77 1.3738 228.898 2.01705 228.255C2.6603 227.611 3.53273 227.25 4.44242 227.25C5.35211 227.25 6.22454 227.611 6.86779 228.255C7.51104 228.898 7.87243 229.77 7.87243 230.68C7.87728 230.71 7.87728 230.74 7.87243 230.77C7.87683 230.803 7.87683 230.837 7.87243 230.87C7.82463 231.152 7.70847 231.418 7.53414 231.644C7.35982 231.871 7.13263 232.051 6.87243 232.17C6.12011 232.554 5.28729 232.755 4.44242 232.755C3.59755 232.755 2.76475 232.554 2.01243 232.17C1.75121 232.053 1.52311 231.873 1.34858 231.646C1.17405 231.419 1.05855 231.153 1.01243 230.87C1.00802 230.837 1.00802 230.803 1.01243 230.77C1.00758 230.74 1.00758 230.71 1.01243 230.68Z" fill="white"/>
<g style="mix-blend-mode:lighten" opacity="0.5">
<path d="M2.95215 227.68C3.4154 227.451 3.92522 227.331 4.44215 227.33C5.33815 227.33 6.19868 227.68 6.83968 228.306C7.48067 228.932 7.85126 229.784 7.87216 230.68C7.87701 230.71 7.87701 230.74 7.87216 230.77C7.87657 230.803 7.87657 230.837 7.87216 230.87C7.82436 231.152 7.7082 231.418 7.53387 231.644C7.35955 231.871 7.13236 232.051 6.87216 232.17C6.33992 232.47 5.75039 232.654 5.14215 232.71C5.37353 232.649 5.58981 232.541 5.77745 232.392C5.96509 232.243 6.12007 232.058 6.2327 231.847C6.34532 231.635 6.41317 231.403 6.43201 231.165C6.45084 230.926 6.42025 230.686 6.34215 230.46C6.02215 229.19 4.73215 227.35 2.95215 227.68Z" fill="white"/>
</g>
<path opacity="0.05" d="M1.01243 230.87C1.00802 230.837 1.00802 230.803 1.01243 230.77C1.00758 230.74 1.00758 230.71 1.01243 230.68C1.02316 230.207 1.13179 229.742 1.33144 229.313C1.5311 228.885 1.81745 228.502 2.17242 228.19C1.80242 228.58 0.972429 230.02 1.87243 231.12C2.68348 231.738 3.65657 232.108 4.67367 232.185C5.69077 232.261 6.70816 232.041 7.60243 231.55C7.40573 231.806 7.15691 232.017 6.87243 232.17C6.12011 232.554 5.28729 232.755 4.44242 232.755C3.59755 232.755 2.76475 232.554 2.01243 232.17C1.75121 232.053 1.52311 231.873 1.34858 231.646C1.17405 231.419 1.05855 231.153 1.01243 230.87Z" fill="black"/>
<g style="mix-blend-mode:lighten" opacity="0.3">
<path d="M4.47229 228.14C4.32229 228.49 4.62229 228.96 5.13229 229.14C5.64229 229.32 6.20229 229.27 6.35229 228.92C6.50229 228.57 6.21229 228.1 5.69229 227.92C5.17229 227.74 4.63229 227.76 4.47229 228.14Z" fill="white"/>
</g>
<g style="mix-blend-mode:lighten" opacity="0.3">
<path d="M6.46281 229.53C6.43107 229.632 6.44049 229.743 6.48907 229.838C6.53764 229.933 6.62151 230.006 6.7228 230.04C6.79125 230.055 6.86254 230.05 6.92837 230.026C6.99419 230.002 7.05185 229.96 7.09464 229.905C7.13744 229.849 7.1636 229.783 7.1701 229.713C7.17659 229.643 7.16314 229.573 7.13132 229.51C7.0995 229.448 7.05062 229.396 6.99035 229.36C6.93008 229.324 6.86091 229.307 6.79088 229.309C6.72085 229.311 6.65284 229.333 6.59476 229.372C6.53668 229.411 6.49093 229.466 6.46281 229.53Z" fill="white"/>
</g>
<path d="M63.1929 158.06L54.4929 155.81L45.7929 158.06C45.1339 162.036 45.1643 166.095 45.8829 170.06C47.0229 177.36 52.1129 184.67 54.4929 184.67C56.8729 184.67 61.9629 177.36 63.1029 170.06C63.8216 166.095 63.852 162.036 63.1929 158.06Z" fill="#AEF2BE"/>
<path opacity="0.85" d="M63.1929 158.06L54.4929 155.81L45.7929 158.06C45.1339 162.036 45.1643 166.095 45.8829 170.06C47.0229 177.36 52.1129 184.67 54.4929 184.67C56.8729 184.67 61.9629 177.36 63.1029 170.06C63.8216 166.095 63.852 162.036 63.1929 158.06Z" fill="white"/>
<path d="M60.1928 159.14H48.3028C46.6028 169.44 52.0728 177.33 54.3028 177.33C56.5328 177.33 61.8928 169.41 60.1928 159.14Z" fill="#AEF2BE"/>
<path d="M54.2329 159.14H56.2329C57.1795 160.808 57.5684 162.735 57.3429 164.64C57.0929 167.42 55.4229 171.03 54.1929 171.03C52.9629 171.03 51.2929 167.42 51.0429 164.64C50.8174 162.735 51.2063 160.808 52.1529 159.14H54.1529" fill="white"/>
<path d="M70.3027 154.34L68.9427 139.79H39.5827L38.2227 154.34C37.9427 156.91 39.4827 159.54 42.8927 161.5C49.1727 165.12 59.3627 165.12 65.6327 161.5C69.0427 159.54 70.5827 156.91 70.3027 154.34Z" fill="#37474F"/>
<path d="M43.8623 146.37C38.1123 143.05 38.1123 137.68 43.8623 134.37C49.6123 131.06 58.9223 131.05 64.6723 134.37C70.4223 137.69 70.4223 143.06 64.6723 146.37C58.9223 149.68 49.6123 149.69 43.8623 146.37Z" fill="#455A64"/>
<path d="M69.9827 150.78L69.5227 145.9C69.1027 147.78 67.6527 149.6 65.1527 151.04C59.1527 154.5 49.4027 154.5 43.3927 151.04C40.8927 149.6 39.3927 147.78 39.0127 145.9L38.5527 150.78C38.9227 152.78 40.4327 154.73 43.0927 156.26C49.2727 159.82 59.2827 159.82 65.4527 156.26C68.1027 154.73 69.6127 152.78 69.9827 150.78Z" fill="#AEF2BE"/>
<path opacity="0.2" d="M65.8225 161.39L66.3025 161.14C62.4803 162.741 58.3366 163.426 54.2025 163.14C46.8925 162.83 42.4125 160.04 42.2825 157.99C42.2185 156.301 42.3223 154.609 42.5925 152.94C46.3263 154.641 50.4017 155.459 54.5025 155.33C62.6925 155.33 67.6625 152.5 69.9025 149.91L69.6725 147.48L68.9525 139.75H39.5825L38.2225 154.3C38.1576 154.781 38.1576 155.269 38.2225 155.75C38.2225 155.96 38.3025 156.16 38.3525 156.37C38.4314 156.646 38.5282 156.917 38.6425 157.18C39.5522 159.02 41.0277 160.52 42.8525 161.46C46.3697 163.346 50.3124 164.296 54.3025 164.22C55.3282 164.219 56.353 164.162 57.3725 164.05C57.8825 163.99 58.3725 163.92 58.8825 163.83C61.2653 163.459 63.5639 162.67 65.6725 161.5L65.8225 161.39Z" fill="black"/>
<path d="M54.6924 149.86H54.3024C48.3024 149.92 42.9324 148.37 39.2224 145.44C38.8685 145.18 38.5705 144.852 38.3463 144.474C38.1221 144.097 37.9762 143.678 37.9173 143.243C37.8584 142.808 37.8877 142.365 38.0034 141.942C38.1192 141.518 38.3191 141.123 38.5911 140.778C38.8632 140.433 39.2018 140.147 39.5869 139.936C39.972 139.725 40.3956 139.594 40.8324 139.55C41.2693 139.507 41.7105 139.551 42.1297 139.682C42.5489 139.812 42.9375 140.026 43.2724 140.31C45.8124 142.31 49.7224 143.39 54.2724 143.31H54.3024C58.8424 143.36 62.7424 142.31 65.3024 140.31C65.6325 139.993 66.0255 139.748 66.4561 139.593C66.8867 139.437 67.3452 139.373 67.8018 139.406C68.2585 139.439 68.7033 139.567 69.1072 139.782C69.5112 139.998 69.8655 140.296 70.147 140.657C70.4285 141.018 70.6311 141.434 70.7416 141.879C70.8521 142.323 70.8681 142.785 70.7884 143.236C70.7088 143.687 70.5354 144.116 70.2794 144.496C70.0234 144.876 69.6905 145.197 69.3024 145.44C65.7224 148.3 60.5324 149.86 54.6924 149.86Z" fill="#455A64"/>
<path d="M69.082 131.87L71.552 101.87L81.502 107.62C86.282 110.38 88.422 117.44 87.642 127.88L86.372 144.66L83.692 135.37C82.232 130.3 78.512 128.56 73.132 130.42L69.082 131.87Z" fill="#AEF2BE"/>
<path opacity="0.25" d="M69.082 131.87L71.552 101.87L81.502 107.62C86.282 110.38 88.422 117.44 87.642 127.88L86.372 144.66L83.692 135.37C82.232 130.3 78.512 128.56 73.132 130.42L69.082 131.87Z" fill="black"/>
<path d="M39.4322 131.87L36.9622 101.87L27.0122 107.62C22.2322 110.38 20.0921 117.44 20.8821 127.88L22.1421 144.66L24.8222 135.37C26.2822 130.3 30.0121 128.56 35.3821 130.42L39.4322 131.87Z" fill="#AEF2BE"/>
<path opacity="0.25" d="M39.4322 131.87L36.9622 101.87L27.0122 107.62C22.2322 110.38 20.0921 117.44 20.8821 127.88L22.1421 144.66L24.8222 135.37C26.2822 130.3 30.0121 128.56 35.3821 130.42L39.4322 131.87Z" fill="black"/>
<path d="M80.1026 78.32C80.1026 46.32 66.5827 18.67 56.5327 12.27L56.3027 12.14H56.2527C55.6633 11.7926 54.9918 11.6094 54.3077 11.6094C53.6236 11.6094 52.952 11.7926 52.3627 12.14H52.3127L52.0427 12.32C42.0427 18.72 28.4727 46.37 28.4727 78.37C28.4727 109.16 37.1027 136.45 37.9327 138.98L37.9927 139.17C38.8771 141.288 40.4865 143.021 42.5327 144.06C49.0327 147.81 59.5827 147.81 66.0827 144.06C68.1978 142.999 69.8415 141.188 70.6927 138.98C71.4727 136.39 80.1026 109.14 80.1026 78.32Z" fill="#F5F5F5"/>
<path d="M63.8827 19.96C61.9411 16.9521 59.4471 14.3394 56.5327 12.26L56.3027 12.14H56.2527C55.6634 11.7926 54.9918 11.6094 54.3077 11.6094C53.6237 11.6094 52.952 11.7926 52.3627 12.14H52.3127L52.0427 12.31C49.1273 14.3913 46.6304 17.0036 44.6827 20.01C43.0729 22.2913 41.6099 24.6728 40.3027 27.14C40.6384 28.1187 41.1647 29.0213 41.8513 29.7954C42.5379 30.5695 43.3711 31.1998 44.3027 31.65C49.8027 34.83 58.7327 34.83 64.2327 31.65C65.1634 31.1985 65.9959 30.5676 66.6823 29.7937C67.3687 29.0198 67.8956 28.118 68.2327 27.14C66.9417 24.6539 65.4885 22.2554 63.8827 19.96Z" fill="#455A64"/>
<path d="M55.6026 13.14L54.3026 0L52.9326 13.14C52.9442 13.2577 52.9862 13.3703 53.0546 13.4667C53.123 13.5632 53.2154 13.6401 53.3226 13.69C53.6157 13.8377 53.9394 13.9146 54.2676 13.9146C54.5958 13.9146 54.9195 13.8377 55.2126 13.69C55.3198 13.6401 55.4122 13.5632 55.4806 13.4667C55.549 13.3703 55.591 13.2577 55.6026 13.14Z" fill="#263238"/>
<path opacity="0.15" d="M28.4326 78.32C28.4326 109.11 37.0626 136.4 37.8926 138.93L37.9526 139.12C38.8371 141.238 40.4465 142.971 42.4926 144.01C43.6428 144.655 44.8557 145.181 46.1126 145.58C40.2686 123.909 37.1942 101.584 36.9626 79.14C36.9626 43.68 45.6926 18.56 51.9626 12.31C41.9526 18.67 28.4326 46.32 28.4326 78.32Z" fill="black"/>
<path opacity="0.35" d="M80.1022 78.32C80.1022 109.11 71.4722 136.4 70.6522 138.93C70.6349 138.995 70.6115 139.059 70.5822 139.12C69.7015 141.24 68.091 142.975 66.0422 144.01C70.9222 126.14 76.4922 104.74 76.4922 79.14C76.4922 43.68 62.8422 18.56 56.4922 12.31C66.5822 18.67 80.1022 46.32 80.1022 78.32Z" fill="white"/>
<path d="M79.8727 122.22L71.0827 106L68.7627 107.35L64.7627 132.84L68.5727 135.92C73.626 140.002 77.1301 145.691 78.5027 152.04L81.0327 163.7C81.0327 163.7 82.1327 156.29 83.3527 147.32C84.4027 139.28 84.3727 130.01 79.8727 122.22Z" fill="#AEF2BE"/>
<path opacity="0.3" d="M79.8727 122.22L71.0827 106L68.7627 107.35L64.7627 132.84L68.5727 135.92C73.626 140.002 77.1301 145.691 78.5027 152.04L81.0327 163.7C81.0327 163.7 82.1327 156.29 83.3527 147.32C84.4027 139.28 84.3727 130.01 79.8727 122.22Z" fill="white"/>
<path d="M64.7227 132.84L68.7227 107.35L77.5126 123.56C82.0026 131.35 82.8726 140.32 82.1326 149.28L80.9527 163.7L78.4227 152.04C77.0501 145.691 73.546 140.002 68.4927 135.92L64.7227 132.84Z" fill="#AEF2BE"/>
<path d="M28.6624 122.22L37.4524 106L39.7724 107.35L43.7724 132.84L39.9624 135.92C34.9091 140.002 31.4049 145.691 30.0324 152.04L27.5124 163.7C27.5124 163.7 26.4024 156.29 25.1824 147.32C24.1324 139.28 24.1624 130.01 28.6624 122.22Z" fill="#AEF2BE"/>
<path opacity="0.3" d="M28.6624 122.22L37.4524 106L39.7724 107.35L43.7724 132.84L39.9624 135.92C34.9091 140.002 31.4049 145.691 30.0324 152.04L27.5124 163.7C27.5124 163.7 26.4024 156.29 25.1824 147.32C24.1324 139.28 24.1624 130.01 28.6624 122.22Z" fill="white"/>
<path d="M43.8128 132.84L39.8128 107.35L31.0228 123.56C26.5328 131.35 25.6628 140.32 26.4028 149.28L27.5928 163.7L30.1128 152.04C31.4853 145.691 34.9895 140.002 40.0428 135.92L43.8128 132.84Z" fill="#AEF2BE"/>
<path d="M74.7324 52.8C74.5775 51.3538 74.0977 49.9613 73.3288 48.7266C72.56 47.4919 71.522 46.447 70.2924 45.67L68.7024 44.76C67.5328 44.0943 66.2081 43.7493 64.8624 43.76C63.8404 43.7649 62.8265 43.9407 61.8624 44.28C57.0124 45.96 53.7024 51.49 53.9724 57.41C53.981 59.2078 54.4337 60.9756 55.2903 62.5562C56.1469 64.1369 57.3809 65.4813 58.8824 66.47L60.5624 67.47C61.745 68.1638 63.0913 68.5297 64.4624 68.53C65.3581 68.5283 66.2471 68.3762 67.0924 68.08C72.7924 66.14 75.6424 58.58 74.7324 52.8Z" fill="#AEF2BE"/>
<g opacity="0.2">
<path d="M74.7324 52.8C74.5775 51.3538 74.0977 49.9613 73.3288 48.7266C72.56 47.4919 71.522 46.447 70.2924 45.67L68.7024 44.76C67.5328 44.0943 66.2081 43.7493 64.8624 43.76C63.8404 43.7649 62.8265 43.9407 61.8624 44.28C57.0124 45.96 53.7024 51.49 53.9724 57.41C53.981 59.2078 54.4337 60.9756 55.2903 62.5562C56.1469 64.1369 57.3809 65.4813 58.8824 66.47L60.5624 67.47C61.745 68.1638 63.0913 68.5297 64.4624 68.53C65.3581 68.5283 66.2471 68.3762 67.0924 68.08C72.7924 66.14 75.6424 58.58 74.7324 52.8Z" fill="black"/>
</g>
<path d="M64.4824 68.49C59.6624 68.49 55.8324 64.11 55.5624 58.31C55.2924 52.51 58.5624 46.86 63.4524 45.18C64.4152 44.8358 65.43 44.6599 66.4524 44.66C70.7124 44.66 73.9724 47.85 74.7524 52.8C75.6624 58.58 72.8124 66.09 67.1324 68.04C66.2808 68.3384 65.3848 68.4905 64.4824 68.49Z" fill="#AEF2BE"/>
<path d="M66.2025 65.39C62.1525 66.79 58.5825 63.09 58.3525 58.18C58.1225 53.27 60.8325 49.05 64.3525 47.82C67.8725 46.59 71.2025 48.48 71.9425 53.23C72.6825 57.98 70.3025 64 66.2025 65.39Z" fill="#37474F"/>
<path d="M70.3027 52.38C70.1134 50.5531 69.2378 48.8662 67.8527 47.66C66.6981 47.3452 65.4738 47.4012 64.3527 47.82C60.8127 49.05 58.1127 53.26 58.3527 58.18C58.364 59.4039 58.6376 60.6113 59.1551 61.7205C59.6726 62.8297 60.422 63.815 61.3527 64.61C62.389 64.9312 63.5016 64.9066 64.5227 64.54C68.6127 63.14 71.0627 57.14 70.3027 52.38Z" fill="#455A64"/>
<path opacity="0.3" d="M64.0826 49.84C60.7626 51.5 59.2326 55.46 59.8626 59.02C59.9126 59.31 60.0326 59.65 60.3226 59.72C60.6126 59.79 60.9226 59.45 61.0926 59.15C62.0926 57.48 63.0926 55.44 64.9026 54.5C65.3224 54.2984 65.7659 54.1506 66.2226 54.06C67.4626 53.74 68.5526 53.21 68.6426 51.76C68.7282 51.2296 68.6053 50.6867 68.2996 50.2449C67.9939 49.8031 67.5291 49.4968 67.0026 49.39C66.0068 49.186 64.9708 49.3456 64.0826 49.84Z" fill="white"/>
<path d="M73.1027 80.73C72.9834 79.6227 72.6157 78.5567 72.027 77.6113C71.4383 76.6659 70.6438 75.8656 69.7027 75.27L68.4927 74.58C67.5944 74.068 66.5767 73.8024 65.5427 73.81C64.7655 73.8122 63.9943 73.9475 63.2627 74.21C59.5627 75.49 57.0227 79.72 57.2627 84.21C57.2684 85.5861 57.6136 86.9395 58.2677 88.1501C58.9219 89.3608 59.8648 90.3912 61.0127 91.15L62.3027 91.89C63.2128 92.4223 64.2485 92.702 65.3027 92.7C65.9843 92.6963 66.6604 92.578 67.3027 92.35C71.6227 90.9 73.7927 85.14 73.1027 80.73Z" fill="#AEF2BE"/>
<g opacity="0.2">
<path d="M73.1027 80.73C72.9834 79.6227 72.6157 78.5567 72.027 77.6113C71.4383 76.6659 70.6438 75.8656 69.7027 75.27L68.4927 74.58C67.5944 74.068 66.5767 73.8024 65.5427 73.81C64.7655 73.8122 63.9943 73.9475 63.2627 74.21C59.5627 75.49 57.0227 79.72 57.2627 84.21C57.2684 85.5861 57.6136 86.9395 58.2677 88.1501C58.9219 89.3608 59.8648 90.3912 61.0127 91.15L62.3027 91.89C63.2128 92.4223 64.2485 92.702 65.3027 92.7C65.9843 92.6963 66.6604 92.578 67.3027 92.35C71.6227 90.9 73.7927 85.14 73.1027 80.73Z" fill="black"/>
</g>
<path d="M65.3028 92.74C61.6228 92.74 58.6928 89.39 58.4828 84.95C58.2728 80.51 60.8128 76.19 64.4828 74.9C65.2142 74.6366 65.9855 74.5013 66.7628 74.5C70.0228 74.5 72.5128 76.95 73.1128 80.73C73.8028 85.16 71.6328 90.9 67.2728 92.39C66.64 92.6147 65.9743 92.7329 65.3028 92.74Z" fill="#AEF2BE"/>
<path d="M66.5723 90.37C63.4723 91.43 60.7423 88.61 60.5723 84.85C60.4023 81.09 62.4623 77.85 65.1723 76.92C67.8823 75.99 70.4123 77.43 70.9823 81.06C71.5523 84.69 69.6723 89.31 66.5723 90.37Z" fill="#37474F"/>
<path d="M69.7224 80.41C69.5801 79.0129 68.9115 77.7222 67.8524 76.8C66.9688 76.5567 66.0308 76.5987 65.1724 76.92C62.4624 77.86 60.3924 81.09 60.5724 84.85C60.5796 85.7882 60.7897 86.7137 61.1885 87.563C61.5872 88.4123 62.1651 89.1652 62.8824 89.77C63.6718 90.0288 64.5231 90.0288 65.3124 89.77C68.4124 88.65 70.3024 84.05 69.7224 80.41Z" fill="#455A64"/>
<path opacity="0.3" d="M64.953 78.47C63.7446 79.1465 62.7814 80.1881 62.2012 81.4455C61.621 82.7029 61.4536 84.1116 61.723 85.47C61.723 85.69 61.853 85.95 62.073 86.01C62.293 86.07 62.533 85.8 62.663 85.57C63.393 84.29 64.223 82.74 65.583 82.01C65.9014 81.8592 66.2373 81.7483 66.583 81.68C67.583 81.43 68.363 81.03 68.433 79.91C68.4953 79.5069 68.4002 79.0953 68.1676 78.7603C67.9349 78.4252 67.5824 78.1924 67.183 78.11C66.4206 77.954 65.6275 78.082 64.953 78.47Z" fill="white"/>
</svg>
