<svg width="68" height="185" viewBox="0 0 68 185" fill="none" xmlns="http://www.w3.org/2000/svg">
<path d="M42.4713 158.06L33.7713 155.81L25.0713 158.06C24.4122 162.036 24.4426 166.095 25.1613 170.06C26.3013 177.36 31.3913 184.67 33.7713 184.67C36.1513 184.67 41.2413 177.36 42.3813 170.06C43.0999 166.095 43.1303 162.036 42.4713 158.06Z" fill="#AEF2BE"/>
<path opacity="0.85" d="M42.4713 158.06L33.7713 155.81L25.0713 158.06C24.4122 162.036 24.4426 166.095 25.1613 170.06C26.3013 177.36 31.3913 184.67 33.7713 184.67C36.1513 184.67 41.2413 177.36 42.3813 170.06C43.0999 166.095 43.1303 162.036 42.4713 158.06Z" fill="white"/>
<path d="M39.4712 159.14H27.5812C25.8812 169.44 31.3512 177.33 33.5812 177.33C35.8112 177.33 41.1712 169.41 39.4712 159.14Z" fill="#AEF2BE"/>
<path d="M33.5112 159.14H35.5112C36.4578 160.808 36.8468 162.735 36.6212 164.64C36.3712 167.42 34.7012 171.03 33.4712 171.03C32.2412 171.03 30.5712 167.42 30.3212 164.64C30.0957 162.735 30.4846 160.808 31.4312 159.14H33.4312" fill="white"/>
<path d="M49.581 154.34L48.221 139.79H18.861L17.501 154.34C17.221 156.91 18.761 159.54 22.171 161.5C28.451 165.12 38.641 165.12 44.911 161.5C48.321 159.54 49.861 156.91 49.581 154.34Z" fill="#37474F"/>
<path d="M23.1406 146.37C17.3906 143.05 17.3906 137.68 23.1406 134.37C28.8906 131.06 38.2006 131.05 43.9506 134.37C49.7006 137.69 49.7006 143.06 43.9506 146.37C38.2006 149.68 28.8906 149.69 23.1406 146.37Z" fill="#455A64"/>
<path d="M49.261 150.78L48.8011 145.9C48.3811 147.78 46.9311 149.6 44.4311 151.04C38.4311 154.5 28.6811 154.5 22.6711 151.04C20.1711 149.6 18.6711 147.78 18.2911 145.9L17.8311 150.78C18.2011 152.78 19.711 154.73 22.371 156.26C28.551 159.82 38.561 159.82 44.731 156.26C47.381 154.73 48.891 152.78 49.261 150.78Z" fill="#AEF2BE"/>
<path opacity="0.2" d="M45.1009 161.39L45.5809 161.14C41.7586 162.741 37.6149 163.426 33.4809 163.14C26.1709 162.83 21.6909 160.04 21.5609 157.99C21.4968 156.301 21.6006 154.609 21.8709 152.94C25.6046 154.641 29.68 155.459 33.7809 155.33C41.9709 155.33 46.9409 152.5 49.1809 149.91L48.9509 147.48L48.2309 139.75H18.8609L17.5009 154.3C17.4359 154.781 17.4359 155.269 17.5009 155.75C17.5009 155.96 17.5809 156.16 17.6309 156.37C17.7097 156.646 17.8066 156.917 17.9209 157.18C18.8305 159.02 20.306 160.52 22.1309 161.46C25.648 163.346 29.5908 164.296 33.5809 164.22C34.6065 164.219 35.6313 164.162 36.6509 164.05C37.1609 163.99 37.6509 163.92 38.1609 163.83C40.5436 163.459 42.8422 162.67 44.9509 161.5L45.1009 161.39Z" fill="black"/>
<path d="M33.9707 149.86H33.5807C27.5807 149.92 22.2107 148.37 18.5007 145.44C18.1468 145.18 17.8489 144.852 17.6246 144.474C17.4004 144.097 17.2545 143.678 17.1956 143.243C17.1367 142.808 17.166 142.365 17.2818 141.942C17.3975 141.518 17.5974 141.123 17.8695 140.778C18.1415 140.433 18.4802 140.147 18.8652 139.936C19.2503 139.725 19.6739 139.594 20.1107 139.55C20.5476 139.507 20.9888 139.551 21.408 139.682C21.8272 139.812 22.2158 140.026 22.5507 140.31C25.0907 142.31 29.0007 143.39 33.5507 143.31H33.5807C38.1207 143.36 42.0207 142.31 44.5807 140.31C44.9108 139.993 45.3039 139.748 45.7344 139.593C46.165 139.437 46.6235 139.373 47.0802 139.406C47.5369 139.439 47.9816 139.567 48.3856 139.782C48.7896 139.998 49.1438 140.296 49.4253 140.657C49.7069 141.018 49.9094 141.434 50.0199 141.879C50.1304 142.323 50.1464 142.785 50.0668 143.236C49.9871 143.687 49.8137 144.116 49.5577 144.496C49.3017 144.876 48.9689 145.197 48.5807 145.44C45.0007 148.3 39.8107 149.86 33.9707 149.86Z" fill="#455A64"/>
<path d="M48.3604 131.87L50.8304 101.87L60.7804 107.62C65.5604 110.38 67.7003 117.44 66.9203 127.88L65.6504 144.66L62.9704 135.37C61.5104 130.3 57.7904 128.56 52.4104 130.42L48.3604 131.87Z" fill="#AEF2BE"/>
<path opacity="0.25" d="M48.3604 131.87L50.8304 101.87L60.7804 107.62C65.5604 110.38 67.7003 117.44 66.9203 127.88L65.6504 144.66L62.9704 135.37C61.5104 130.3 57.7904 128.56 52.4104 130.42L48.3604 131.87Z" fill="black"/>
<path d="M18.7105 131.87L16.2405 101.87L6.29047 107.62C1.51047 110.38 -0.62953 117.44 0.16047 127.88L1.42046 144.66L4.10047 135.37C5.56047 130.3 9.29047 128.56 14.6605 130.42L18.7105 131.87Z" fill="#AEF2BE"/>
<path opacity="0.25" d="M18.7105 131.87L16.2405 101.87L6.29047 107.62C1.51047 110.38 -0.62953 117.44 0.16047 127.88L1.42046 144.66L4.10047 135.37C5.56047 130.3 9.29047 128.56 14.6605 130.42L18.7105 131.87Z" fill="black"/>
<path d="M59.381 78.32C59.381 46.32 45.861 18.67 35.811 12.27L35.581 12.14H35.531C34.9417 11.7926 34.2701 11.6094 33.586 11.6094C32.9019 11.6094 32.2303 11.7926 31.641 12.14H31.591L31.321 12.32C21.321 18.72 7.75098 46.37 7.75098 78.37C7.75098 109.16 16.381 136.45 17.211 138.98L17.271 139.17C18.1554 141.288 19.7649 143.021 21.811 144.06C28.311 147.81 38.861 147.81 45.361 144.06C47.4761 142.999 49.1198 141.188 49.971 138.98C50.751 136.39 59.381 109.14 59.381 78.32Z" fill="#F5F5F5"/>
<path d="M43.1611 19.96C41.2194 16.9521 38.7254 14.3394 35.8111 12.26L35.5811 12.14H35.5311C34.9417 11.7926 34.2701 11.6094 33.5861 11.6094C32.902 11.6094 32.2304 11.7926 31.6411 12.14H31.591L31.3211 12.31C28.4056 14.3913 25.9087 17.0036 23.9611 20.01C22.3512 22.2913 20.8883 24.6728 19.5811 27.14C19.9167 28.1187 20.4431 29.0213 21.1296 29.7954C21.8162 30.5695 22.6494 31.1998 23.5811 31.65C29.0811 34.83 38.011 34.83 43.511 31.65C44.4418 31.1985 45.2742 30.5676 45.9606 29.7937C46.647 29.0198 47.1739 28.118 47.511 27.14C46.22 24.6539 44.7668 22.2554 43.1611 19.96Z" fill="#455A64"/>
<path d="M34.8809 13.14L33.5809 0L32.2109 13.14C32.2225 13.2577 32.2646 13.3703 32.333 13.4667C32.4014 13.5632 32.4937 13.6401 32.6009 13.69C32.8941 13.8377 33.2177 13.9146 33.5459 13.9146C33.8742 13.9146 34.1978 13.8377 34.4909 13.69C34.5981 13.6401 34.6905 13.5632 34.7589 13.4667C34.8273 13.3703 34.8694 13.2577 34.8809 13.14Z" fill="#263238"/>
<path opacity="0.15" d="M7.71094 78.32C7.71094 109.11 16.3409 136.4 17.1709 138.93L17.2309 139.12C18.1154 141.238 19.7248 142.971 21.7709 144.01C22.9211 144.655 24.134 145.181 25.3909 145.58C19.547 123.909 16.4725 101.584 16.2409 79.14C16.2409 43.68 24.9709 18.56 31.2409 12.31C21.2309 18.67 7.71094 46.32 7.71094 78.32Z" fill="black"/>
<path opacity="0.35" d="M59.3805 78.32C59.3805 109.11 50.7505 136.4 49.9305 138.93C49.9132 138.995 49.8898 139.059 49.8605 139.12C48.9798 141.24 47.3693 142.975 45.3205 144.01C50.2005 126.14 55.7705 104.74 55.7705 79.14C55.7705 43.68 42.1205 18.56 35.7705 12.31C45.8605 18.67 59.3805 46.32 59.3805 78.32Z" fill="white"/>
<path d="M59.151 122.22L50.361 106L48.041 107.35L44.041 132.84L47.851 135.92C52.9043 140.002 56.4085 145.691 57.781 152.04L60.311 163.7C60.311 163.7 61.411 156.29 62.631 147.32C63.681 139.28 63.651 130.01 59.151 122.22Z" fill="#AEF2BE"/>
<path opacity="0.3" d="M59.151 122.22L50.361 106L48.041 107.35L44.041 132.84L47.851 135.92C52.9043 140.002 56.4085 145.691 57.781 152.04L60.311 163.7C60.311 163.7 61.411 156.29 62.631 147.32C63.681 139.28 63.651 130.01 59.151 122.22Z" fill="white"/>
<path d="M44.001 132.84L48.001 107.35L56.791 123.56C61.281 131.35 62.151 140.32 61.411 149.28L60.231 163.7L57.701 152.04C56.3284 145.691 52.8243 140.002 47.771 135.92L44.001 132.84Z" fill="#AEF2BE"/>
<path d="M7.94069 122.22L16.7307 106L19.0507 107.35L23.0507 132.84L19.2407 135.92C14.1874 140.002 10.6832 145.691 9.31069 152.04L6.7907 163.7C6.7907 163.7 5.6807 156.29 4.4607 147.32C3.4107 139.28 3.44069 130.01 7.94069 122.22Z" fill="#AEF2BE"/>
<path opacity="0.3" d="M7.94069 122.22L16.7307 106L19.0507 107.35L23.0507 132.84L19.2407 135.92C14.1874 140.002 10.6832 145.691 9.31069 152.04L6.7907 163.7C6.7907 163.7 5.6807 156.29 4.4607 147.32C3.4107 139.28 3.44069 130.01 7.94069 122.22Z" fill="white"/>
<path d="M23.0911 132.84L19.0911 107.35L10.3011 123.56C5.8111 131.35 4.9411 140.32 5.6811 149.28L6.87109 163.7L9.39109 152.04C10.7637 145.691 14.2678 140.002 19.3211 135.92L23.0911 132.84Z" fill="#AEF2BE"/>
<path d="M54.0107 52.8C53.8558 51.3538 53.376 49.9613 52.6072 48.7266C51.8383 47.4919 50.8003 46.447 49.5707 45.67L47.9807 44.76C46.8111 44.0943 45.4865 43.7493 44.1407 43.76C43.1187 43.7649 42.1048 43.9407 41.1407 44.28C36.2907 45.96 32.9807 51.49 33.2507 57.41C33.2593 59.2078 33.712 60.9756 34.5687 62.5562C35.4253 64.1369 36.6592 65.4813 38.1607 66.47L39.8407 67.47C41.0234 68.1638 42.3696 68.5297 43.7407 68.53C44.6364 68.5283 45.5254 68.3762 46.3707 68.08C52.0707 66.14 54.9207 58.58 54.0107 52.8Z" fill="#AEF2BE"/>
<g opacity="0.2">
<path d="M54.0107 52.8C53.8558 51.3538 53.376 49.9613 52.6072 48.7266C51.8383 47.4919 50.8003 46.447 49.5707 45.67L47.9807 44.76C46.8111 44.0943 45.4865 43.7493 44.1407 43.76C43.1187 43.7649 42.1048 43.9407 41.1407 44.28C36.2907 45.96 32.9807 51.49 33.2507 57.41C33.2593 59.2078 33.712 60.9756 34.5687 62.5562C35.4253 64.1369 36.6592 65.4813 38.1607 66.47L39.8407 67.47C41.0234 68.1638 42.3696 68.5297 43.7407 68.53C44.6364 68.5283 45.5254 68.3762 46.3707 68.08C52.0707 66.14 54.9207 58.58 54.0107 52.8Z" fill="black"/>
</g>
<path d="M43.7607 68.49C38.9407 68.49 35.1107 64.11 34.8407 58.31C34.5707 52.51 37.8407 46.86 42.7307 45.18C43.6935 44.8358 44.7083 44.6599 45.7307 44.66C49.9907 44.66 53.2508 47.85 54.0308 52.8C54.9408 58.58 52.0908 66.09 46.4108 68.04C45.5591 68.3384 44.6631 68.4905 43.7607 68.49Z" fill="#AEF2BE"/>
<path d="M45.4808 65.39C41.4308 66.79 37.8608 63.09 37.6308 58.18C37.4008 53.27 40.1108 49.05 43.6308 47.82C47.1508 46.59 50.4808 48.48 51.2208 53.23C51.9608 57.98 49.5808 64 45.4808 65.39Z" fill="#37474F"/>
<path d="M49.581 52.38C49.3917 50.5531 48.5161 48.8662 47.1311 47.66C45.9764 47.3452 44.7521 47.4012 43.6311 47.82C40.0911 49.05 37.3911 53.26 37.6311 58.18C37.6423 59.4039 37.9159 60.6113 38.4334 61.7205C38.951 62.8297 39.7004 63.815 40.6311 64.61C41.6673 64.9312 42.78 64.9066 43.801 64.54C47.891 63.14 50.341 57.14 49.581 52.38Z" fill="#455A64"/>
<path opacity="0.3" d="M43.3609 49.84C40.0409 51.5 38.5109 55.46 39.1409 59.02C39.1909 59.31 39.3109 59.65 39.6009 59.72C39.8909 59.79 40.2009 59.45 40.3709 59.15C41.3709 57.48 42.3709 55.44 44.1809 54.5C44.6007 54.2984 45.0442 54.1506 45.5009 54.06C46.7409 53.74 47.8309 53.21 47.9209 51.76C48.0066 51.2296 47.8837 50.6867 47.5779 50.2449C47.2722 49.8031 46.8075 49.4968 46.2809 49.39C45.2851 49.186 44.2491 49.3456 43.3609 49.84Z" fill="white"/>
<path d="M52.3811 80.73C52.2617 79.6227 51.894 78.5567 51.3053 77.6113C50.7166 76.6659 49.9221 75.8656 48.9811 75.27L47.7711 74.58C46.8727 74.068 45.8551 73.8024 44.8211 73.81C44.0438 73.8122 43.2727 73.9475 42.5411 74.21C38.8411 75.49 36.3011 79.72 36.5411 84.21C36.5467 85.5861 36.8919 86.9395 37.546 88.1501C38.2002 89.3608 39.1431 90.3912 40.2911 91.15L41.5811 91.89C42.4911 92.4223 43.5268 92.702 44.5811 92.7C45.2626 92.6963 45.9387 92.578 46.5811 92.35C50.9011 90.9 53.0711 85.14 52.3811 80.73Z" fill="#AEF2BE"/>
<g opacity="0.2">
<path d="M52.3811 80.73C52.2617 79.6227 51.894 78.5567 51.3053 77.6113C50.7166 76.6659 49.9221 75.8656 48.9811 75.27L47.7711 74.58C46.8727 74.068 45.8551 73.8024 44.8211 73.81C44.0438 73.8122 43.2727 73.9475 42.5411 74.21C38.8411 75.49 36.3011 79.72 36.5411 84.21C36.5467 85.5861 36.8919 86.9395 37.546 88.1501C38.2002 89.3608 39.1431 90.3912 40.2911 91.15L41.5811 91.89C42.4911 92.4223 43.5268 92.702 44.5811 92.7C45.2626 92.6963 45.9387 92.578 46.5811 92.35C50.9011 90.9 53.0711 85.14 52.3811 80.73Z" fill="black"/>
</g>
<path d="M44.5811 92.74C40.9011 92.74 37.9711 89.39 37.7611 84.95C37.5511 80.51 40.0911 76.19 43.7611 74.9C44.4925 74.6366 45.2638 74.5013 46.0412 74.5C49.3012 74.5 51.7911 76.95 52.3911 80.73C53.0811 85.16 50.9112 90.9 46.5512 92.39C45.9183 92.6147 45.2526 92.7329 44.5811 92.74Z" fill="#AEF2BE"/>
<path d="M45.8506 90.37C42.7506 91.43 40.0206 88.61 39.8506 84.85C39.6806 81.09 41.7406 77.85 44.4506 76.92C47.1606 75.99 49.6906 77.43 50.2606 81.06C50.8306 84.69 48.9506 89.31 45.8506 90.37Z" fill="#37474F"/>
<path d="M49.0007 80.41C48.8584 79.0129 48.1899 77.7222 47.1307 76.8C46.2471 76.5567 45.3091 76.5987 44.4507 76.92C41.7407 77.86 39.6707 81.09 39.8507 84.85C39.8579 85.7882 40.068 86.7137 40.4668 87.563C40.8655 88.4123 41.4434 89.1652 42.1607 89.77C42.9501 90.0288 43.8014 90.0288 44.5907 89.77C47.6907 88.65 49.5807 84.05 49.0007 80.41Z" fill="#455A64"/>
<path opacity="0.3" d="M44.2313 78.47C43.023 79.1465 42.0597 80.1881 41.4795 81.4455C40.8993 82.7029 40.7319 84.1116 41.0013 85.47C41.0013 85.69 41.1313 85.95 41.3513 86.01C41.5713 86.07 41.8113 85.8 41.9413 85.57C42.6713 84.29 43.5013 82.74 44.8613 82.01C45.1797 81.8592 45.5156 81.7483 45.8613 81.68C46.8613 81.43 47.6413 81.03 47.7113 79.91C47.7736 79.5069 47.6786 79.0953 47.4459 78.7603C47.2133 78.4252 46.8608 78.1924 46.4613 78.11C45.6989 77.954 44.9058 78.082 44.2313 78.47Z" fill="white"/>
</svg>
