<svg width="191" height="218" viewBox="0 0 191 218" fill="none" xmlns="http://www.w3.org/2000/svg">
<path d="M61.4933 128.011C59.689 125.039 57.1871 122.603 54.227 120.934C42.2869 113.714 22.9364 113.714 11.0179 120.934C8.04608 122.6 5.53184 125.036 3.71555 128.011H2.00879V134.552C2.22483 139.078 5.19906 143.605 10.9387 147.083C22.8788 154.303 42.2293 154.303 54.1478 147.083C59.909 143.613 62.8832 139.101 63.1065 134.552V128.011H61.4933Z" fill="#AEF2BE"/>
<g opacity="0.25">
<path d="M61.4933 128.011C59.689 125.039 57.1871 122.603 54.227 120.934C42.2869 113.714 22.9364 113.714 11.0179 120.934C8.04608 122.6 5.53184 125.036 3.71555 128.011H2.00879V134.552C2.22483 139.078 5.19906 143.605 10.9387 147.083C22.8788 154.303 42.2293 154.303 54.1478 147.083C59.909 143.613 62.8832 139.101 63.1065 134.552V128.011H61.4933Z" fill="#1F3328"/>
</g>
<path opacity="0.1" d="M32.5792 115.517C24.7512 115.517 16.9303 117.32 10.9747 120.934C8.00287 122.6 5.48863 125.036 3.67234 128.011H2.00879V134.552C2.22483 139.078 5.19906 143.605 10.9387 147.083C16.9087 150.689 24.7296 152.5 32.5432 152.5L32.5792 115.517Z" fill="#1F3328"/>
<path opacity="0.1" d="M15.8789 118.52C14.179 119.182 12.534 119.99 10.9603 120.934C7.98847 122.6 5.47423 125.036 3.65794 128.011H2.00879V134.552C2.22483 139.078 5.19906 143.605 10.9387 147.083C12.5138 148.024 14.1587 148.832 15.8573 149.497L15.8789 118.52Z" fill="#1F3328"/>
<path opacity="0.5" d="M49.2725 118.52C50.9729 119.181 52.6181 119.988 54.1911 120.934C57.1644 122.598 59.6791 125.035 61.4934 128.011H63.1498V134.552C62.9265 139.078 59.9307 143.605 54.1911 147.083C52.6166 148.026 50.9716 148.833 49.2725 149.497V118.52Z" fill="#AEF2BE"/>
<path d="M54.2274 114.936C42.2873 107.716 22.9368 107.716 11.0183 114.936C-0.900235 122.156 -0.92184 133.865 11.0183 141.085C22.9584 148.305 42.3089 148.305 54.2274 141.085C66.1459 133.865 66.1315 122.156 54.2274 114.936Z" fill="#AEF2BE"/>
<path opacity="0.2" d="M54.2274 114.936C42.2873 107.716 22.9368 107.716 11.0183 114.936C-0.900235 122.156 -0.92184 133.865 11.0183 141.085C22.9584 148.305 42.3089 148.305 54.2274 141.085C66.1459 133.865 66.1315 122.156 54.2274 114.936Z" fill="#1F3328"/>
<path d="M46.6514 119.719C42.8706 117.69 37.88 116.573 32.5724 116.573C27.2649 116.573 22.2743 117.69 18.5007 119.719C14.4966 121.87 12.293 124.819 12.293 128.018C12.293 131.217 14.4966 134.159 18.5007 136.317C22.2743 138.347 27.2793 139.463 32.5724 139.463C37.8655 139.463 42.8706 138.347 46.6514 136.317C50.6482 134.167 52.8519 131.225 52.8519 128.018C52.8519 124.812 50.6266 121.87 46.6514 119.719Z" fill="#AEF2BE"/>
<path opacity="0.4" d="M46.6514 119.719C42.8706 117.69 37.88 116.573 32.5724 116.573C27.2649 116.573 22.2743 117.69 18.5007 119.719C14.4966 121.87 12.293 124.819 12.293 128.018C12.293 131.217 14.4966 134.159 18.5007 136.317C22.2743 138.347 27.2793 139.463 32.5724 139.463C37.8655 139.463 42.8706 138.347 46.6514 136.317C50.6482 134.167 52.8519 131.225 52.8519 128.018C52.8519 124.812 50.6266 121.87 46.6514 119.719Z" fill="#1F3328"/>
<path d="M53.5076 116.143C47.9552 112.771 40.5448 110.938 32.5728 110.938C24.6007 110.938 17.2047 112.794 11.6307 116.166C6.28001 119.403 3.3418 123.612 3.3418 128.033C3.3418 132.454 6.28001 136.672 11.6307 139.901C17.2047 143.266 24.6367 145.129 32.5728 145.129C40.5088 145.129 47.9552 143.266 53.5292 139.901C58.8727 136.672 61.8181 132.454 61.8181 128.033C61.8181 123.612 58.8727 119.38 53.5076 116.143ZM46.6301 136.302C42.8493 138.331 37.8587 139.448 32.5511 139.448C27.2436 139.448 22.253 138.331 18.4794 136.302C14.4753 134.152 12.2717 131.21 12.2717 128.003C12.2717 124.797 14.4753 121.862 18.4794 119.704C22.253 117.675 27.258 116.558 32.5511 116.558C37.8443 116.558 42.8493 117.675 46.6301 119.704C50.6269 121.855 52.8306 124.804 52.8306 128.003C52.8306 131.202 50.627 134.152 46.6517 136.302H46.6301Z" fill="#AEF2BE"/>
<path opacity="0.3" d="M53.5076 116.143C47.9552 112.771 40.5448 110.938 32.5728 110.938C24.6007 110.938 17.2047 112.794 11.6307 116.166C6.28001 119.403 3.3418 123.612 3.3418 128.033C3.3418 132.454 6.28001 136.672 11.6307 139.901C17.2047 143.266 24.6367 145.129 32.5728 145.129C40.5088 145.129 47.9552 143.266 53.5292 139.901C58.8727 136.672 61.8181 132.454 61.8181 128.033C61.8181 123.612 58.8727 119.38 53.5076 116.143ZM46.6301 136.302C42.8493 138.331 37.8587 139.448 32.5511 139.448C27.2436 139.448 22.253 138.331 18.4794 136.302C14.4753 134.152 12.2717 131.21 12.2717 128.003C12.2717 124.797 14.4753 121.862 18.4794 119.704C22.253 117.675 27.258 116.558 32.5511 116.558C37.8443 116.558 42.8493 117.675 46.6301 119.704C50.6269 121.855 52.8306 124.804 52.8306 128.003C52.8306 131.202 50.627 134.152 46.6517 136.302H46.6301Z" fill="white"/>
<path opacity="0.2" d="M46.1689 135.321C53.6801 131.285 53.6801 124.759 46.1689 120.7C38.6578 116.641 26.4872 116.664 18.9832 120.7C11.4792 124.737 11.472 131.262 18.9832 135.321C26.4944 139.38 38.665 139.358 46.1689 135.321Z" fill="#1F3328"/>
<path d="M46.1689 135.321C53.6801 131.285 53.6801 124.759 46.1689 120.7C38.6578 116.641 26.4872 116.664 18.9832 120.7C11.4792 124.737 11.472 131.262 18.9832 135.321C26.4944 139.38 38.665 139.358 46.1689 135.321Z" fill="#AEF2BE"/>
<path opacity="0.45" d="M46.1689 135.321C53.6801 131.285 53.6801 124.759 46.1689 120.7C38.6578 116.641 26.4872 116.664 18.9832 120.7C11.4792 124.737 11.472 131.262 18.9832 135.321C26.4944 139.38 38.665 139.358 46.1689 135.321Z" fill="#1F3328"/>
<path d="M46.1689 123.439C38.6649 119.403 26.4871 119.403 18.9832 123.439C15.8793 125.106 14.0573 127.211 13.5244 129.376C14.0573 131.549 15.8793 133.646 18.9832 135.321C26.4871 139.357 38.6649 139.357 46.1689 135.321C49.2799 133.646 51.0947 131.549 51.6348 129.376C51.0947 127.203 49.2799 125.106 46.1689 123.439Z" fill="#AEF2BE"/>
<path opacity="0.3" d="M46.1689 123.439C38.6649 119.403 26.4871 119.403 18.9832 123.439C15.8793 125.106 14.0573 127.211 13.5244 129.376C14.0573 131.549 15.8793 133.646 18.9832 135.321C26.4871 139.357 38.6649 139.357 46.1689 135.321C49.2799 133.646 51.0947 131.549 51.6348 129.376C51.0947 127.203 49.2799 125.106 46.1689 123.439Z" fill="#1F3328"/>
<path d="M34.402 120.859V123.808L33.437 124.88L31.6582 126.826V123.756L34.402 120.859Z" fill="#AEF2BE"/>
<path opacity="0.3" d="M34.402 120.859V123.808L33.437 124.88L31.6582 126.826V123.756L34.402 120.859Z" fill="#1F3328"/>
<path d="M31.6583 123.763V125.506C30.7706 125.861 29.8549 126.133 28.9217 126.321C28.5309 126.384 28.132 126.367 27.7479 126.268C27.5528 126.212 27.3644 126.134 27.1862 126.034C26.5092 125.604 26.4012 124.978 27.6903 124.193C28.276 123.808 28.9385 123.569 29.6265 123.494C30.3145 123.42 31.0096 123.512 31.6583 123.763Z" fill="#AEF2BE"/>
<path opacity="0.45" d="M31.6583 123.763V125.506C30.7706 125.861 29.8549 126.133 28.9217 126.321C28.5309 126.384 28.132 126.367 27.7479 126.268C27.5528 126.212 27.3644 126.134 27.1862 126.034C26.5092 125.604 26.4012 124.978 27.6903 124.193C28.276 123.808 28.9385 123.569 29.6265 123.494C30.3145 123.42 31.0096 123.512 31.6583 123.763Z" fill="#1F3328"/>
<path d="M44.4192 132.138V134.688L41.3369 136.589L39.0541 135.208C36.2788 136.561 33.1064 136.712 30.225 135.631V133.073L31.6221 131.617L30.225 132.024C29.0822 132.368 27.8859 132.472 26.7045 132.331C25.5232 132.19 24.38 131.806 23.3403 131.202C21.9577 130.365 21.3167 129.452 21.3239 128.509V126.027L21.5688 124.94L20.7334 124.427V121.877L23.0091 123.258C21.9 124.163 21.3095 125.091 21.3239 125.996C21.3239 126.917 21.9937 127.807 23.3403 128.622C26.3434 130.433 29.3104 129.837 32.0326 128.924C34.5675 128.056 36.4111 127.038 37.873 127.92C38.7732 128.471 38.4995 129.135 37.4841 129.754C36.8278 130.131 36.0995 130.35 35.3521 130.396C34.6047 130.442 33.857 130.312 33.1632 130.018L30.2826 133.035C30.8043 133.246 31.3414 133.413 31.8885 133.533C34.3214 134.017 36.8376 133.698 39.0901 132.62L41.3729 134.001L44.4192 132.138Z" fill="#AEF2BE"/>
<path opacity="0.2" d="M21.3233 125.959C21.3233 126.879 21.993 127.769 23.3397 128.584C26.3428 130.395 29.3098 129.799 32.032 128.886C34.5669 128.018 36.4105 127 37.8724 127.882C38.7726 128.433 38.4989 129.097 37.4835 129.716C36.8272 130.093 36.0989 130.313 35.3515 130.358C34.6041 130.404 33.8563 130.275 33.1626 129.98L30.282 132.998C30.8037 133.208 31.3407 133.375 31.8879 133.495C34.3208 133.979 36.837 133.66 39.0894 132.583L41.3723 133.963L44.4546 132.1V134.65L41.3363 136.589L39.0534 135.208C36.2781 136.561 33.1058 136.712 30.2244 135.631V133.073L31.6215 131.617L30.2244 132.024C29.0815 132.368 27.8852 132.472 26.7039 132.331C25.5226 132.19 24.3794 131.806 23.3397 131.202C21.957 130.365 21.3161 129.452 21.3233 128.509V126.027L21.5682 124.94" fill="#1F3328"/>
<path opacity="0.45" d="M20.7334 121.839V124.389L21.5688 124.902C21.9238 124.235 22.4157 123.657 23.0091 123.212L20.7334 121.839Z" fill="#1F3328"/>
<path d="M43.9077 130.47C43.9128 130.89 43.8344 131.306 43.6772 131.692L42.1289 130.757C42.597 130.535 43.0037 130.192 43.311 129.761C43.6183 129.329 43.8162 128.823 43.8861 128.29C43.8933 129.044 43.9077 130.402 43.9077 130.47Z" fill="#AEF2BE"/>
<g opacity="0.3">
<path d="M43.9077 130.47C43.9128 130.89 43.8344 131.306 43.6772 131.692L42.1289 130.757C42.597 130.535 43.0037 130.192 43.311 129.761C43.6183 129.329 43.8162 128.823 43.8861 128.29C43.8933 129.044 43.9077 130.402 43.9077 130.47Z" fill="#1F3328"/>
</g>
<path d="M43.9007 131.828L42.1363 130.757C42.6563 130.509 43.0983 130.112 43.4108 129.611C43.7232 129.11 43.8931 128.526 43.9007 127.928C43.9047 127.845 43.9047 127.762 43.9007 127.679C43.8215 126.796 43.1805 125.944 41.9275 125.174C40.682 124.423 39.267 124.034 37.8298 124.05H37.4409H37.0736C36.9657 124.043 36.8575 124.043 36.7496 124.05H36.6199H36.3751C35.7027 124.153 35.0367 124.296 34.3803 124.48L33.4513 124.767L32.155 125.212L31.6725 125.385C30.787 125.747 29.8707 126.02 28.9359 126.2C28.5437 126.274 28.1409 126.258 27.7549 126.155C27.5631 126.1 27.3791 126.019 27.2076 125.913C26.5234 125.499 26.4154 124.865 27.7045 124.08C28.2903 123.695 28.9527 123.456 29.6407 123.381C30.3287 123.307 31.0238 123.399 31.6725 123.65L34.4091 120.753C31.6893 119.852 28.7491 120.024 26.1417 121.236L23.8372 119.991L20.7334 121.87L23.0163 123.25C21.9 124.156 21.3023 125.091 21.3167 125.996C21.3167 126.917 21.9937 127.807 23.3403 128.622C26.3434 130.44 29.3176 129.837 32.0398 128.916C34.5675 128.056 36.4039 127.038 37.8658 127.92C38.7732 128.471 38.4995 129.135 37.4841 129.746C36.829 130.127 36.1004 130.349 35.3524 130.394C34.6044 130.44 33.8562 130.309 33.1632 130.01L30.2826 133.028C30.8086 133.231 31.3477 133.395 31.8957 133.518C32.8211 133.72 33.7678 133.794 34.7115 133.737C36.2303 133.633 37.7197 133.25 39.1117 132.605L41.4018 133.993L44.4768 132.13L43.9007 131.828Z" fill="#AEF2BE"/>
<g opacity="0.3">
<path d="M43.9007 131.828L42.1363 130.757C42.6563 130.509 43.0983 130.112 43.4108 129.611C43.7232 129.11 43.8931 128.526 43.9007 127.928C43.9047 127.845 43.9047 127.762 43.9007 127.679C43.8215 126.796 43.1805 125.944 41.9275 125.174C40.682 124.423 39.267 124.034 37.8298 124.05H37.4409H37.0736C36.9657 124.043 36.8575 124.043 36.7496 124.05H36.6199H36.3751C35.7027 124.153 35.0367 124.296 34.3803 124.48L33.4513 124.767L32.155 125.212L31.6725 125.385C30.787 125.747 29.8707 126.02 28.9359 126.2C28.5437 126.274 28.1409 126.258 27.7549 126.155C27.5631 126.1 27.3791 126.019 27.2076 125.913C26.5234 125.499 26.4154 124.865 27.7045 124.08C28.2903 123.695 28.9527 123.456 29.6407 123.381C30.3287 123.307 31.0238 123.399 31.6725 123.65L34.4091 120.753C31.6893 119.852 28.7491 120.024 26.1417 121.236L23.8372 119.991L20.7334 121.87L23.0163 123.25C21.9 124.156 21.3023 125.091 21.3167 125.996C21.3167 126.917 21.9937 127.807 23.3403 128.622C26.3434 130.44 29.3176 129.837 32.0398 128.916C34.5675 128.056 36.4039 127.038 37.8658 127.92C38.7732 128.471 38.4995 129.135 37.4841 129.746C36.829 130.127 36.1004 130.349 35.3524 130.394C34.6044 130.44 33.8562 130.309 33.1632 130.01L30.2826 133.028C30.8086 133.231 31.3477 133.395 31.8957 133.518C32.8211 133.72 33.7678 133.794 34.7115 133.737C36.2303 133.633 37.7197 133.25 39.1117 132.605L41.4018 133.993L44.4768 132.13L43.9007 131.828Z" fill="white"/>
</g>
<path d="M39.0537 132.62V135.17L41.3366 136.551V134.001L39.0537 132.62Z" fill="#AEF2BE"/>
<path opacity="0.45" d="M39.0537 132.62V135.17L41.3366 136.551V134.001L39.0537 132.62Z" fill="#1F3328"/>
<path opacity="0.5" d="M20.7334 121.839L23.8372 119.961L26.1273 121.342L23.8589 120.346L20.7334 121.839Z" fill="#F5F5F5"/>
<path opacity="0.5" d="M27.6895 124.186C28.2752 123.8 28.9377 123.561 29.6257 123.487C30.3137 123.412 31.0088 123.504 31.6575 123.756L34.3941 120.859L31.6575 123.454C30.991 123.214 30.2773 123.155 29.5833 123.283C28.8893 123.411 28.2377 123.722 27.6895 124.186Z" fill="#F5F5F5"/>
<path opacity="0.5" d="M30.2178 133.043C30.7438 133.246 31.2829 133.41 31.8309 133.533C32.7562 133.735 33.703 133.809 34.6467 133.752C33.2837 133.763 31.933 133.481 30.6787 132.922L33.1344 130.002L30.2178 133.043Z" fill="#F5F5F5"/>
<path opacity="0.5" d="M39.0537 132.62L41.3366 133.699L44.4116 132.145L41.3366 134.001L39.0537 132.62Z" fill="#F5F5F5"/>
<path opacity="0.5" d="M11.8612 116.573C19.9557 111.421 32.5728 110.915 32.5728 110.915C24.6511 110.915 17.2047 112.771 11.6307 116.143C6.28001 119.38 3.3418 123.59 3.3418 128.011C3.3418 128.011 3.62986 121.817 11.8612 116.573Z" fill="#F5F5F5"/>
<path opacity="0.5" d="M30.2178 146.449C38.8092 146.849 47.6238 145.061 54.1916 141.085C61.0259 136.951 63.9497 131.353 62.9631 125.996C62.9631 125.996 64.2377 134.786 53.6803 140.791C43.1229 146.796 30.2178 146.449 30.2178 146.449Z" fill="#F5F5F5"/>
<path d="M59.4845 118.935C57.6682 115.961 55.154 113.524 52.1822 111.858C40.2493 104.638 20.8916 104.638 8.97309 111.858C5.99752 113.524 3.47863 115.96 1.65635 118.935H0V125.476C0.216045 130.002 3.19027 134.529 8.92988 138.007C20.87 145.227 40.2277 145.227 52.139 138.007C57.9002 134.537 60.8744 130.025 61.0977 125.476V118.935H59.4845Z" fill="#AEF2BE"/>
<g opacity="0.25">
<path d="M59.4845 118.935C57.6682 115.961 55.154 113.524 52.1822 111.858C40.2493 104.638 20.8916 104.638 8.97309 111.858C5.99752 113.524 3.47863 115.96 1.65635 118.935H0V125.476C0.216045 130.002 3.19027 134.529 8.92988 138.007C20.87 145.227 40.2277 145.227 52.139 138.007C57.9002 134.537 60.8744 130.025 61.0977 125.476V118.935H59.4845Z" fill="#1F3328"/>
</g>
<path opacity="0.1" d="M30.5704 106.411C22.7496 106.411 14.9215 108.222 8.96589 111.828C5.98948 113.503 3.47283 115.95 1.65635 118.935H0V125.476C0.216045 130.002 3.19027 134.529 8.92988 138.007C14.8999 141.621 22.728 143.424 30.5344 143.424L30.5704 106.411Z" fill="#1F3328"/>
<path opacity="0.1" d="M13.8989 109.429C12.2016 110.098 10.557 110.905 8.98029 111.843C6.00035 113.512 3.47873 115.954 1.65635 118.935H0V125.476C0.216045 130.002 3.19027 134.529 8.92988 138.007C10.5036 138.952 12.1487 139.759 13.8485 140.421L13.8989 109.429Z" fill="#1F3328"/>
<path opacity="0.5" d="M47.2637 109.429C48.9616 110.096 50.6063 110.903 52.1823 111.843C55.1541 113.509 57.6684 115.945 59.4846 118.92H61.141V125.461C60.9177 129.987 57.9291 134.514 52.1823 137.992C50.6093 138.938 48.9641 139.745 47.2637 140.406V109.429Z" fill="#AEF2BE"/>
<path d="M52.1825 105.86C40.2495 98.6405 20.8919 98.6405 8.97335 105.86C-2.94516 113.08 -2.96676 124.789 8.97335 132.009C20.9135 139.229 40.2711 139.237 52.1825 132.009C64.0938 124.782 64.1226 113.088 52.1825 105.86Z" fill="#AEF2BE"/>
<path opacity="0.2" d="M52.1825 105.86C40.2495 98.6405 20.8919 98.6405 8.97335 105.86C-2.94516 113.08 -2.96676 124.789 8.97335 132.009C20.9135 139.229 40.2711 139.237 52.1825 132.009C64.0938 124.782 64.1226 113.088 52.1825 105.86Z" fill="#1F3328"/>
<path d="M44.6494 110.651C40.8686 108.622 35.8708 107.505 30.5705 107.505C25.2702 107.505 20.2723 108.622 16.4915 110.651C12.4947 112.794 10.291 115.744 10.291 118.95C10.291 122.156 12.4947 125.084 16.4915 127.249C20.2723 129.286 25.2702 130.402 30.5705 130.402C35.8708 130.402 40.8686 129.286 44.6494 127.249C48.6463 125.099 50.8499 122.156 50.8499 118.95C50.8499 115.744 48.6463 112.794 44.6494 110.651Z" fill="#AEF2BE"/>
<path opacity="0.4" d="M44.6494 110.651C40.8686 108.622 35.8708 107.505 30.5705 107.505C25.2702 107.505 20.2723 108.622 16.4915 110.651C12.4947 112.794 10.291 115.744 10.291 118.95C10.291 122.156 12.4947 125.084 16.4915 127.249C20.2723 129.286 25.2702 130.402 30.5705 130.402C35.8708 130.402 40.8686 129.286 44.6494 127.249C48.6463 125.099 50.8499 122.156 50.8499 118.95C50.8499 115.744 48.6463 112.794 44.6494 110.651Z" fill="#1F3328"/>
<path d="M51.5194 107.075C45.9454 103.703 38.5063 101.839 30.5702 101.839C22.6341 101.839 15.195 103.703 9.62098 107.075C4.27025 110.304 1.33203 114.514 1.33203 118.942C1.33203 123.371 4.27025 127.573 9.62098 130.81C15.195 134.174 22.6341 136.038 30.5702 136.038C38.5063 136.038 45.9454 134.174 51.5194 130.81C56.8629 127.573 59.8083 123.356 59.8083 118.942C59.8083 114.529 56.8629 110.304 51.5194 107.075ZM44.6491 127.226C40.8684 129.263 35.8705 130.38 30.5702 130.38C25.2699 130.38 20.272 129.263 16.4912 127.226C12.4944 125.076 10.2907 122.134 10.2907 118.927C10.2907 115.721 12.4944 112.779 16.4912 110.628C20.272 108.599 25.2699 107.482 30.5702 107.482C35.8705 107.482 40.8684 108.599 44.6491 110.628C48.646 112.771 50.8497 115.721 50.8497 118.927C50.8497 122.134 48.646 125.076 44.6491 127.226Z" fill="#AEF2BE"/>
<path opacity="0.3" d="M51.5194 107.075C45.9454 103.703 38.5063 101.839 30.5702 101.839C22.6341 101.839 15.195 103.703 9.62098 107.075C4.27025 110.304 1.33203 114.514 1.33203 118.942C1.33203 123.371 4.27025 127.573 9.62098 130.81C15.195 134.174 22.6341 136.038 30.5702 136.038C38.5063 136.038 45.9454 134.174 51.5194 130.81C56.8629 127.573 59.8083 123.356 59.8083 118.942C59.8083 114.529 56.8629 110.304 51.5194 107.075ZM44.6491 127.226C40.8684 129.263 35.8705 130.38 30.5702 130.38C25.2699 130.38 20.272 129.263 16.4912 127.226C12.4944 125.076 10.2907 122.134 10.2907 118.927C10.2907 115.721 12.4944 112.779 16.4912 110.628C20.272 108.599 25.2699 107.482 30.5702 107.482C35.8705 107.482 40.8684 108.599 44.6491 110.628C48.646 112.771 50.8497 115.721 50.8497 118.927C50.8497 122.134 48.646 125.076 44.6491 127.226Z" fill="white"/>
<path opacity="0.2" d="M44.1456 126.245C51.6496 122.209 51.6496 115.683 44.1456 111.624C36.6417 107.566 24.4639 107.588 16.9527 111.624C9.44154 115.661 9.44154 122.187 16.9527 126.245C24.4639 130.304 36.6561 130.282 44.1456 126.245Z" fill="#1F3328"/>
<path d="M44.1456 126.245C51.6496 122.209 51.6496 115.683 44.1456 111.624C36.6417 107.566 24.4639 107.588 16.9527 111.624C9.44154 115.661 9.44154 122.187 16.9527 126.245C24.4639 130.304 36.6561 130.282 44.1456 126.245Z" fill="#AEF2BE"/>
<path opacity="0.45" d="M44.1456 126.245C51.6496 122.209 51.6496 115.683 44.1456 111.624C36.6417 107.566 24.4639 107.588 16.9527 111.624C9.44154 115.661 9.44154 122.187 16.9527 126.245C24.4639 130.304 36.6561 130.282 44.1456 126.245Z" fill="#1F3328"/>
<path d="M44.1448 114.363C36.6337 110.327 24.4631 110.327 16.9519 114.363C13.8481 116.038 12.0261 118.135 11.4932 120.308C12.0261 122.481 13.8481 124.578 16.9519 126.245C24.4631 130.282 36.6337 130.282 44.1448 126.245C47.2487 124.578 49.0635 122.473 49.6036 120.308C49.0851 118.135 47.2703 116.038 44.1448 114.363Z" fill="#AEF2BE"/>
<path opacity="0.3" d="M44.1448 114.363C36.6337 110.327 24.4631 110.327 16.9519 114.363C13.8481 116.038 12.0261 118.135 11.4932 120.308C12.0261 122.481 13.8481 124.578 16.9519 126.245C24.4631 130.282 36.6337 130.282 44.1448 126.245C47.2487 124.578 49.0635 122.473 49.6036 120.308C49.0851 118.135 47.2703 116.038 44.1448 114.363Z" fill="#1F3328"/>
<path d="M32.3922 111.783V114.74L31.4272 115.804L29.6484 117.758V114.68L32.3922 111.783Z" fill="#AEF2BE"/>
<path opacity="0.3" d="M32.3922 111.783V114.74L31.4272 115.804L29.6484 117.758V114.68L32.3922 111.783Z" fill="#1F3328"/>
<path d="M29.6487 114.71V116.453C28.7613 116.809 27.8456 117.081 26.9122 117.268C26.5221 117.337 26.1225 117.322 25.7383 117.222C25.5454 117.164 25.3593 117.083 25.1838 116.981C24.4636 116.558 24.3916 115.925 25.6879 115.148C26.2718 114.761 26.9328 114.521 27.6196 114.445C28.3064 114.369 29.0007 114.46 29.6487 114.71Z" fill="#AEF2BE"/>
<path opacity="0.45" d="M29.6487 114.71V116.453C28.7613 116.809 27.8456 117.081 26.9122 117.268C26.5221 117.337 26.1225 117.322 25.7383 117.222C25.5454 117.164 25.3593 117.083 25.1838 116.981C24.4636 116.558 24.3916 115.925 25.6879 115.148C26.2718 114.761 26.9328 114.521 27.6196 114.445C28.3064 114.369 29.0007 114.46 29.6487 114.71Z" fill="#1F3328"/>
<path d="M42.4094 123.069V125.619L39.3272 127.483L37.0443 126.102C34.268 127.452 31.0957 127.601 28.2152 126.517V123.967L29.6123 122.511L28.2152 122.911C27.0738 123.256 25.8784 123.362 24.698 123.22C23.5175 123.079 22.3755 122.694 21.3378 122.088C19.9551 121.258 19.3142 120.338 19.3142 119.395V116.92L19.5662 115.834L18.7236 115.321V112.764L21.0065 114.152C19.8903 115.049 19.2998 115.985 19.3142 116.89C19.3142 117.803 19.9839 118.693 21.3378 119.508C24.3336 121.326 27.3078 120.723 30.03 119.81C32.5577 118.942 34.4013 117.931 35.8632 118.807C36.7706 119.357 36.4898 120.029 35.4744 120.64C34.818 121.017 34.0897 121.237 33.3423 121.282C32.5949 121.328 31.8472 121.199 31.1534 120.904L28.2368 123.922C28.7583 124.131 29.2954 124.295 29.8428 124.412C32.275 124.895 34.7903 124.579 37.0443 123.507L39.3272 124.887L42.4094 123.069Z" fill="#AEF2BE"/>
<path opacity="0.2" d="M19.3145 116.89C19.3145 117.803 19.9842 118.693 21.3381 119.508C24.3339 121.326 27.3081 120.723 30.0303 119.81C32.558 118.942 34.4016 117.931 35.8635 118.807C36.7709 119.357 36.4901 120.029 35.4747 120.64C34.8183 121.017 34.09 121.237 33.3426 121.282C32.5952 121.328 31.8475 121.199 31.1537 120.904L28.2371 123.922C28.7586 124.131 29.2957 124.295 29.8431 124.412C32.2753 124.895 34.7906 124.579 37.0446 123.507L39.3275 124.887L42.4097 123.024V125.574L39.3275 127.437L37.0446 126.057C34.2683 127.407 31.096 127.556 28.2155 126.472V123.922L29.6126 122.466L28.2155 122.865C27.0741 123.211 25.8787 123.316 24.6983 123.175C23.5178 123.034 22.3758 122.649 21.3381 122.043C19.9554 121.213 19.3145 120.293 19.3145 119.35V116.875L19.5665 115.789" fill="#1F3328"/>
<path opacity="0.45" d="M18.7236 112.764V115.321L19.5662 115.834C19.9199 115.165 20.412 114.588 21.0065 114.144L18.7236 112.764Z" fill="#1F3328"/>
<path d="M41.8985 121.402C41.9046 121.819 41.8261 122.233 41.6681 122.617L40.127 121.689C40.5926 121.468 40.9973 121.127 41.3034 120.699C41.6094 120.27 41.8067 119.767 41.8769 119.237C41.8841 119.931 41.8985 121.334 41.8985 121.402Z" fill="#AEF2BE"/>
<g opacity="0.3">
<path d="M41.8985 121.402C41.9046 121.819 41.8261 122.233 41.6681 122.617L40.127 121.689C40.5926 121.468 40.9973 121.127 41.3034 120.699C41.6094 120.27 41.8067 119.767 41.8769 119.237C41.8841 119.931 41.8985 121.334 41.8985 121.402Z" fill="#1F3328"/>
</g>
<path d="M41.8916 122.76L40.1273 121.689C40.6484 121.44 41.0912 121.042 41.4037 120.539C41.7162 120.037 41.8854 119.451 41.8916 118.852C41.8916 118.761 41.8916 118.686 41.8916 118.603C41.8196 117.72 41.1715 116.868 39.9256 116.098C38.676 115.351 37.2593 114.966 35.8208 114.982H35.4319H35.0646H34.7405H34.6109H34.3661C33.6931 115.084 33.0268 115.23 32.3712 115.419C32.0616 115.502 31.7447 115.6 31.4422 115.706C30.9957 115.849 30.5637 116 30.1532 116.143L29.6635 116.324C28.7775 116.685 27.8613 116.958 26.9269 117.139C26.5363 117.206 26.1367 117.188 25.753 117.086C25.5603 117.031 25.3743 116.952 25.1985 116.853C24.4784 116.43 24.4064 115.804 25.6954 115.019C26.2806 114.633 26.9428 114.392 27.6308 114.316C28.3188 114.241 29.0143 114.331 29.6635 114.582L32.4072 111.685C29.6842 110.791 26.7442 110.963 24.1327 112.168L21.821 110.893L18.71 112.771L20.9928 114.144C19.8766 115.049 19.2789 115.985 19.3005 116.89C19.3005 117.811 19.9702 118.701 21.3241 119.516C24.3271 121.334 27.2942 120.738 30.0163 119.818C32.5441 118.95 34.3877 117.931 35.8424 118.814C36.757 119.365 36.4761 120.029 35.4607 120.647C34.8044 121.025 34.0761 121.244 33.3287 121.29C32.5813 121.336 31.8335 121.206 31.1398 120.911L28.216 123.929C28.7411 124.137 29.2803 124.303 29.8291 124.427C30.7548 124.626 31.7015 124.697 32.6449 124.638C34.1657 124.538 35.6576 124.157 37.0522 123.514L39.3351 124.895L42.4101 123.031L41.8916 122.76Z" fill="#AEF2BE"/>
<g opacity="0.3">
<path d="M41.8916 122.76L40.1273 121.689C40.6484 121.44 41.0912 121.042 41.4037 120.539C41.7162 120.037 41.8854 119.451 41.8916 118.852C41.8916 118.761 41.8916 118.686 41.8916 118.603C41.8196 117.72 41.1715 116.868 39.9256 116.098C38.676 115.351 37.2593 114.966 35.8208 114.982H35.4319H35.0646H34.7405H34.6109H34.3661C33.6931 115.084 33.0268 115.23 32.3712 115.419C32.0616 115.502 31.7447 115.6 31.4422 115.706C30.9957 115.849 30.5637 116 30.1532 116.143L29.6635 116.324C28.7775 116.685 27.8613 116.958 26.9269 117.139C26.5363 117.206 26.1367 117.188 25.753 117.086C25.5603 117.031 25.3743 116.952 25.1985 116.853C24.4784 116.43 24.4064 115.804 25.6954 115.019C26.2806 114.633 26.9428 114.392 27.6308 114.316C28.3188 114.241 29.0143 114.331 29.6635 114.582L32.4072 111.685C29.6842 110.791 26.7442 110.963 24.1327 112.168L21.821 110.893L18.71 112.771L20.9928 114.144C19.8766 115.049 19.2789 115.985 19.3005 116.89C19.3005 117.811 19.9702 118.701 21.3241 119.516C24.3271 121.334 27.2942 120.738 30.0163 119.818C32.5441 118.95 34.3877 117.931 35.8424 118.814C36.757 119.365 36.4761 120.029 35.4607 120.647C34.8044 121.025 34.0761 121.244 33.3287 121.29C32.5813 121.336 31.8335 121.206 31.1398 120.911L28.216 123.929C28.7411 124.137 29.2803 124.303 29.8291 124.427C30.7548 124.626 31.7015 124.697 32.6449 124.638C34.1657 124.538 35.6576 124.157 37.0522 123.514L39.3351 124.895L42.4101 123.031L41.8916 122.76Z" fill="white"/>
</g>
<path d="M37.0449 123.552V126.102L39.3278 127.483V124.933L37.0449 123.552Z" fill="#AEF2BE"/>
<path opacity="0.45" d="M37.0449 123.552V126.102L39.3278 127.483V124.933L37.0449 123.552Z" fill="#1F3328"/>
<path opacity="0.5" d="M18.7236 112.771L21.8347 110.893L24.1176 112.266L21.8491 111.27L18.7236 112.771Z" fill="#F5F5F5"/>
<path opacity="0.5" d="M25.6807 115.117C26.2659 114.731 26.928 114.49 27.616 114.414C28.304 114.339 28.9995 114.429 29.6487 114.68L32.3925 111.783L29.6487 114.386C28.9822 114.146 28.2686 114.087 27.5745 114.215C26.8805 114.343 26.2289 114.653 25.6807 115.117Z" fill="#F5F5F5"/>
<path opacity="0.5" d="M28.208 123.967C28.7331 124.175 29.2724 124.341 29.8211 124.465C30.7469 124.664 31.6936 124.735 32.6369 124.676C31.2739 124.688 29.9233 124.405 28.6689 123.846L31.1318 120.934L28.208 123.967Z" fill="#F5F5F5"/>
<path opacity="0.5" d="M37.0449 123.552L39.3278 124.631L42.4029 123.069L39.3278 124.933L37.0449 123.552Z" fill="#F5F5F5"/>
<path opacity="0.5" d="M9.85143 107.505C17.9459 102.352 30.5702 101.839 30.5702 101.839C22.6485 101.839 15.195 103.703 9.62098 107.075C4.27025 110.304 1.33203 114.514 1.33203 118.942C1.33203 118.942 1.6561 112.741 9.85143 107.505Z" fill="#F5F5F5"/>
<path opacity="0.5" d="M28.208 137.343C36.7994 137.743 45.6141 135.955 52.1819 131.979C59.0161 127.852 61.9399 122.247 60.9533 116.89C60.9533 116.89 62.228 125.672 51.6705 131.685C41.1131 137.698 28.208 137.343 28.208 137.343Z" fill="#F5F5F5"/>
<path d="M63.8627 109.768C62.0444 106.796 59.5307 104.36 56.5604 102.692C44.6202 95.4718 25.2626 95.4718 13.3513 102.692C10.3795 104.358 7.86522 106.794 6.04893 109.768H4.39258V116.309C4.61583 120.836 7.59005 125.363 13.3297 128.841C25.2626 136.061 44.6203 136.061 56.5388 128.841C62.3 125.37 65.2742 120.859 65.4902 116.309V109.768H63.8627Z" fill="#AEF2BE"/>
<g opacity="0.25">
<path d="M63.8627 109.768C62.0444 106.796 59.5307 104.36 56.5604 102.692C44.6202 95.4718 25.2626 95.4718 13.3513 102.692C10.3795 104.358 7.86522 106.794 6.04893 109.768H4.39258V116.309C4.61583 120.836 7.59005 125.363 13.3297 128.841C25.2626 136.061 44.6203 136.061 56.5388 128.841C62.3 125.37 65.2742 120.859 65.4902 116.309V109.768H63.8627Z" fill="#1F3328"/>
</g>
<path opacity="0.1" d="M34.949 97.2749C27.1209 97.2749 19.3001 99.0856 13.3444 102.692C10.3726 104.358 7.85838 106.794 6.04209 109.768H4.38574V116.309C4.60899 120.836 7.58322 125.363 13.3228 128.841C19.2929 132.454 27.1137 134.257 34.9274 134.257L34.949 97.2749Z" fill="#1F3328"/>
<path opacity="0.1" d="M18.2201 100.278C16.5209 100.942 14.876 101.749 13.3015 102.692C10.3297 104.358 7.81542 106.794 5.99912 109.768H4.34277V116.309C4.56602 120.836 7.54025 125.363 13.2799 128.841C14.8529 129.786 16.498 130.594 18.1985 131.255L18.2201 100.278Z" fill="#1F3328"/>
<path opacity="0.5" d="M51.6416 100.278C53.3402 100.943 54.9851 101.75 56.5602 102.692C59.5305 104.36 62.0443 106.796 63.8626 109.768H65.5117V116.309C65.2957 120.836 62.2998 125.363 56.5602 128.841C54.9865 129.785 53.3415 130.592 51.6416 131.255V100.278Z" fill="#AEF2BE"/>
<path d="M56.5606 96.694C44.6205 89.474 25.2628 89.474 13.3515 96.694C1.4402 103.914 1.4114 115.623 13.3515 122.843C25.2916 130.063 44.6421 130.07 56.5606 122.843C68.4791 115.615 68.5007 103.921 56.5606 96.694Z" fill="#AEF2BE"/>
<path opacity="0.2" d="M56.5606 96.694C44.6205 89.474 25.2628 89.474 13.3515 96.694C1.4402 103.914 1.4114 115.623 13.3515 122.843C25.2916 130.063 44.6421 130.07 56.5606 122.843C68.4791 115.615 68.5007 103.921 56.5606 96.694Z" fill="#1F3328"/>
<path d="M49.0205 101.485C45.2397 99.4553 40.2419 98.3387 34.9416 98.3387C29.6413 98.3387 24.6434 99.4553 20.8698 101.485C16.8658 103.627 14.6621 106.577 14.6621 109.784C14.6621 112.99 16.8658 115.917 20.8698 118.082C24.6434 120.119 29.6485 121.236 34.9416 121.236C40.2347 121.236 45.2397 120.119 49.0205 118.082C53.0174 115.932 55.221 112.99 55.221 109.784C55.221 106.577 53.0174 103.627 49.0205 101.485Z" fill="#AEF2BE"/>
<path opacity="0.4" d="M49.0205 101.485C45.2397 99.4553 40.2419 98.3387 34.9416 98.3387C29.6413 98.3387 24.6434 99.4553 20.8698 101.485C16.8658 103.627 14.6621 106.577 14.6621 109.784C14.6621 112.99 16.8658 115.917 20.8698 118.082C24.6434 120.119 29.6485 121.236 34.9416 121.236C40.2347 121.236 45.2397 120.119 49.0205 118.082C53.0174 115.932 55.221 112.99 55.221 109.784C55.221 106.577 53.0174 103.627 49.0205 101.485Z" fill="#1F3328"/>
<path d="M55.8977 97.9087C50.3237 94.5363 42.8774 92.6729 34.9413 92.6729C27.0052 92.6729 19.566 94.5363 13.9921 97.9087C8.64855 101.138 5.70312 105.347 5.70312 109.776C5.70312 114.204 8.64855 118.407 13.9921 121.643C19.566 125.008 27.0052 126.864 34.9413 126.864C42.8774 126.864 50.3237 125.008 55.8977 121.643C61.234 118.407 64.1866 114.189 64.1866 109.776C64.1866 105.362 61.234 101.13 55.8977 97.9087ZM49.0202 118.06C45.2394 120.097 40.2416 121.213 34.9413 121.213C29.641 121.213 24.6431 120.097 20.8695 118.06C16.8655 115.91 14.6618 112.967 14.6618 109.761C14.6618 106.555 16.8655 103.612 20.8695 101.462C24.6431 99.4326 29.6482 98.316 34.9413 98.316C40.2344 98.316 45.2394 99.4326 49.0202 101.462C53.0171 103.605 55.2207 106.555 55.2207 109.761C55.2207 112.967 53.0171 115.91 49.0202 118.06Z" fill="#AEF2BE"/>
<path opacity="0.3" d="M55.8977 97.9087C50.3237 94.5363 42.8774 92.6729 34.9413 92.6729C27.0052 92.6729 19.566 94.5363 13.9921 97.9087C8.64855 101.138 5.70312 105.347 5.70312 109.776C5.70312 114.204 8.64855 118.407 13.9921 121.643C19.566 125.008 27.0052 126.864 34.9413 126.864C42.8774 126.864 50.3237 125.008 55.8977 121.643C61.234 118.407 64.1866 114.189 64.1866 109.776C64.1866 105.362 61.234 101.13 55.8977 97.9087ZM49.0202 118.06C45.2394 120.097 40.2416 121.213 34.9413 121.213C29.641 121.213 24.6431 120.097 20.8695 118.06C16.8655 115.91 14.6618 112.967 14.6618 109.761C14.6618 106.555 16.8655 103.612 20.8695 101.462C24.6431 99.4326 29.6482 98.316 34.9413 98.316C40.2344 98.316 45.2394 99.4326 49.0202 101.462C53.0171 103.605 55.2207 106.555 55.2207 109.761C55.2207 112.967 53.0171 115.91 49.0202 118.06Z" fill="white"/>
<path opacity="0.2" d="M48.5385 117.079C56.0496 113.043 56.0496 106.517 48.5385 102.458C41.0273 98.3991 28.8567 98.4217 21.3455 102.458C13.8343 106.494 13.8415 113.02 21.3455 117.079C28.8495 121.138 41.0345 121.115 48.5385 117.079Z" fill="#1F3328"/>
<path d="M48.5385 117.079C56.0496 113.043 56.0496 106.517 48.5385 102.458C41.0273 98.3991 28.8567 98.4217 21.3455 102.458C13.8343 106.494 13.8415 113.02 21.3455 117.079C28.8495 121.138 41.0345 121.115 48.5385 117.079Z" fill="#AEF2BE"/>
<path opacity="0.45" d="M48.5385 117.079C56.0496 113.043 56.0496 106.517 48.5385 102.458C41.0273 98.3991 28.8567 98.4217 21.3455 102.458C13.8343 106.494 13.8415 113.02 21.3455 117.079C28.8495 121.138 41.0345 121.115 48.5385 117.079Z" fill="#1F3328"/>
<path d="M48.5384 105.197C41.0272 101.16 28.8567 101.16 21.3455 105.197C18.2416 106.871 16.4268 108.969 15.8867 111.141C16.4268 113.314 18.2416 115.412 21.3455 117.079C28.8567 121.115 41.0344 121.115 48.5384 117.079C51.6422 115.412 53.4642 113.307 53.9971 111.141C53.4642 108.969 51.6422 106.871 48.5384 105.197Z" fill="#AEF2BE"/>
<path opacity="0.3" d="M48.5384 105.197C41.0272 101.16 28.8567 101.16 21.3455 105.197C18.2416 106.871 16.4268 108.969 15.8867 111.141C16.4268 113.314 18.2416 115.412 21.3455 117.079C28.8567 121.115 41.0344 121.115 48.5384 117.079C51.6422 115.412 53.4642 113.307 53.9971 111.141C53.4642 108.969 51.6422 106.871 48.5384 105.197Z" fill="#1F3328"/>
<path d="M36.7633 102.616V105.574L35.8055 106.638L34.0195 108.592V105.513L36.7633 102.616Z" fill="#AEF2BE"/>
<path opacity="0.3" d="M36.7633 102.616V105.574L35.8055 106.638L34.0195 108.592V105.513L36.7633 102.616Z" fill="#1F3328"/>
<path d="M34.0202 105.513V107.256C33.1331 107.613 32.2173 107.886 31.2837 108.071C30.896 108.141 30.4987 108.126 30.117 108.026C29.9217 107.968 29.7333 107.887 29.5553 107.784C28.8783 107.362 28.7703 106.728 30.0594 105.951C30.6433 105.565 31.3043 105.324 31.9911 105.248C32.6779 105.172 33.3722 105.263 34.0202 105.513Z" fill="#AEF2BE"/>
<path opacity="0.45" d="M34.0202 105.513V107.256C33.1331 107.613 32.2173 107.886 31.2837 108.071C30.896 108.141 30.4987 108.126 30.117 108.026C29.9217 107.968 29.7333 107.887 29.5553 107.784C28.8783 107.362 28.7703 106.728 30.0594 105.951C30.6433 105.565 31.3043 105.324 31.9911 105.248C32.6779 105.172 33.3722 105.263 34.0202 105.513Z" fill="#1F3328"/>
<path d="M46.7806 113.903V116.453L43.6984 118.316L41.4227 116.973C38.6494 118.3 35.49 118.436 32.6225 117.351V114.8L34.0628 113.344L32.6225 113.744C31.4811 114.09 30.2856 114.195 29.1052 114.054C27.9248 113.913 26.7827 113.528 25.745 112.922C24.3623 112.085 23.7214 111.172 23.7214 110.229V107.747L23.9734 106.668L23.1309 106.155V103.597L25.4137 104.985C24.2975 105.883 23.707 106.819 23.7214 107.724C23.7214 108.644 24.3983 109.535 25.745 110.349C28.748 112.168 31.7151 111.564 34.4372 110.651C36.9722 109.783 38.8158 108.773 40.2705 109.648C41.1779 110.198 40.9042 110.87 39.8888 111.481C39.2325 111.858 38.5042 112.078 37.7568 112.124C37.0094 112.169 36.2616 112.04 35.5679 111.745L32.6873 114.763C33.2108 114.974 33.7504 115.138 34.3004 115.253C36.7326 115.735 39.2477 115.419 41.5019 114.348L43.7776 115.728L46.7806 113.903Z" fill="#AEF2BE"/>
<path opacity="0.2" d="M23.6855 107.724C23.6855 108.644 24.3625 109.535 25.7092 110.349C28.7122 112.168 31.6792 111.564 34.4014 110.651C36.9363 109.784 38.7799 108.773 40.2346 109.648C41.142 110.198 40.8684 110.87 39.853 111.481C39.1966 111.858 38.4683 112.078 37.7209 112.124C36.9735 112.169 36.2258 112.04 35.532 111.745L32.6514 114.763C33.175 114.974 33.7146 115.138 34.2646 115.253C36.6968 115.736 39.2118 115.419 41.4661 114.348L43.7418 115.729L46.824 113.865V116.415L43.7418 118.279L41.4229 116.973C38.6496 118.3 35.4902 118.436 32.6226 117.351V114.801L34.0629 113.344L32.6226 113.744C31.4812 114.09 30.2858 114.195 29.1054 114.054C27.9249 113.913 26.7829 113.528 25.7452 112.922C24.3625 112.085 23.7216 111.172 23.7216 110.229V107.747L23.9736 106.668" fill="#1F3328"/>
<path opacity="0.45" d="M23.0957 103.597V106.155L23.9383 106.668C24.2947 106.001 24.7863 105.424 25.3786 104.978L23.0957 103.597Z" fill="#1F3328"/>
<path d="M46.3058 112.235C46.3104 112.652 46.2344 113.065 46.0825 113.45L44.5342 112.522C45.0008 112.301 45.4061 111.959 45.7122 111.529C46.0183 111.099 46.2151 110.594 46.2841 110.063C46.2625 110.764 46.3058 112.168 46.3058 112.235Z" fill="#AEF2BE"/>
<g opacity="0.3">
<path d="M46.3058 112.235C46.3104 112.652 46.2344 113.065 46.0825 113.45L44.5342 112.522C45.0008 112.301 45.4061 111.959 45.7122 111.529C46.0183 111.099 46.2151 110.594 46.2841 110.063C46.2625 110.764 46.3058 112.168 46.3058 112.235Z" fill="#1F3328"/>
</g>
<path d="M46.3062 113.593L44.5058 112.522C45.0337 112.28 45.4839 111.883 45.8031 111.38C46.1222 110.878 46.2968 110.289 46.3062 109.685C46.3062 109.595 46.3062 109.519 46.3062 109.436C46.227 108.554 45.586 107.701 44.333 106.932C43.0833 106.185 41.6667 105.8 40.2281 105.815H39.8248H39.4575H39.1407H39.0111H38.7662C38.093 105.916 37.4266 106.062 36.7714 106.253C36.4545 106.336 36.1448 106.434 35.8352 106.539L34.5461 106.977L34.0564 107.158C33.1725 107.517 32.2588 107.79 31.327 107.973C30.9341 108.041 30.5319 108.023 30.146 107.92C29.9556 107.864 29.7719 107.786 29.5987 107.686C28.8785 107.264 28.7993 106.638 30.0956 105.853C30.6797 105.467 31.3406 105.227 32.0274 105.151C32.7141 105.075 33.4083 105.166 34.0564 105.415L36.7642 102.639C34.0415 101.742 31.1004 101.914 28.4896 103.122L26.2068 101.741L23.0957 103.627L25.3786 105C24.2695 105.906 23.6718 106.841 23.6862 107.747C23.6862 108.667 24.356 109.557 25.7099 110.372C28.7129 112.19 31.6871 111.594 34.4021 110.674C36.9298 109.806 38.7734 108.788 40.2353 109.67C41.1427 110.221 40.869 110.885 39.8536 111.504C39.1973 111.881 38.469 112.101 37.7216 112.146C36.9742 112.192 36.2265 112.063 35.5327 111.768L32.6521 114.785C34.0602 115.352 35.5684 115.594 37.0738 115.495C38.5946 115.394 40.0866 115.014 41.4812 114.37L43.7641 115.751L46.8463 113.888L46.3062 113.593Z" fill="#AEF2BE"/>
<g opacity="0.3">
<path d="M46.3062 113.593L44.5058 112.522C45.0337 112.28 45.4839 111.883 45.8031 111.38C46.1222 110.878 46.2968 110.289 46.3062 109.685C46.3062 109.595 46.3062 109.519 46.3062 109.436C46.227 108.554 45.586 107.701 44.333 106.932C43.0833 106.185 41.6667 105.8 40.2281 105.815H39.8248H39.4575H39.1407H39.0111H38.7662C38.093 105.916 37.4266 106.062 36.7714 106.253C36.4545 106.336 36.1448 106.434 35.8352 106.539L34.5461 106.977L34.0564 107.158C33.1725 107.517 32.2588 107.79 31.327 107.973C30.9341 108.041 30.5319 108.023 30.146 107.92C29.9556 107.864 29.7719 107.786 29.5987 107.686C28.8785 107.264 28.7993 106.638 30.0956 105.853C30.6797 105.467 31.3406 105.227 32.0274 105.151C32.7141 105.075 33.4083 105.166 34.0564 105.415L36.7642 102.639C34.0415 101.742 31.1004 101.914 28.4896 103.122L26.2068 101.741L23.0957 103.627L25.3786 105C24.2695 105.906 23.6718 106.841 23.6862 107.747C23.6862 108.667 24.356 109.557 25.7099 110.372C28.7129 112.19 31.6871 111.594 34.4021 110.674C36.9298 109.806 38.7734 108.788 40.2353 109.67C41.1427 110.221 40.869 110.885 39.8536 111.504C39.1973 111.881 38.469 112.101 37.7216 112.146C36.9742 112.192 36.2265 112.063 35.5327 111.768L32.6521 114.785C34.0602 115.352 35.5684 115.594 37.0738 115.495C38.5946 115.394 40.0866 115.014 41.4812 114.37L43.7641 115.751L46.8463 113.888L46.3062 113.593Z" fill="white"/>
</g>
<path d="M41.416 114.386V116.936L43.6989 118.316V115.766L41.416 114.386Z" fill="#AEF2BE"/>
<path opacity="0.45" d="M41.416 114.386V116.936L43.6989 118.316V115.766L41.416 114.386Z" fill="#1F3328"/>
<path opacity="0.5" d="M23.0957 103.605L26.2068 101.726L28.4896 103.099L26.2284 102.103L23.0957 103.605Z" fill="#F5F5F5"/>
<path opacity="0.5" d="M30.0596 105.951C30.6437 105.565 31.3046 105.325 31.9914 105.249C32.6781 105.173 33.3723 105.264 34.0204 105.513L36.7642 102.639L34.0204 105.242C33.3569 104.999 32.6454 104.936 31.9525 105.06C31.2597 105.185 30.6084 105.491 30.0596 105.951Z" fill="#F5F5F5"/>
<path opacity="0.5" d="M32.623 114.801C34.0312 115.367 35.5393 115.609 37.0448 115.51C35.6841 115.521 34.3358 115.238 33.0839 114.68L35.5037 111.768L32.623 114.801Z" fill="#F5F5F5"/>
<path opacity="0.5" d="M41.416 114.386L43.6989 115.464L46.7811 113.903L43.6989 115.766L41.416 114.386Z" fill="#F5F5F5"/>
<path opacity="0.5" d="M14.2297 98.3387C22.3242 93.1859 34.9413 92.6729 34.9413 92.6729C27.0196 92.6729 19.566 94.5363 13.9921 97.9087C8.64855 101.138 5.70312 105.347 5.70312 109.776C5.70312 109.776 5.97678 103.574 14.2297 98.3387Z" fill="#F5F5F5"/>
<path opacity="0.5" d="M32.623 128.207C41.2145 128.607 50.0291 126.819 56.5969 122.843C63.4311 118.716 66.3477 113.111 65.3611 107.754C65.3611 107.754 66.6358 116.536 56.0784 122.549C45.521 128.561 32.623 128.207 32.623 128.207Z" fill="#F5F5F5"/>
<path d="M60.8673 100.813C59.0491 97.8406 56.5353 95.4046 53.565 93.7366C41.6321 86.5167 22.2744 86.5167 10.3559 93.7366C7.38709 95.4068 4.87381 97.8424 3.05356 100.813H1.38281V107.354C1.59886 111.881 4.57308 116.407 10.3127 119.885C22.2528 127.113 41.6105 127.113 53.5218 119.885C59.283 116.415 62.2572 111.903 62.4805 107.354V100.813H60.8673Z" fill="#AEF2BE"/>
<g opacity="0.25">
<path d="M60.8673 100.813C59.0491 97.8406 56.5353 95.4046 53.565 93.7366C41.6321 86.5167 22.2744 86.5167 10.3559 93.7366C7.38709 95.4068 4.87381 97.8424 3.05356 100.813H1.38281V107.354C1.59886 111.881 4.57308 116.407 10.3127 119.885C22.2528 127.113 41.6105 127.113 53.5218 119.885C59.283 116.415 62.2572 111.903 62.4805 107.354V100.813H60.8673Z" fill="#1F3328"/>
</g>
<path opacity="0.1" d="M31.9532 88.3047C24.1324 88.3047 16.3044 90.1078 10.3487 93.7141C7.37989 95.3842 4.86661 97.8198 3.04636 100.791H1.38281V107.332C1.59886 111.858 4.57308 116.385 10.3127 119.863C16.2827 123.477 24.1108 125.28 31.9172 125.28L31.9532 88.3047Z" fill="#1F3328"/>
<path opacity="0.1" d="M15.2529 91.3225C13.5556 91.9911 11.911 92.7983 10.3343 93.7367C7.36548 95.4068 4.8522 97.8424 3.03196 100.813H1.38281V107.354C1.59886 111.881 4.57308 116.408 10.3127 119.885C11.8864 120.83 13.5315 121.637 15.2313 122.3L15.2529 91.3225Z" fill="#1F3328"/>
<path opacity="0.5" d="M48.6465 91.3225C50.3444 91.9896 51.9891 92.7969 53.5651 93.7367C56.5354 95.4046 59.0492 97.8407 60.8675 100.813H62.5238V107.354C62.3006 111.881 59.3119 116.408 53.5651 119.885C51.9921 120.831 50.3469 121.639 48.6465 122.3V91.3225Z" fill="#AEF2BE"/>
<path d="M53.5653 87.7464C41.6323 80.5189 22.2747 80.5189 10.3562 87.7464C-1.56234 94.9739 -1.58395 106.668 10.3562 113.895C22.2963 121.123 41.654 121.115 53.5653 113.895C65.4766 106.675 65.5054 94.9664 53.5653 87.7464Z" fill="#AEF2BE"/>
<path opacity="0.2" d="M53.5653 87.7464C41.6323 80.5189 22.2747 80.5189 10.3562 87.7464C-1.56234 94.9739 -1.58395 106.668 10.3562 113.895C22.2963 121.123 41.654 121.115 53.5653 113.895C65.4766 106.675 65.5054 94.9664 53.5653 87.7464Z" fill="#1F3328"/>
<path d="M46.0323 92.5295C42.2515 90.5001 37.2536 89.3835 31.9533 89.3835C26.653 89.3835 21.6551 90.5001 17.8743 92.5295C13.8775 94.6797 11.6738 97.622 11.6738 100.828C11.6738 104.035 13.8775 106.962 17.8743 109.127C21.6551 111.164 26.653 112.281 31.9533 112.281C37.2536 112.281 42.2515 111.164 46.0323 109.127C50.0291 106.977 52.2328 104.035 52.2328 100.828C52.2328 97.622 50.0291 94.6797 46.0323 92.5295Z" fill="#AEF2BE"/>
<path opacity="0.4" d="M46.0323 92.5295C42.2515 90.5001 37.2536 89.3835 31.9533 89.3835C26.653 89.3835 21.6551 90.5001 17.8743 92.5295C13.8775 94.6797 11.6738 97.622 11.6738 100.828C11.6738 104.035 13.8775 106.962 17.8743 109.127C21.6551 111.164 26.653 112.281 31.9533 112.281C37.2536 112.281 42.2515 111.164 46.0323 109.127C50.0291 106.977 52.2328 104.035 52.2328 100.828C52.2328 97.622 50.0291 94.6797 46.0323 92.5295Z" fill="#1F3328"/>
<path d="M52.9025 88.9535C47.3285 85.5811 39.8893 83.7177 31.9532 83.7177C24.0172 83.7177 16.578 85.5811 11.0184 88.9535C5.66771 92.1825 2.72949 96.3922 2.72949 100.821C2.72949 105.249 5.65331 109.429 11.0184 112.688C16.5924 116.053 24.0316 117.916 31.9676 117.916C39.9037 117.916 47.3429 116.053 52.9169 112.688C58.2604 109.452 61.2058 105.234 61.2058 100.821C61.2058 96.4073 58.246 92.1825 52.9025 88.9535ZM46.0322 109.105C42.2514 111.141 37.2536 112.258 31.9532 112.258C26.6529 112.258 21.6551 111.141 17.8743 109.105C13.8774 106.954 11.6738 104.012 11.6738 100.806C11.6738 97.5993 13.8774 94.6646 17.8743 92.5069C21.6551 90.4774 26.6529 89.3609 31.9532 89.3609C37.2536 89.3609 42.2514 90.4774 46.0322 92.5069C50.0291 94.657 52.2327 97.5993 52.2327 100.806C52.2327 104.012 50.0291 106.954 46.0322 109.105Z" fill="#AEF2BE"/>
<path opacity="0.3" d="M52.9025 88.9535C47.3285 85.5811 39.8893 83.7177 31.9532 83.7177C24.0172 83.7177 16.578 85.5811 11.0184 88.9535C5.66771 92.1825 2.72949 96.3922 2.72949 100.821C2.72949 105.249 5.65331 109.429 11.0184 112.688C16.5924 116.053 24.0316 117.916 31.9676 117.916C39.9037 117.916 47.3429 116.053 52.9169 112.688C58.2604 109.452 61.2058 105.234 61.2058 100.821C61.2058 96.4073 58.246 92.1825 52.9025 88.9535ZM46.0322 109.105C42.2514 111.141 37.2536 112.258 31.9532 112.258C26.6529 112.258 21.6551 111.141 17.8743 109.105C13.8774 106.954 11.6738 104.012 11.6738 100.806C11.6738 97.5993 13.8774 94.6646 17.8743 92.5069C21.6551 90.4774 26.6529 89.3609 31.9532 89.3609C37.2536 89.3609 42.2514 90.4774 46.0322 92.5069C50.0291 94.657 52.2327 97.5993 52.2327 100.806C52.2327 104.012 50.0291 106.954 46.0322 109.105Z" fill="white"/>
<path opacity="0.2" d="M45.5861 108.124C53.0901 104.088 53.0901 97.5617 45.5861 93.5103C38.0821 89.459 25.9043 89.4665 18.3932 93.5103C10.882 97.5541 10.882 104.072 18.3932 108.124C25.9043 112.175 38.0389 112.16 45.5861 108.124Z" fill="#1F3328"/>
<path d="M45.5861 108.124C53.0901 104.088 53.0901 97.5617 45.5861 93.5103C38.0821 89.459 25.9043 89.4665 18.3932 93.5103C10.882 97.5541 10.882 104.072 18.3932 108.124C25.9043 112.175 38.0389 112.16 45.5861 108.124Z" fill="#AEF2BE"/>
<path opacity="0.45" d="M45.5861 108.124C53.0901 104.088 53.0901 97.5617 45.5861 93.5103C38.0821 89.459 25.9043 89.4665 18.3932 93.5103C10.882 97.5541 10.882 104.072 18.3932 108.124C25.9043 112.175 38.0389 112.16 45.5861 108.124Z" fill="#1F3328"/>
<path d="M45.5853 96.249C38.0741 92.2052 25.9035 92.2052 18.3923 96.249C15.2885 97.9163 13.4665 100.021 12.9336 102.186C13.4665 104.359 15.2885 106.456 18.3923 108.124C25.9035 112.16 38.0741 112.16 45.5853 108.124C48.6891 106.456 50.5039 104.352 51.044 102.186C50.4679 100.014 48.6531 97.9163 45.5853 96.249Z" fill="#AEF2BE"/>
<path opacity="0.3" d="M45.5853 96.249C38.0741 92.2052 25.9035 92.2052 18.3923 96.249C15.2885 97.9163 13.4665 100.021 12.9336 102.186C13.4665 104.359 15.2885 106.456 18.3923 108.124C25.9035 112.16 38.0741 112.16 45.5853 108.124C48.6891 106.456 50.5039 104.352 51.044 102.186C50.4679 100.014 48.6531 97.9163 45.5853 96.249Z" fill="#1F3328"/>
<path d="M33.775 93.6687V96.6185L32.81 97.6823L31.0312 99.6363V96.5582L33.775 93.6687Z" fill="#AEF2BE"/>
<path opacity="0.3" d="M33.775 93.6687V96.6185L32.81 97.6823L31.0312 99.6363V96.5582L33.775 93.6687Z" fill="#1F3328"/>
<path d="M31.0316 96.5582V98.3009C30.1441 98.6567 29.2284 98.9294 28.295 99.1157C27.9049 99.1853 27.5053 99.1699 27.1211 99.0705C26.9282 99.0122 26.7421 98.9312 26.5666 98.8291C25.8465 98.4066 25.7744 97.7728 27.0707 96.9958C27.6546 96.6094 28.3156 96.3689 29.0024 96.293C29.6893 96.2172 30.3836 96.3079 31.0316 96.5582Z" fill="#AEF2BE"/>
<path opacity="0.45" d="M31.0316 96.5582V98.3009C30.1441 98.6567 29.2284 98.9294 28.295 99.1157C27.9049 99.1853 27.5053 99.1699 27.1211 99.0705C26.9282 99.0122 26.7421 98.9312 26.5666 98.8291C25.8465 98.4066 25.7744 97.7728 27.0707 96.9958C27.6546 96.6094 28.3156 96.3689 29.0024 96.293C29.6893 96.2172 30.3836 96.3079 31.0316 96.5582Z" fill="#1F3328"/>
<path d="M43.7922 104.948V107.498L40.71 109.361L38.4271 107.98C35.6509 109.33 32.4785 109.479 29.598 108.395V105.845L30.9951 104.389L29.598 104.789C28.4567 105.135 27.2612 105.24 26.0808 105.099C24.9004 104.958 23.7583 104.573 22.7206 103.967C21.3379 103.137 20.697 102.216 20.697 101.281V98.7989L20.949 97.7125L20.1064 97.1995V94.6495L22.3893 96.0301C21.2731 96.9354 20.6826 97.8634 20.697 98.7687C20.697 99.6816 21.3667 100.572 22.7206 101.387C25.7164 103.205 28.6907 102.601 31.4128 101.688C33.9406 100.821 35.7841 99.8098 37.2461 100.693C38.1534 101.236 37.8726 101.907 36.8572 102.518C36.2009 102.896 35.4725 103.115 34.7251 103.161C33.9777 103.207 33.23 103.077 32.5363 102.782L29.6557 105.8C30.1771 106.01 30.7142 106.174 31.2616 106.29C33.6938 106.774 36.2091 106.458 38.4631 105.385L40.746 106.766L43.7922 104.948Z" fill="#AEF2BE"/>
<path opacity="0.2" d="M20.6973 98.7687C20.6973 99.6816 21.367 100.572 22.7209 101.387C25.7167 103.205 28.6909 102.601 31.4131 101.688C33.9409 100.821 35.7844 99.8098 37.2463 100.693C38.1537 101.236 37.8729 101.907 36.8575 102.518C36.2012 102.896 35.4728 103.115 34.7254 103.161C33.978 103.206 33.2303 103.077 32.5366 102.782L29.656 105.8C30.1774 106.01 30.7145 106.174 31.2619 106.29C33.6941 106.774 36.2094 106.458 38.4634 105.385L40.7463 106.766L43.8285 104.902V107.452L40.7463 109.316L38.4634 107.935C35.6872 109.285 32.5148 109.434 29.6343 108.35V105.8L31.0314 104.344L29.6343 104.744C28.493 105.089 27.2975 105.195 26.1171 105.054C24.9367 104.912 23.7946 104.528 22.7569 103.922C21.3742 103.092 20.7333 102.171 20.7333 101.236V98.7536L20.9853 97.6672" fill="#1F3328"/>
<path opacity="0.45" d="M20.1064 94.6495V97.1995L20.949 97.7125C21.3027 97.0436 21.7948 96.4662 22.3893 96.0226L20.1064 94.6495Z" fill="#1F3328"/>
<path d="M43.2813 103.28C43.2874 103.698 43.2089 104.112 43.0509 104.495L41.5098 103.567C41.9736 103.348 42.3771 103.01 42.683 102.584C42.9889 102.158 43.1872 101.658 43.2597 101.13C43.2669 101.809 43.2813 103.212 43.2813 103.28Z" fill="#AEF2BE"/>
<g opacity="0.3">
<path d="M43.2813 103.28C43.2874 103.698 43.2089 104.112 43.0509 104.495L41.5098 103.567C41.9736 103.348 42.3771 103.01 42.683 102.584C42.9889 102.158 43.1872 101.658 43.2597 101.13C43.2669 101.809 43.2813 103.212 43.2813 103.28Z" fill="#1F3328"/>
</g>
<path d="M43.2737 104.638L41.5093 103.567C42.0305 103.319 42.4732 102.92 42.7857 102.418C43.0982 101.915 43.2675 101.33 43.2737 100.73C43.2737 100.64 43.2737 100.564 43.2737 100.481C43.2017 99.6062 42.5536 98.7461 41.3005 97.9766C40.0538 97.2291 38.6392 96.8437 37.2028 96.86H36.7996H36.4323H36.1082H35.9786C35.8961 96.8652 35.8142 96.8778 35.7337 96.8978C35.0603 96.9938 34.3938 97.1374 33.7389 97.3278C33.4293 97.4108 33.1124 97.5088 32.8099 97.6145C32.3634 97.7578 31.9313 97.9087 31.5209 98.052L31.0311 98.2331C30.1452 98.5934 29.229 98.8662 28.2946 99.0479C27.9043 99.1141 27.5053 99.0987 27.1207 99.0026C26.9289 98.9411 26.7432 98.8603 26.5662 98.7612C25.8461 98.3463 25.774 97.7125 27.0631 96.9279C27.6483 96.5414 28.3105 96.3009 28.9985 96.2251C29.6865 96.1492 30.3819 96.24 31.0311 96.4904L33.7749 93.5933C31.0519 92.6999 28.1119 92.8714 25.5004 94.0761L23.2175 92.7031L20.1064 94.5816L22.3893 95.9547C21.2731 96.86 20.6754 97.7955 20.6898 98.7009C20.6898 99.6213 21.3667 100.512 22.7206 101.326C25.7236 103.144 28.6907 102.548 31.4128 101.628C33.9406 100.76 35.7841 99.742 37.2389 100.625C38.1534 101.175 37.8726 101.839 36.8572 102.458C36.2009 102.835 35.4725 103.055 34.7251 103.101C33.9777 103.146 33.23 103.017 32.5363 102.722L29.6124 105.74C30.1376 105.948 30.6768 106.114 31.2256 106.238C32.1508 106.441 33.098 106.512 34.0414 106.449C35.5621 106.348 37.0541 105.968 38.4487 105.325L40.7316 106.705L43.8066 104.842L43.2737 104.638Z" fill="#AEF2BE"/>
<g opacity="0.3">
<path d="M43.2737 104.638L41.5093 103.567C42.0305 103.319 42.4732 102.92 42.7857 102.418C43.0982 101.915 43.2675 101.33 43.2737 100.73C43.2737 100.64 43.2737 100.564 43.2737 100.481C43.2017 99.6062 42.5536 98.7461 41.3005 97.9766C40.0538 97.2291 38.6392 96.8437 37.2028 96.86H36.7996H36.4323H36.1082H35.9786C35.8961 96.8652 35.8142 96.8778 35.7337 96.8978C35.0603 96.9938 34.3938 97.1374 33.7389 97.3278C33.4293 97.4108 33.1124 97.5088 32.8099 97.6145C32.3634 97.7578 31.9313 97.9087 31.5209 98.052L31.0311 98.2331C30.1452 98.5934 29.229 98.8662 28.2946 99.0479C27.9043 99.1141 27.5053 99.0987 27.1207 99.0026C26.9289 98.9411 26.7432 98.8603 26.5662 98.7612C25.8461 98.3463 25.774 97.7125 27.0631 96.9279C27.6483 96.5414 28.3105 96.3009 28.9985 96.2251C29.6865 96.1492 30.3819 96.24 31.0311 96.4904L33.7749 93.5933C31.0519 92.6999 28.1119 92.8714 25.5004 94.0761L23.2175 92.7031L20.1064 94.5816L22.3893 95.9547C21.2731 96.86 20.6754 97.7955 20.6898 98.7009C20.6898 99.6213 21.3667 100.512 22.7206 101.326C25.7236 103.144 28.6907 102.548 31.4128 101.628C33.9406 100.76 35.7841 99.742 37.2389 100.625C38.1534 101.175 37.8726 101.839 36.8572 102.458C36.2009 102.835 35.4725 103.055 34.7251 103.101C33.9777 103.146 33.23 103.017 32.5363 102.722L29.6124 105.74C30.1376 105.948 30.6768 106.114 31.2256 106.238C32.1508 106.441 33.098 106.512 34.0414 106.449C35.5621 106.348 37.0541 105.968 38.4487 105.325L40.7316 106.705L43.8066 104.842L43.2737 104.638Z" fill="white"/>
</g>
<path d="M38.4277 105.43V107.98L40.7106 109.361V106.811L38.4277 105.43Z" fill="#AEF2BE"/>
<path opacity="0.45" d="M38.4277 105.43V107.98L40.7106 109.361V106.811L38.4277 105.43Z" fill="#1F3328"/>
<path opacity="0.5" d="M20.1064 94.6495L23.2175 92.7709L25.5004 94.144L23.2319 93.1557L20.1064 94.6495Z" fill="#F5F5F5"/>
<path opacity="0.5" d="M27.0635 96.9958C27.6487 96.6093 28.3109 96.3688 28.9989 96.293C29.6869 96.2171 30.3823 96.3079 31.0315 96.5583L33.7753 93.6612L31.0315 96.264C30.3651 96.0241 29.6514 95.9655 28.9573 96.0935C28.2633 96.2214 27.6117 96.5319 27.0635 96.9958Z" fill="#F5F5F5"/>
<path opacity="0.5" d="M29.5908 105.845C30.116 106.053 30.6552 106.22 31.204 106.343C32.1292 106.546 33.0764 106.617 34.0198 106.555C32.6567 106.566 31.3061 106.283 30.0517 105.725L32.5146 102.813L29.5908 105.845Z" fill="#F5F5F5"/>
<path opacity="0.5" d="M38.4277 105.43L40.7106 106.509L43.7857 104.948L40.7106 106.811L38.4277 105.43Z" fill="#F5F5F5"/>
<path opacity="0.5" d="M11.2342 89.3835C19.3287 84.2307 31.953 83.7177 31.953 83.7177C24.0313 83.7177 16.5778 85.5811 11.0038 88.9535C5.65306 92.1825 2.71484 96.3922 2.71484 100.821C2.71484 100.821 3.0029 94.6193 11.2342 89.3835Z" fill="#F5F5F5"/>
<path opacity="0.5" d="M29.5908 119.237C38.1822 119.636 46.9969 117.848 53.5647 113.88C60.3989 109.746 63.3227 104.14 62.3361 98.7537C62.3361 98.7537 63.6108 107.535 53.0534 113.548C42.4959 119.561 29.5908 119.237 29.5908 119.237Z" fill="#F5F5F5"/>
<path d="M112.337 169.837C110.523 166.861 108.008 164.424 105.035 162.76C93.1017 155.54 73.744 155.54 61.8255 162.76C58.8537 164.426 56.3395 166.862 54.5232 169.837H52.874V176.378C53.0901 180.904 56.0643 185.431 61.8039 188.909C73.744 196.129 93.1017 196.129 105.013 188.909C110.774 185.439 113.748 180.927 113.972 176.378V169.837H112.337Z" fill="#AEF2BE"/>
<g opacity="0.25">
<path d="M112.337 169.837C110.523 166.861 108.008 164.424 105.035 162.76C93.1017 155.54 73.744 155.54 61.8255 162.76C58.8537 164.426 56.3395 166.862 54.5232 169.837H52.874V176.378C53.0901 180.904 56.0643 185.431 61.8039 188.909C73.744 196.129 93.1017 196.129 105.013 188.909C110.774 185.439 113.748 180.927 113.972 176.378V169.837H112.337Z" fill="#1F3328"/>
</g>
<path opacity="0.1" d="M83.4222 157.343C75.6014 157.343 67.7733 159.146 61.8177 162.76C58.8459 164.426 56.3317 166.862 54.5154 169.837H52.8662V176.378C53.0823 180.904 56.0565 185.431 61.7961 188.909C67.7661 192.523 75.5942 194.326 83.4006 194.326L83.4222 157.343Z" fill="#1F3328"/>
<path opacity="0.1" d="M66.7217 160.346C65.0231 161.011 63.3782 161.819 61.803 162.76C58.8312 164.426 56.317 166.862 54.5007 169.837H52.8516V176.378C53.0676 180.904 56.0418 185.431 61.7814 188.909C63.3551 189.853 65.0002 190.661 66.7001 191.323L66.7217 160.346Z" fill="#1F3328"/>
<path opacity="0.5" d="M100.115 160.346C101.814 161.01 103.459 161.817 105.034 162.76C108.007 164.424 110.522 166.861 112.336 169.837H114V176.378C113.777 180.904 110.788 185.431 105.041 188.909C103.468 189.855 101.823 190.662 100.122 191.323L100.115 160.346Z" fill="#AEF2BE"/>
<path d="M105.034 156.762C93.1011 149.542 73.7434 149.542 61.8249 156.762C49.9064 163.982 49.8848 175.691 61.8249 182.911C73.765 190.131 93.1227 190.131 105.034 182.911C116.945 175.691 116.974 163.982 105.034 156.762Z" fill="#AEF2BE"/>
<path opacity="0.2" d="M105.034 156.762C93.1011 149.542 73.7434 149.542 61.8249 156.762C49.9064 163.982 49.8848 175.691 61.8249 182.911C73.765 190.131 93.1227 190.131 105.034 182.911C116.945 175.691 116.974 163.982 105.034 156.762Z" fill="#1F3328"/>
<path d="M97.501 161.545C93.713 159.524 88.7224 158.399 83.422 158.399C78.1217 158.399 73.1239 159.524 69.3431 161.545C65.3462 163.696 63.1426 166.645 63.1426 169.844C63.1426 173.043 65.3462 175.985 69.3431 178.143C73.1239 180.173 78.1217 181.297 83.422 181.297C88.7224 181.297 93.713 180.173 97.501 178.143C101.498 175.993 103.702 173.051 103.702 169.844C103.702 166.638 101.498 163.696 97.501 161.545Z" fill="#AEF2BE"/>
<path opacity="0.4" d="M97.501 161.545C93.713 159.524 88.7224 158.399 83.422 158.399C78.1217 158.399 73.1239 159.524 69.3431 161.545C65.3462 163.696 63.1426 166.645 63.1426 169.844C63.1426 173.043 65.3462 175.985 69.3431 178.143C73.1239 180.173 78.1217 181.297 83.422 181.297C88.7224 181.297 93.713 180.173 97.501 178.143C101.498 175.993 103.702 173.051 103.702 169.844C103.702 166.638 101.498 163.696 97.501 161.545Z" fill="#1F3328"/>
<path d="M104.372 157.969C98.798 154.597 91.3588 152.741 83.4227 152.741C75.4866 152.741 68.0475 154.597 62.4735 157.969C57.1228 161.206 54.1846 165.416 54.1846 169.837C54.1846 174.258 57.1228 178.475 62.4735 181.712C68.0475 185.076 75.4866 186.932 83.4227 186.932C91.3588 186.932 98.798 185.076 104.372 181.712C109.715 178.475 112.661 174.258 112.661 169.837C112.661 165.416 109.715 161.206 104.372 157.969ZM97.5017 178.128C93.7137 180.157 88.723 181.282 83.4227 181.282C78.1224 181.282 73.1246 180.157 69.3438 178.128C65.3469 175.978 63.1433 173.036 63.1433 169.829C63.1433 166.623 65.3469 163.688 69.3438 161.53C73.1246 159.508 78.1224 158.384 83.4227 158.384C88.723 158.384 93.7137 159.508 97.5017 161.53C101.499 163.681 103.702 166.63 103.702 169.829C103.702 173.028 101.499 175.978 97.5017 178.128Z" fill="#AEF2BE"/>
<path opacity="0.3" d="M104.372 157.969C98.798 154.597 91.3588 152.741 83.4227 152.741C75.4866 152.741 68.0475 154.597 62.4735 157.969C57.1228 161.206 54.1846 165.416 54.1846 169.837C54.1846 174.258 57.1228 178.475 62.4735 181.712C68.0475 185.076 75.4866 186.932 83.4227 186.932C91.3588 186.932 98.798 185.076 104.372 181.712C109.715 178.475 112.661 174.258 112.661 169.837C112.661 165.416 109.715 161.206 104.372 157.969ZM97.5017 178.128C93.7137 180.157 88.723 181.282 83.4227 181.282C78.1224 181.282 73.1246 180.157 69.3438 178.128C65.3469 175.978 63.1433 173.036 63.1433 169.829C63.1433 166.623 65.3469 163.688 69.3438 161.53C73.1246 159.508 78.1224 158.384 83.4227 158.384C88.723 158.384 93.7137 159.508 97.5017 161.53C101.499 163.681 103.702 166.63 103.702 169.829C103.702 173.028 101.499 175.978 97.5017 178.128Z" fill="white"/>
<path opacity="0.2" d="M97.0187 177.147C104.523 173.111 104.523 166.585 97.0187 162.526C89.5147 158.467 77.337 158.49 69.8258 162.526C62.3146 166.563 62.3146 173.088 69.8258 177.147C77.337 181.206 89.5147 181.184 97.0187 177.147Z" fill="#1F3328"/>
<path d="M97.0187 177.147C104.523 173.111 104.523 166.585 97.0187 162.526C89.5147 158.467 77.337 158.49 69.8258 162.526C62.3146 166.563 62.3146 173.088 69.8258 177.147C77.337 181.206 89.5147 181.184 97.0187 177.147Z" fill="#AEF2BE"/>
<path opacity="0.45" d="M97.0187 177.147C104.523 173.111 104.523 166.585 97.0187 162.526C89.5147 158.467 77.337 158.49 69.8258 162.526C62.3146 166.563 62.3146 173.088 69.8258 177.147C77.337 181.206 89.5147 181.184 97.0187 177.147Z" fill="#1F3328"/>
<path d="M97.0189 165.257C89.5077 161.221 77.3371 161.221 69.8259 165.257C66.7221 166.925 64.9001 169.03 64.3672 171.202C64.9001 173.368 66.7221 175.472 69.8259 177.14C77.3371 181.176 89.5077 181.176 97.0189 177.14C100.123 175.472 101.937 173.368 102.478 171.202C101.937 169.03 100.123 166.932 97.0189 165.257Z" fill="#AEF2BE"/>
<path opacity="0.3" d="M97.0189 165.257C89.5077 161.221 77.3371 161.221 69.8259 165.257C66.7221 166.925 64.9001 169.03 64.3672 171.202C64.9001 173.368 66.7221 175.472 69.8259 177.14C77.3371 181.176 89.5077 181.176 97.0189 177.14C100.123 175.472 101.937 173.368 102.478 171.202C101.937 169.03 100.123 166.932 97.0189 165.257Z" fill="#1F3328"/>
<path d="M85.2448 162.685V165.642L84.2798 166.706L82.501 168.652V165.582L85.2448 162.685Z" fill="#AEF2BE"/>
<path opacity="0.3" d="M85.2448 162.685V165.642L84.2798 166.706L82.501 168.652V165.582L85.2448 162.685Z" fill="#1F3328"/>
<path d="M82.5002 165.582V167.325C81.6128 167.68 80.697 167.953 79.7636 168.139C79.3731 168.202 78.9749 168.186 78.5898 168.094C78.3979 168.033 78.2122 167.952 78.0352 167.853C77.3511 167.43 77.2431 166.796 78.5394 166.019C79.1233 165.633 79.7842 165.393 80.4711 165.317C81.1579 165.241 81.8522 165.331 82.5002 165.582Z" fill="#AEF2BE"/>
<path opacity="0.45" d="M82.5002 165.582V167.325C81.6128 167.68 80.697 167.953 79.7636 168.139C79.3731 168.202 78.9749 168.186 78.5898 168.094C78.3979 168.033 78.2122 167.952 78.0352 167.853C77.3511 167.43 77.2431 166.796 78.5394 166.019C79.1233 165.633 79.7842 165.393 80.4711 165.317C81.1579 165.241 81.8522 165.331 82.5002 165.582Z" fill="#1F3328"/>
<path d="M95.2766 173.971V176.521L92.1944 178.385L89.9115 176.996C87.1371 178.353 83.9632 178.505 81.0824 177.419V174.861L82.4795 173.413L81.0824 173.813C79.941 174.158 78.7456 174.264 77.5652 174.122C76.3847 173.981 75.2427 173.596 74.205 172.99C72.8223 172.153 72.1813 171.24 72.1813 170.297V167.815L72.4334 166.729L71.5908 166.216V163.666L73.8737 165.046C72.7575 165.951 72.1669 166.887 72.1813 167.785C72.1813 168.705 72.8511 169.595 74.205 170.41C77.2008 172.228 80.175 171.625 82.8972 170.712C85.4249 169.844 87.2685 168.826 88.7304 169.709C89.6378 170.259 89.357 170.923 88.3415 171.542C87.6852 171.919 86.9569 172.139 86.2095 172.184C85.4621 172.23 84.7144 172.101 84.0206 171.806L81.14 174.824C81.6612 175.036 82.1984 175.203 82.746 175.322C85.1782 175.805 87.6935 175.489 89.9475 174.416L92.18 175.82L95.2766 173.971Z" fill="#AEF2BE"/>
<path opacity="0.2" d="M72.166 167.785C72.166 168.705 72.8358 169.595 74.1896 170.41C77.1855 172.228 80.1597 171.625 82.8819 170.712C85.4096 169.844 87.2532 168.826 88.7151 169.709C89.6225 170.259 89.3416 170.923 88.3262 171.542C87.6699 171.919 86.9416 172.139 86.1942 172.184C85.4468 172.23 84.6991 172.101 84.0053 171.806L81.1247 174.824C81.6459 175.036 82.1831 175.202 82.7306 175.322C85.1628 175.805 87.6782 175.489 89.9322 174.416L92.179 175.819L95.2613 173.956V176.506L92.179 178.369L89.8961 176.981C87.1218 178.338 83.9479 178.49 81.0671 177.404V174.846L82.4642 173.398L81.0671 173.798C79.9257 174.143 78.7303 174.248 77.5498 174.107C76.3694 173.966 75.2273 173.581 74.1896 172.975C72.8069 172.138 72.166 171.225 72.166 170.282V167.8L72.4181 166.713" fill="#1F3328"/>
<path opacity="0.45" d="M71.5762 163.666V166.216L72.4187 166.729C72.7744 166.061 73.2662 165.484 73.8591 165.039L71.5762 163.666Z" fill="#1F3328"/>
<path d="M94.7502 172.304C94.7729 172.731 94.7065 173.158 94.5558 173.556L93.0146 172.628C93.4805 172.406 93.8851 172.064 94.191 171.634C94.497 171.204 94.6942 170.7 94.7646 170.169C94.7358 170.833 94.7502 172.228 94.7502 172.304Z" fill="#AEF2BE"/>
<g opacity="0.3">
<path d="M94.7502 172.304C94.7729 172.731 94.7065 173.158 94.5558 173.556L93.0146 172.628C93.4805 172.406 93.8851 172.064 94.191 171.634C94.497 171.204 94.6942 170.7 94.7646 170.169C94.7358 170.833 94.7502 172.228 94.7502 172.304Z" fill="#1F3328"/>
</g>
<path d="M94.7437 173.662L92.9793 172.583C93.5004 172.337 93.9434 171.94 94.256 171.438C94.5687 170.937 94.7379 170.353 94.7437 169.754C94.7437 169.663 94.7437 169.588 94.7437 169.505C94.6717 168.622 94.0235 167.77 92.7705 167C91.5243 166.25 90.1098 165.862 88.6728 165.876H88.2839H87.9167H87.5926H87.463H87.2181C86.5457 165.979 85.8797 166.122 85.2233 166.306C84.9136 166.397 84.5968 166.495 84.2943 166.6C83.8478 166.744 83.4157 166.894 83.0052 167.038L82.5155 167.211C81.6307 167.577 80.7142 167.852 79.7789 168.034C79.3884 168.101 78.9888 168.083 78.6051 167.981C78.4111 167.926 78.2247 167.845 78.0506 167.739C77.3664 167.325 77.2584 166.691 78.5475 165.906C79.1333 165.521 79.7957 165.282 80.4837 165.207C81.1717 165.133 81.8669 165.225 82.5155 165.476L85.2593 162.579C82.5371 161.679 79.5947 161.85 76.9848 163.062L74.7019 161.681L71.5908 163.567L73.8737 164.941C72.7575 165.846 72.1597 166.781 72.1741 167.687C72.1741 168.607 72.8511 169.497 74.205 170.312C77.2008 172.13 80.175 171.527 82.8972 170.606C85.4249 169.746 87.2685 168.728 88.7232 169.61C89.6306 170.161 89.357 170.825 88.3415 171.444C87.6852 171.821 86.9569 172.041 86.2095 172.086C85.4621 172.132 84.7144 172.003 84.0206 171.708L81.0968 174.726C81.6221 174.931 82.1613 175.095 82.71 175.216C83.6354 175.418 84.5821 175.491 85.5258 175.435C87.0459 175.33 88.5372 174.95 89.9331 174.311L92.18 175.82L95.255 173.956L94.7437 173.662Z" fill="#AEF2BE"/>
<g opacity="0.3">
<path d="M94.7437 173.662L92.9793 172.583C93.5004 172.337 93.9434 171.94 94.256 171.438C94.5687 170.937 94.7379 170.353 94.7437 169.754C94.7437 169.663 94.7437 169.588 94.7437 169.505C94.6717 168.622 94.0235 167.77 92.7705 167C91.5243 166.25 90.1098 165.862 88.6728 165.876H88.2839H87.9167H87.5926H87.463H87.2181C86.5457 165.979 85.8797 166.122 85.2233 166.306C84.9136 166.397 84.5968 166.495 84.2943 166.6C83.8478 166.744 83.4157 166.894 83.0052 167.038L82.5155 167.211C81.6307 167.577 80.7142 167.852 79.7789 168.034C79.3884 168.101 78.9888 168.083 78.6051 167.981C78.4111 167.926 78.2247 167.845 78.0506 167.739C77.3664 167.325 77.2584 166.691 78.5475 165.906C79.1333 165.521 79.7957 165.282 80.4837 165.207C81.1717 165.133 81.8669 165.225 82.5155 165.476L85.2593 162.579C82.5371 161.679 79.5947 161.85 76.9848 163.062L74.7019 161.681L71.5908 163.567L73.8737 164.941C72.7575 165.846 72.1597 166.781 72.1741 167.687C72.1741 168.607 72.8511 169.497 74.205 170.312C77.2008 172.13 80.175 171.527 82.8972 170.606C85.4249 169.746 87.2685 168.728 88.7232 169.61C89.6306 170.161 89.357 170.825 88.3415 171.444C87.6852 171.821 86.9569 172.041 86.2095 172.086C85.4621 172.132 84.7144 172.003 84.0206 171.708L81.0968 174.726C81.6221 174.931 82.1613 175.095 82.71 175.216C83.6354 175.418 84.5821 175.491 85.5258 175.435C87.0459 175.33 88.5372 174.95 89.9331 174.311L92.18 175.82L95.255 173.956L94.7437 173.662Z" fill="white"/>
</g>
<path d="M89.8965 174.454V176.996L92.1794 178.377V175.835L89.8965 174.454Z" fill="#AEF2BE"/>
<path opacity="0.45" d="M89.8965 174.454V176.996L92.1794 178.377V175.835L89.8965 174.454Z" fill="#1F3328"/>
<path opacity="0.5" d="M71.5762 163.673L74.6872 161.787L76.9701 163.168L74.7016 162.172L71.5762 163.673Z" fill="#F5F5F5"/>
<path opacity="0.5" d="M78.5322 166.012C79.118 165.627 79.7805 165.387 80.4685 165.313C81.1565 165.238 81.8516 165.33 82.5003 165.582L85.244 162.685L82.5003 165.257C81.8319 165.021 81.1174 164.967 80.4234 165.099C79.7294 165.231 79.0787 165.545 78.5322 166.012Z" fill="#F5F5F5"/>
<path opacity="0.5" d="M81.0605 174.869C81.5858 175.074 82.125 175.238 82.6737 175.359C83.5991 175.561 84.5458 175.634 85.4895 175.578C84.1265 175.589 82.7758 175.307 81.5214 174.748L83.9844 171.836L81.0605 174.869Z" fill="#F5F5F5"/>
<path opacity="0.5" d="M89.8965 174.454L92.1794 175.533L95.2544 173.971L92.1794 175.835L89.8965 174.454Z" fill="#F5F5F5"/>
<path opacity="0.5" d="M62.704 158.399C70.7985 153.254 83.4227 152.741 83.4227 152.741C75.5011 152.741 68.0475 154.597 62.4735 157.969C57.1228 161.206 54.1846 165.416 54.1846 169.837C54.1846 169.837 54.4726 163.643 62.704 158.399Z" fill="#F5F5F5"/>
<path opacity="0.5" d="M81.0605 188.275C89.652 188.675 98.4666 186.887 105.034 182.911C111.869 178.784 114.792 173.179 113.806 167.822C113.806 167.822 115.081 176.604 104.523 182.617C93.9657 188.63 81.0605 188.275 81.0605 188.275Z" fill="#F5F5F5"/>
<path d="M110.334 160.731C108.516 157.76 106.002 155.327 103.032 153.662C91.092 146.434 71.7344 146.434 59.8231 153.662C56.8427 155.323 54.3186 157.757 52.4919 160.731H50.8428V167.279C51.066 171.806 54.033 176.332 59.7726 179.81C71.7128 187.03 91.0704 187.03 102.982 179.81C108.743 176.332 111.71 171.828 111.933 167.279V160.731H110.334Z" fill="#AEF2BE"/>
<g opacity="0.25">
<path d="M110.334 160.731C108.516 157.76 106.002 155.327 103.032 153.662C91.092 146.434 71.7344 146.434 59.8231 153.662C56.8427 155.323 54.3186 157.757 52.4919 160.731H50.8428V167.279C51.066 171.806 54.033 176.332 59.7726 179.81C71.7128 187.03 91.0704 187.03 102.982 179.81C108.743 176.332 111.71 171.828 111.933 167.279V160.731H110.334Z" fill="#1F3328"/>
</g>
<path opacity="0.1" d="M81.4132 148.275C73.5924 148.275 65.7643 150.078 59.8087 153.692C56.837 155.347 54.3184 157.77 52.4919 160.731H50.8428V167.279C51.066 171.806 54.033 176.333 59.7726 179.81C65.7427 183.417 73.5708 185.22 81.3772 185.22L81.4132 148.275Z" fill="#1F3328"/>
<path opacity="0.1" d="M64.7201 151.278C63.0179 151.94 61.3704 152.747 59.7943 153.692C56.8279 155.349 54.3144 157.772 52.4919 160.731H50.8428V167.279C51.066 171.806 54.033 176.333 59.7726 179.81C61.3505 180.749 62.9978 181.554 64.6985 182.217L64.7201 151.278Z" fill="#1F3328"/>
<path opacity="0.5" d="M98.1064 151.278C99.8086 151.94 101.456 152.747 103.032 153.692C105.999 155.349 108.512 157.772 110.335 160.731H111.984V167.279C111.761 171.806 108.772 176.333 103.032 179.81C101.454 180.749 99.8072 181.554 98.1064 182.217V151.278Z" fill="#AEF2BE"/>
<path d="M103.033 147.694C91.0924 140.474 71.7347 140.474 59.8234 147.694C47.9121 154.914 47.8905 166.623 59.8234 173.843C71.7563 181.063 91.1212 181.063 103.033 173.843C114.944 166.623 114.965 154.914 103.033 147.694Z" fill="#AEF2BE"/>
<path opacity="0.2" d="M103.033 147.694C91.0924 140.474 71.7347 140.474 59.8234 147.694C47.9121 154.914 47.8905 166.623 59.8234 173.843C71.7563 181.063 91.1212 181.063 103.033 173.843C114.944 166.623 114.965 154.914 103.033 147.694Z" fill="#1F3328"/>
<path d="M95.4922 152.477C91.7114 150.448 86.7136 149.331 81.4133 149.331C76.1129 149.331 71.1151 150.448 67.3415 152.477C63.3375 154.627 61.1338 157.57 61.1338 160.776C61.1338 163.982 63.3375 166.91 67.3415 169.075C71.1151 171.112 76.1129 172.228 81.4133 172.228C86.7136 172.228 91.7114 171.112 95.4922 169.075C99.4891 166.925 101.693 163.99 101.693 160.776C101.693 157.562 99.4891 154.627 95.4922 152.477Z" fill="#AEF2BE"/>
<path opacity="0.4" d="M95.4922 152.477C91.7114 150.448 86.7136 149.331 81.4133 149.331C76.1129 149.331 71.1151 150.448 67.3415 152.477C63.3375 154.627 61.1338 157.57 61.1338 160.776C61.1338 163.982 63.3375 166.91 67.3415 169.075C71.1151 171.112 76.1129 172.228 81.4133 172.228C86.7136 172.228 91.7114 171.112 95.4922 169.075C99.4891 166.925 101.693 163.99 101.693 160.776C101.693 157.562 99.4891 154.627 95.4922 152.477Z" fill="#1F3328"/>
<path d="M102.362 148.901C96.7882 145.529 89.349 143.665 81.413 143.665C73.4769 143.665 66.0377 145.529 60.4638 148.901C55.113 152.13 52.1748 156.34 52.1748 160.768C52.1748 165.197 55.113 169.399 60.4638 172.636C66.0377 176.001 73.4769 177.864 81.413 177.864C89.349 177.864 96.7882 176.001 102.362 172.636C107.706 169.399 110.651 165.189 110.651 160.768C110.651 156.347 107.706 152.13 102.362 148.901ZM95.4919 169.03C91.7111 171.067 86.7133 172.183 81.413 172.183C76.1126 172.183 71.1148 171.067 67.3412 169.03C63.3372 166.879 61.1335 163.945 61.1335 160.731C61.1335 157.517 63.3372 154.59 67.3412 152.432C71.1148 150.403 76.1126 149.286 81.413 149.286C86.7133 149.286 91.7111 150.403 95.4919 152.432C99.4888 154.582 101.692 157.524 101.692 160.731C101.692 163.937 99.4888 166.902 95.4919 169.03Z" fill="#AEF2BE"/>
<path opacity="0.3" d="M102.362 148.901C96.7882 145.529 89.349 143.665 81.413 143.665C73.4769 143.665 66.0377 145.529 60.4638 148.901C55.113 152.13 52.1748 156.34 52.1748 160.768C52.1748 165.197 55.113 169.399 60.4638 172.636C66.0377 176.001 73.4769 177.864 81.413 177.864C89.349 177.864 96.7882 176.001 102.362 172.636C107.706 169.399 110.651 165.189 110.651 160.768C110.651 156.347 107.706 152.13 102.362 148.901ZM95.4919 169.03C91.7111 171.067 86.7133 172.183 81.413 172.183C76.1126 172.183 71.1148 171.067 67.3412 169.03C63.3372 166.879 61.1335 163.945 61.1335 160.731C61.1335 157.517 63.3372 154.59 67.3412 152.432C71.1148 150.403 76.1126 149.286 81.413 149.286C86.7133 149.286 91.7111 150.403 95.4919 152.432C99.4888 154.582 101.692 157.524 101.692 160.731C101.692 163.937 99.4888 166.902 95.4919 169.03Z" fill="white"/>
<path opacity="0.2" d="M95.0099 168.071C102.521 164.035 102.521 157.509 95.0099 153.458C87.4987 149.407 75.3282 149.422 67.817 153.458C60.3058 157.494 60.3058 164.02 67.817 168.071C75.3282 172.123 87.4987 172.108 95.0099 168.071Z" fill="#1F3328"/>
<path d="M95.0099 168.071C102.521 164.035 102.521 157.509 95.0099 153.458C87.4987 149.407 75.3282 149.422 67.817 153.458C60.3058 157.494 60.3058 164.02 67.817 168.071C75.3282 172.123 87.4987 172.108 95.0099 168.071Z" fill="#AEF2BE"/>
<path opacity="0.45" d="M95.0099 168.071C102.521 164.035 102.521 157.509 95.0099 153.458C87.4987 149.407 75.3282 149.422 67.817 153.458C60.3058 157.494 60.3058 164.02 67.817 168.071C75.3282 172.123 87.4987 172.108 95.0099 168.071Z" fill="#1F3328"/>
<path d="M95.0101 156.204C87.4989 152.168 75.3283 152.168 67.8171 156.204C64.7133 157.871 62.8985 159.976 62.3584 162.141C62.8985 164.314 64.7133 166.412 67.8171 168.079C75.3283 172.115 87.4989 172.115 95.0101 168.079C98.1139 166.412 99.9287 164.307 100.469 162.141C99.9287 159.976 98.1139 157.864 95.0101 156.204Z" fill="#AEF2BE"/>
<path opacity="0.3" d="M95.0101 156.204C87.4989 152.168 75.3283 152.168 67.8171 156.204C64.7133 157.871 62.8985 159.976 62.3584 162.141C62.8985 164.314 64.7133 166.412 67.8171 168.079C75.3283 172.115 87.4989 172.115 95.0101 168.079C98.1139 166.412 99.9287 164.307 100.469 162.141C99.9287 159.976 98.1139 157.864 95.0101 156.204Z" fill="#1F3328"/>
<path d="M83.235 153.616V156.566L82.27 157.63L80.4912 159.584V156.513L83.235 153.616Z" fill="#AEF2BE"/>
<path opacity="0.3" d="M83.235 153.616V156.566L82.27 157.63L80.4912 159.584V156.513L83.235 153.616Z" fill="#1F3328"/>
<path d="M80.4914 156.506V158.249C79.6051 158.608 78.689 158.881 77.7548 159.063C77.3647 159.133 76.9651 159.118 76.581 159.018C76.3874 158.962 76.2011 158.881 76.0264 158.777C75.3495 158.354 75.2343 157.721 76.5305 156.943C77.1145 156.557 77.7754 156.317 78.4623 156.241C79.1491 156.165 79.8434 156.256 80.4914 156.506Z" fill="#AEF2BE"/>
<path opacity="0.45" d="M80.4914 156.506V158.249C79.6051 158.608 78.689 158.881 77.7548 159.063C77.3647 159.133 76.9651 159.118 76.581 159.018C76.3874 158.962 76.2011 158.881 76.0264 158.777C75.3495 158.354 75.2343 157.721 76.5305 156.943C77.1145 156.557 77.7754 156.317 78.4623 156.241C79.1491 156.165 79.8434 156.256 80.4914 156.506Z" fill="#1F3328"/>
<path d="M93.2522 164.895V167.445L90.1699 169.309L87.8871 167.928C85.1118 169.282 81.9379 169.431 79.058 168.343V165.793L80.4983 164.337L79.058 164.744C77.9159 165.087 76.7205 165.19 75.5404 165.047C74.3602 164.905 73.2185 164.52 72.1806 163.914C70.7979 163.085 70.1569 162.164 70.1569 161.229V158.747L70.409 157.66L69.5664 157.147V154.597L71.8493 155.978C70.7331 156.883 70.1425 157.811 70.1569 158.716C70.1569 159.629 70.8339 160.52 72.1806 161.334C75.1764 163.152 78.1506 162.557 80.8728 161.636C83.4005 160.776 85.2441 159.758 86.706 160.64C87.6134 161.191 87.3397 161.855 86.3171 162.474C85.66 162.848 84.9319 163.066 84.1849 163.112C83.4379 163.158 82.6905 163.03 81.9962 162.738L79.0796 165.755C79.6041 165.965 80.1434 166.132 80.6927 166.253C83.1258 166.731 85.6403 166.412 87.8943 165.34L90.1771 166.721L93.2522 164.895Z" fill="#AEF2BE"/>
<path opacity="0.2" d="M70.1572 158.716C70.1572 159.629 70.8342 160.52 72.1809 161.334C75.1767 163.152 78.1509 162.557 80.8731 161.636C83.4008 160.776 85.2444 159.758 86.7063 160.64C87.6137 161.191 87.34 161.855 86.3174 162.474C85.6603 162.848 84.9322 163.066 84.1852 163.112C83.4382 163.158 82.6908 163.03 81.9965 162.738L79.0799 165.755C79.6044 165.965 80.1437 166.132 80.693 166.253C83.1261 166.731 85.6406 166.412 87.8946 165.34L90.1774 166.721L93.2597 164.858V167.408L90.1774 169.271L87.8946 167.89C85.1193 169.244 81.9454 169.394 79.0655 168.305V165.755L80.5058 164.299L79.0655 164.707C77.9234 165.049 76.728 165.152 75.5479 165.01C74.3677 164.867 73.226 164.482 72.1881 163.877C70.8054 163.047 70.1644 162.126 70.1644 161.191V158.709L70.4165 157.622" fill="#1F3328"/>
<path opacity="0.45" d="M69.5664 154.597V157.147L70.409 157.66C70.765 156.993 71.2567 156.416 71.8493 155.97L69.5664 154.597Z" fill="#1F3328"/>
<path d="M92.7411 163.228C92.7471 163.645 92.6686 164.059 92.5106 164.443L90.9551 163.515C91.4207 163.294 91.8255 162.953 92.1315 162.525C92.4375 162.096 92.6348 161.593 92.705 161.063C92.7338 161.757 92.7411 163.16 92.7411 163.228Z" fill="#AEF2BE"/>
<g opacity="0.3">
<path d="M92.7411 163.228C92.7471 163.645 92.6686 164.059 92.5106 164.443L90.9551 163.515C91.4207 163.294 91.8255 162.953 92.1315 162.525C92.4375 162.096 92.6348 161.593 92.705 161.063C92.7338 161.757 92.7411 163.16 92.7411 163.228Z" fill="#1F3328"/>
</g>
<path d="M92.7409 164.586L90.9549 163.515C91.476 163.266 91.9188 162.868 92.2313 162.365C92.5438 161.863 92.7131 161.278 92.7193 160.678C92.7193 160.595 92.7193 160.512 92.7193 160.429C92.6473 159.554 91.9991 158.694 90.7533 157.924C89.5036 157.178 88.087 156.792 86.6484 156.808H86.2595H85.8922H85.5682H85.4385C85.3584 156.812 85.2788 156.825 85.2009 156.845C84.5278 156.944 83.8615 157.087 83.2061 157.275C82.8892 157.366 82.5795 157.457 82.2699 157.562L80.9808 158L80.4911 158.181C79.6051 158.541 78.6889 158.814 77.7545 158.996C77.3644 159.065 76.9648 159.05 76.5807 158.95C76.3896 158.893 76.2058 158.812 76.0334 158.709C75.3132 158.294 75.234 157.66 76.5231 156.876C77.1089 156.49 77.7713 156.251 78.4593 156.177C79.1473 156.102 79.8424 156.194 80.4911 156.446L83.2349 153.549C80.5131 152.649 77.5719 152.818 74.9603 154.024L72.6775 152.651L69.5664 154.529L71.8493 155.91C70.7331 156.808 70.1425 157.751 70.1569 158.649C70.1569 159.569 70.8267 160.452 72.1806 161.274C75.1836 163.085 78.1506 162.489 80.8728 161.568C83.4005 160.701 85.2441 159.682 86.6988 160.565C87.6134 161.116 87.3397 161.779 86.3171 162.398C85.6608 162.775 84.9325 162.995 84.1851 163.041C83.4377 163.086 82.69 162.957 81.9962 162.662L79.0796 165.68C79.602 165.889 80.1389 166.055 80.6855 166.178C81.611 166.379 82.5576 166.453 83.5013 166.397C85.0219 166.289 86.5132 165.907 87.9087 165.265L90.1915 166.653L93.2738 164.782L92.7409 164.586Z" fill="#AEF2BE"/>
<g opacity="0.3">
<path d="M92.7409 164.586L90.9549 163.515C91.476 163.266 91.9188 162.868 92.2313 162.365C92.5438 161.863 92.7131 161.278 92.7193 160.678C92.7193 160.595 92.7193 160.512 92.7193 160.429C92.6473 159.554 91.9991 158.694 90.7533 157.924C89.5036 157.178 88.087 156.792 86.6484 156.808H86.2595H85.8922H85.5682H85.4385C85.3584 156.812 85.2788 156.825 85.2009 156.845C84.5278 156.944 83.8615 157.087 83.2061 157.275C82.8892 157.366 82.5795 157.457 82.2699 157.562L80.9808 158L80.4911 158.181C79.6051 158.541 78.6889 158.814 77.7545 158.996C77.3644 159.065 76.9648 159.05 76.5807 158.95C76.3896 158.893 76.2058 158.812 76.0334 158.709C75.3132 158.294 75.234 157.66 76.5231 156.876C77.1089 156.49 77.7713 156.251 78.4593 156.177C79.1473 156.102 79.8424 156.194 80.4911 156.446L83.2349 153.549C80.5131 152.649 77.5719 152.818 74.9603 154.024L72.6775 152.651L69.5664 154.529L71.8493 155.91C70.7331 156.808 70.1425 157.751 70.1569 158.649C70.1569 159.569 70.8267 160.452 72.1806 161.274C75.1836 163.085 78.1506 162.489 80.8728 161.568C83.4005 160.701 85.2441 159.682 86.6988 160.565C87.6134 161.116 87.3397 161.779 86.3171 162.398C85.6608 162.775 84.9325 162.995 84.1851 163.041C83.4377 163.086 82.69 162.957 81.9962 162.662L79.0796 165.68C79.602 165.889 80.1389 166.055 80.6855 166.178C81.611 166.379 82.5576 166.453 83.5013 166.397C85.0219 166.289 86.5132 165.907 87.9087 165.265L90.1915 166.653L93.2738 164.782L92.7409 164.586Z" fill="white"/>
</g>
<path d="M87.8877 165.378V167.928L90.1706 169.309V166.759L87.8877 165.378Z" fill="#AEF2BE"/>
<path opacity="0.45" d="M87.8877 165.378V167.928L90.1706 169.309V166.759L87.8877 165.378Z" fill="#1F3328"/>
<path opacity="0.5" d="M69.5664 154.597L72.6775 152.719L74.9603 154.092L72.6991 153.103L69.5664 154.597Z" fill="#F5F5F5"/>
<path opacity="0.5" d="M76.5518 156.959C77.1375 156.573 77.8 156.334 78.488 156.26C79.176 156.185 79.8711 156.277 80.5198 156.529L83.2636 153.631L80.491 156.204C79.8268 155.973 79.1176 155.921 78.4291 156.052C77.7405 156.184 77.0949 156.496 76.5518 156.959Z" fill="#F5F5F5"/>
<path opacity="0.5" d="M79.0586 165.793C79.581 166.002 80.1179 166.168 80.6645 166.291C81.59 166.493 82.5366 166.566 83.4803 166.51C82.1189 166.521 80.7701 166.236 79.5195 165.672L81.9752 162.76L79.0586 165.793Z" fill="#F5F5F5"/>
<path opacity="0.5" d="M87.8877 165.378L90.1706 166.457L93.2528 164.895L90.1706 166.759L87.8877 165.378Z" fill="#F5F5F5"/>
<path opacity="0.5" d="M60.7093 149.331C68.7966 144.178 81.4209 143.665 81.4209 143.665C73.4992 143.665 66.0457 145.529 60.4717 148.901C55.121 152.13 52.1827 156.34 52.1827 160.768C52.1755 160.768 52.4636 154.567 60.7093 149.331Z" fill="#F5F5F5"/>
<path opacity="0.5" d="M79.0508 179.199C87.6422 179.599 96.4568 177.811 103.032 173.843C109.859 169.709 112.783 164.103 111.796 158.716C111.796 158.716 113.071 167.498 102.513 173.511C91.9559 179.524 79.0508 179.199 79.0508 179.199Z" fill="#F5F5F5"/>
<path d="M97.7563 134.057C97.5661 133.513 97.5612 132.905 97.7422 132.296C97.9231 131.687 98.2833 131.099 98.7859 130.592C100.12 129.144 101.775 127.922 103.621 127.025C105.466 126.127 107.449 125.579 109.411 125.423C110.122 125.336 110.81 125.412 111.404 125.642C111.998 125.872 112.477 126.248 112.793 126.732L145.637 186.211C146.376 187.431 145.987 189.211 144.3 191.236C142.435 193.271 140.114 194.988 137.525 196.247C134.936 197.507 132.152 198.273 129.4 198.483C126.771 198.569 125.134 197.786 124.607 196.463L97.7563 134.057Z" fill="#455A64"/>
<path d="M109.438 125.388C113.033 125.275 114.086 127.409 111.77 130.183C110.437 131.631 108.781 132.852 106.936 133.75C105.09 134.647 103.107 135.196 101.145 135.351C97.5499 135.464 96.4969 133.329 98.8123 130.556C100.146 129.108 101.802 127.887 103.647 126.989C105.492 126.091 107.476 125.543 109.438 125.388Z" fill="#37474F"/>
<path d="M94.0419 115.586C94.8467 114.704 95.8507 113.96 96.9713 113.415C98.0919 112.87 99.2972 112.539 100.488 112.45C100.919 112.398 101.335 112.445 101.694 112.586C102.053 112.727 102.341 112.957 102.528 113.253L109.794 128.191C109.907 128.521 109.908 128.89 109.798 129.258C109.688 129.627 109.47 129.983 109.166 130.291C108.361 131.173 107.357 131.917 106.236 132.462C105.116 133.008 103.911 133.338 102.72 133.427C102.29 133.48 101.874 133.435 101.514 133.297C101.154 133.159 100.863 132.931 100.672 132.639L93.402 117.692C93.2871 117.361 93.2858 116.99 93.3983 116.62C93.5108 116.25 93.733 115.893 94.0419 115.586Z" fill="#AEF2BE"/>
<path opacity="0.2" d="M94.0419 115.586C94.8467 114.704 95.8507 113.96 96.9713 113.415C98.0919 112.87 99.2972 112.539 100.488 112.45C100.919 112.398 101.335 112.445 101.694 112.586C102.053 112.727 102.341 112.957 102.528 113.253L109.794 128.191C109.907 128.521 109.908 128.89 109.798 129.258C109.688 129.627 109.47 129.983 109.166 130.291C108.361 131.173 107.357 131.917 106.236 132.462C105.116 133.008 103.911 133.338 102.72 133.427C102.29 133.48 101.874 133.435 101.514 133.297C101.154 133.159 100.863 132.931 100.672 132.639L93.402 117.692C93.2871 117.361 93.2858 116.99 93.3983 116.62C93.5108 116.25 93.733 115.893 94.0419 115.586Z" fill="black"/>
<path opacity="0.2" d="M97.4765 125.98L98.2442 125.697L98.6574 125.496C99.138 125.319 99.6125 125.122 100.079 124.907C100.664 124.651 101.24 124.371 101.803 124.069C102.313 123.826 102.813 123.56 103.299 123.273C103.559 123.133 103.812 122.98 104.054 122.814C104.339 122.664 104.614 122.496 104.876 122.312C105.156 122.151 105.427 121.978 105.688 121.792C105.887 121.665 106.08 121.529 106.265 121.387L106.466 121.289L102.547 113.232C102.359 112.937 102.071 112.707 101.713 112.565C101.354 112.424 100.937 112.377 100.507 112.43C100.057 112.459 99.6025 112.532 99.1518 112.646C97.7798 114.964 96.094 117.178 94.1359 119.232L97.4765 125.98Z" fill="black"/>
<path opacity="0.15" d="M109.046 132.508L141.543 193.735C142.568 192.967 143.493 192.105 144.296 191.169C145.983 189.144 146.372 187.364 145.633 186.145L112.793 126.675C112.983 127.219 112.988 127.827 112.807 128.436C112.627 129.045 112.266 129.633 111.764 130.141C110.989 131.029 110.071 131.829 109.046 132.508Z" fill="black"/>
<path d="M121.201 27.0224C120.996 26.5998 120.799 26.1956 120.515 25.8224C120.232 25.4492 120.127 25.0231 119.824 24.6706C119.694 24.4042 119.494 24.1722 119.317 23.9288C118.899 23.28 118.434 22.6541 117.975 22.0708L117.316 21.2555C117.102 20.996 116.89 20.7697 116.685 20.5286C116.09 19.8752 115.496 19.2551 114.869 18.6856C114.562 18.4146 114.271 18.147 113.968 17.8852C113.909 17.8545 113.859 17.8132 113.822 17.7635C113.512 17.5166 113.214 17.264 112.914 17.0688C112.615 16.8736 112.2 16.5302 111.822 16.2937C111.562 16.1061 111.287 15.9324 111 15.7736C110.817 15.6353 110.62 15.511 110.41 15.4015C110.165 15.2591 109.916 15.1076 109.665 14.9801L109.491 14.894C109.272 14.7734 109.029 14.6643 108.798 14.5495C108.567 14.4347 108.493 14.4026 108.345 14.3383C107.271 13.8365 106.132 13.4218 104.939 13.0982L104.347 12.9318C104.175 12.879 104.017 12.8537 103.838 12.8158C103.659 12.7779 103.431 12.7297 103.203 12.6815C102.618 12.5578 102.015 12.4715 101.399 12.4232C101.098 12.3762 100.795 12.3532 100.492 12.3303C100.189 12.3073 99.8857 12.2844 99.5752 12.2764C99.0909 12.2458 98.5998 12.2382 98.1041 12.2535L97.7094 12.2524L88.7304 12.462L88.6242 12.5137C84.2654 12.6536 79.7981 13.7956 75.6782 15.823C69.5862 18.7863 63.4466 23.6926 57.7457 30.5212C38.1743 53.946 31.2311 91.1769 42.1836 113.694C47.6441 124.92 56.5401 130.362 66.499 130.096L66.5699 130.062L75.5679 129.832L75.6506 129.792L75.7792 129.786L75.9196 129.774C76.3461 129.766 76.7763 129.739 77.2084 129.693C77.742 129.649 78.2784 129.581 78.8058 129.495C79.2809 129.435 79.757 129.352 80.2316 129.245C80.478 129.201 80.7241 129.146 80.9687 129.079C81.2364 129.029 81.5036 128.967 81.7693 128.894C82.044 128.829 82.3025 128.76 82.5683 128.676C82.7706 128.632 82.9713 128.572 83.1679 128.498C83.5017 128.404 83.8664 128.283 84.2148 128.159C84.2938 128.133 84.3695 128.096 84.4391 128.05L85.6823 127.604C92.7036 124.871 99.8515 119.576 106.412 111.693C126.003 88.2478 133 50.979 122.052 28.4716C121.791 28.0536 121.52 27.5265 121.201 27.0224ZM64.3998 120.348C61.8882 117.845 59.8596 114.987 58.3696 111.853C47.9936 90.5212 54.9087 53.7129 73.4629 31.4985C76.1487 28.2126 79.303 25.1863 82.8298 22.5118C84.5232 21.2404 86.3499 20.1193 88.2714 19.172C89.2417 18.694 90.2416 18.2799 91.2606 17.9338L91.3315 17.8994C98.3673 19.9981 102.577 26.8227 104.441 30.6535C114.817 51.9851 107.902 88.7934 89.3548 110.993C84.6506 116.689 79.5684 120.888 74.539 123.334C73.5093 123.843 72.4291 124.239 71.3293 124.509C68.611 123.608 66.2525 122.192 64.3998 120.348Z" fill="#37474F"/>
<path opacity="0.25" d="M114.788 30.2555C120.303 41.592 120.939 57.2776 117.547 72.8441C117.381 73.5837 117.21 74.3141 117.028 75.0502C116.846 75.7863 116.731 76.3306 116.505 76.9749C116.136 78.3472 115.758 79.7012 115.323 81.0598C115.124 81.7098 114.913 82.3575 114.692 83.0029C114.459 83.6953 114.206 84.3752 113.963 85.1067C113.501 86.4676 112.968 87.7722 112.427 89.0917C112.078 89.9657 111.697 90.8327 111.311 91.6906C108.446 98.2832 104.518 104.662 99.6551 110.618C98.7247 111.707 97.8738 112.688 96.9695 113.651C94.0545 116.835 90.5848 119.646 86.7279 121.95C86.0786 122.266 85.465 122.655 84.8511 122.954C84.5205 123.114 84.2017 123.269 83.8948 123.419C83.2814 123.696 82.6557 123.944 82.0214 124.16L81.1014 124.459C80.8017 124.554 80.4987 124.633 80.1946 124.696C77.121 125.503 74.0191 125.455 71.3681 124.559C72.4668 124.284 73.5454 123.885 74.5734 123.375C79.5556 120.951 84.6716 116.702 89.3937 111.042C107.964 88.8313 114.862 52.077 104.468 30.7087C102.605 26.8778 98.3973 20.0292 91.3659 17.9396L91.2832 17.9798C97.8568 15.7366 102.97 17.3049 106.795 20.1251C107.882 20.9222 108.874 21.8073 109.761 22.7719C109.807 22.8264 109.856 22.8781 109.91 22.9269C110.008 23.129 110.229 23.2829 110.374 23.462C110.52 23.6412 110.673 23.8054 110.818 23.9845L110.89 24.1315C110.997 24.352 111.206 24.5116 111.344 24.7057C111.894 25.4153 112.387 26.1296 112.839 26.8186C112.946 27.0391 113.045 27.2412 113.143 27.4433C113.241 27.6454 113.295 27.7556 113.366 27.9026L113.46 28.0955C113.541 28.2609 113.617 28.4171 113.697 28.5824L113.764 28.7202C113.862 28.9224 113.961 29.1245 114.055 29.3174C114.444 29.5482 114.623 29.9156 114.788 30.2555Z" fill="black"/>
<path d="M74.7328 129.886L66.4176 130.079C56.4603 130.379 47.6307 124.892 42.188 113.703C37.3039 103.662 36.0001 90.6862 37.767 77.3305L47.2245 77.0244C45.434 90.3916 46.2902 103.437 51.1743 113.478C56.4552 124.485 65.0496 129.938 74.7328 129.886Z" fill="#263238"/>
<path d="M97.7313 12.2076L97.7089 12.1617L88.73 12.3713L88.6237 12.423C84.2556 12.5923 79.7878 13.7657 75.6781 15.823C69.5861 18.7863 63.4465 23.6926 57.7411 30.512C46.8956 43.5124 39.9271 60.7615 37.7123 77.3684L47.1539 77.1495C47.1942 77.2322 47.1281 77.3666 47.1093 77.478C49.4058 60.9791 56.2929 43.7127 66.7599 30.2944C76.2247 18.1473 87.9788 12.3277 98.1142 12.2145L97.7313 12.2076Z" fill="#455A64"/>
<path opacity="0.1" d="M109.964 30.3638C120.34 51.6954 113.425 88.5036 94.8707 110.718C92.1849 114.004 89.0306 117.03 85.5038 119.705C83.8104 120.976 81.9838 122.097 80.0622 123.045C78.092 124.029 75.996 124.725 73.8782 125.098C70.0449 124.461 66.7471 122.808 64.3993 120.348C61.8877 117.845 59.8592 114.987 58.3692 111.853C47.9932 90.5212 54.9083 53.7129 73.4625 31.4986C76.1483 28.2126 79.3026 25.1863 82.8294 22.5119C84.5228 21.2404 86.3494 20.1193 88.271 19.172C90.2413 18.1876 92.3372 17.4915 94.455 17.1183C98.2899 17.7534 101.588 19.4064 103.934 21.8685C106.445 24.372 108.474 27.2298 109.964 30.3638Z" fill="#AEF2BE"/>
<path opacity="0.3" d="M80.0623 123.045C81.9839 122.097 83.8105 120.976 85.5039 119.705C89.0307 117.03 92.185 114.004 94.8708 110.718C113.437 88.4979 120.34 51.6954 109.964 30.3638C108.474 27.2298 106.446 24.372 103.934 21.8685C101.596 19.4097 98.3073 17.7562 94.4831 17.116L94.1641 17.1803L93.2747 17.363L92.7533 17.4916C92.455 17.5686 92.1611 17.6547 91.8599 17.7558L91.3356 17.9086C98.3759 20.0165 102.574 26.8468 104.438 30.6777C114.814 52.0092 107.899 88.8175 89.3634 111.011C84.6592 116.707 79.5726 120.897 74.5431 123.343C73.5151 123.854 72.4365 124.253 71.3379 124.528C72.1228 124.778 72.9486 124.958 73.8043 125.066C75.9436 124.711 78.0654 124.026 80.0623 123.045Z" fill="white"/>
</svg>
